<svg width="46" height="46" viewBox="0 0 46 46" fill="none" xmlns="http://www.w3.org/2000/svg">
<path d="M45.0913 23.206C45.0913 10.7796 35.0178 0.705994 22.5913 0.705994C10.1649 0.705994 0.0913086 10.7796 0.0913086 23.206C0.0913086 35.6325 10.1649 45.706 22.5913 45.706C35.0178 45.706 45.0913 35.6325 45.0913 23.206ZM26.5688 16.5769C27.3011 15.8446 28.4883 15.8446 29.2206 16.5769C29.9526 17.3091 29.9526 18.4962 29.2206 19.2285L25.2431 23.206L29.2203 27.1835C29.9526 27.9158 29.9526 29.103 29.2203 29.8353C28.4883 30.5673 27.3011 30.5673 26.5688 29.8353L22.5913 25.8578L18.6138 29.8353C17.8815 30.5673 16.6944 30.5673 15.9622 29.8353C15.2299 29.103 15.2299 27.9158 15.9622 27.1835L19.9396 23.206L15.9622 19.2285C15.2299 18.4962 15.2299 17.3091 15.9622 16.5769C16.6944 15.8447 17.8815 15.8446 18.6138 16.5769L22.5913 20.5543L26.5688 16.5769Z" fill="black"/>
</svg>
