<svg width="25" height="25" viewBox="0 0 25 25" fill="none" xmlns="http://www.w3.org/2000/svg">
<path d="M5.46891 18.75C4.57104 18.75 3.70995 18.3933 3.07506 17.7584C2.44017 17.1235 2.0835 16.2625 2.0835 15.3646V6.51042C2.0835 5.61255 2.44017 4.75145 3.07506 4.11657C3.70995 3.48168 4.57104 3.125 5.46891 3.125H19.5314C19.976 3.125 20.4162 3.21257 20.827 3.3827C21.2377 3.55283 21.6109 3.8022 21.9253 4.11657C22.2396 4.43093 22.489 4.80414 22.6591 5.21487C22.8293 5.62561 22.9168 6.06584 22.9168 6.51042V15.3646C22.9168 15.8092 22.8293 16.2494 22.6591 16.6601C22.489 17.0709 22.2396 17.4441 21.9253 17.7584C21.6109 18.0728 21.2377 18.3222 20.827 18.4923C20.4162 18.6624 19.976 18.75 19.5314 18.75H13.5543L8.3335 22.6562C8.14004 22.801 7.91012 22.8891 7.66944 22.9107C7.42877 22.9322 7.18685 22.8864 6.97075 22.7783C6.75464 22.6702 6.57288 22.5041 6.44581 22.2986C6.31873 22.093 6.25135 21.8562 6.2512 21.6146V18.75H5.46891ZM13.0356 17.1875H19.5314C20.0149 17.1875 20.4785 16.9954 20.8204 16.6536C21.1623 16.3117 21.3543 15.8481 21.3543 15.3646V6.51042C21.3543 6.02695 21.1623 5.56328 20.8204 5.22142C20.4785 4.87956 20.0149 4.6875 19.5314 4.6875H5.46891C4.98545 4.6875 4.52178 4.87956 4.17992 5.22142C3.83805 5.56328 3.646 6.02695 3.646 6.51042V15.3646C3.646 16.3708 4.46266 17.1875 5.46891 17.1875H7.81162V21.0938L13.0356 17.1875Z" fill="#80A5D6"/>
</svg>
