<svg width="60" height="60" viewBox="0 0 60 60" fill="none" xmlns="http://www.w3.org/2000/svg">
<rect width="60" height="60" rx="30" fill="white"/>
<path d="M41 20V40C41 40.5304 40.7893 41.0391 40.4142 41.4142C40.0391 41.7893 39.5304 42 39 42H34C33.4696 42 32.9609 41.7893 32.5858 41.4142C32.2107 41.0391 32 40.5304 32 40V20C32 19.4696 32.2107 18.9609 32.5858 18.5858C32.9609 18.2107 33.4696 18 34 18H39C39.5304 18 40.0391 18.2107 40.4142 18.5858C40.7893 18.9609 41 19.4696 41 20ZM26 18H21C20.4696 18 19.9609 18.2107 19.5858 18.5858C19.2107 18.9609 19 19.4696 19 20V40C19 40.5304 19.2107 41.0391 19.5858 41.4142C19.9609 41.7893 20.4696 42 21 42H26C26.5304 42 27.0391 41.7893 27.4142 41.4142C27.7893 41.0391 28 40.5304 28 40V20C28 19.4696 27.7893 18.9609 27.4142 18.5858C27.0391 18.2107 26.5304 18 26 18Z" fill="#004AAD"/>
</svg>
