<svg width="60" height="60" viewBox="0 0 60 60" fill="none" xmlns="http://www.w3.org/2000/svg">
<rect width="60" height="60" rx="30" fill="white"/>
<path d="M42 30C42.0008 30.3395 41.9138 30.6735 41.7473 30.9694C41.5808 31.2653 41.3406 31.5132 41.05 31.6887L23.04 42.7062C22.7364 42.8922 22.3886 42.9937 22.0326 43.0003C21.6766 43.0069 21.3253 42.9183 21.015 42.7437C20.7076 42.5719 20.4516 42.3213 20.2732 42.0177C20.0948 41.714 20.0005 41.3684 20 41.0162V18.9837C20.0005 18.6316 20.0948 18.286 20.2732 17.9823C20.4516 17.6787 20.7076 17.4281 21.015 17.2562C21.3253 17.0817 21.6766 16.9931 22.0326 16.9997C22.3886 17.0063 22.7364 17.1078 23.04 17.2937L41.05 28.3112C41.3406 28.4868 41.5808 28.7346 41.7473 29.0306C41.9138 29.3265 42.0008 29.6605 42 30Z" fill="#004AAD"/>
</svg>
