<svg width="60" height="60" viewBox="0 0 60 60" fill="none" xmlns="http://www.w3.org/2000/svg">
<path d="M60 30C60 46.5685 46.5685 60 30 60C13.4315 60 0 46.5685 0 30C0 13.4315 13.4315 0 30 0C46.5685 0 60 13.4315 60 30Z" fill="white"/>
<path d="M41 30.0006C41.0008 30.3402 40.9138 30.6741 40.7473 30.9701C40.5808 31.266 40.3406 31.5138 40.05 31.6894L22.04 42.7069C21.7364 42.8928 21.3886 42.9943 21.0326 43.0009C20.6766 43.0075 20.3253 42.9189 20.015 42.7444C19.7076 42.5725 19.4516 42.3219 19.2732 42.0183C19.0948 41.7147 19.0005 41.369 19 41.0169V18.9844C19.0005 18.6322 19.0948 18.2866 19.2732 17.983C19.4516 17.6793 19.7076 17.4287 20.015 17.2569C20.3253 17.0823 20.6766 16.9938 21.0326 17.0003C21.3886 17.0069 21.7364 17.1084 22.04 17.2944L40.05 28.3119C40.3406 28.4875 40.5808 28.7353 40.7473 29.0312C40.9138 29.3271 41.0008 29.6611 41 30.0006Z" fill="#004AAD"/>
</svg>
