<svg width="25" height="25" viewBox="0 0 25 25" fill="none" xmlns="http://www.w3.org/2000/svg">
<path d="M6.09391 17.8124C6.97933 17.1353 7.96891 16.6013 9.06266 16.2103C10.1564 15.8194 11.3022 15.6242 12.5002 15.6249C13.6981 15.6249 14.8439 15.8204 15.9377 16.2114C17.0314 16.6024 18.021 17.136 18.9064 17.8124C19.5141 17.1006 19.9873 16.2933 20.3262 15.3905C20.6651 14.4878 20.8342 13.5242 20.8335 12.4999C20.8335 10.1909 20.022 8.22457 18.3991 6.60096C16.7762 4.97735 14.8099 4.16589 12.5002 4.16659C10.1911 4.16659 8.22482 4.97804 6.6012 6.60096C4.97759 8.22388 4.16614 10.1902 4.16683 12.4999C4.16683 13.5242 4.33627 14.4878 4.67516 15.3905C5.01405 16.2933 5.48697 17.1006 6.09391 17.8124ZM12.5002 13.5416C11.4759 13.5416 10.612 13.1902 9.9085 12.4874C9.20502 11.7846 8.85364 10.9208 8.85433 9.89575C8.85433 8.87145 9.20572 8.00756 9.9085 7.30409C10.6113 6.60061 11.4752 6.24922 12.5002 6.24992C13.5245 6.24992 14.3884 6.60131 15.0918 7.30409C15.7953 8.00686 16.1467 8.87075 16.146 9.89575C16.146 10.9201 15.7946 11.7839 15.0918 12.4874C14.3891 13.1909 13.5252 13.5423 12.5002 13.5416ZM12.5002 22.9166C11.0592 22.9166 9.70502 22.643 8.43766 22.0958C7.1703 21.5485 6.06787 20.8065 5.13037 19.8697C4.19287 18.9322 3.45086 17.8298 2.90433 16.5624C2.3578 15.2951 2.08419 13.9409 2.0835 12.4999C2.0835 11.0589 2.35711 9.70478 2.90433 8.43742C3.45155 7.17006 4.19357 6.06763 5.13037 5.13013C6.06787 4.19263 7.1703 3.45061 8.43766 2.90409C9.70502 2.35756 11.0592 2.08395 12.5002 2.08325C13.9411 2.08325 15.2953 2.35686 16.5627 2.90409C17.83 3.45131 18.9325 4.19332 19.87 5.13013C20.8075 6.06763 21.5498 7.17006 22.097 8.43742C22.6443 9.70478 22.9175 11.0589 22.9168 12.4999C22.9168 13.9409 22.6432 15.2951 22.096 16.5624C21.5488 17.8298 20.8068 18.9322 19.87 19.8697C18.9325 20.8072 17.83 21.5496 16.5627 22.0968C15.2953 22.644 13.9411 22.9173 12.5002 22.9166Z" fill="#80A5D6"/>
</svg>
