<svg width="25" height="28" viewBox="0 0 25 28" fill="none" xmlns="http://www.w3.org/2000/svg">
<path d="M23.1776 15.0435C23.7539 15.3818 24.4953 15.1887 24.8335 14.6123C25.1716 14.0359 24.9785 13.2946 24.4021 12.9565L23.1776 15.0435ZM3.53845 2.11827L2.914 3.15473L2.92616 3.16186L3.53845 2.11827ZM1.22663 3.65894L0.0297409 3.83632C0.0415823 3.91618 0.0613766 3.99465 0.0888507 4.07057L1.22663 3.65894ZM3.83003 14.4116C4.05736 15.04 4.75105 15.3651 5.37943 15.1378C6.00782 14.9105 6.33293 14.2167 6.1056 13.5884L3.83003 14.4116ZM24.4021 15.0435C24.9785 14.7054 25.1716 13.9641 24.8335 13.3877C24.4953 12.8114 23.7539 12.6183 23.1776 12.9565L24.4021 15.0435ZM3.53845 25.8818L2.92611 24.838L2.91405 24.8453L3.53845 25.8818ZM1.22663 24.3412L0.0888507 23.9294C0.0613766 24.0054 0.0415823 24.0838 0.0297409 24.1637L1.22663 24.3412ZM6.1056 14.4116C6.33293 13.7833 6.00782 13.0895 5.37943 12.8622C4.75105 12.6349 4.05736 12.96 3.83003 13.5884L6.1056 14.4116ZM23.7898 15.21C24.4581 15.21 24.9998 14.6683 24.9998 14.0001C24.9998 13.3317 24.4581 12.7901 23.7898 12.7901V15.21ZM4.96781 12.7901C4.29957 12.7901 3.75785 13.3317 3.75785 14.0001C3.75785 14.6683 4.29957 15.21 4.96781 15.21V12.7901ZM24.4021 12.9565L4.15073 1.07467L2.92616 3.16186L23.1776 15.0435L24.4021 12.9565ZM4.16285 1.08187C3.25254 0.533435 2.10751 0.559554 1.22316 1.14891L2.56514 3.16262C2.6701 3.09267 2.80596 3.08963 2.914 3.15473L4.16285 1.08187ZM1.22316 1.14891C0.338795 1.73828 -0.126053 2.78505 0.0297409 3.83632L2.42351 3.48156C2.40503 3.35679 2.46018 3.23257 2.56514 3.16262L1.22316 1.14891ZM0.0888507 4.07057L3.83003 14.4116L6.1056 13.5884L2.36442 3.24731L0.0888507 4.07057ZM23.1776 12.9565L2.92611 24.838L4.15073 26.9253L24.4021 15.0435L23.1776 12.9565ZM2.91405 24.8453C2.806 24.9105 2.6701 24.9074 2.56514 24.8374L1.22314 26.8511C2.10751 27.4404 3.25254 27.4666 4.16285 26.9182L2.91405 24.8453ZM2.56514 24.8374C2.46018 24.7675 2.40503 24.6432 2.42351 24.5185L0.0297409 24.1637C-0.126053 25.2149 0.338795 26.2618 1.22314 26.8511L2.56514 24.8374ZM2.36442 24.7527L6.1056 14.4116L3.83003 13.5884L0.0888507 23.9294L2.36442 24.7527ZM23.7898 12.7901H4.96781V15.21H23.7898V12.7901Z" fill="#004AAD"/>
</svg>
