<svg width="21" height="21" viewBox="0 0 21 21" fill="none" xmlns="http://www.w3.org/2000/svg">
<path d="M10.5002 0.083252C16.2533 0.083252 20.9168 4.74679 20.9168 10.4999C20.9168 16.253 16.2533 20.9166 10.5002 20.9166C4.74704 20.9166 0.0834961 16.253 0.0834961 10.4999C0.0834961 4.74679 4.74704 0.083252 10.5002 0.083252ZM10.5002 2.16659C8.29003 2.16659 6.17041 3.04456 4.60761 4.60736C3.0448 6.17017 2.16683 8.28978 2.16683 10.4999C2.16683 12.7101 3.0448 14.8297 4.60761 16.3925C6.17041 17.9553 8.29003 18.8333 10.5002 18.8333C12.7103 18.8333 14.8299 17.9553 16.3927 16.3925C17.9555 14.8297 18.8335 12.7101 18.8335 10.4999C18.8335 8.28978 17.9555 6.17017 16.3927 4.60736C14.8299 3.04456 12.7103 2.16659 10.5002 2.16659ZM10.5002 4.24992C10.7553 4.24995 11.0016 4.34362 11.1922 4.51316C11.3829 4.6827 11.5047 4.91632 11.5345 5.16971L11.5418 5.29159V10.0687L14.3616 12.8885C14.5484 13.0759 14.6569 13.3275 14.665 13.592C14.6731 13.8565 14.5801 14.1142 14.4051 14.3127C14.2301 14.5112 13.986 14.6357 13.7226 14.6608C13.4591 14.6858 13.196 14.6097 12.9866 14.4478L12.8887 14.3614L9.76371 11.2364C9.60181 11.0743 9.49783 10.8635 9.46787 10.6364L9.4585 10.4999V5.29159C9.4585 5.01532 9.56824 4.75037 9.76359 4.55502C9.95894 4.35967 10.2239 4.24992 10.5002 4.24992Z" fill="#80A5D6"/>
</svg>
