<svg width="173" height="100" viewBox="0 0 173 100" fill="none" xmlns="http://www.w3.org/2000/svg">
<path d="M12.4125 59.4009C0.814476 66.1646 2.58855 80.4936 4.09651 87.0068C5.60447 92.9689 13.4326 95.3988 16.6924 95.6743C67.8523 97.8287 144.736 96.7515 154.316 95.9499C154.56 95.9499 156.334 95.6743 158.108 95.3988C164.406 94.3216 168.442 88.3595 168.442 87.8335C171.458 79.1659 170.216 66.9913 163.652 61.5803C154.679 56.4486 161.124 59.9521 161.124 59.426C161.368 58.6244 161.368 57.2716 161.368 57.7977C161.124 59.426 163.386 46.1742 157.842 39.661C154.316 35.6028 149.016 32.0957 143.716 30.4674C142.962 30.1918 143.206 29.3902 142.962 28.313C141.964 22.6265 132.628 14.5101 123.802 14.5101C113.224 14.5101 116.24 17.2156 114.732 16.1384C112.958 14.5101 111.45 12.6313 109.942 11.2786C102.89 4.79042 90.0282 1.80939 81.9561 3.43768C81.9561 3.43768 68.0962 3.9888 59.0262 16.4139C58.7823 15.6123 53.7262 14.5101 50.9542 14.5101C43.1483 14.2345 35.8302 19.6455 33.0582 23.4281C31.5503 25.5825 30.5302 28.288 30.2863 29.6407C30.2863 30.7179 28.5122 30.9934 28.2683 31.269C23.7222 33.4234 18.1782 34.5256 13.8983 42.0909C11.6363 46.4247 11.8803 52.9128 12.1242 58.3238C19.8631 72.1516 12.1242 58.3238 12.3681 59.4009H12.4125Z" fill="#FF90A9" stroke="#FF90A9" stroke-width="5" stroke-miterlimit="10"/>
<path d="M46.8606 31.8443C46.8434 29.4507 52.4026 23.5771 60.0787 23.8657C67.3417 24.1373 73.159 30.3844 72.4534 32.0989C72.1952 32.744 71.6789 32.9986 70.9216 32.9137C68.7014 32.71 67.7204 30.5371 65.7411 29.0093C62.6259 26.5988 57.1012 26.463 54.0893 28.6359C51.5248 30.4862 50.5438 33.3042 48.1342 33.1853C47.0327 33.1344 46.8606 32.8288 46.8606 31.8443Z" fill="#E84A89" stroke="#E84A89" stroke-miterlimit="10"/>
<path d="M98.0916 31.8378C98.0744 29.4613 103.634 23.5707 111.31 23.8593C118.573 24.1309 124.39 30.3779 123.684 32.0925C123.426 32.7375 122.91 32.9922 122.153 32.9073C119.932 32.7036 118.951 30.5307 116.972 29.0029C113.857 26.5924 108.332 26.4566 105.32 28.6294C102.756 30.4798 101.775 33.2977 99.3652 33.1789C98.2637 33.128 98.0916 32.8224 98.0916 31.8378Z" fill="#E84A89" stroke="#E84A89" stroke-miterlimit="10"/>
<path d="M53.7213 74.858C63.1184 74.858 70.7362 67.1112 70.7362 57.555C70.7362 47.9988 63.1184 40.252 53.7213 40.252C44.3242 40.252 36.7063 47.9988 36.7063 57.555C36.7063 67.1112 44.3242 74.858 53.7213 74.858Z" fill="white"/>
<path d="M57.9798 71.2584C65.0413 71.2584 70.7658 65.0555 70.7658 57.4039C70.7658 49.7523 65.0413 43.5494 57.9798 43.5494C50.9183 43.5494 45.1938 49.7523 45.1938 57.4039C45.1938 65.0555 50.9183 71.2584 57.9798 71.2584Z" fill="#373D54"/>
<path d="M119.964 74.858C129.362 74.858 136.979 67.1112 136.979 57.555C136.979 47.9988 129.362 40.252 119.964 40.252C110.567 40.252 102.949 47.9988 102.949 57.555C102.949 67.1112 110.567 74.858 119.964 74.858Z" fill="white"/>
<path d="M115.516 71.2584C122.578 71.2584 128.302 65.0555 128.302 57.4039C128.302 49.7523 122.578 43.5494 115.516 43.5494C108.455 43.5494 102.73 49.7523 102.73 57.4039C102.73 65.0555 108.455 71.2584 115.516 71.2584Z" fill="#373D54"/>
<path d="M102.79 73.5708C102.79 82.8571 95.6178 96.8748 86.7779 96.8748C77.9379 96.8748 70.7659 82.8571 70.7659 73.5708C70.7659 64.2845 77.9379 72.8362 86.7779 72.8362C95.6178 72.8362 102.79 64.2551 102.79 73.5708Z" fill="#E84A89"/>
</svg>
