<svg width="173" height="100" viewBox="0 0 173 100" fill="none" xmlns="http://www.w3.org/2000/svg">
<path d="M12.4125 59.401C0.814476 66.1646 2.58855 80.4935 4.09651 87.0066C5.60447 92.9687 13.4326 95.3985 16.6924 95.6741C67.8523 97.8284 144.736 96.7513 154.316 95.9497C154.56 95.9497 156.334 95.6741 158.108 95.3986C164.406 94.3214 168.442 88.3594 168.442 87.8333C171.458 79.1658 170.216 66.9913 163.652 61.5804C154.679 56.4487 161.124 59.9521 161.124 59.426C161.368 58.6244 161.368 57.2717 161.368 57.7978C161.124 59.426 163.386 46.1743 157.842 39.6612C154.316 35.603 149.016 32.0959 143.716 30.4677C142.962 30.1921 143.206 29.3905 142.962 28.3133C141.964 22.6269 132.628 14.5105 123.802 14.5105C113.224 14.5105 116.24 17.2159 114.732 16.1388C112.958 14.5105 111.45 12.6317 109.942 11.279C102.89 4.7909 90.0282 1.80989 81.9561 3.43817C81.9561 3.43817 68.0962 3.98928 59.0262 16.4143C58.7823 15.6127 53.7262 14.5105 50.9542 14.5105C43.1483 14.2349 35.8302 19.6458 33.0582 23.4285C31.5503 25.5828 30.5302 28.2883 30.2863 29.641C30.2863 30.7182 28.5122 30.9937 28.2683 31.2693C23.7222 33.4236 18.1782 34.5258 13.8983 42.0911C11.6363 46.4248 11.8803 52.9129 12.1242 58.3238C19.8631 72.1516 12.1242 58.3238 12.3681 59.401H12.4125Z" fill="#FF90A9" stroke="#FF90A9" stroke-width="5" stroke-miterlimit="10"/>
<path d="M53.722 74.858C63.1191 74.858 70.737 67.1112 70.737 57.5551C70.737 47.999 63.1191 40.2522 53.722 40.2522C44.3249 40.2522 36.707 47.999 36.707 57.5551C36.707 67.1112 44.3249 74.858 53.722 74.858Z" fill="white"/>
<path d="M57.3899 66.1664C62.8899 66.1664 67.3486 61.453 67.3486 55.6388C67.3486 49.8245 62.8899 45.1111 57.3899 45.1111C51.8898 45.1111 47.4312 49.8245 47.4312 55.6388C47.4312 61.453 51.8898 66.1664 57.3899 66.1664Z" fill="#373D54"/>
<path d="M119.964 74.8584C129.361 74.8584 136.979 67.1116 136.979 57.5555C136.979 47.9993 129.361 40.2526 119.964 40.2526C110.567 40.2526 102.949 47.9993 102.949 57.5555C102.949 67.1116 110.567 74.8584 119.964 74.8584Z" fill="white"/>
<path d="M115.609 66.1669C121.109 66.1669 125.568 61.4535 125.568 55.6392C125.568 49.825 121.109 45.1116 115.609 45.1116C110.109 45.1116 105.65 49.825 105.65 55.6392C105.65 61.4535 110.109 66.1669 115.609 66.1669Z" fill="#373D54"/>
<path d="M105.899 87.573C105.924 85.2328 97.6987 79.4901 86.3407 79.7722C75.5938 80.0378 66.9862 86.1456 68.0303 87.8219C68.4123 88.4526 69.1763 88.7016 70.2968 88.6186C73.582 88.4195 75.0336 86.295 77.9622 84.8012C82.5716 82.4444 90.7464 82.3116 95.203 84.4361C98.9975 86.2452 100.449 89.0004 104.014 88.8842C105.644 88.8344 105.899 88.5356 105.899 87.573Z" fill="#E84A89" stroke="#E84A89" stroke-miterlimit="10"/>
<path d="M101.091 36.8135L130.99 26.0439" stroke="#EA3468" stroke-width="8" stroke-linecap="round"/>
<path d="M71.8237 36.8135L41.9246 26.0439" stroke="#EA3468" stroke-width="8" stroke-linecap="round"/>
</svg>
