<svg width="172" height="100" viewBox="0 0 172 100" fill="none" xmlns="http://www.w3.org/2000/svg">
<path d="M11.9125 59.4009C0.314476 66.1646 2.08855 80.4936 3.59651 87.0068C5.10447 92.9689 12.9326 95.3988 16.1924 95.6743C67.3523 97.8287 144.236 96.7515 153.816 95.9499C154.06 95.9499 155.834 95.6743 157.608 95.3988C163.906 94.3216 167.942 88.3595 167.942 87.8335C170.958 79.1659 169.716 66.9913 163.152 61.5803C154.179 56.4486 160.624 59.9521 160.624 59.426C160.868 58.6244 160.868 57.2716 160.868 57.7977C160.624 59.426 162.886 46.1742 157.342 39.661C153.816 35.6028 148.516 32.0957 143.216 30.4674C142.462 30.1918 142.706 29.3902 142.462 28.313C141.464 22.6265 132.128 14.5101 123.302 14.5101C112.724 14.5101 115.74 17.2156 114.232 16.1384C112.458 14.5101 110.95 12.6313 109.442 11.2786C102.39 4.79042 89.5282 1.80939 81.4561 3.43768C81.4561 3.43768 67.5962 3.9888 58.5262 16.4139C58.2823 15.6123 53.2262 14.5101 50.4542 14.5101C42.6483 14.2345 35.3302 19.6455 32.5582 23.4281C31.0503 25.5825 30.0302 28.288 29.7863 29.6407C29.7863 30.7179 28.0122 30.9934 27.7683 31.269C23.2222 33.4234 17.6782 34.5256 13.3983 42.0909C11.1363 46.4247 11.3803 52.9128 11.6242 58.3238C19.3631 72.1516 11.6242 58.3238 11.8681 59.4009H11.9125Z" fill="#FF90A9" stroke="#FF90A9" stroke-width="5" stroke-miterlimit="10"/>
<path d="M124.209 24.6859C124.226 27.1453 118.667 33.1804 110.991 32.8839C103.728 32.6048 97.9108 26.186 98.6164 24.4243C98.8746 23.7615 99.3909 23.4998 100.148 23.587C102.368 23.7964 103.349 26.029 105.329 27.5988C108.444 30.0756 113.969 30.2152 116.981 27.9825C119.545 26.0813 120.526 23.1859 122.936 23.308C124.037 23.3603 124.209 23.6743 124.209 24.6859Z" fill="#E84A89" stroke="#E84A89" stroke-miterlimit="10"/>
<path d="M72.9777 24.6923C72.995 27.1343 67.4358 33.1868 59.7597 32.8903C52.4967 32.6112 46.6793 26.1924 47.385 24.4307C47.6432 23.7679 48.1595 23.5063 48.9168 23.5935C51.137 23.8028 52.118 26.0354 54.0973 27.6052C57.2125 30.0821 62.7372 30.2216 65.7491 27.989C68.3136 26.0877 69.2946 23.1923 71.7041 23.3144C72.8056 23.3667 72.9777 23.6807 72.9777 24.6923Z" fill="#E84A89" stroke="#E84A89" stroke-miterlimit="10"/>
<path d="M53.2218 74.858C62.6189 74.858 70.2367 67.1112 70.2367 57.555C70.2367 47.9988 62.6189 40.252 53.2218 40.252C43.8246 40.252 36.2068 47.9988 36.2068 57.555C36.2068 67.1112 43.8246 74.858 53.2218 74.858Z" fill="white"/>
<path d="M56.8899 66.1664C62.3899 66.1664 66.8486 61.4529 66.8486 55.6386C66.8486 49.8243 62.3899 45.1108 56.8899 45.1108C51.3898 45.1108 46.9312 49.8243 46.9312 55.6386C46.9312 61.4529 51.3898 66.1664 56.8899 66.1664Z" fill="#373D54"/>
<path d="M119.465 74.858C128.862 74.858 136.48 67.1112 136.48 57.555C136.48 47.9988 128.862 40.252 119.465 40.252C110.068 40.252 102.45 47.9988 102.45 57.555C102.45 67.1112 110.068 74.858 119.465 74.858Z" fill="white"/>
<path d="M115.11 66.1664C120.61 66.1664 125.069 61.4529 125.069 55.6386C125.069 49.8243 120.61 45.1108 115.11 45.1108C109.61 45.1108 105.151 49.8243 105.151 55.6386C105.151 61.4529 109.61 66.1664 115.11 66.1664Z" fill="#373D54"/>
<path d="M99.1128 82.8462C99.13 80.3868 93.5708 74.3517 85.8947 74.6482C78.6317 74.9273 72.8143 81.3461 73.52 83.1078C73.7782 83.7706 74.2945 84.0323 75.0518 83.9451C77.272 83.7358 78.253 81.5031 80.2323 79.9333C83.3475 77.4565 88.8722 77.3169 91.8841 79.5496C94.4486 81.4508 95.4296 84.3462 97.8391 84.2241C98.9406 84.1718 99.1128 83.8579 99.1128 82.8462Z" fill="#E84A89" stroke="#E84A89" stroke-miterlimit="10"/>
</svg>
