<svg width="505" height="437" viewBox="0 0 505 437" fill="none" xmlns="http://www.w3.org/2000/svg">
<g clip-path="url(#clip0_529_2057)">
<rect width="505" height="437" fill="#FFF1A7"/>
<path d="M248 74.5694C160.4 102.569 46.1667 81.5694 0 67.5694V533.069H505.5V43.5694C460.5 33.0694 357.5 39.5694 248 74.5694Z" fill="#004AAD" stroke="#FEE24F"/>
<path d="M162.797 113.537C145.482 119.225 144.418 138.004 144.883 146.719C145.481 154.729 155.477 159.837 159.818 161.022C228.466 176.846 332.675 195.108 345.821 196.53C346.15 196.593 348.615 196.694 351.081 196.794C359.856 197.025 366.753 190.431 366.88 189.759C373.052 179.444 374.315 163.556 366.748 154.959C355.856 146.104 363.724 152.231 363.851 151.558C364.374 150.595 364.701 148.865 364.574 149.538C363.851 151.558 370.111 135.188 364.189 125.441C360.403 119.351 354.085 113.511 347.312 110.075C346.36 109.53 346.883 108.567 346.814 107.127C346.839 99.5994 336.177 86.8342 324.244 84.5795C309.943 81.8774 313.367 86.108 311.588 84.3451C309.583 81.8094 307.998 79.0214 306.287 76.9061C298.32 66.8068 281.651 59.7086 270.344 59.7291C270.344 59.7291 251.472 56.8934 236.207 70.4675C236.071 69.3799 229.501 66.6787 225.753 65.9705C215.266 63.6241 204.065 68.675 199.403 72.8046C196.843 75.1747 194.81 78.3742 194.154 80.042C193.893 81.4196 191.428 81.3188 191.032 81.609C184.365 83.2029 176.603 83.1964 168.989 91.7786C164.883 96.7434 163.645 105.104 162.667 112.086C169.789 131.748 162.667 112.086 162.737 113.526L162.797 113.537Z" fill="#F59AB4" stroke="#F59AB4" stroke-width="5" stroke-miterlimit="10"/>
<path d="M304.829 149.335C314.553 151.172 322.962 149.879 323.611 146.447C324.259 143.015 316.902 138.743 307.177 136.906C297.453 135.069 289.045 136.362 288.396 139.794C287.748 143.226 295.105 147.497 304.829 149.335Z" fill="#FFF9F9" fill-opacity="0.4"/>
<path d="M280.861 155.858C279.411 163.533 267.383 173.259 255.255 170.968C243.127 168.676 235.476 155.232 236.926 147.557C238.376 139.883 246.881 148.809 259.009 151.101C271.137 153.392 282.316 148.159 280.861 155.858Z" fill="#EA3468"/>
<path d="M217.829 132.897C227.553 134.734 235.962 133.441 236.61 130.009C237.259 126.577 229.901 122.306 220.177 120.468C210.453 118.631 202.044 119.924 201.396 123.356C200.747 126.788 208.105 131.06 217.829 132.897Z" fill="white" fill-opacity="0.4"/>
<path d="M285.503 124.445C286.742 117.675 300.099 102.905 314.008 106.364C327.16 109.641 334.471 129.384 332.293 133.998C331.457 135.7 330.403 136.253 329.025 135.795C325.083 134.456 324.457 127.927 321.643 122.924C317.242 115.009 307.151 112.706 300.525 117.826C294.836 122.172 291.524 129.857 287.195 128.683C285.199 128.147 285.059 127.211 285.579 124.46L285.503 124.445Z" fill="#EA3468" stroke="#EA3468" stroke-miterlimit="10"/>
<path d="M200.019 107.938C201.258 101.167 214.615 86.3978 228.517 89.8951C241.669 93.1715 248.979 112.914 246.802 117.529C245.966 119.231 244.912 119.783 243.534 119.325C239.592 117.987 238.966 111.458 236.152 106.454C231.751 98.5394 221.66 96.237 215.033 101.356C209.345 105.703 206.033 113.387 201.704 112.213C199.708 111.678 199.568 110.741 200.088 107.99L200.019 107.938Z" fill="#EA3468" stroke="#EA3468" stroke-miterlimit="10"/>
<path opacity="0.5" d="M188.5 131.504C104.1 111.504 27 106.838 -1 107.004L-0.5 538.004H505V126.504C411 187.504 294 156.504 188.5 131.504Z" fill="#5586C8"/>
<path d="M109.144 264C108.792 264 108.504 263.888 108.28 263.664C108.056 263.44 107.944 263.152 107.944 262.8V237.072H99.208C98.888 237.072 98.616 236.96 98.392 236.736C98.168 236.512 98.056 236.24 98.056 235.92V231.6C98.056 231.248 98.168 230.96 98.392 230.736C98.616 230.512 98.888 230.4 99.208 230.4H124.36C124.712 230.4 125 230.512 125.224 230.736C125.448 230.96 125.56 231.248 125.56 231.6V235.92C125.56 236.24 125.448 236.512 125.224 236.736C125 236.96 124.712 237.072 124.36 237.072H115.672V262.8C115.672 263.152 115.56 263.44 115.336 263.664C115.112 263.888 114.824 264 114.472 264H109.144ZM127.222 264C126.902 264 126.63 263.888 126.406 263.664C126.182 263.44 126.07 263.152 126.07 262.8V240.24C126.07 239.92 126.182 239.648 126.406 239.424C126.63 239.168 126.902 239.04 127.222 239.04H131.926C132.246 239.04 132.518 239.168 132.742 239.424C132.998 239.648 133.126 239.92 133.126 240.24V242.16C133.926 241.168 134.902 240.4 136.054 239.856C137.238 239.312 138.598 239.04 140.134 239.04H142.198C142.518 239.04 142.79 239.152 143.014 239.376C143.238 239.6 143.35 239.888 143.35 240.24V244.368C143.35 244.72 143.238 245.008 143.014 245.232C142.79 245.456 142.518 245.568 142.198 245.568H137.974C136.566 245.568 135.462 245.968 134.662 246.768C133.862 247.536 133.462 248.64 133.462 250.08V262.8C133.462 263.152 133.35 263.44 133.126 263.664C132.902 263.888 132.614 264 132.262 264H127.222ZM157.064 264.48C153.384 264.48 150.456 263.456 148.28 261.408C146.136 259.36 145 256.384 144.872 252.48C144.872 252.224 144.872 251.888 144.872 251.472C144.872 251.024 144.872 250.672 144.872 250.416C145 247.952 145.56 245.84 146.552 244.08C147.544 242.288 148.936 240.928 150.728 240C152.52 239.04 154.616 238.56 157.016 238.56C159.704 238.56 161.944 239.12 163.736 240.24C165.56 241.328 166.92 242.832 167.816 244.752C168.744 246.64 169.208 248.816 169.208 251.28V252.384C169.208 252.704 169.08 252.976 168.824 253.2C168.6 253.424 168.328 253.536 168.008 253.536H152.312C152.312 253.568 152.312 253.632 152.312 253.728C152.312 253.792 152.312 253.856 152.312 253.92C152.344 254.944 152.536 255.888 152.888 256.752C153.272 257.584 153.8 258.256 154.472 258.768C155.176 259.28 156.008 259.536 156.968 259.536C157.768 259.536 158.424 259.424 158.936 259.2C159.448 258.976 159.864 258.704 160.184 258.384C160.536 258.064 160.792 257.792 160.952 257.568C161.24 257.248 161.464 257.056 161.624 256.992C161.816 256.896 162.104 256.848 162.488 256.848H167.48C167.8 256.848 168.056 256.944 168.248 257.136C168.472 257.296 168.568 257.536 168.536 257.856C168.504 258.368 168.232 259.008 167.72 259.776C167.24 260.512 166.52 261.248 165.56 261.984C164.6 262.688 163.4 263.28 161.96 263.76C160.552 264.24 158.92 264.48 157.064 264.48ZM152.312 249.168H161.72V249.072C161.72 247.92 161.528 246.928 161.144 246.096C160.792 245.232 160.264 244.56 159.56 244.08C158.856 243.6 158.008 243.36 157.016 243.36C156.024 243.36 155.176 243.6 154.472 244.08C153.768 244.56 153.224 245.232 152.84 246.096C152.488 246.928 152.312 247.92 152.312 249.072V249.168ZM180.63 264.48C178.934 264.48 177.414 264.16 176.07 263.52C174.726 262.848 173.654 261.952 172.854 260.832C172.054 259.712 171.654 258.464 171.654 257.088C171.654 254.816 172.566 253.024 174.39 251.712C176.246 250.4 178.678 249.504 181.686 249.024L187.974 248.112V247.248C187.974 246 187.686 245.04 187.11 244.368C186.534 243.696 185.526 243.36 184.086 243.36C183.03 243.36 182.182 243.568 181.542 243.984C180.902 244.4 180.406 244.944 180.054 245.616C179.798 246.032 179.43 246.24 178.95 246.24H174.39C174.038 246.24 173.766 246.144 173.574 245.952C173.382 245.728 173.302 245.472 173.334 245.184C173.334 244.64 173.542 244 173.958 243.264C174.374 242.528 175.014 241.808 175.878 241.104C176.742 240.368 177.846 239.76 179.19 239.28C180.534 238.8 182.182 238.56 184.134 238.56C186.15 238.56 187.878 238.8 189.318 239.28C190.758 239.76 191.91 240.432 192.774 241.296C193.638 242.16 194.278 243.168 194.694 244.32C195.11 245.44 195.318 246.656 195.318 247.968V262.8C195.318 263.152 195.206 263.44 194.982 263.664C194.758 263.888 194.47 264 194.118 264H189.414C189.094 264 188.822 263.888 188.598 263.664C188.374 263.44 188.262 263.152 188.262 262.8V261.024C187.846 261.632 187.286 262.208 186.582 262.752C185.878 263.264 185.03 263.68 184.038 264C183.078 264.32 181.942 264.48 180.63 264.48ZM182.55 259.488C183.606 259.488 184.55 259.264 185.382 258.816C186.214 258.368 186.87 257.68 187.35 256.752C187.83 255.824 188.07 254.656 188.07 253.248V252.432L183.606 253.152C181.878 253.44 180.614 253.872 179.814 254.448C179.014 255.024 178.614 255.728 178.614 256.56C178.614 257.168 178.79 257.696 179.142 258.144C179.526 258.592 180.022 258.928 180.63 259.152C181.238 259.376 181.878 259.488 182.55 259.488ZM212.222 264C210.238 264 208.542 263.68 207.134 263.04C205.726 262.368 204.654 261.344 203.918 259.968C203.214 258.592 202.862 256.864 202.862 254.784V244.704H199.118C198.766 244.704 198.478 244.592 198.254 244.368C198.03 244.144 197.918 243.856 197.918 243.504V240.24C197.918 239.888 198.03 239.6 198.254 239.376C198.478 239.152 198.766 239.04 199.118 239.04H202.862V231.12C202.862 230.768 202.974 230.48 203.198 230.256C203.454 230.032 203.742 229.92 204.062 229.92H208.766C209.118 229.92 209.406 230.032 209.63 230.256C209.854 230.48 209.966 230.768 209.966 231.12V239.04H215.966C216.286 239.04 216.558 239.152 216.782 239.376C217.006 239.6 217.118 239.888 217.118 240.24V243.504C217.118 243.856 217.006 244.144 216.782 244.368C216.558 244.592 216.286 244.704 215.966 244.704H209.966V254.208C209.966 255.424 210.174 256.384 210.59 257.088C211.038 257.76 211.806 258.096 212.894 258.096H216.398C216.718 258.096 216.99 258.208 217.214 258.432C217.438 258.656 217.55 258.928 217.55 259.248V262.8C217.55 263.152 217.438 263.44 217.214 263.664C216.99 263.888 216.718 264 216.398 264H212.222ZM234.186 273.12C233.93 273.12 233.69 273.024 233.466 272.832C233.274 272.64 233.178 272.4 233.178 272.112C233.178 272.048 233.194 271.952 233.226 271.824C233.258 271.728 233.306 271.6 233.37 271.44L237.114 262.464L227.898 240.72C227.802 240.464 227.754 240.256 227.754 240.096C227.786 239.808 227.898 239.568 228.09 239.376C228.282 239.152 228.522 239.04 228.81 239.04H233.466C233.882 239.04 234.186 239.152 234.378 239.376C234.57 239.568 234.714 239.776 234.81 240L240.762 254.88L246.858 240C246.986 239.744 247.146 239.52 247.338 239.328C247.53 239.136 247.834 239.04 248.25 239.04H252.81C253.098 239.04 253.338 239.152 253.53 239.376C253.754 239.568 253.866 239.792 253.866 240.048C253.866 240.208 253.802 240.432 253.674 240.72L240.09 272.16C239.994 272.416 239.834 272.64 239.61 272.832C239.418 273.024 239.114 273.12 238.698 273.12H234.186ZM267.471 264.48C264.815 264.48 262.591 264.048 260.799 263.184C259.007 262.288 257.631 261.024 256.671 259.392C255.743 257.76 255.231 255.856 255.135 253.68C255.103 253.04 255.087 252.32 255.087 251.52C255.087 250.688 255.103 249.968 255.135 249.36C255.231 247.152 255.775 245.248 256.767 243.648C257.759 242.016 259.151 240.768 260.943 239.904C262.735 239.008 264.911 238.56 267.471 238.56C269.999 238.56 272.159 239.008 273.951 239.904C275.743 240.768 277.135 242.016 278.127 243.648C279.119 245.248 279.663 247.152 279.759 249.36C279.823 249.968 279.855 250.688 279.855 251.52C279.855 252.32 279.823 253.04 279.759 253.68C279.663 255.856 279.135 257.76 278.175 259.392C277.247 261.024 275.887 262.288 274.095 263.184C272.303 264.048 270.095 264.48 267.471 264.48ZM267.471 259.2C269.039 259.2 270.223 258.72 271.023 257.76C271.823 256.768 272.255 255.328 272.319 253.44C272.351 252.96 272.367 252.32 272.367 251.52C272.367 250.72 272.351 250.08 272.319 249.6C272.255 247.744 271.823 246.32 271.023 245.328C270.223 244.336 269.039 243.84 267.471 243.84C265.903 243.84 264.703 244.336 263.871 245.328C263.071 246.32 262.639 247.744 262.575 249.6C262.543 250.08 262.527 250.72 262.527 251.52C262.527 252.32 262.543 252.96 262.575 253.44C262.639 255.328 263.071 256.768 263.871 257.76C264.703 258.72 265.903 259.2 267.471 259.2ZM293.323 264.48C291.467 264.48 289.819 264.064 288.379 263.232C286.971 262.368 285.867 261.136 285.067 259.536C284.299 257.904 283.915 255.936 283.915 253.632V240.24C283.915 239.888 284.027 239.6 284.251 239.376C284.475 239.152 284.747 239.04 285.067 239.04H290.155C290.507 239.04 290.795 239.152 291.019 239.376C291.243 239.6 291.355 239.888 291.355 240.24V253.344C291.355 256.928 292.923 258.72 296.059 258.72C297.563 258.72 298.747 258.256 299.611 257.328C300.507 256.368 300.955 255.04 300.955 253.344V240.24C300.955 239.888 301.067 239.6 301.291 239.376C301.515 239.152 301.803 239.04 302.155 239.04H307.243C307.563 239.04 307.835 239.152 308.059 239.376C308.283 239.6 308.395 239.888 308.395 240.24V262.8C308.395 263.152 308.283 263.44 308.059 263.664C307.835 263.888 307.563 264 307.243 264H302.539C302.187 264 301.899 263.888 301.675 263.664C301.451 263.44 301.339 263.152 301.339 262.8V260.928C300.507 262.08 299.435 262.96 298.123 263.568C296.811 264.176 295.211 264.48 293.323 264.48ZM314.868 264C314.548 264 314.276 263.888 314.052 263.664C313.828 263.44 313.716 263.152 313.716 262.8V240.24C313.716 239.92 313.828 239.648 314.052 239.424C314.276 239.168 314.548 239.04 314.868 239.04H319.572C319.892 239.04 320.164 239.168 320.388 239.424C320.644 239.648 320.772 239.92 320.772 240.24V242.16C321.572 241.168 322.548 240.4 323.7 239.856C324.884 239.312 326.244 239.04 327.78 239.04H329.844C330.164 239.04 330.436 239.152 330.66 239.376C330.884 239.6 330.996 239.888 330.996 240.24V244.368C330.996 244.72 330.884 245.008 330.66 245.232C330.436 245.456 330.164 245.568 329.844 245.568H325.62C324.212 245.568 323.108 245.968 322.308 246.768C321.508 247.536 321.108 248.64 321.108 250.08V262.8C321.108 263.152 320.996 263.44 320.772 263.664C320.548 263.888 320.26 264 319.908 264H314.868ZM343.695 264.48C341.711 264.48 339.999 264.256 338.559 263.808C337.151 263.328 335.999 262.752 335.103 262.08C334.239 261.408 333.583 260.736 333.135 260.064C332.719 259.36 332.495 258.768 332.463 258.288C332.431 257.936 332.543 257.648 332.799 257.424C333.055 257.2 333.311 257.088 333.567 257.088H338.223C338.319 257.088 338.415 257.104 338.511 257.136C338.607 257.168 338.703 257.248 338.799 257.376C339.215 257.664 339.647 258 340.095 258.384C340.543 258.736 341.055 259.04 341.631 259.296C342.239 259.552 342.991 259.68 343.887 259.68C344.943 259.68 345.839 259.472 346.575 259.056C347.311 258.608 347.679 257.984 347.679 257.184C347.679 256.608 347.503 256.128 347.151 255.744C346.831 255.36 346.207 255.008 345.279 254.688C344.351 254.368 342.975 254.016 341.151 253.632C339.423 253.248 337.951 252.736 336.735 252.096C335.519 251.456 334.607 250.656 333.999 249.696C333.391 248.704 333.087 247.52 333.087 246.144C333.087 244.896 333.471 243.696 334.239 242.544C335.039 241.392 336.207 240.448 337.743 239.712C339.279 238.944 341.199 238.56 343.503 238.56C345.263 238.56 346.799 238.784 348.111 239.232C349.455 239.648 350.575 240.192 351.471 240.864C352.367 241.504 353.039 242.176 353.487 242.88C353.967 243.552 354.223 244.144 354.255 244.656C354.287 244.976 354.191 245.248 353.967 245.472C353.743 245.696 353.487 245.808 353.199 245.808H348.927C348.767 245.808 348.623 245.792 348.495 245.76C348.367 245.696 348.255 245.616 348.159 245.52C347.775 245.264 347.375 244.976 346.959 244.656C346.575 244.304 346.111 244 345.567 243.744C345.023 243.488 344.319 243.36 343.455 243.36C342.399 243.36 341.583 243.6 341.007 244.08C340.463 244.528 340.191 245.104 340.191 245.808C340.191 246.256 340.335 246.672 340.623 247.056C340.911 247.44 341.503 247.792 342.399 248.112C343.295 248.432 344.655 248.768 346.479 249.12C348.655 249.504 350.383 250.08 351.663 250.848C352.943 251.616 353.855 252.512 354.399 253.536C354.975 254.528 355.263 255.6 355.263 256.752C355.263 258.256 354.815 259.6 353.919 260.784C353.023 261.936 351.711 262.848 349.983 263.52C348.287 264.16 346.191 264.48 343.695 264.48ZM370.287 264.48C366.607 264.48 363.679 263.456 361.503 261.408C359.359 259.36 358.223 256.384 358.095 252.48C358.095 252.224 358.095 251.888 358.095 251.472C358.095 251.024 358.095 250.672 358.095 250.416C358.223 247.952 358.783 245.84 359.775 244.08C360.767 242.288 362.159 240.928 363.951 240C365.743 239.04 367.839 238.56 370.239 238.56C372.927 238.56 375.167 239.12 376.959 240.24C378.783 241.328 380.143 242.832 381.039 244.752C381.967 246.64 382.431 248.816 382.431 251.28V252.384C382.431 252.704 382.303 252.976 382.047 253.2C381.823 253.424 381.551 253.536 381.231 253.536H365.535C365.535 253.568 365.535 253.632 365.535 253.728C365.535 253.792 365.535 253.856 365.535 253.92C365.567 254.944 365.759 255.888 366.111 256.752C366.495 257.584 367.023 258.256 367.695 258.768C368.399 259.28 369.231 259.536 370.191 259.536C370.991 259.536 371.647 259.424 372.159 259.2C372.671 258.976 373.087 258.704 373.407 258.384C373.759 258.064 374.015 257.792 374.175 257.568C374.463 257.248 374.687 257.056 374.847 256.992C375.039 256.896 375.327 256.848 375.711 256.848H380.703C381.023 256.848 381.279 256.944 381.471 257.136C381.695 257.296 381.791 257.536 381.759 257.856C381.727 258.368 381.455 259.008 380.943 259.776C380.463 260.512 379.743 261.248 378.783 261.984C377.823 262.688 376.623 263.28 375.183 263.76C373.775 264.24 372.143 264.48 370.287 264.48ZM365.535 249.168H374.943V249.072C374.943 247.92 374.751 246.928 374.367 246.096C374.015 245.232 373.487 244.56 372.783 244.08C372.079 243.6 371.231 243.36 370.239 243.36C369.247 243.36 368.399 243.6 367.695 244.08C366.991 244.56 366.447 245.232 366.063 246.096C365.711 246.928 365.535 247.92 365.535 249.072V249.168ZM387.709 264C387.357 264 387.069 263.888 386.845 263.664C386.621 263.44 386.509 263.152 386.509 262.8V231.12C386.509 230.768 386.621 230.48 386.845 230.256C387.069 230.032 387.357 229.92 387.709 229.92H392.509C392.829 229.92 393.101 230.032 393.325 230.256C393.549 230.48 393.661 230.768 393.661 231.12V262.8C393.661 263.152 393.549 263.44 393.325 263.664C393.101 263.888 392.829 264 392.509 264H387.709ZM402.944 264C402.592 264 402.304 263.888 402.08 263.664C401.856 263.44 401.744 263.152 401.744 262.8V244.704H398C397.648 244.704 397.36 244.592 397.136 244.368C396.912 244.144 396.8 243.856 396.8 243.504V240.24C396.8 239.888 396.912 239.6 397.136 239.376C397.36 239.152 397.648 239.04 398 239.04H401.744V237.312C401.744 235.264 402.128 233.584 402.896 232.272C403.664 230.96 404.784 230 406.256 229.392C407.728 228.784 409.536 228.48 411.68 228.48H415.184C415.536 228.48 415.824 228.592 416.048 228.816C416.272 229.04 416.384 229.328 416.384 229.68V232.944C416.384 233.296 416.272 233.584 416.048 233.808C415.824 234.032 415.536 234.144 415.184 234.144H411.968C410.784 234.144 409.952 234.432 409.472 235.008C409.024 235.584 408.8 236.432 408.8 237.552V239.04H414.704C415.056 239.04 415.344 239.152 415.568 239.376C415.792 239.6 415.904 239.888 415.904 240.24V243.504C415.904 243.856 415.792 244.144 415.568 244.368C415.344 244.592 415.056 244.704 414.704 244.704H408.8V262.8C408.8 263.152 408.688 263.44 408.464 263.664C408.24 263.888 407.968 264 407.648 264H402.944Z" fill="white"/>
<path d="M82.888 322C82.44 322 82.088 321.888 81.832 321.664C81.608 321.44 81.432 321.152 81.304 320.8L74.44 298.576C74.376 298.416 74.344 298.256 74.344 298.096C74.344 297.808 74.44 297.568 74.632 297.376C74.856 297.152 75.112 297.04 75.4 297.04H79.624C80.04 297.04 80.36 297.152 80.584 297.376C80.808 297.6 80.952 297.808 81.016 298L85.384 312.832L90.04 298.096C90.104 297.872 90.248 297.648 90.472 297.424C90.728 297.168 91.08 297.04 91.528 297.04H94.264C94.712 297.04 95.048 297.168 95.272 297.424C95.528 297.648 95.688 297.872 95.752 298.096L100.408 312.832L104.776 298C104.808 297.808 104.936 297.6 105.16 297.376C105.416 297.152 105.736 297.04 106.12 297.04H110.344C110.632 297.04 110.872 297.152 111.064 297.376C111.288 297.568 111.4 297.808 111.4 298.096C111.4 298.256 111.384 298.416 111.352 298.576L104.44 320.8C104.344 321.152 104.168 321.44 103.912 321.664C103.688 321.888 103.352 322 102.904 322H99.208C98.76 322 98.408 321.888 98.152 321.664C97.896 321.44 97.704 321.152 97.576 320.8L92.92 306.592L88.168 320.8C88.072 321.152 87.896 321.44 87.64 321.664C87.384 321.888 87.032 322 86.584 322H82.888ZM116.253 322C115.933 322 115.661 321.888 115.437 321.664C115.213 321.44 115.101 321.152 115.101 320.8V298.24C115.101 297.888 115.213 297.6 115.437 297.376C115.661 297.152 115.933 297.04 116.253 297.04H121.053C121.405 297.04 121.693 297.152 121.917 297.376C122.141 297.6 122.253 297.888 122.253 298.24V320.8C122.253 321.152 122.141 321.44 121.917 321.664C121.693 321.888 121.405 322 121.053 322H116.253ZM116.109 293.2C115.789 293.2 115.517 293.088 115.293 292.864C115.069 292.64 114.957 292.352 114.957 292V288.16C114.957 287.808 115.069 287.52 115.293 287.296C115.517 287.04 115.789 286.912 116.109 286.912H121.149C121.501 286.912 121.789 287.04 122.013 287.296C122.269 287.52 122.397 287.808 122.397 288.16V292C122.397 292.352 122.269 292.64 122.013 292.864C121.789 293.088 121.501 293.2 121.149 293.2H116.109ZM139.553 322C137.569 322 135.873 321.68 134.465 321.04C133.057 320.368 131.985 319.344 131.249 317.968C130.545 316.592 130.193 314.864 130.193 312.784V302.704H126.449C126.097 302.704 125.809 302.592 125.585 302.368C125.361 302.144 125.249 301.856 125.249 301.504V298.24C125.249 297.888 125.361 297.6 125.585 297.376C125.809 297.152 126.097 297.04 126.449 297.04H130.193V289.12C130.193 288.768 130.305 288.48 130.529 288.256C130.785 288.032 131.073 287.92 131.393 287.92H136.097C136.449 287.92 136.737 288.032 136.961 288.256C137.185 288.48 137.297 288.768 137.297 289.12V297.04H143.297C143.617 297.04 143.889 297.152 144.113 297.376C144.337 297.6 144.449 297.888 144.449 298.24V301.504C144.449 301.856 144.337 302.144 144.113 302.368C143.889 302.592 143.617 302.704 143.297 302.704H137.297V312.208C137.297 313.424 137.505 314.384 137.921 315.088C138.369 315.76 139.137 316.096 140.225 316.096H143.729C144.049 316.096 144.321 316.208 144.545 316.432C144.769 316.656 144.881 316.928 144.881 317.248V320.8C144.881 321.152 144.769 321.44 144.545 321.664C144.321 321.888 144.049 322 143.729 322H139.553ZM149.548 322C149.196 322 148.908 321.888 148.684 321.664C148.46 321.44 148.348 321.152 148.348 320.8V289.12C148.348 288.768 148.46 288.48 148.684 288.256C148.908 288.032 149.196 287.92 149.548 287.92H154.732C155.052 287.92 155.324 288.032 155.548 288.256C155.772 288.48 155.884 288.768 155.884 289.12V299.92C156.748 298.896 157.804 298.08 159.052 297.472C160.3 296.864 161.804 296.56 163.564 296.56C165.452 296.56 167.116 296.992 168.556 297.856C170.028 298.688 171.18 299.92 172.012 301.552C172.844 303.152 173.26 305.104 173.26 307.408V320.8C173.26 321.152 173.148 321.44 172.924 321.664C172.7 321.888 172.412 322 172.06 322H166.828C166.508 322 166.236 321.888 166.012 321.664C165.788 321.44 165.676 321.152 165.676 320.8V307.696C165.676 306 165.26 304.688 164.428 303.76C163.596 302.8 162.412 302.32 160.876 302.32C159.372 302.32 158.156 302.8 157.228 303.76C156.332 304.688 155.884 306 155.884 307.696V320.8C155.884 321.152 155.772 321.44 155.548 321.664C155.324 321.888 155.052 322 154.732 322H149.548Z" fill="white"/>
<path d="M199.87 332.56C197.502 332.56 195.534 332.24 193.966 331.6C192.398 330.992 191.15 330.24 190.222 329.344C189.326 328.48 188.686 327.616 188.302 326.752C187.918 325.888 187.71 325.216 187.678 324.736C187.646 324.384 187.758 324.096 188.014 323.872C188.27 323.648 188.558 323.536 188.878 323.536H194.014C194.302 323.536 194.542 323.6 194.734 323.728C194.958 323.888 195.134 324.144 195.262 324.496C195.422 324.88 195.646 325.28 195.934 325.696C196.222 326.144 196.654 326.512 197.23 326.8C197.838 327.088 198.638 327.232 199.63 327.232C200.75 327.232 201.678 327.072 202.414 326.752C203.15 326.432 203.694 325.888 204.046 325.12C204.43 324.352 204.622 323.312 204.622 322V318.784C203.854 319.616 202.878 320.304 201.694 320.848C200.542 321.392 199.118 321.664 197.422 321.664C195.758 321.664 194.286 321.408 193.006 320.896C191.758 320.352 190.718 319.6 189.886 318.64C189.054 317.648 188.414 316.464 187.966 315.088C187.518 313.712 187.262 312.16 187.198 310.432C187.166 309.568 187.166 308.72 187.198 307.888C187.262 306.224 187.518 304.704 187.966 303.328C188.414 301.952 189.054 300.768 189.886 299.776C190.718 298.752 191.758 297.968 193.006 297.424C194.286 296.848 195.758 296.56 197.422 296.56C199.182 296.56 200.686 296.896 201.934 297.568C203.182 298.24 204.206 299.072 205.006 300.064V298.24C205.006 297.92 205.118 297.648 205.342 297.424C205.566 297.168 205.838 297.04 206.158 297.04H210.862C211.182 297.04 211.454 297.168 211.678 297.424C211.934 297.648 212.062 297.92 212.062 298.24L212.11 321.328C212.11 323.728 211.646 325.76 210.718 327.424C209.79 329.088 208.414 330.352 206.59 331.216C204.798 332.112 202.558 332.56 199.87 332.56ZM199.63 316.048C200.782 316.048 201.71 315.792 202.414 315.28C203.15 314.736 203.694 314.064 204.046 313.264C204.398 312.432 204.59 311.568 204.622 310.672C204.654 310.32 204.67 309.824 204.67 309.184C204.67 308.512 204.654 308 204.622 307.648C204.59 306.752 204.398 305.904 204.046 305.104C203.694 304.272 203.15 303.6 202.414 303.088C201.71 302.576 200.782 302.32 199.63 302.32C198.414 302.32 197.454 302.592 196.75 303.136C196.046 303.648 195.534 304.336 195.214 305.2C194.894 306.064 194.702 307.008 194.638 308.032C194.606 308.8 194.606 309.552 194.638 310.288C194.702 311.344 194.894 312.304 195.214 313.168C195.534 314.032 196.046 314.736 196.75 315.28C197.454 315.792 198.414 316.048 199.63 316.048ZM228.574 322.48C224.894 322.48 221.966 321.456 219.79 319.408C217.646 317.36 216.51 314.384 216.382 310.48C216.382 310.224 216.382 309.888 216.382 309.472C216.382 309.024 216.382 308.672 216.382 308.416C216.51 305.952 217.07 303.84 218.062 302.08C219.054 300.288 220.446 298.928 222.238 298C224.03 297.04 226.126 296.56 228.526 296.56C231.214 296.56 233.454 297.12 235.246 298.24C237.07 299.328 238.43 300.832 239.326 302.752C240.254 304.64 240.718 306.816 240.718 309.28V310.384C240.718 310.704 240.59 310.976 240.334 311.2C240.11 311.424 239.838 311.536 239.518 311.536H223.822C223.822 311.568 223.822 311.632 223.822 311.728C223.822 311.792 223.822 311.856 223.822 311.92C223.854 312.944 224.046 313.888 224.398 314.752C224.782 315.584 225.31 316.256 225.982 316.768C226.686 317.28 227.518 317.536 228.478 317.536C229.278 317.536 229.934 317.424 230.446 317.2C230.958 316.976 231.374 316.704 231.694 316.384C232.046 316.064 232.302 315.792 232.462 315.568C232.75 315.248 232.974 315.056 233.134 314.992C233.326 314.896 233.614 314.848 233.998 314.848H238.99C239.31 314.848 239.566 314.944 239.758 315.136C239.982 315.296 240.078 315.536 240.046 315.856C240.014 316.368 239.742 317.008 239.23 317.776C238.75 318.512 238.03 319.248 237.07 319.984C236.11 320.688 234.91 321.28 233.47 321.76C232.062 322.24 230.43 322.48 228.574 322.48ZM223.822 307.168H233.23V307.072C233.23 305.92 233.038 304.928 232.654 304.096C232.302 303.232 231.774 302.56 231.07 302.08C230.366 301.6 229.518 301.36 228.526 301.36C227.534 301.36 226.686 301.6 225.982 302.08C225.278 302.56 224.734 303.232 224.35 304.096C223.998 304.928 223.822 305.92 223.822 307.072V307.168ZM245.949 322C245.629 322 245.357 321.888 245.133 321.664C244.909 321.44 244.797 321.152 244.797 320.8V298.24C244.797 297.888 244.909 297.6 245.133 297.376C245.357 297.152 245.629 297.04 245.949 297.04H250.653C251.005 297.04 251.293 297.152 251.517 297.376C251.741 297.6 251.853 297.888 251.853 298.24V300.112C252.685 299.088 253.757 298.24 255.069 297.568C256.381 296.896 257.981 296.56 259.869 296.56C261.757 296.56 263.405 296.992 264.813 297.856C266.253 298.688 267.373 299.92 268.173 301.552C269.005 303.152 269.421 305.104 269.421 307.408V320.8C269.421 321.152 269.293 321.44 269.037 321.664C268.813 321.888 268.541 322 268.221 322H263.133C262.781 322 262.493 321.888 262.269 321.664C262.045 321.44 261.933 321.152 261.933 320.8V307.696C261.933 306 261.517 304.688 260.685 303.76C259.885 302.8 258.701 302.32 257.133 302.32C255.629 302.32 254.429 302.8 253.533 303.76C252.637 304.688 252.189 306 252.189 307.696V320.8C252.189 321.152 252.077 321.44 251.853 321.664C251.629 321.888 251.357 322 251.037 322H245.949ZM286.17 322C284.186 322 282.49 321.68 281.082 321.04C279.674 320.368 278.602 319.344 277.866 317.968C277.162 316.592 276.81 314.864 276.81 312.784V302.704H273.066C272.714 302.704 272.426 302.592 272.202 302.368C271.978 302.144 271.866 301.856 271.866 301.504V298.24C271.866 297.888 271.978 297.6 272.202 297.376C272.426 297.152 272.714 297.04 273.066 297.04H276.81V289.12C276.81 288.768 276.922 288.48 277.146 288.256C277.402 288.032 277.69 287.92 278.01 287.92H282.714C283.066 287.92 283.354 288.032 283.578 288.256C283.802 288.48 283.914 288.768 283.914 289.12V297.04H289.914C290.234 297.04 290.506 297.152 290.73 297.376C290.954 297.6 291.066 297.888 291.066 298.24V301.504C291.066 301.856 290.954 302.144 290.73 302.368C290.506 302.592 290.234 302.704 289.914 302.704H283.914V312.208C283.914 313.424 284.122 314.384 284.538 315.088C284.986 315.76 285.754 316.096 286.842 316.096H290.346C290.666 316.096 290.938 316.208 291.162 316.432C291.386 316.656 291.498 316.928 291.498 317.248V320.8C291.498 321.152 291.386 321.44 291.162 321.664C290.938 321.888 290.666 322 290.346 322H286.17ZM296.166 322C295.814 322 295.526 321.888 295.302 321.664C295.078 321.44 294.966 321.152 294.966 320.8V289.12C294.966 288.768 295.078 288.48 295.302 288.256C295.526 288.032 295.814 287.92 296.166 287.92H300.966C301.286 287.92 301.558 288.032 301.782 288.256C302.006 288.48 302.118 288.768 302.118 289.12V320.8C302.118 321.152 302.006 321.44 301.782 321.664C301.558 321.888 301.286 322 300.966 322H296.166ZM318.601 322.48C314.921 322.48 311.993 321.456 309.817 319.408C307.673 317.36 306.537 314.384 306.409 310.48C306.409 310.224 306.409 309.888 306.409 309.472C306.409 309.024 306.409 308.672 306.409 308.416C306.537 305.952 307.097 303.84 308.089 302.08C309.081 300.288 310.473 298.928 312.265 298C314.057 297.04 316.153 296.56 318.553 296.56C321.241 296.56 323.481 297.12 325.273 298.24C327.097 299.328 328.457 300.832 329.353 302.752C330.281 304.64 330.745 306.816 330.745 309.28V310.384C330.745 310.704 330.617 310.976 330.361 311.2C330.137 311.424 329.865 311.536 329.545 311.536H313.849C313.849 311.568 313.849 311.632 313.849 311.728C313.849 311.792 313.849 311.856 313.849 311.92C313.881 312.944 314.073 313.888 314.425 314.752C314.809 315.584 315.337 316.256 316.009 316.768C316.713 317.28 317.545 317.536 318.505 317.536C319.305 317.536 319.961 317.424 320.473 317.2C320.985 316.976 321.401 316.704 321.721 316.384C322.073 316.064 322.329 315.792 322.489 315.568C322.777 315.248 323.001 315.056 323.161 314.992C323.353 314.896 323.641 314.848 324.025 314.848H329.017C329.337 314.848 329.593 314.944 329.785 315.136C330.009 315.296 330.105 315.536 330.073 315.856C330.041 316.368 329.769 317.008 329.257 317.776C328.777 318.512 328.057 319.248 327.097 319.984C326.137 320.688 324.937 321.28 323.497 321.76C322.089 322.24 320.457 322.48 318.601 322.48ZM313.849 307.168H323.257V307.072C323.257 305.92 323.065 304.928 322.681 304.096C322.329 303.232 321.801 302.56 321.097 302.08C320.393 301.6 319.545 301.36 318.553 301.36C317.561 301.36 316.713 301.6 316.009 302.08C315.305 302.56 314.761 303.232 314.377 304.096C314.025 304.928 313.849 305.92 313.849 307.072V307.168ZM335.975 322C335.655 322 335.383 321.888 335.159 321.664C334.935 321.44 334.823 321.152 334.823 320.8V298.24C334.823 297.888 334.935 297.6 335.159 297.376C335.383 297.152 335.655 297.04 335.975 297.04H340.679C341.031 297.04 341.319 297.152 341.543 297.376C341.767 297.6 341.879 297.888 341.879 298.24V300.112C342.711 299.088 343.783 298.24 345.095 297.568C346.407 296.896 348.007 296.56 349.895 296.56C351.783 296.56 353.431 296.992 354.839 297.856C356.279 298.688 357.399 299.92 358.199 301.552C359.031 303.152 359.447 305.104 359.447 307.408V320.8C359.447 321.152 359.319 321.44 359.063 321.664C358.839 321.888 358.567 322 358.247 322H353.159C352.807 322 352.519 321.888 352.295 321.664C352.071 321.44 351.959 321.152 351.959 320.8V307.696C351.959 306 351.543 304.688 350.711 303.76C349.911 302.8 348.727 302.32 347.159 302.32C345.655 302.32 344.455 302.8 343.559 303.76C342.663 304.688 342.215 306 342.215 307.696V320.8C342.215 321.152 342.103 321.44 341.879 321.664C341.655 321.888 341.383 322 341.063 322H335.975ZM375.614 322.48C371.934 322.48 369.006 321.456 366.83 319.408C364.686 317.36 363.55 314.384 363.422 310.48C363.422 310.224 363.422 309.888 363.422 309.472C363.422 309.024 363.422 308.672 363.422 308.416C363.55 305.952 364.11 303.84 365.102 302.08C366.094 300.288 367.486 298.928 369.278 298C371.07 297.04 373.166 296.56 375.566 296.56C378.254 296.56 380.494 297.12 382.286 298.24C384.11 299.328 385.47 300.832 386.366 302.752C387.294 304.64 387.758 306.816 387.758 309.28V310.384C387.758 310.704 387.63 310.976 387.374 311.2C387.15 311.424 386.878 311.536 386.558 311.536H370.862C370.862 311.568 370.862 311.632 370.862 311.728C370.862 311.792 370.862 311.856 370.862 311.92C370.894 312.944 371.086 313.888 371.438 314.752C371.822 315.584 372.35 316.256 373.022 316.768C373.726 317.28 374.558 317.536 375.518 317.536C376.318 317.536 376.974 317.424 377.486 317.2C377.998 316.976 378.414 316.704 378.734 316.384C379.086 316.064 379.342 315.792 379.502 315.568C379.79 315.248 380.014 315.056 380.174 314.992C380.366 314.896 380.654 314.848 381.038 314.848H386.03C386.35 314.848 386.606 314.944 386.798 315.136C387.022 315.296 387.118 315.536 387.086 315.856C387.054 316.368 386.782 317.008 386.27 317.776C385.79 318.512 385.07 319.248 384.11 319.984C383.15 320.688 381.95 321.28 380.51 321.76C379.102 322.24 377.47 322.48 375.614 322.48ZM370.862 307.168H380.27V307.072C380.27 305.92 380.078 304.928 379.694 304.096C379.342 303.232 378.814 302.56 378.11 302.08C377.406 301.6 376.558 301.36 375.566 301.36C374.574 301.36 373.726 301.6 373.022 302.08C372.318 302.56 371.774 303.232 371.39 304.096C371.038 304.928 370.862 305.92 370.862 307.072V307.168ZM401.676 322.48C399.692 322.48 397.98 322.256 396.54 321.808C395.132 321.328 393.98 320.752 393.084 320.08C392.22 319.408 391.564 318.736 391.116 318.064C390.7 317.36 390.476 316.768 390.444 316.288C390.412 315.936 390.524 315.648 390.78 315.424C391.036 315.2 391.292 315.088 391.548 315.088H396.204C396.3 315.088 396.396 315.104 396.492 315.136C396.588 315.168 396.684 315.248 396.78 315.376C397.196 315.664 397.628 316 398.076 316.384C398.524 316.736 399.036 317.04 399.612 317.296C400.22 317.552 400.972 317.68 401.868 317.68C402.924 317.68 403.82 317.472 404.556 317.056C405.292 316.608 405.66 315.984 405.66 315.184C405.66 314.608 405.484 314.128 405.132 313.744C404.812 313.36 404.188 313.008 403.26 312.688C402.332 312.368 400.956 312.016 399.132 311.632C397.404 311.248 395.932 310.736 394.716 310.096C393.5 309.456 392.588 308.656 391.98 307.696C391.372 306.704 391.068 305.52 391.068 304.144C391.068 302.896 391.452 301.696 392.22 300.544C393.02 299.392 394.188 298.448 395.724 297.712C397.26 296.944 399.18 296.56 401.484 296.56C403.244 296.56 404.78 296.784 406.092 297.232C407.436 297.648 408.556 298.192 409.452 298.864C410.348 299.504 411.02 300.176 411.468 300.88C411.948 301.552 412.204 302.144 412.236 302.656C412.268 302.976 412.172 303.248 411.948 303.472C411.724 303.696 411.468 303.808 411.18 303.808H406.908C406.748 303.808 406.604 303.792 406.476 303.76C406.348 303.696 406.236 303.616 406.14 303.52C405.756 303.264 405.356 302.976 404.94 302.656C404.556 302.304 404.092 302 403.548 301.744C403.004 301.488 402.3 301.36 401.436 301.36C400.38 301.36 399.564 301.6 398.988 302.08C398.444 302.528 398.172 303.104 398.172 303.808C398.172 304.256 398.316 304.672 398.604 305.056C398.892 305.44 399.484 305.792 400.38 306.112C401.276 306.432 402.636 306.768 404.46 307.12C406.636 307.504 408.364 308.08 409.644 308.848C410.924 309.616 411.836 310.512 412.38 311.536C412.956 312.528 413.244 313.6 413.244 314.752C413.244 316.256 412.796 317.6 411.9 318.784C411.004 319.936 409.692 320.848 407.964 321.52C406.268 322.16 404.172 322.48 401.676 322.48ZM426.972 322.48C424.988 322.48 423.276 322.256 421.836 321.808C420.428 321.328 419.276 320.752 418.38 320.08C417.516 319.408 416.86 318.736 416.412 318.064C415.996 317.36 415.772 316.768 415.74 316.288C415.708 315.936 415.82 315.648 416.076 315.424C416.332 315.2 416.588 315.088 416.844 315.088H421.5C421.596 315.088 421.692 315.104 421.788 315.136C421.884 315.168 421.98 315.248 422.076 315.376C422.492 315.664 422.924 316 423.372 316.384C423.82 316.736 424.332 317.04 424.908 317.296C425.516 317.552 426.268 317.68 427.164 317.68C428.22 317.68 429.116 317.472 429.852 317.056C430.588 316.608 430.956 315.984 430.956 315.184C430.956 314.608 430.78 314.128 430.428 313.744C430.108 313.36 429.484 313.008 428.556 312.688C427.628 312.368 426.252 312.016 424.428 311.632C422.7 311.248 421.228 310.736 420.012 310.096C418.796 309.456 417.884 308.656 417.276 307.696C416.668 306.704 416.364 305.52 416.364 304.144C416.364 302.896 416.748 301.696 417.516 300.544C418.316 299.392 419.484 298.448 421.02 297.712C422.556 296.944 424.476 296.56 426.78 296.56C428.54 296.56 430.076 296.784 431.388 297.232C432.732 297.648 433.852 298.192 434.748 298.864C435.644 299.504 436.316 300.176 436.764 300.88C437.244 301.552 437.5 302.144 437.532 302.656C437.564 302.976 437.468 303.248 437.244 303.472C437.02 303.696 436.764 303.808 436.476 303.808H432.204C432.044 303.808 431.9 303.792 431.772 303.76C431.644 303.696 431.532 303.616 431.436 303.52C431.052 303.264 430.652 302.976 430.236 302.656C429.852 302.304 429.388 302 428.844 301.744C428.3 301.488 427.596 301.36 426.732 301.36C425.676 301.36 424.86 301.6 424.284 302.08C423.74 302.528 423.468 303.104 423.468 303.808C423.468 304.256 423.612 304.672 423.9 305.056C424.188 305.44 424.78 305.792 425.676 306.112C426.572 306.432 427.932 306.768 429.756 307.12C431.932 307.504 433.66 308.08 434.94 308.848C436.22 309.616 437.132 310.512 437.676 311.536C438.252 312.528 438.54 313.6 438.54 314.752C438.54 316.256 438.092 317.6 437.196 318.784C436.3 319.936 434.988 320.848 433.26 321.52C431.564 322.16 429.468 322.48 426.972 322.48Z" fill="#FEE24F"/>
<path d="M158.868 380.48C157.172 380.48 155.652 380.16 154.308 379.52C152.964 378.848 151.892 377.952 151.092 376.832C150.292 375.712 149.892 374.464 149.892 373.088C149.892 370.816 150.804 369.024 152.628 367.712C154.484 366.4 156.916 365.504 159.924 365.024L166.212 364.112V363.248C166.212 362 165.924 361.04 165.348 360.368C164.772 359.696 163.764 359.36 162.324 359.36C161.268 359.36 160.42 359.568 159.78 359.984C159.14 360.4 158.644 360.944 158.292 361.616C158.036 362.032 157.668 362.24 157.188 362.24H152.628C152.276 362.24 152.004 362.144 151.812 361.952C151.62 361.728 151.54 361.472 151.572 361.184C151.572 360.64 151.78 360 152.196 359.264C152.612 358.528 153.252 357.808 154.116 357.104C154.98 356.368 156.084 355.76 157.428 355.28C158.772 354.8 160.42 354.56 162.372 354.56C164.388 354.56 166.116 354.8 167.556 355.28C168.996 355.76 170.148 356.432 171.012 357.296C171.876 358.16 172.516 359.168 172.932 360.32C173.348 361.44 173.556 362.656 173.556 363.968V378.8C173.556 379.152 173.444 379.44 173.22 379.664C172.996 379.888 172.708 380 172.356 380H167.652C167.332 380 167.06 379.888 166.836 379.664C166.612 379.44 166.5 379.152 166.5 378.8V377.024C166.084 377.632 165.524 378.208 164.82 378.752C164.116 379.264 163.268 379.68 162.276 380C161.316 380.32 160.18 380.48 158.868 380.48ZM160.788 375.488C161.844 375.488 162.788 375.264 163.62 374.816C164.452 374.368 165.108 373.68 165.588 372.752C166.068 371.824 166.308 370.656 166.308 369.248V368.432L161.844 369.152C160.116 369.44 158.852 369.872 158.052 370.448C157.252 371.024 156.852 371.728 156.852 372.56C156.852 373.168 157.028 373.696 157.38 374.144C157.764 374.592 158.26 374.928 158.868 375.152C159.476 375.376 160.116 375.488 160.788 375.488ZM179.8 380C179.48 380 179.208 379.888 178.984 379.664C178.76 379.44 178.648 379.152 178.648 378.8V356.24C178.648 355.888 178.76 355.6 178.984 355.376C179.208 355.152 179.48 355.04 179.8 355.04H184.504C184.856 355.04 185.144 355.152 185.368 355.376C185.592 355.6 185.704 355.888 185.704 356.24V358.112C186.536 357.088 187.608 356.24 188.92 355.568C190.232 354.896 191.832 354.56 193.72 354.56C195.608 354.56 197.256 354.992 198.664 355.856C200.104 356.688 201.224 357.92 202.024 359.552C202.856 361.152 203.272 363.104 203.272 365.408V378.8C203.272 379.152 203.144 379.44 202.888 379.664C202.664 379.888 202.392 380 202.072 380H196.984C196.632 380 196.344 379.888 196.12 379.664C195.896 379.44 195.784 379.152 195.784 378.8V365.696C195.784 364 195.368 362.688 194.536 361.76C193.736 360.8 192.552 360.32 190.984 360.32C189.48 360.32 188.28 360.8 187.384 361.76C186.488 362.688 186.04 364 186.04 365.696V378.8C186.04 379.152 185.928 379.44 185.704 379.664C185.48 379.888 185.208 380 184.888 380H179.8ZM217.567 380.48C215.967 380.48 214.543 380.224 213.295 379.712C212.047 379.168 210.991 378.4 210.127 377.408C209.263 376.384 208.607 375.184 208.159 373.808C207.711 372.4 207.439 370.848 207.343 369.152C207.311 368.544 207.295 368 207.295 367.52C207.295 367.008 207.311 366.464 207.343 365.888C207.407 364.224 207.663 362.704 208.111 361.328C208.591 359.952 209.247 358.768 210.079 357.776C210.943 356.752 211.999 355.968 213.247 355.424C214.527 354.848 215.967 354.56 217.567 354.56C219.231 354.56 220.655 354.848 221.839 355.424C223.023 355.968 223.999 356.688 224.767 357.584V347.12C224.767 346.768 224.879 346.48 225.103 346.256C225.327 346.032 225.615 345.92 225.967 345.92H230.911C231.231 345.92 231.503 346.032 231.727 346.256C231.951 346.48 232.063 346.768 232.063 347.12V378.8C232.063 379.152 231.951 379.44 231.727 379.664C231.503 379.888 231.231 380 230.911 380H226.303C225.983 380 225.711 379.888 225.487 379.664C225.263 379.44 225.151 379.152 225.151 378.8V377.168C224.351 378.128 223.343 378.928 222.127 379.568C220.911 380.176 219.391 380.48 217.567 380.48ZM219.775 374.72C220.959 374.72 221.903 374.448 222.607 373.904C223.343 373.36 223.871 372.672 224.191 371.84C224.543 371.008 224.735 370.112 224.767 369.152C224.831 368.544 224.863 367.936 224.863 367.328C224.863 366.72 224.831 366.128 224.767 365.552C224.735 364.656 224.543 363.824 224.191 363.056C223.839 362.256 223.295 361.6 222.559 361.088C221.855 360.576 220.927 360.32 219.775 360.32C218.559 360.32 217.599 360.592 216.895 361.136C216.191 361.648 215.679 362.336 215.359 363.2C215.071 364.064 214.895 365.008 214.831 366.032C214.735 367.024 214.735 368.016 214.831 369.008C214.895 370.032 215.071 370.976 215.359 371.84C215.679 372.704 216.191 373.408 216.895 373.952C217.599 374.464 218.559 374.72 219.775 374.72ZM258.452 380.48C254.772 380.48 251.844 379.456 249.668 377.408C247.524 375.36 246.388 372.384 246.26 368.48C246.26 368.224 246.26 367.888 246.26 367.472C246.26 367.024 246.26 366.672 246.26 366.416C246.388 363.952 246.948 361.84 247.94 360.08C248.932 358.288 250.324 356.928 252.116 356C253.908 355.04 256.004 354.56 258.404 354.56C261.092 354.56 263.332 355.12 265.124 356.24C266.948 357.328 268.308 358.832 269.204 360.752C270.132 362.64 270.596 364.816 270.596 367.28V368.384C270.596 368.704 270.468 368.976 270.212 369.2C269.988 369.424 269.716 369.536 269.396 369.536H253.7C253.7 369.568 253.7 369.632 253.7 369.728C253.7 369.792 253.7 369.856 253.7 369.92C253.732 370.944 253.924 371.888 254.276 372.752C254.66 373.584 255.188 374.256 255.86 374.768C256.564 375.28 257.396 375.536 258.356 375.536C259.156 375.536 259.812 375.424 260.324 375.2C260.836 374.976 261.252 374.704 261.572 374.384C261.924 374.064 262.18 373.792 262.34 373.568C262.628 373.248 262.852 373.056 263.012 372.992C263.204 372.896 263.492 372.848 263.876 372.848H268.868C269.188 372.848 269.444 372.944 269.636 373.136C269.86 373.296 269.956 373.536 269.924 373.856C269.892 374.368 269.62 375.008 269.108 375.776C268.628 376.512 267.908 377.248 266.948 377.984C265.988 378.688 264.788 379.28 263.348 379.76C261.94 380.24 260.308 380.48 258.452 380.48ZM253.7 365.168H263.108V365.072C263.108 363.92 262.916 362.928 262.532 362.096C262.18 361.232 261.652 360.56 260.948 360.08C260.244 359.6 259.396 359.36 258.404 359.36C257.412 359.36 256.564 359.6 255.86 360.08C255.156 360.56 254.612 361.232 254.228 362.096C253.876 362.928 253.7 363.92 253.7 365.072V365.168ZM282.018 380.48C280.322 380.48 278.802 380.16 277.458 379.52C276.114 378.848 275.042 377.952 274.242 376.832C273.442 375.712 273.042 374.464 273.042 373.088C273.042 370.816 273.954 369.024 275.778 367.712C277.634 366.4 280.066 365.504 283.074 365.024L289.362 364.112V363.248C289.362 362 289.074 361.04 288.498 360.368C287.922 359.696 286.914 359.36 285.474 359.36C284.418 359.36 283.57 359.568 282.93 359.984C282.29 360.4 281.794 360.944 281.442 361.616C281.186 362.032 280.818 362.24 280.338 362.24H275.778C275.426 362.24 275.154 362.144 274.962 361.952C274.77 361.728 274.69 361.472 274.722 361.184C274.722 360.64 274.93 360 275.346 359.264C275.762 358.528 276.402 357.808 277.266 357.104C278.13 356.368 279.234 355.76 280.578 355.28C281.922 354.8 283.57 354.56 285.522 354.56C287.538 354.56 289.266 354.8 290.706 355.28C292.146 355.76 293.298 356.432 294.162 357.296C295.026 358.16 295.666 359.168 296.082 360.32C296.498 361.44 296.706 362.656 296.706 363.968V378.8C296.706 379.152 296.594 379.44 296.37 379.664C296.146 379.888 295.858 380 295.506 380H290.802C290.482 380 290.21 379.888 289.986 379.664C289.762 379.44 289.65 379.152 289.65 378.8V377.024C289.234 377.632 288.674 378.208 287.97 378.752C287.266 379.264 286.418 379.68 285.426 380C284.466 380.32 283.33 380.48 282.018 380.48ZM283.938 375.488C284.994 375.488 285.938 375.264 286.77 374.816C287.602 374.368 288.258 373.68 288.738 372.752C289.218 371.824 289.458 370.656 289.458 369.248V368.432L284.994 369.152C283.266 369.44 282.002 369.872 281.202 370.448C280.402 371.024 280.002 371.728 280.002 372.56C280.002 373.168 280.178 373.696 280.53 374.144C280.914 374.592 281.41 374.928 282.018 375.152C282.626 375.376 283.266 375.488 283.938 375.488ZM311.638 380.48C309.654 380.48 307.942 380.256 306.502 379.808C305.094 379.328 303.942 378.752 303.046 378.08C302.182 377.408 301.526 376.736 301.078 376.064C300.662 375.36 300.438 374.768 300.406 374.288C300.374 373.936 300.486 373.648 300.742 373.424C300.998 373.2 301.254 373.088 301.51 373.088H306.166C306.262 373.088 306.358 373.104 306.454 373.136C306.55 373.168 306.646 373.248 306.742 373.376C307.158 373.664 307.59 374 308.038 374.384C308.486 374.736 308.998 375.04 309.574 375.296C310.182 375.552 310.934 375.68 311.83 375.68C312.886 375.68 313.782 375.472 314.518 375.056C315.254 374.608 315.622 373.984 315.622 373.184C315.622 372.608 315.446 372.128 315.094 371.744C314.774 371.36 314.15 371.008 313.222 370.688C312.294 370.368 310.918 370.016 309.094 369.632C307.366 369.248 305.894 368.736 304.678 368.096C303.462 367.456 302.55 366.656 301.942 365.696C301.334 364.704 301.03 363.52 301.03 362.144C301.03 360.896 301.414 359.696 302.182 358.544C302.982 357.392 304.15 356.448 305.686 355.712C307.222 354.944 309.142 354.56 311.446 354.56C313.206 354.56 314.742 354.784 316.054 355.232C317.398 355.648 318.518 356.192 319.414 356.864C320.31 357.504 320.982 358.176 321.43 358.88C321.91 359.552 322.166 360.144 322.198 360.656C322.23 360.976 322.134 361.248 321.91 361.472C321.686 361.696 321.43 361.808 321.142 361.808H316.87C316.71 361.808 316.566 361.792 316.438 361.76C316.31 361.696 316.198 361.616 316.102 361.52C315.718 361.264 315.318 360.976 314.902 360.656C314.518 360.304 314.054 360 313.51 359.744C312.966 359.488 312.262 359.36 311.398 359.36C310.342 359.36 309.526 359.6 308.95 360.08C308.406 360.528 308.134 361.104 308.134 361.808C308.134 362.256 308.278 362.672 308.566 363.056C308.854 363.44 309.446 363.792 310.342 364.112C311.238 364.432 312.598 364.768 314.422 365.12C316.598 365.504 318.326 366.08 319.606 366.848C320.886 367.616 321.798 368.512 322.342 369.536C322.918 370.528 323.206 371.6 323.206 372.752C323.206 374.256 322.758 375.6 321.862 376.784C320.966 377.936 319.654 378.848 317.926 379.52C316.23 380.16 314.134 380.48 311.638 380.48ZM338.229 380.48C334.549 380.48 331.621 379.456 329.445 377.408C327.301 375.36 326.165 372.384 326.037 368.48C326.037 368.224 326.037 367.888 326.037 367.472C326.037 367.024 326.037 366.672 326.037 366.416C326.165 363.952 326.725 361.84 327.717 360.08C328.709 358.288 330.101 356.928 331.893 356C333.685 355.04 335.781 354.56 338.181 354.56C340.869 354.56 343.109 355.12 344.901 356.24C346.725 357.328 348.085 358.832 348.981 360.752C349.909 362.64 350.373 364.816 350.373 367.28V368.384C350.373 368.704 350.245 368.976 349.989 369.2C349.765 369.424 349.493 369.536 349.173 369.536H333.477C333.477 369.568 333.477 369.632 333.477 369.728C333.477 369.792 333.477 369.856 333.477 369.92C333.509 370.944 333.701 371.888 334.053 372.752C334.437 373.584 334.965 374.256 335.637 374.768C336.341 375.28 337.173 375.536 338.133 375.536C338.933 375.536 339.589 375.424 340.101 375.2C340.613 374.976 341.029 374.704 341.349 374.384C341.701 374.064 341.957 373.792 342.117 373.568C342.405 373.248 342.629 373.056 342.789 372.992C342.981 372.896 343.269 372.848 343.653 372.848H348.645C348.965 372.848 349.221 372.944 349.413 373.136C349.637 373.296 349.733 373.536 349.701 373.856C349.669 374.368 349.397 375.008 348.885 375.776C348.405 376.512 347.685 377.248 346.725 377.984C345.765 378.688 344.565 379.28 343.125 379.76C341.717 380.24 340.085 380.48 338.229 380.48ZM333.477 365.168H342.885V365.072C342.885 363.92 342.693 362.928 342.309 362.096C341.957 361.232 341.429 360.56 340.725 360.08C340.021 359.6 339.173 359.36 338.181 359.36C337.189 359.36 336.341 359.6 335.637 360.08C334.933 360.56 334.389 361.232 334.005 362.096C333.653 362.928 333.477 363.92 333.477 365.072V365.168ZM355.364 380C355.012 380 354.724 379.888 354.5 379.664C354.276 379.44 354.164 379.152 354.164 378.8V373.424C354.164 373.072 354.276 372.784 354.5 372.56C354.724 372.336 355.012 372.224 355.364 372.224H360.74C361.092 372.224 361.38 372.336 361.604 372.56C361.828 372.784 361.94 373.072 361.94 373.424V378.8C361.94 379.152 361.828 379.44 361.604 379.664C361.38 379.888 361.092 380 360.74 380H355.364Z" fill="#FEE24F"/>
</g>
<defs>
<clipPath id="clip0_529_2057">
<rect width="505" height="437" fill="white"/>
</clipPath>
</defs>
</svg>
