<svg width="505" height="407" viewBox="0 0 505 407" fill="none" xmlns="http://www.w3.org/2000/svg">
<g clip-path="url(#clip0_527_801)">
<rect x="0.321045" y="-1" width="505" height="406.86" fill="url(#paint0_radial_527_801)"/>
<path d="M-21.4744 340.12C-43.0693 352.014 -39.7661 377.211 -36.9584 388.664C-34.1506 399.148 -19.5751 403.421 -13.5054 403.906C81.7517 407.694 224.906 405.8 242.743 404.39C243.197 404.39 246.501 403.906 249.804 403.421C261.53 401.527 269.045 391.043 269.045 390.118C274.661 374.876 272.348 353.468 260.126 343.953C243.419 334.929 255.419 341.089 255.419 340.164C255.874 338.755 255.874 336.376 255.874 337.301C255.419 340.164 259.631 316.861 249.308 305.408C242.743 298.272 232.875 292.105 223.006 289.242C221.602 288.757 222.057 287.347 221.603 285.453C219.744 275.454 202.361 261.181 185.928 261.181C166.232 261.181 171.847 265.939 169.04 264.045C165.736 261.181 162.929 257.878 160.121 255.499C146.991 244.09 123.042 238.848 108.012 241.711C108.012 241.711 82.2059 242.68 65.3181 264.529C64.8639 263.12 55.4497 261.181 50.2884 261.181C35.7541 260.697 22.1283 270.212 16.967 276.863C14.1592 280.652 12.2599 285.409 11.8057 287.788C11.8057 289.682 8.50244 290.167 8.04824 290.651C-0.416298 294.44 -10.7389 296.378 -18.708 309.681C-22.9196 317.302 -22.4654 328.711 -22.0112 338.226C-7.60172 362.542 -22.0112 338.226 -21.557 340.12H-21.4744Z" fill="#FF90A9" stroke="#FF90A9" stroke-width="5" stroke-miterlimit="10"/>
<path d="M71.232 282.067C71.2055 278.482 79.7714 269.685 91.5992 270.117C102.791 270.524 111.754 279.88 110.667 282.448C110.269 283.414 109.473 283.795 108.307 283.668C104.886 283.363 103.374 280.109 100.324 277.821C95.5241 274.211 87.0112 274.007 82.3703 277.261C78.4188 280.033 76.9072 284.253 73.1945 284.075C71.4972 283.999 71.232 283.541 71.232 282.067Z" fill="#E84A89" stroke="#E84A89" stroke-miterlimit="10"/>
<path d="M150.172 282.057C150.145 278.498 158.711 269.676 170.539 270.108C181.73 270.515 190.694 279.87 189.607 282.438C189.209 283.404 188.413 283.786 187.246 283.659C183.825 283.354 182.314 280.099 179.264 277.811C174.464 274.201 165.951 273.998 161.31 277.252C157.359 280.023 155.847 284.243 152.134 284.065C150.437 283.989 150.172 283.531 150.172 282.057Z" fill="#E84A89" stroke="#E84A89" stroke-miterlimit="10"/>
<path d="M261.621 353.902C277.386 353.902 290.165 341.123 290.165 325.358C290.165 309.594 277.386 296.815 261.621 296.815C245.857 296.815 233.078 309.594 233.078 325.358C233.078 341.123 245.857 353.902 261.621 353.902Z" fill="#AAC3E4"/>
<path d="M290.773 271.307C306.537 271.307 319.316 258.528 319.316 242.764C319.316 226.999 306.537 214.22 290.773 214.22C275.008 214.22 262.229 226.999 262.229 242.764C262.229 258.528 275.008 271.307 290.773 271.307Z" fill="#AAC3E4"/>
<path d="M237.329 233.654C243.702 233.654 248.868 228.487 248.868 222.115C248.868 215.742 243.702 210.576 237.329 210.576C230.956 210.576 225.79 215.742 225.79 222.115C225.79 228.487 230.956 233.654 237.329 233.654Z" fill="#AAC3E4"/>
<g opacity="0.4">
<path d="M75.86 149.078C82.2329 149.078 87.399 143.912 87.399 137.539C87.399 131.166 82.2329 126 75.86 126C69.4872 126 64.321 131.166 64.321 137.539C64.321 143.912 69.4872 149.078 75.86 149.078Z" fill="#AAC3E4"/>
<path d="M73.8236 129.775C73.1634 129.295 69.372 131.672 67.879 135.404C67.8544 135.454 67.8499 135.489 67.8253 135.54C67.6778 135.843 67.0089 137.388 67.3769 139.711C67.4028 139.929 67.6205 140.62 67.895 140.871C68.1541 141.101 68.5689 141.244 68.9045 141.162C69.429 141.015 69.7159 140.192 69.6849 139.453C69.6475 137.227 69.8428 136.553 70.0951 135.439C70.6218 133.178 72.2086 131.376 73.3342 130.768C73.4143 130.707 73.8191 130.509 73.9088 130.233C73.9962 129.976 73.9543 129.881 73.8236 129.775Z" fill="white"/>
<circle cx="75.5941" cy="129.486" r="0.744755" transform="rotate(-97.6404 75.5941 129.486)" fill="white"/>
</g>
<path d="M307.777 384.268C314.15 384.268 319.316 379.102 319.316 372.729C319.316 366.356 314.15 361.19 307.777 361.19C301.405 361.19 296.238 366.356 296.238 372.729C296.238 379.102 301.405 384.268 307.777 384.268Z" fill="#AAC3E4"/>
<path opacity="0.8" d="M106.148 226.366C114.534 226.366 121.331 219.568 121.331 211.183C121.331 202.798 114.534 196 106.148 196C97.7632 196 90.9656 202.798 90.9656 211.183C90.9656 219.568 97.7632 226.366 106.148 226.366Z" fill="#AAC3E4"/>
<path d="M174.775 239.727C186.179 239.727 195.424 230.482 195.424 219.078C195.424 207.674 186.179 198.429 174.775 198.429C163.371 198.429 154.126 207.674 154.126 219.078C154.126 230.482 163.371 239.727 174.775 239.727Z" fill="#AAC3E4"/>
<path d="M192.995 391.556C204.399 391.556 213.643 382.311 213.643 370.907C213.643 359.503 204.399 350.258 192.995 350.258C181.591 350.258 172.346 359.503 172.346 370.907C172.346 382.311 181.591 391.556 192.995 391.556Z" fill="#AAC3E4"/>
<path d="M81.9589 345.23C96.4385 345.23 108.177 333.939 108.177 320.01C108.177 306.081 96.4385 294.789 81.9589 294.789C67.4793 294.789 55.7412 306.081 55.7412 320.01C55.7412 333.939 67.4793 345.23 81.9589 345.23Z" fill="white"/>
<path d="M184.031 345.23C198.51 345.23 210.248 333.939 210.248 320.01C210.248 306.081 198.51 294.789 184.031 294.789C169.551 294.789 157.813 306.081 157.813 320.01C157.813 333.939 169.551 345.23 184.031 345.23Z" fill="white"/>
<path d="M179.576 344.069C190.277 344.069 198.952 335.394 198.952 324.693C198.952 313.992 190.277 305.317 179.576 305.317C168.875 305.317 160.2 313.992 160.2 324.693C160.2 335.394 168.875 344.069 179.576 344.069Z" fill="#373D54"/>
<path d="M86.049 344.069C96.7501 344.069 105.425 335.394 105.425 324.693C105.425 313.992 96.7501 305.317 86.049 305.317C75.3478 305.317 66.6729 313.992 66.6729 324.693C66.6729 335.394 75.3478 344.069 86.049 344.069Z" fill="#373D54"/>
<path d="M135.3 386.697C145.027 386.697 152.912 375.549 152.912 361.797C152.912 348.045 145.027 336.897 135.3 336.897C125.573 336.897 117.688 348.045 117.688 361.797C117.688 375.549 125.573 386.697 135.3 386.697Z" fill="#E84A89"/>
<path d="M166.488 370.3C166.488 374.635 165.185 378.521 163.126 381.299C161.068 384.078 158.305 385.697 155.341 385.697C152.378 385.697 149.614 384.078 147.556 381.299C145.498 378.521 144.195 374.635 144.195 370.3C144.195 365.964 145.498 362.079 147.556 359.3C149.614 356.522 152.378 354.902 155.341 354.902C158.305 354.902 161.068 356.522 163.126 359.3C165.185 362.079 166.488 365.964 166.488 370.3Z" fill="#AAC3E4" fill-opacity="0.47" stroke="#003173" stroke-width="2"/>
<rect x="153.823" y="385.179" width="1.82195" height="58.9097" fill="#003173" stroke="#003173" stroke-width="1.82195"/>
<path d="M317.988 371.966C318.63 371.293 316.518 366.647 312.527 364.393C312.473 364.358 312.434 364.347 312.381 364.312C312.06 364.099 310.416 363.109 307.734 363.173C307.484 363.169 306.67 363.31 306.345 363.582C306.045 363.84 305.82 364.288 305.862 364.679C305.949 365.294 306.836 365.743 307.675 365.82C310.198 366.116 310.93 366.439 312.151 366.893C314.627 367.831 316.423 369.898 316.939 371.262C316.996 371.362 317.159 371.85 317.456 371.993C317.734 372.131 317.848 372.098 317.988 371.966Z" fill="white"/>
<path d="M284.575 318.542C285.952 317.097 281.421 307.13 272.858 302.296C272.744 302.22 272.66 302.197 272.545 302.121C271.857 301.665 268.33 299.541 262.577 299.677C262.039 299.669 260.292 299.972 259.596 300.556C258.952 301.109 258.47 302.069 258.56 302.909C258.747 304.229 260.649 305.192 262.45 305.358C267.862 305.991 269.432 306.684 272.052 307.658C277.364 309.671 281.217 314.105 282.323 317.032C282.446 317.246 282.796 318.292 283.434 318.599C284.03 318.895 284.274 318.824 284.575 318.542Z" fill="white"/>
<circle cx="284.699" cy="322.929" r="1.82215" fill="white"/>
<path d="M313.726 237.162C315.103 235.717 310.572 225.75 302.01 220.916C301.895 220.84 301.811 220.817 301.696 220.741C301.008 220.285 297.481 218.161 291.728 218.297C291.19 218.289 289.444 218.592 288.747 219.176C288.104 219.729 287.622 220.689 287.711 221.529C287.898 222.849 289.8 223.812 291.602 223.978C297.013 224.611 298.583 225.304 301.203 226.278C306.515 228.291 310.368 232.725 311.475 235.652C311.597 235.866 311.947 236.912 312.585 237.219C313.181 237.515 313.425 237.444 313.726 237.162Z" fill="white"/>
<circle cx="313.85" cy="241.549" r="1.82215" fill="white"/>
<path d="M191.513 215.232C192.559 214.134 189.116 206.56 182.609 202.887C182.522 202.829 182.458 202.812 182.371 202.754C181.849 202.407 179.168 200.793 174.796 200.896C174.388 200.89 173.06 201.121 172.531 201.565C172.042 201.985 171.676 202.714 171.744 203.353C171.886 204.356 173.331 205.088 174.7 205.213C178.813 205.695 180.006 206.221 181.996 206.961C186.033 208.491 188.961 211.86 189.802 214.085C189.895 214.247 190.161 215.042 190.646 215.276C191.099 215.5 191.284 215.447 191.513 215.232Z" fill="white"/>
<circle cx="191.608" cy="218.566" r="1.38467" fill="white"/>
<g opacity="0.6">
<path d="M50.821 202C61.5906 202 70.321 193.27 70.321 182.5C70.321 171.73 61.5906 163 50.821 163C40.0515 163 31.321 171.73 31.321 182.5C31.321 193.27 40.0515 202 50.821 202Z" fill="#AAC3E4"/>
<path d="M65.917 180.588C66.9638 179.49 63.5204 171.916 57.0138 168.242C56.9267 168.185 56.8628 168.168 56.7757 168.11C56.2529 167.763 53.5728 166.149 49.2009 166.252C48.7921 166.246 47.4648 166.476 46.9354 166.92C46.4465 167.341 46.0801 168.07 46.1484 168.709C46.2901 169.711 47.7358 170.444 49.1046 170.569C53.2171 171.051 54.41 171.577 56.4008 172.317C60.4376 173.847 63.3658 177.216 64.2064 179.441C64.2996 179.603 64.5655 180.398 65.0503 180.632C65.5031 180.856 65.6885 180.803 65.917 180.588Z" fill="white"/>
<circle cx="66.012" cy="183.922" r="1.38467" fill="white"/>
</g>
<path d="M94.8844 214.64C94.207 215.329 96.3259 220.187 100.434 222.59C100.489 222.628 100.529 222.639 100.584 222.677C100.914 222.903 102.605 223.957 105.39 223.934C105.651 223.942 106.498 223.808 106.84 223.53C107.155 223.267 107.396 222.807 107.358 222.399C107.278 221.759 106.364 221.279 105.494 221.185C102.879 220.839 102.125 220.492 100.864 220.001C98.3082 218.987 96.4763 216.813 95.9626 215.388C95.9048 215.283 95.7433 214.774 95.4368 214.621C95.1506 214.473 95.032 214.506 94.8844 214.64Z" fill="white"/>
<circle cx="94.8565" cy="212.516" r="0.881968" transform="rotate(-179.121 94.8565 212.516)" fill="white"/>
<path d="M234.292 213.565C233.632 213.086 229.84 215.463 228.348 219.194C228.323 219.245 228.318 219.28 228.294 219.33C228.146 219.634 227.477 221.178 227.845 223.501C227.871 223.72 228.089 224.411 228.364 224.661C228.623 224.892 229.037 225.035 229.373 224.953C229.898 224.806 230.184 223.983 230.153 223.244C230.116 221.017 230.311 220.344 230.564 219.229C231.09 216.968 232.677 215.166 233.803 214.559C233.883 214.498 234.288 214.299 234.377 214.024C234.465 213.766 234.423 213.671 234.292 213.565Z" fill="white"/>
<circle cx="236.063" cy="213.276" r="0.744755" transform="rotate(-97.6404 236.063 213.276)" fill="white"/>
<path d="M193.95 354.207C193 352.835 184.074 354.856 178.667 361.047C178.586 361.128 178.553 361.192 178.471 361.273C177.981 361.759 175.645 364.287 174.783 369.019C174.685 369.458 174.637 370.939 174.997 371.608C175.341 372.229 176.045 372.786 176.748 372.854C177.86 372.925 178.971 371.531 179.411 370.085C180.846 365.762 181.679 364.594 182.92 362.615C185.467 358.607 189.749 356.204 192.333 355.794C192.529 355.73 193.444 355.621 193.804 355.151C194.147 354.713 194.13 354.501 193.95 354.207Z" fill="white"/>
<circle cx="197.562" cy="354.848" r="1.52314" transform="rotate(-78.3118 197.562 354.848)" fill="white"/>
<circle cx="317.494" cy="373.944" r="0.607384" fill="white"/>
<path d="M98.1206 84.2366C104.306 84.2366 109.321 78.5536 109.321 71.5428C109.321 64.5343 104.306 58.8514 98.1206 58.8514C98.1206 58.8514 98.1747 54.1363 101.556 47.35C101.931 45.9902 101.262 44.5422 100.061 44.1191C99.2088 43.8154 98.3122 44.1106 97.7332 44.7977C89.959 54.4314 86.9158 65.7697 86.9158 71.5428C86.9158 78.5536 91.9303 84.2366 98.1206 84.2366Z" fill="#EA3468"/>
<path d="M72.5258 84.2366C78.7117 84.2366 83.7263 78.5535 83.7263 71.5428C83.7263 64.5343 78.7117 58.8514 72.5258 58.8514C72.5258 58.8514 72.58 54.1363 75.961 47.35C76.3366 45.9902 75.667 44.5422 74.4662 44.1191C73.6141 43.8154 72.7175 44.1106 72.1386 44.7977C64.3642 54.4314 61.321 65.7697 61.321 71.5428C61.321 78.5536 66.3356 84.2366 72.5258 84.2366Z" fill="#EA3468"/>
<path d="M409.522 148C403.336 148 398.321 153.683 398.321 160.694C398.321 167.702 403.336 173.385 409.522 173.385C409.522 173.385 409.467 178.1 406.086 184.887C405.711 186.246 406.38 187.694 407.581 188.117C408.433 188.421 409.33 188.126 409.909 187.439C417.683 177.805 420.726 166.467 420.726 160.694C420.726 153.683 415.712 148 409.522 148Z" fill="#EA3468"/>
<path d="M435.116 148C428.93 148 423.916 153.683 423.916 160.694C423.916 167.702 428.93 173.385 435.116 173.385C435.116 173.385 435.062 178.1 431.681 184.887C431.306 186.246 431.975 187.694 433.176 188.117C434.028 188.421 434.925 188.126 435.504 187.439C443.278 177.805 446.321 166.467 446.321 160.694C446.321 153.683 441.306 148 435.116 148Z" fill="#EA3468"/>
<path d="M164.34 84C164.083 84 163.873 83.9183 163.71 83.755C163.546 83.5917 163.465 83.3817 163.465 83.125V60.375C163.465 60.1183 163.546 59.9083 163.71 59.745C163.873 59.5817 164.083 59.5 164.34 59.5H168.855C169.111 59.5 169.321 59.5817 169.485 59.745C169.648 59.9083 169.73 60.1183 169.73 60.375V68.81H178.375V60.375C178.375 60.1183 178.456 59.9083 178.62 59.745C178.783 59.5817 178.993 59.5 179.25 59.5H183.765C184.021 59.5 184.231 59.5817 184.395 59.745C184.558 59.9083 184.64 60.1183 184.64 60.375V83.125C184.64 83.3817 184.558 83.5917 184.395 83.755C184.231 83.9183 184.021 84 183.765 84H179.25C178.993 84 178.783 83.9183 178.62 83.755C178.456 83.5917 178.375 83.3817 178.375 83.125V74.41H169.73V83.125C169.73 83.3817 169.648 83.5917 169.485 83.755C169.321 83.9183 169.111 84 168.855 84H164.34ZM194.094 84.35C192.834 84.35 191.702 84.1167 190.699 83.65C189.719 83.16 188.937 82.5067 188.354 81.69C187.77 80.8733 187.479 79.9517 187.479 78.925C187.479 77.2683 188.155 75.9617 189.509 75.005C190.862 74.025 192.659 73.36 194.899 73.01L199.274 72.345V71.855C199.274 71.015 199.099 70.3733 198.749 69.93C198.399 69.4867 197.757 69.265 196.824 69.265C196.17 69.265 195.634 69.3933 195.214 69.65C194.817 69.9067 194.502 70.2567 194.269 70.7C194.059 71.0033 193.767 71.155 193.394 71.155H189.474C189.217 71.155 189.019 71.085 188.879 70.945C188.739 70.7817 188.68 70.595 188.704 70.385C188.704 69.965 188.855 69.4867 189.159 68.95C189.485 68.39 189.975 67.8417 190.629 67.305C191.282 66.7683 192.122 66.325 193.149 65.975C194.175 65.625 195.412 65.45 196.859 65.45C198.375 65.45 199.67 65.625 200.744 65.975C201.817 66.325 202.68 66.815 203.334 67.445C204.01 68.075 204.512 68.8217 204.839 69.685C205.165 70.525 205.329 71.4583 205.329 72.485V83.125C205.329 83.3817 205.235 83.5917 205.049 83.755C204.885 83.9183 204.687 84 204.454 84H200.394C200.137 84 199.927 83.9183 199.764 83.755C199.6 83.5917 199.519 83.3817 199.519 83.125V81.9C199.215 82.3433 198.807 82.7517 198.294 83.125C197.78 83.4983 197.174 83.79 196.474 84C195.797 84.2333 195.004 84.35 194.094 84.35ZM195.739 80.36C196.415 80.36 197.022 80.22 197.559 79.94C198.119 79.6367 198.55 79.1817 198.854 78.575C199.18 77.945 199.344 77.1633 199.344 76.23V75.74L196.369 76.265C195.272 76.4517 194.467 76.7433 193.954 77.14C193.464 77.5133 193.219 77.9567 193.219 78.47C193.219 78.8667 193.335 79.205 193.569 79.485C193.802 79.765 194.105 79.9867 194.479 80.15C194.852 80.29 195.272 80.36 195.739 80.36ZM209.628 90.65C209.372 90.65 209.162 90.5683 208.998 90.405C208.835 90.2417 208.753 90.0317 208.753 89.775V66.675C208.753 66.4183 208.835 66.2083 208.998 66.045C209.162 65.8817 209.372 65.8 209.628 65.8H213.583C213.817 65.8 214.015 65.8817 214.178 66.045C214.365 66.2083 214.458 66.4183 214.458 66.675V67.97C214.995 67.2467 215.707 66.6517 216.593 66.185C217.48 65.695 218.577 65.45 219.883 65.45C221.05 65.45 222.077 65.6367 222.963 66.01C223.85 66.36 224.608 66.885 225.238 67.585C225.868 68.285 226.358 69.1367 226.708 70.14C227.082 71.1433 227.292 72.2983 227.338 73.605C227.362 74.0717 227.373 74.5033 227.373 74.9C227.373 75.2967 227.362 75.7283 227.338 76.195C227.292 77.455 227.093 78.5867 226.743 79.59C226.393 80.5933 225.903 81.445 225.273 82.145C224.643 82.845 223.873 83.3933 222.963 83.79C222.077 84.1633 221.05 84.35 219.883 84.35C218.74 84.35 217.737 84.1517 216.873 83.755C216.033 83.335 215.333 82.7517 214.773 82.005V89.775C214.773 90.0317 214.692 90.2417 214.528 90.405C214.365 90.5683 214.155 90.65 213.898 90.65H209.628ZM217.993 79.66C218.787 79.66 219.405 79.4967 219.848 79.17C220.292 78.8433 220.607 78.4 220.793 77.84C221.003 77.28 221.132 76.6617 221.178 75.985C221.225 75.2617 221.225 74.5383 221.178 73.815C221.132 73.1383 221.003 72.52 220.793 71.96C220.607 71.4 220.292 70.9567 219.848 70.63C219.405 70.3033 218.787 70.14 217.993 70.14C217.223 70.14 216.605 70.315 216.138 70.665C215.672 70.9917 215.333 71.4233 215.123 71.96C214.913 72.4967 214.797 73.08 214.773 73.71C214.75 74.1533 214.738 74.585 214.738 75.005C214.738 75.425 214.75 75.8683 214.773 76.335C214.797 76.9183 214.925 77.4667 215.158 77.98C215.392 78.47 215.742 78.8783 216.208 79.205C216.675 79.5083 217.27 79.66 217.993 79.66ZM231.183 90.65C230.927 90.65 230.717 90.5683 230.553 90.405C230.39 90.2417 230.308 90.0317 230.308 89.775V66.675C230.308 66.4183 230.39 66.2083 230.553 66.045C230.717 65.8817 230.927 65.8 231.183 65.8H235.138C235.372 65.8 235.57 65.8817 235.733 66.045C235.92 66.2083 236.013 66.4183 236.013 66.675V67.97C236.55 67.2467 237.262 66.6517 238.148 66.185C239.035 65.695 240.132 65.45 241.438 65.45C242.605 65.45 243.632 65.6367 244.518 66.01C245.405 66.36 246.163 66.885 246.793 67.585C247.423 68.285 247.913 69.1367 248.263 70.14C248.637 71.1433 248.847 72.2983 248.893 73.605C248.917 74.0717 248.928 74.5033 248.928 74.9C248.928 75.2967 248.917 75.7283 248.893 76.195C248.847 77.455 248.648 78.5867 248.298 79.59C247.948 80.5933 247.458 81.445 246.828 82.145C246.198 82.845 245.428 83.3933 244.518 83.79C243.632 84.1633 242.605 84.35 241.438 84.35C240.295 84.35 239.292 84.1517 238.428 83.755C237.588 83.335 236.888 82.7517 236.328 82.005V89.775C236.328 90.0317 236.247 90.2417 236.083 90.405C235.92 90.5683 235.71 90.65 235.453 90.65H231.183ZM239.548 79.66C240.342 79.66 240.96 79.4967 241.403 79.17C241.847 78.8433 242.162 78.4 242.348 77.84C242.558 77.28 242.687 76.6617 242.733 75.985C242.78 75.2617 242.78 74.5383 242.733 73.815C242.687 73.1383 242.558 72.52 242.348 71.96C242.162 71.4 241.847 70.9567 241.403 70.63C240.96 70.3033 240.342 70.14 239.548 70.14C238.778 70.14 238.16 70.315 237.693 70.665C237.227 70.9917 236.888 71.4233 236.678 71.96C236.468 72.4967 236.352 73.08 236.328 73.71C236.305 74.1533 236.293 74.585 236.293 75.005C236.293 75.425 236.305 75.8683 236.328 76.335C236.352 76.9183 236.48 77.4667 236.713 77.98C236.947 78.47 237.297 78.8783 237.763 79.205C238.23 79.5083 238.825 79.66 239.548 79.66ZM252.738 84C252.482 84 252.272 83.9183 252.108 83.755C251.945 83.5917 251.863 83.3817 251.863 83.125V66.675C251.863 66.4183 251.945 66.2083 252.108 66.045C252.272 65.8817 252.482 65.8 252.738 65.8H256.868C257.102 65.8 257.3 65.8817 257.463 66.045C257.65 66.2083 257.743 66.4183 257.743 66.675V83.125C257.743 83.3817 257.65 83.5917 257.463 83.755C257.3 83.9183 257.102 84 256.868 84H252.738ZM252.703 63.175C252.447 63.175 252.237 63.0933 252.073 62.93C251.91 62.7667 251.828 62.5567 251.828 62.3V59.185C251.828 58.9283 251.91 58.7183 252.073 58.555C252.237 58.3683 252.447 58.275 252.703 58.275H256.868C257.125 58.275 257.335 58.3683 257.498 58.555C257.685 58.7183 257.778 58.9283 257.778 59.185V62.3C257.778 62.5567 257.685 62.7667 257.498 62.93C257.335 63.0933 257.125 63.175 256.868 63.175H252.703ZM263.288 84C263.031 84 262.821 83.9183 262.658 83.755C262.494 83.5917 262.413 83.3817 262.413 83.125V66.675C262.413 66.4183 262.494 66.2083 262.658 66.045C262.821 65.8817 263.031 65.8 263.288 65.8H267.313C267.569 65.8 267.779 65.8817 267.943 66.045C268.106 66.2083 268.188 66.4183 268.188 66.675V68.005C268.794 67.2817 269.588 66.675 270.568 66.185C271.548 65.695 272.703 65.45 274.033 65.45C275.386 65.45 276.576 65.7533 277.603 66.36C278.653 66.9667 279.469 67.865 280.053 69.055C280.659 70.2217 280.963 71.6567 280.963 73.36V83.125C280.963 83.3817 280.869 83.5917 280.683 83.755C280.519 83.9183 280.321 84 280.088 84H275.678C275.444 84 275.234 83.9183 275.048 83.755C274.884 83.5917 274.803 83.3817 274.803 83.125V73.57C274.803 72.4733 274.534 71.6333 273.998 71.05C273.484 70.4433 272.714 70.14 271.688 70.14C270.731 70.14 269.961 70.4433 269.378 71.05C268.818 71.6333 268.538 72.4733 268.538 73.57V83.125C268.538 83.3817 268.444 83.5917 268.258 83.755C268.094 83.9183 267.896 84 267.663 84H263.288ZM292.744 84.35C289.99 84.35 287.797 83.6033 286.164 82.11C284.53 80.6167 283.679 78.4 283.609 75.46C283.609 75.2967 283.609 75.0867 283.609 74.83C283.609 74.5733 283.609 74.375 283.609 74.235C283.679 72.3917 284.087 70.8167 284.834 69.51C285.604 68.18 286.654 67.1767 287.984 66.5C289.337 65.8 290.912 65.45 292.709 65.45C294.762 65.45 296.454 65.8583 297.784 66.675C299.137 67.4917 300.152 68.6 300.829 70C301.505 71.4 301.844 72.9983 301.844 74.795V75.635C301.844 75.8917 301.75 76.1017 301.564 76.265C301.4 76.4283 301.202 76.51 300.969 76.51H289.769C289.769 76.5333 289.769 76.5683 289.769 76.615C289.769 76.6617 289.769 76.7083 289.769 76.755C289.792 77.4317 289.909 78.05 290.119 78.61C290.329 79.17 290.655 79.6133 291.099 79.94C291.542 80.2667 292.079 80.43 292.709 80.43C293.175 80.43 293.56 80.36 293.864 80.22C294.19 80.0567 294.459 79.8817 294.669 79.695C294.879 79.485 295.042 79.31 295.159 79.17C295.369 78.9367 295.532 78.7967 295.649 78.75C295.789 78.68 295.999 78.645 296.279 78.645H300.619C300.852 78.645 301.039 78.715 301.179 78.855C301.342 78.9717 301.412 79.1467 301.389 79.38C301.365 79.7767 301.167 80.255 300.794 80.815C300.42 81.375 299.872 81.935 299.149 82.495C298.449 83.0317 297.562 83.475 296.489 83.825C295.415 84.175 294.167 84.35 292.744 84.35ZM289.769 73.045H295.684V72.975C295.684 72.2283 295.567 71.575 295.334 71.015C295.124 70.455 294.785 70.0233 294.319 69.72C293.875 69.4167 293.339 69.265 292.709 69.265C292.079 69.265 291.542 69.4167 291.099 69.72C290.679 70.0233 290.352 70.455 290.119 71.015C289.885 71.575 289.769 72.2283 289.769 72.975V73.045ZM312.09 84.35C310.573 84.35 309.278 84.1867 308.205 83.86C307.155 83.51 306.292 83.09 305.615 82.6C304.962 82.11 304.472 81.6083 304.145 81.095C303.818 80.5583 303.643 80.1033 303.62 79.73C303.597 79.4733 303.678 79.2633 303.865 79.1C304.052 78.9133 304.25 78.82 304.46 78.82H308.45C308.52 78.82 308.578 78.8317 308.625 78.855C308.672 78.8783 308.742 78.925 308.835 78.995C309.138 79.1583 309.442 79.3683 309.745 79.625C310.048 79.8583 310.398 80.0683 310.795 80.255C311.192 80.4417 311.67 80.535 312.23 80.535C312.883 80.535 313.432 80.4067 313.875 80.15C314.318 79.8933 314.54 79.5083 314.54 78.995C314.54 78.6217 314.435 78.3183 314.225 78.085C314.015 77.8283 313.583 77.5833 312.93 77.35C312.3 77.1167 311.343 76.8833 310.06 76.65C308.847 76.37 307.785 76.0083 306.875 75.565C305.965 75.0983 305.265 74.5033 304.775 73.78C304.285 73.0333 304.04 72.135 304.04 71.085C304.04 70.1517 304.343 69.2533 304.95 68.39C305.557 67.5267 306.443 66.8267 307.61 66.29C308.777 65.73 310.212 65.45 311.915 65.45C313.268 65.45 314.435 65.6133 315.415 65.94C316.418 66.2433 317.258 66.64 317.935 67.13C318.635 67.62 319.16 68.1217 319.51 68.635C319.86 69.1483 320.047 69.615 320.07 70.035C320.093 70.2683 320.023 70.4783 319.86 70.665C319.697 70.8283 319.51 70.91 319.3 70.91H315.66C315.567 70.91 315.473 70.8983 315.38 70.875C315.287 70.8283 315.205 70.7817 315.135 70.735C314.855 70.595 314.575 70.4083 314.295 70.175C314.015 69.9417 313.688 69.7317 313.315 69.545C312.942 69.3583 312.475 69.265 311.915 69.265C311.285 69.265 310.795 69.405 310.445 69.685C310.095 69.965 309.92 70.3267 309.92 70.77C309.92 71.0733 310.013 71.3533 310.2 71.61C310.41 71.8667 310.818 72.1 311.425 72.31C312.055 72.52 313.023 72.7533 314.33 73.01C315.94 73.2667 317.223 73.6867 318.18 74.27C319.137 74.83 319.813 75.495 320.21 76.265C320.607 77.0117 320.805 77.805 320.805 78.645C320.805 79.765 320.467 80.7567 319.79 81.62C319.137 82.4833 318.157 83.16 316.85 83.65C315.543 84.1167 313.957 84.35 312.09 84.35ZM330.911 84.35C329.394 84.35 328.099 84.1867 327.026 83.86C325.976 83.51 325.112 83.09 324.436 82.6C323.782 82.11 323.292 81.6083 322.966 81.095C322.639 80.5583 322.464 80.1033 322.441 79.73C322.417 79.4733 322.499 79.2633 322.686 79.1C322.872 78.9133 323.071 78.82 323.281 78.82H327.271C327.341 78.82 327.399 78.8317 327.446 78.855C327.492 78.8783 327.562 78.925 327.656 78.995C327.959 79.1583 328.262 79.3683 328.566 79.625C328.869 79.8583 329.219 80.0683 329.616 80.255C330.012 80.4417 330.491 80.535 331.051 80.535C331.704 80.535 332.252 80.4067 332.696 80.15C333.139 79.8933 333.361 79.5083 333.361 78.995C333.361 78.6217 333.256 78.3183 333.046 78.085C332.836 77.8283 332.404 77.5833 331.751 77.35C331.121 77.1167 330.164 76.8833 328.881 76.65C327.667 76.37 326.606 76.0083 325.696 75.565C324.786 75.0983 324.086 74.5033 323.596 73.78C323.106 73.0333 322.861 72.135 322.861 71.085C322.861 70.1517 323.164 69.2533 323.771 68.39C324.377 67.5267 325.264 66.8267 326.431 66.29C327.597 65.73 329.032 65.45 330.736 65.45C332.089 65.45 333.256 65.6133 334.236 65.94C335.239 66.2433 336.079 66.64 336.756 67.13C337.456 67.62 337.981 68.1217 338.331 68.635C338.681 69.1483 338.867 69.615 338.891 70.035C338.914 70.2683 338.844 70.4783 338.681 70.665C338.517 70.8283 338.331 70.91 338.121 70.91H334.481C334.387 70.91 334.294 70.8983 334.201 70.875C334.107 70.8283 334.026 70.7817 333.956 70.735C333.676 70.595 333.396 70.4083 333.116 70.175C332.836 69.9417 332.509 69.7317 332.136 69.545C331.762 69.3583 331.296 69.265 330.736 69.265C330.106 69.265 329.616 69.405 329.266 69.685C328.916 69.965 328.741 70.3267 328.741 70.77C328.741 71.0733 328.834 71.3533 329.021 71.61C329.231 71.8667 329.639 72.1 330.246 72.31C330.876 72.52 331.844 72.7533 333.151 73.01C334.761 73.2667 336.044 73.6867 337.001 74.27C337.957 74.83 338.634 75.495 339.031 76.265C339.427 77.0117 339.626 77.805 339.626 78.645C339.626 79.765 339.287 80.7567 338.611 81.62C337.957 82.4833 336.977 83.16 335.671 83.65C334.364 84.1167 332.777 84.35 330.911 84.35ZM120.361 126C120.104 126 119.894 125.918 119.731 125.755C119.568 125.592 119.486 125.382 119.486 125.125V108.675C119.486 108.418 119.568 108.208 119.731 108.045C119.894 107.882 120.104 107.8 120.361 107.8H124.491C124.724 107.8 124.923 107.882 125.086 108.045C125.273 108.208 125.366 108.418 125.366 108.675V125.125C125.366 125.382 125.273 125.592 125.086 125.755C124.923 125.918 124.724 126 124.491 126H120.361ZM120.326 105.175C120.069 105.175 119.859 105.093 119.696 104.93C119.533 104.767 119.451 104.557 119.451 104.3V101.185C119.451 100.928 119.533 100.718 119.696 100.555C119.859 100.368 120.069 100.275 120.326 100.275H124.491C124.748 100.275 124.958 100.368 125.121 100.555C125.308 100.718 125.401 100.928 125.401 101.185V104.3C125.401 104.557 125.308 104.767 125.121 104.93C124.958 105.093 124.748 105.175 124.491 105.175H120.326ZM137.081 126.35C135.564 126.35 134.269 126.187 133.196 125.86C132.146 125.51 131.283 125.09 130.606 124.6C129.953 124.11 129.463 123.608 129.136 123.095C128.809 122.558 128.634 122.103 128.611 121.73C128.588 121.473 128.669 121.263 128.856 121.1C129.043 120.913 129.241 120.82 129.451 120.82H133.441C133.511 120.82 133.569 120.832 133.616 120.855C133.663 120.878 133.733 120.925 133.826 120.995C134.129 121.158 134.433 121.368 134.736 121.625C135.039 121.858 135.389 122.068 135.786 122.255C136.183 122.442 136.661 122.535 137.221 122.535C137.874 122.535 138.423 122.407 138.866 122.15C139.309 121.893 139.531 121.508 139.531 120.995C139.531 120.622 139.426 120.318 139.216 120.085C139.006 119.828 138.574 119.583 137.921 119.35C137.291 119.117 136.334 118.883 135.051 118.65C133.838 118.37 132.776 118.008 131.866 117.565C130.956 117.098 130.256 116.503 129.766 115.78C129.276 115.033 129.031 114.135 129.031 113.085C129.031 112.152 129.334 111.253 129.941 110.39C130.548 109.527 131.434 108.827 132.601 108.29C133.768 107.73 135.203 107.45 136.906 107.45C138.259 107.45 139.426 107.613 140.406 107.94C141.409 108.243 142.249 108.64 142.926 109.13C143.626 109.62 144.151 110.122 144.501 110.635C144.851 111.148 145.038 111.615 145.061 112.035C145.084 112.268 145.014 112.478 144.851 112.665C144.688 112.828 144.501 112.91 144.291 112.91H140.651C140.558 112.91 140.464 112.898 140.371 112.875C140.278 112.828 140.196 112.782 140.126 112.735C139.846 112.595 139.566 112.408 139.286 112.175C139.006 111.942 138.679 111.732 138.306 111.545C137.933 111.358 137.466 111.265 136.906 111.265C136.276 111.265 135.786 111.405 135.436 111.685C135.086 111.965 134.911 112.327 134.911 112.77C134.911 113.073 135.004 113.353 135.191 113.61C135.401 113.867 135.809 114.1 136.416 114.31C137.046 114.52 138.014 114.753 139.321 115.01C140.931 115.267 142.214 115.687 143.171 116.27C144.128 116.83 144.804 117.495 145.201 118.265C145.598 119.012 145.796 119.805 145.796 120.645C145.796 121.765 145.458 122.757 144.781 123.62C144.128 124.483 143.148 125.16 141.841 125.65C140.534 126.117 138.948 126.35 137.081 126.35ZM156.213 126C155.956 126 155.746 125.918 155.583 125.755C155.42 125.592 155.338 125.382 155.338 125.125V108.675C155.338 108.418 155.42 108.208 155.583 108.045C155.746 107.882 155.956 107.8 156.213 107.8H160.238C160.495 107.8 160.705 107.882 160.868 108.045C161.031 108.208 161.113 108.418 161.113 108.675V110.005C161.72 109.282 162.513 108.675 163.493 108.185C164.473 107.695 165.628 107.45 166.958 107.45C168.311 107.45 169.501 107.753 170.528 108.36C171.578 108.967 172.395 109.865 172.978 111.055C173.585 112.222 173.888 113.657 173.888 115.36V125.125C173.888 125.382 173.795 125.592 173.608 125.755C173.445 125.918 173.246 126 173.013 126H168.603C168.37 126 168.16 125.918 167.973 125.755C167.81 125.592 167.728 125.382 167.728 125.125V115.57C167.728 114.473 167.46 113.633 166.923 113.05C166.41 112.443 165.64 112.14 164.613 112.14C163.656 112.14 162.886 112.443 162.303 113.05C161.743 113.633 161.463 114.473 161.463 115.57V125.125C161.463 125.382 161.37 125.592 161.183 125.755C161.02 125.918 160.821 126 160.588 126H156.213ZM185.879 126.35C183.919 126.35 182.262 126.035 180.909 125.405C179.579 124.775 178.552 123.877 177.829 122.71C177.129 121.52 176.732 120.108 176.639 118.475C176.616 118.008 176.604 117.483 176.604 116.9C176.604 116.293 176.616 115.768 176.639 115.325C176.732 113.668 177.152 112.257 177.899 111.09C178.646 109.923 179.684 109.025 181.014 108.395C182.367 107.765 183.989 107.45 185.879 107.45C187.792 107.45 189.414 107.765 190.744 108.395C192.097 109.025 193.147 109.923 193.894 111.09C194.641 112.257 195.061 113.668 195.154 115.325C195.177 115.768 195.189 116.293 195.189 116.9C195.189 117.483 195.177 118.008 195.154 118.475C195.061 120.108 194.652 121.52 193.929 122.71C193.229 123.877 192.202 124.775 190.849 125.405C189.519 126.035 187.862 126.35 185.879 126.35ZM185.879 122.08C186.929 122.08 187.687 121.765 188.154 121.135C188.644 120.505 188.924 119.56 188.994 118.3C189.017 117.95 189.029 117.483 189.029 116.9C189.029 116.317 189.017 115.85 188.994 115.5C188.924 114.263 188.644 113.33 188.154 112.7C187.687 112.047 186.929 111.72 185.879 111.72C184.852 111.72 184.094 112.047 183.604 112.7C183.114 113.33 182.846 114.263 182.799 115.5C182.776 115.85 182.764 116.317 182.764 116.9C182.764 117.483 182.776 117.95 182.799 118.3C182.846 119.56 183.114 120.505 183.604 121.135C184.094 121.765 184.852 122.08 185.879 122.08ZM207.348 126C205.855 126 204.56 125.767 203.463 125.3C202.39 124.81 201.561 124.063 200.978 123.06C200.395 122.033 200.103 120.715 200.103 119.105V112.385H197.373C197.116 112.385 196.895 112.303 196.708 112.14C196.545 111.977 196.463 111.767 196.463 111.51V108.675C196.463 108.418 196.545 108.208 196.708 108.045C196.895 107.882 197.116 107.8 197.373 107.8H200.103V102.025C200.103 101.768 200.185 101.558 200.348 101.395C200.535 101.232 200.745 101.15 200.978 101.15H205.038C205.295 101.15 205.505 101.232 205.668 101.395C205.831 101.558 205.913 101.768 205.913 102.025V107.8H210.288C210.545 107.8 210.755 107.882 210.918 108.045C211.081 108.208 211.163 108.418 211.163 108.675V111.51C211.163 111.767 211.081 111.977 210.918 112.14C210.755 112.303 210.545 112.385 210.288 112.385H205.913V118.615C205.913 119.408 206.065 120.038 206.368 120.505C206.671 120.972 207.185 121.205 207.908 121.205H210.603C210.86 121.205 211.07 121.287 211.233 121.45C211.396 121.613 211.478 121.823 211.478 122.08V125.125C211.478 125.382 211.396 125.592 211.233 125.755C211.07 125.918 210.86 126 210.603 126H207.348ZM231.907 126.35C230.6 126.35 229.504 126.128 228.617 125.685C227.754 125.242 227.042 124.682 226.482 124.005V125.125C226.482 125.382 226.389 125.592 226.202 125.755C226.039 125.918 225.84 126 225.607 126H221.652C221.395 126 221.185 125.918 221.022 125.755C220.859 125.592 220.777 125.382 220.777 125.125V102.025C220.777 101.768 220.859 101.558 221.022 101.395C221.185 101.232 221.395 101.15 221.652 101.15H225.922C226.179 101.15 226.389 101.232 226.552 101.395C226.715 101.558 226.797 101.768 226.797 102.025V109.515C227.357 108.908 228.057 108.418 228.897 108.045C229.76 107.648 230.764 107.45 231.907 107.45C233.074 107.45 234.1 107.648 234.987 108.045C235.897 108.418 236.667 108.967 237.297 109.69C237.927 110.413 238.417 111.277 238.767 112.28C239.117 113.283 239.315 114.415 239.362 115.675C239.385 116.118 239.397 116.527 239.397 116.9C239.397 117.25 239.385 117.658 239.362 118.125C239.315 119.432 239.105 120.598 238.732 121.625C238.382 122.628 237.892 123.492 237.262 124.215C236.632 124.915 235.874 125.452 234.987 125.825C234.1 126.175 233.074 126.35 231.907 126.35ZM230.017 121.66C230.81 121.66 231.429 121.497 231.872 121.17C232.315 120.843 232.63 120.4 232.817 119.84C233.027 119.28 233.155 118.662 233.202 117.985C233.249 117.262 233.249 116.538 233.202 115.815C233.155 115.138 233.027 114.52 232.817 113.96C232.63 113.4 232.315 112.957 231.872 112.63C231.429 112.303 230.81 112.14 230.017 112.14C229.294 112.14 228.699 112.303 228.232 112.63C227.765 112.933 227.415 113.342 227.182 113.855C226.949 114.345 226.82 114.882 226.797 115.465C226.774 115.908 226.762 116.34 226.762 116.76C226.762 117.18 226.774 117.623 226.797 118.09C226.82 118.72 226.937 119.303 227.147 119.84C227.357 120.377 227.695 120.82 228.162 121.17C228.629 121.497 229.247 121.66 230.017 121.66ZM244.975 132.65C244.765 132.65 244.59 132.58 244.45 132.44C244.31 132.3 244.24 132.125 244.24 131.915C244.24 131.868 244.24 131.798 244.24 131.705C244.263 131.635 244.298 131.553 244.345 131.46L247.075 124.88L240.355 108.99C240.285 108.827 240.25 108.687 240.25 108.57C240.297 108.36 240.39 108.185 240.53 108.045C240.67 107.882 240.845 107.8 241.055 107.8H245.045C245.348 107.8 245.57 107.882 245.71 108.045C245.873 108.185 245.978 108.348 246.025 108.535L250.05 118.72L254.145 108.535C254.238 108.348 254.355 108.185 254.495 108.045C254.658 107.882 254.892 107.8 255.195 107.8H259.115C259.325 107.8 259.5 107.882 259.64 108.045C259.803 108.185 259.885 108.348 259.885 108.535C259.885 108.652 259.85 108.803 259.78 108.99L249.875 131.915C249.805 132.102 249.688 132.265 249.525 132.405C249.362 132.568 249.128 132.65 248.825 132.65H244.975ZM276.341 126.35C274.615 126.35 273.086 126.035 271.756 125.405C270.426 124.775 269.365 123.865 268.571 122.675C267.801 121.462 267.381 120.015 267.311 118.335C267.288 117.962 267.276 117.495 267.276 116.935C267.276 116.352 267.288 115.873 267.311 115.5C267.381 113.797 267.801 112.35 268.571 111.16C269.341 109.947 270.391 109.025 271.721 108.395C273.075 107.765 274.615 107.45 276.341 107.45C277.951 107.45 279.328 107.683 280.471 108.15C281.615 108.593 282.548 109.153 283.271 109.83C283.995 110.507 284.531 111.207 284.881 111.93C285.255 112.63 285.453 113.248 285.476 113.785C285.5 114.018 285.418 114.228 285.231 114.415C285.045 114.578 284.835 114.66 284.601 114.66H280.156C279.9 114.66 279.701 114.602 279.561 114.485C279.421 114.368 279.293 114.193 279.176 113.96C278.896 113.237 278.535 112.723 278.091 112.42C277.671 112.117 277.123 111.965 276.446 111.965C275.513 111.965 274.79 112.268 274.276 112.875C273.786 113.482 273.518 114.415 273.471 115.675C273.448 116.608 273.448 117.437 273.471 118.16C273.518 119.443 273.786 120.377 274.276 120.96C274.79 121.543 275.513 121.835 276.446 121.835C277.17 121.835 277.741 121.683 278.161 121.38C278.581 121.077 278.92 120.563 279.176 119.84C279.293 119.607 279.421 119.432 279.561 119.315C279.701 119.198 279.9 119.14 280.156 119.14H284.601C284.835 119.14 285.045 119.233 285.231 119.42C285.418 119.583 285.5 119.782 285.476 120.015C285.453 120.412 285.336 120.878 285.126 121.415C284.916 121.928 284.59 122.477 284.146 123.06C283.703 123.643 283.12 124.192 282.396 124.705C281.696 125.195 280.845 125.592 279.841 125.895C278.838 126.198 277.671 126.35 276.341 126.35ZM288.971 126C288.714 126 288.504 125.918 288.341 125.755C288.178 125.592 288.096 125.382 288.096 125.125V102.025C288.096 101.768 288.178 101.558 288.341 101.395C288.504 101.232 288.714 101.15 288.971 101.15H293.451C293.708 101.15 293.918 101.232 294.081 101.395C294.244 101.558 294.326 101.768 294.326 102.025V109.83C294.956 109.107 295.726 108.535 296.636 108.115C297.569 107.672 298.643 107.45 299.856 107.45C301.209 107.45 302.411 107.753 303.461 108.36C304.534 108.967 305.374 109.865 305.981 111.055C306.588 112.222 306.891 113.657 306.891 115.36V125.125C306.891 125.382 306.809 125.592 306.646 125.755C306.483 125.918 306.273 126 306.016 126H301.501C301.268 126 301.058 125.918 300.871 125.755C300.708 125.592 300.626 125.382 300.626 125.125V115.57C300.626 114.473 300.358 113.633 299.821 113.05C299.308 112.443 298.538 112.14 297.511 112.14C296.554 112.14 295.784 112.443 295.201 113.05C294.618 113.633 294.326 114.473 294.326 115.57V125.125C294.326 125.382 294.244 125.592 294.081 125.755C293.918 125.918 293.708 126 293.451 126H288.971ZM315.795 126.35C314.535 126.35 313.403 126.117 312.4 125.65C311.42 125.16 310.638 124.507 310.055 123.69C309.471 122.873 309.18 121.952 309.18 120.925C309.18 119.268 309.856 117.962 311.21 117.005C312.563 116.025 314.36 115.36 316.6 115.01L320.975 114.345V113.855C320.975 113.015 320.8 112.373 320.45 111.93C320.1 111.487 319.458 111.265 318.525 111.265C317.871 111.265 317.335 111.393 316.915 111.65C316.518 111.907 316.203 112.257 315.97 112.7C315.76 113.003 315.468 113.155 315.095 113.155H311.175C310.918 113.155 310.72 113.085 310.58 112.945C310.44 112.782 310.381 112.595 310.405 112.385C310.405 111.965 310.556 111.487 310.86 110.95C311.186 110.39 311.676 109.842 312.33 109.305C312.983 108.768 313.823 108.325 314.85 107.975C315.876 107.625 317.113 107.45 318.56 107.45C320.076 107.45 321.371 107.625 322.445 107.975C323.518 108.325 324.381 108.815 325.035 109.445C325.711 110.075 326.213 110.822 326.54 111.685C326.866 112.525 327.03 113.458 327.03 114.485V125.125C327.03 125.382 326.936 125.592 326.75 125.755C326.586 125.918 326.388 126 326.155 126H322.095C321.838 126 321.628 125.918 321.465 125.755C321.301 125.592 321.22 125.382 321.22 125.125V123.9C320.916 124.343 320.508 124.752 319.995 125.125C319.481 125.498 318.875 125.79 318.175 126C317.498 126.233 316.705 126.35 315.795 126.35ZM317.44 122.36C318.116 122.36 318.723 122.22 319.26 121.94C319.82 121.637 320.251 121.182 320.555 120.575C320.881 119.945 321.045 119.163 321.045 118.23V117.74L318.07 118.265C316.973 118.452 316.168 118.743 315.655 119.14C315.165 119.513 314.92 119.957 314.92 120.47C314.92 120.867 315.036 121.205 315.27 121.485C315.503 121.765 315.806 121.987 316.18 122.15C316.553 122.29 316.973 122.36 317.44 122.36ZM331.329 126C331.072 126 330.862 125.918 330.699 125.755C330.536 125.592 330.454 125.382 330.454 125.125V108.675C330.454 108.418 330.536 108.208 330.699 108.045C330.862 107.882 331.072 107.8 331.329 107.8H335.354C335.611 107.8 335.821 107.882 335.984 108.045C336.147 108.208 336.229 108.418 336.229 108.675V110.005C336.836 109.282 337.629 108.675 338.609 108.185C339.589 107.695 340.744 107.45 342.074 107.45C343.427 107.45 344.617 107.753 345.644 108.36C346.694 108.967 347.511 109.865 348.094 111.055C348.701 112.222 349.004 113.657 349.004 115.36V125.125C349.004 125.382 348.911 125.592 348.724 125.755C348.561 125.918 348.362 126 348.129 126H343.719C343.486 126 343.276 125.918 343.089 125.755C342.926 125.592 342.844 125.382 342.844 125.125V115.57C342.844 114.473 342.576 113.633 342.039 113.05C341.526 112.443 340.756 112.14 339.729 112.14C338.772 112.14 338.002 112.443 337.419 113.05C336.859 113.633 336.579 114.473 336.579 115.57V125.125C336.579 125.382 336.486 125.592 336.299 125.755C336.136 125.918 335.937 126 335.704 126H331.329ZM360.75 126.35C359.023 126.35 357.495 126.035 356.165 125.405C354.835 124.775 353.773 123.865 352.98 122.675C352.21 121.462 351.79 120.015 351.72 118.335C351.697 117.962 351.685 117.495 351.685 116.935C351.685 116.352 351.697 115.873 351.72 115.5C351.79 113.797 352.21 112.35 352.98 111.16C353.75 109.947 354.8 109.025 356.13 108.395C357.483 107.765 359.023 107.45 360.75 107.45C362.36 107.45 363.737 107.683 364.88 108.15C366.023 108.593 366.957 109.153 367.68 109.83C368.403 110.507 368.94 111.207 369.29 111.93C369.663 112.63 369.862 113.248 369.885 113.785C369.908 114.018 369.827 114.228 369.64 114.415C369.453 114.578 369.243 114.66 369.01 114.66H364.565C364.308 114.66 364.11 114.602 363.97 114.485C363.83 114.368 363.702 114.193 363.585 113.96C363.305 113.237 362.943 112.723 362.5 112.42C362.08 112.117 361.532 111.965 360.855 111.965C359.922 111.965 359.198 112.268 358.685 112.875C358.195 113.482 357.927 114.415 357.88 115.675C357.857 116.608 357.857 117.437 357.88 118.16C357.927 119.443 358.195 120.377 358.685 120.96C359.198 121.543 359.922 121.835 360.855 121.835C361.578 121.835 362.15 121.683 362.57 121.38C362.99 121.077 363.328 120.563 363.585 119.84C363.702 119.607 363.83 119.432 363.97 119.315C364.11 119.198 364.308 119.14 364.565 119.14H369.01C369.243 119.14 369.453 119.233 369.64 119.42C369.827 119.583 369.908 119.782 369.885 120.015C369.862 120.412 369.745 120.878 369.535 121.415C369.325 121.928 368.998 122.477 368.555 123.06C368.112 123.643 367.528 124.192 366.805 124.705C366.105 125.195 365.253 125.592 364.25 125.895C363.247 126.198 362.08 126.35 360.75 126.35ZM380.905 126.35C378.151 126.35 375.958 125.603 374.325 124.11C372.691 122.617 371.84 120.4 371.77 117.46C371.77 117.297 371.77 117.087 371.77 116.83C371.77 116.573 371.77 116.375 371.77 116.235C371.84 114.392 372.248 112.817 372.995 111.51C373.765 110.18 374.815 109.177 376.145 108.5C377.498 107.8 379.073 107.45 380.87 107.45C382.923 107.45 384.615 107.858 385.945 108.675C387.298 109.492 388.313 110.6 388.99 112C389.666 113.4 390.005 114.998 390.005 116.795V117.635C390.005 117.892 389.911 118.102 389.725 118.265C389.561 118.428 389.363 118.51 389.13 118.51H377.93C377.93 118.533 377.93 118.568 377.93 118.615C377.93 118.662 377.93 118.708 377.93 118.755C377.953 119.432 378.07 120.05 378.28 120.61C378.49 121.17 378.816 121.613 379.26 121.94C379.703 122.267 380.24 122.43 380.87 122.43C381.336 122.43 381.721 122.36 382.025 122.22C382.351 122.057 382.62 121.882 382.83 121.695C383.04 121.485 383.203 121.31 383.32 121.17C383.53 120.937 383.693 120.797 383.81 120.75C383.95 120.68 384.16 120.645 384.44 120.645H388.78C389.013 120.645 389.2 120.715 389.34 120.855C389.503 120.972 389.573 121.147 389.55 121.38C389.526 121.777 389.328 122.255 388.955 122.815C388.581 123.375 388.033 123.935 387.31 124.495C386.61 125.032 385.723 125.475 384.65 125.825C383.576 126.175 382.328 126.35 380.905 126.35ZM377.93 115.045H383.845V114.975C383.845 114.228 383.728 113.575 383.495 113.015C383.285 112.455 382.946 112.023 382.48 111.72C382.036 111.417 381.5 111.265 380.87 111.265C380.24 111.265 379.703 111.417 379.26 111.72C378.84 112.023 378.513 112.455 378.28 113.015C378.046 113.575 377.93 114.228 377.93 114.975V115.045ZM153.959 168.35C152.653 168.35 151.556 168.128 150.669 167.685C149.806 167.242 149.094 166.682 148.534 166.005V167.125C148.534 167.382 148.441 167.592 148.254 167.755C148.091 167.918 147.893 168 147.659 168H143.704C143.448 168 143.238 167.918 143.074 167.755C142.911 167.592 142.829 167.382 142.829 167.125V144.025C142.829 143.768 142.911 143.558 143.074 143.395C143.238 143.232 143.448 143.15 143.704 143.15H147.974C148.231 143.15 148.441 143.232 148.604 143.395C148.768 143.558 148.849 143.768 148.849 144.025V151.515C149.409 150.908 150.109 150.418 150.949 150.045C151.813 149.648 152.816 149.45 153.959 149.45C155.126 149.45 156.153 149.648 157.039 150.045C157.949 150.418 158.719 150.967 159.349 151.69C159.979 152.413 160.469 153.277 160.819 154.28C161.169 155.283 161.368 156.415 161.414 157.675C161.438 158.118 161.449 158.527 161.449 158.9C161.449 159.25 161.438 159.658 161.414 160.125C161.368 161.432 161.158 162.598 160.784 163.625C160.434 164.628 159.944 165.492 159.314 166.215C158.684 166.915 157.926 167.452 157.039 167.825C156.153 168.175 155.126 168.35 153.959 168.35ZM152.069 163.66C152.863 163.66 153.481 163.497 153.924 163.17C154.368 162.843 154.683 162.4 154.869 161.84C155.079 161.28 155.208 160.662 155.254 159.985C155.301 159.262 155.301 158.538 155.254 157.815C155.208 157.138 155.079 156.52 154.869 155.96C154.683 155.4 154.368 154.957 153.924 154.63C153.481 154.303 152.863 154.14 152.069 154.14C151.346 154.14 150.751 154.303 150.284 154.63C149.818 154.933 149.468 155.342 149.234 155.855C149.001 156.345 148.873 156.882 148.849 157.465C148.826 157.908 148.814 158.34 148.814 158.76C148.814 159.18 148.826 159.623 148.849 160.09C148.873 160.72 148.989 161.303 149.199 161.84C149.409 162.377 149.748 162.82 150.214 163.17C150.681 163.497 151.299 163.66 152.069 163.66ZM171.07 168.35C169.74 168.35 168.55 168.047 167.5 167.44C166.473 166.833 165.668 165.947 165.085 164.78C164.501 163.59 164.21 162.143 164.21 160.44V150.675C164.21 150.418 164.291 150.208 164.455 150.045C164.618 149.882 164.828 149.8 165.085 149.8H169.46C169.716 149.8 169.926 149.882 170.09 150.045C170.253 150.208 170.335 150.418 170.335 150.675V160.23C170.335 162.517 171.361 163.66 173.415 163.66C174.371 163.66 175.13 163.368 175.69 162.785C176.273 162.178 176.565 161.327 176.565 160.23V150.675C176.565 150.418 176.646 150.208 176.81 150.045C176.973 149.882 177.183 149.8 177.44 149.8H181.815C182.071 149.8 182.281 149.882 182.445 150.045C182.608 150.208 182.69 150.418 182.69 150.675V167.125C182.69 167.382 182.608 167.592 182.445 167.755C182.281 167.918 182.071 168 181.815 168H177.755C177.521 168 177.311 167.918 177.125 167.755C176.961 167.592 176.88 167.382 176.88 167.125V165.795C176.273 166.635 175.48 167.277 174.5 167.72C173.543 168.14 172.4 168.35 171.07 168.35ZM195.591 168C194.098 168 192.803 167.767 191.706 167.3C190.633 166.81 189.805 166.063 189.221 165.06C188.638 164.033 188.346 162.715 188.346 161.105V154.385H185.616C185.36 154.385 185.138 154.303 184.951 154.14C184.788 153.977 184.706 153.767 184.706 153.51V150.675C184.706 150.418 184.788 150.208 184.951 150.045C185.138 149.882 185.36 149.8 185.616 149.8H188.346V144.025C188.346 143.768 188.428 143.558 188.591 143.395C188.778 143.232 188.988 143.15 189.221 143.15H193.281C193.538 143.15 193.748 143.232 193.911 143.395C194.075 143.558 194.156 143.768 194.156 144.025V149.8H198.531C198.788 149.8 198.998 149.882 199.161 150.045C199.325 150.208 199.406 150.418 199.406 150.675V153.51C199.406 153.767 199.325 153.977 199.161 154.14C198.998 154.303 198.788 154.385 198.531 154.385H194.156V160.615C194.156 161.408 194.308 162.038 194.611 162.505C194.915 162.972 195.428 163.205 196.151 163.205H198.846C199.103 163.205 199.313 163.287 199.476 163.45C199.64 163.613 199.721 163.823 199.721 164.08V167.125C199.721 167.382 199.64 167.592 199.476 167.755C199.313 167.918 199.103 168 198.846 168H195.591ZM220.151 168.35C218.844 168.35 217.747 168.128 216.861 167.685C215.997 167.242 215.286 166.682 214.726 166.005V167.125C214.726 167.382 214.632 167.592 214.446 167.755C214.282 167.918 214.084 168 213.851 168H209.896C209.639 168 209.429 167.918 209.266 167.755C209.102 167.592 209.021 167.382 209.021 167.125V144.025C209.021 143.768 209.102 143.558 209.266 143.395C209.429 143.232 209.639 143.15 209.896 143.15H214.166C214.422 143.15 214.632 143.232 214.796 143.395C214.959 143.558 215.041 143.768 215.041 144.025V151.515C215.601 150.908 216.301 150.418 217.141 150.045C218.004 149.648 219.007 149.45 220.151 149.45C221.317 149.45 222.344 149.648 223.231 150.045C224.141 150.418 224.911 150.967 225.541 151.69C226.171 152.413 226.661 153.277 227.011 154.28C227.361 155.283 227.559 156.415 227.606 157.675C227.629 158.118 227.641 158.527 227.641 158.9C227.641 159.25 227.629 159.658 227.606 160.125C227.559 161.432 227.349 162.598 226.976 163.625C226.626 164.628 226.136 165.492 225.506 166.215C224.876 166.915 224.117 167.452 223.231 167.825C222.344 168.175 221.317 168.35 220.151 168.35ZM218.261 163.66C219.054 163.66 219.672 163.497 220.116 163.17C220.559 162.843 220.874 162.4 221.061 161.84C221.271 161.28 221.399 160.662 221.446 159.985C221.492 159.262 221.492 158.538 221.446 157.815C221.399 157.138 221.271 156.52 221.061 155.96C220.874 155.4 220.559 154.957 220.116 154.63C219.672 154.303 219.054 154.14 218.261 154.14C217.537 154.14 216.942 154.303 216.476 154.63C216.009 154.933 215.659 155.342 215.426 155.855C215.192 156.345 215.064 156.882 215.041 157.465C215.017 157.908 215.006 158.34 215.006 158.76C215.006 159.18 215.017 159.623 215.041 160.09C215.064 160.72 215.181 161.303 215.391 161.84C215.601 162.377 215.939 162.82 216.406 163.17C216.872 163.497 217.491 163.66 218.261 163.66ZM233.219 174.65C233.009 174.65 232.834 174.58 232.694 174.44C232.554 174.3 232.484 174.125 232.484 173.915C232.484 173.868 232.484 173.798 232.484 173.705C232.507 173.635 232.542 173.553 232.589 173.46L235.319 166.88L228.599 150.99C228.529 150.827 228.494 150.687 228.494 150.57C228.54 150.36 228.634 150.185 228.774 150.045C228.914 149.882 229.089 149.8 229.299 149.8H233.289C233.592 149.8 233.814 149.882 233.954 150.045C234.117 150.185 234.222 150.348 234.269 150.535L238.294 160.72L242.389 150.535C242.482 150.348 242.599 150.185 242.739 150.045C242.902 149.882 243.135 149.8 243.439 149.8H247.359C247.569 149.8 247.744 149.882 247.884 150.045C248.047 150.185 248.129 150.348 248.129 150.535C248.129 150.652 248.094 150.803 248.024 150.99L238.119 173.915C238.049 174.102 237.932 174.265 237.769 174.405C237.605 174.568 237.372 174.65 237.069 174.65H233.219ZM264.585 168.35C262.858 168.35 261.33 168.035 260 167.405C258.67 166.775 257.608 165.865 256.815 164.675C256.045 163.462 255.625 162.015 255.555 160.335C255.532 159.962 255.52 159.495 255.52 158.935C255.52 158.352 255.532 157.873 255.555 157.5C255.625 155.797 256.045 154.35 256.815 153.16C257.585 151.947 258.635 151.025 259.965 150.395C261.318 149.765 262.858 149.45 264.585 149.45C266.195 149.45 267.572 149.683 268.715 150.15C269.858 150.593 270.792 151.153 271.515 151.83C272.238 152.507 272.775 153.207 273.125 153.93C273.498 154.63 273.697 155.248 273.72 155.785C273.743 156.018 273.662 156.228 273.475 156.415C273.288 156.578 273.078 156.66 272.845 156.66H268.4C268.143 156.66 267.945 156.602 267.805 156.485C267.665 156.368 267.537 156.193 267.42 155.96C267.14 155.237 266.778 154.723 266.335 154.42C265.915 154.117 265.367 153.965 264.69 153.965C263.757 153.965 263.033 154.268 262.52 154.875C262.03 155.482 261.762 156.415 261.715 157.675C261.692 158.608 261.692 159.437 261.715 160.16C261.762 161.443 262.03 162.377 262.52 162.96C263.033 163.543 263.757 163.835 264.69 163.835C265.413 163.835 265.985 163.683 266.405 163.38C266.825 163.077 267.163 162.563 267.42 161.84C267.537 161.607 267.665 161.432 267.805 161.315C267.945 161.198 268.143 161.14 268.4 161.14H272.845C273.078 161.14 273.288 161.233 273.475 161.42C273.662 161.583 273.743 161.782 273.72 162.015C273.697 162.412 273.58 162.878 273.37 163.415C273.16 163.928 272.833 164.477 272.39 165.06C271.947 165.643 271.363 166.192 270.64 166.705C269.94 167.195 269.088 167.592 268.085 167.895C267.082 168.198 265.915 168.35 264.585 168.35ZM277.214 168C276.958 168 276.748 167.918 276.584 167.755C276.421 167.592 276.339 167.382 276.339 167.125V144.025C276.339 143.768 276.421 143.558 276.584 143.395C276.748 143.232 276.958 143.15 277.214 143.15H281.694C281.951 143.15 282.161 143.232 282.324 143.395C282.488 143.558 282.569 143.768 282.569 144.025V151.83C283.199 151.107 283.969 150.535 284.879 150.115C285.813 149.672 286.886 149.45 288.099 149.45C289.453 149.45 290.654 149.753 291.704 150.36C292.778 150.967 293.618 151.865 294.224 153.055C294.831 154.222 295.134 155.657 295.134 157.36V167.125C295.134 167.382 295.053 167.592 294.889 167.755C294.726 167.918 294.516 168 294.259 168H289.744C289.511 168 289.301 167.918 289.114 167.755C288.951 167.592 288.869 167.382 288.869 167.125V157.57C288.869 156.473 288.601 155.633 288.064 155.05C287.551 154.443 286.781 154.14 285.754 154.14C284.798 154.14 284.028 154.443 283.444 155.05C282.861 155.633 282.569 156.473 282.569 157.57V167.125C282.569 167.382 282.488 167.592 282.324 167.755C282.161 167.918 281.951 168 281.694 168H277.214ZM307.188 168.35C305.228 168.35 303.571 168.035 302.218 167.405C300.888 166.775 299.861 165.877 299.138 164.71C298.438 163.52 298.041 162.108 297.948 160.475C297.925 160.008 297.913 159.483 297.913 158.9C297.913 158.293 297.925 157.768 297.948 157.325C298.041 155.668 298.461 154.257 299.208 153.09C299.955 151.923 300.993 151.025 302.323 150.395C303.676 149.765 305.298 149.45 307.188 149.45C309.101 149.45 310.723 149.765 312.053 150.395C313.406 151.025 314.456 151.923 315.203 153.09C315.95 154.257 316.37 155.668 316.463 157.325C316.486 157.768 316.498 158.293 316.498 158.9C316.498 159.483 316.486 160.008 316.463 160.475C316.37 162.108 315.961 163.52 315.238 164.71C314.538 165.877 313.511 166.775 312.158 167.405C310.828 168.035 309.171 168.35 307.188 168.35ZM307.188 164.08C308.238 164.08 308.996 163.765 309.463 163.135C309.953 162.505 310.233 161.56 310.303 160.3C310.326 159.95 310.338 159.483 310.338 158.9C310.338 158.317 310.326 157.85 310.303 157.5C310.233 156.263 309.953 155.33 309.463 154.7C308.996 154.047 308.238 153.72 307.188 153.72C306.161 153.72 305.403 154.047 304.913 154.7C304.423 155.33 304.155 156.263 304.108 157.5C304.085 157.85 304.073 158.317 304.073 158.9C304.073 159.483 304.085 159.95 304.108 160.3C304.155 161.56 304.423 162.505 304.913 163.135C305.403 163.765 306.161 164.08 307.188 164.08ZM320.29 168C320.034 168 319.824 167.918 319.66 167.755C319.497 167.592 319.415 167.382 319.415 167.125V150.675C319.415 150.418 319.497 150.208 319.66 150.045C319.824 149.882 320.034 149.8 320.29 149.8H324.42C324.654 149.8 324.852 149.882 325.015 150.045C325.202 150.208 325.295 150.418 325.295 150.675V167.125C325.295 167.382 325.202 167.592 325.015 167.755C324.852 167.918 324.654 168 324.42 168H320.29ZM320.255 147.175C319.999 147.175 319.789 147.093 319.625 146.93C319.462 146.767 319.38 146.557 319.38 146.3V143.185C319.38 142.928 319.462 142.718 319.625 142.555C319.789 142.368 319.999 142.275 320.255 142.275H324.42C324.677 142.275 324.887 142.368 325.05 142.555C325.237 142.718 325.33 142.928 325.33 143.185V146.3C325.33 146.557 325.237 146.767 325.05 146.93C324.887 147.093 324.677 147.175 324.42 147.175H320.255ZM337.407 168.35C335.68 168.35 334.152 168.035 332.822 167.405C331.492 166.775 330.43 165.865 329.637 164.675C328.867 163.462 328.447 162.015 328.377 160.335C328.353 159.962 328.342 159.495 328.342 158.935C328.342 158.352 328.353 157.873 328.377 157.5C328.447 155.797 328.867 154.35 329.637 153.16C330.407 151.947 331.457 151.025 332.787 150.395C334.14 149.765 335.68 149.45 337.407 149.45C339.017 149.45 340.393 149.683 341.537 150.15C342.68 150.593 343.613 151.153 344.337 151.83C345.06 152.507 345.597 153.207 345.947 153.93C346.32 154.63 346.518 155.248 346.542 155.785C346.565 156.018 346.483 156.228 346.297 156.415C346.11 156.578 345.9 156.66 345.667 156.66H341.222C340.965 156.66 340.767 156.602 340.627 156.485C340.487 156.368 340.358 156.193 340.242 155.96C339.962 155.237 339.6 154.723 339.157 154.42C338.737 154.117 338.188 153.965 337.512 153.965C336.578 153.965 335.855 154.268 335.342 154.875C334.852 155.482 334.583 156.415 334.537 157.675C334.513 158.608 334.513 159.437 334.537 160.16C334.583 161.443 334.852 162.377 335.342 162.96C335.855 163.543 336.578 163.835 337.512 163.835C338.235 163.835 338.807 163.683 339.227 163.38C339.647 163.077 339.985 162.563 340.242 161.84C340.358 161.607 340.487 161.432 340.627 161.315C340.767 161.198 340.965 161.14 341.222 161.14H345.667C345.9 161.14 346.11 161.233 346.297 161.42C346.483 161.583 346.565 161.782 346.542 162.015C346.518 162.412 346.402 162.878 346.192 163.415C345.982 163.928 345.655 164.477 345.212 165.06C344.768 165.643 344.185 166.192 343.462 166.705C342.762 167.195 341.91 167.592 340.907 167.895C339.903 168.198 338.737 168.35 337.407 168.35ZM357.561 168.35C354.808 168.35 352.615 167.603 350.981 166.11C349.348 164.617 348.496 162.4 348.426 159.46C348.426 159.297 348.426 159.087 348.426 158.83C348.426 158.573 348.426 158.375 348.426 158.235C348.496 156.392 348.905 154.817 349.651 153.51C350.421 152.18 351.471 151.177 352.801 150.5C354.155 149.8 355.73 149.45 357.526 149.45C359.58 149.45 361.271 149.858 362.601 150.675C363.955 151.492 364.97 152.6 365.646 154C366.323 155.4 366.661 156.998 366.661 158.795V159.635C366.661 159.892 366.568 160.102 366.381 160.265C366.218 160.428 366.02 160.51 365.786 160.51H354.586C354.586 160.533 354.586 160.568 354.586 160.615C354.586 160.662 354.586 160.708 354.586 160.755C354.61 161.432 354.726 162.05 354.936 162.61C355.146 163.17 355.473 163.613 355.916 163.94C356.36 164.267 356.896 164.43 357.526 164.43C357.993 164.43 358.378 164.36 358.681 164.22C359.008 164.057 359.276 163.882 359.486 163.695C359.696 163.485 359.86 163.31 359.976 163.17C360.186 162.937 360.35 162.797 360.466 162.75C360.606 162.68 360.816 162.645 361.096 162.645H365.436C365.67 162.645 365.856 162.715 365.996 162.855C366.16 162.972 366.23 163.147 366.206 163.38C366.183 163.777 365.985 164.255 365.611 164.815C365.238 165.375 364.69 165.935 363.966 166.495C363.266 167.032 362.38 167.475 361.306 167.825C360.233 168.175 358.985 168.35 357.561 168.35ZM354.586 157.045H360.501V156.975C360.501 156.228 360.385 155.575 360.151 155.015C359.941 154.455 359.603 154.023 359.136 153.72C358.693 153.417 358.156 153.265 357.526 153.265C356.896 153.265 356.36 153.417 355.916 153.72C355.496 154.023 355.17 154.455 354.936 155.015C354.703 155.575 354.586 156.228 354.586 156.975V157.045Z" fill="#004AAD"/>
<path d="M298.651 348.167C279.762 358.587 282.651 380.663 285.107 390.697C287.563 399.882 300.312 403.626 305.621 404.05C388.942 407.369 514.158 405.71 529.76 404.475C530.158 404.475 533.047 404.05 535.936 403.626C546.193 401.966 552.767 392.781 552.767 391.97C557.679 378.617 555.656 359.861 544.966 351.525C530.351 343.619 540.848 349.016 540.848 348.206C541.246 346.971 541.246 344.887 541.246 345.697C540.848 348.206 544.532 327.79 535.503 317.755C529.76 311.503 521.129 306.1 512.497 303.592C511.269 303.167 511.666 301.932 511.269 300.273C509.644 291.512 494.438 279.008 480.064 279.008C462.836 279.008 467.748 283.176 465.292 281.516C462.403 279.008 459.947 276.113 457.491 274.029C446.006 264.034 425.059 259.441 411.912 261.95C411.912 261.95 389.339 262.799 374.568 281.941C374.17 280.706 365.936 279.008 361.421 279.008C348.708 278.583 336.79 286.919 332.275 292.747C329.819 296.066 328.158 300.234 327.761 302.318C327.761 303.978 324.871 304.402 324.474 304.827C317.07 308.146 308.041 309.844 301.07 321.499C297.386 328.176 297.784 338.171 298.181 346.507C310.785 367.811 298.181 346.507 298.578 348.167H298.651Z" fill="#FEE76C" stroke="#FEE76C" stroke-width="5" stroke-miterlimit="10"/>
<path d="M354.591 305.218C354.563 301.429 363.616 292.132 376.118 292.589C387.947 293.019 397.421 302.907 396.272 305.621C395.851 306.643 395.011 307.046 393.777 306.911C390.161 306.589 388.564 303.149 385.34 300.731C380.267 296.915 371.269 296.7 366.363 300.14C362.187 303.069 360.589 307.529 356.665 307.341C354.871 307.261 354.591 306.777 354.591 305.218Z" fill="#554B1A" stroke="#554B1A" stroke-miterlimit="10"/>
<path d="M438.027 305.208C437.999 301.446 447.053 292.122 459.555 292.578C471.384 293.008 480.858 302.897 479.709 305.611C479.288 306.632 478.447 307.035 477.214 306.901C473.598 306.579 472 303.139 468.777 300.721C463.703 296.905 454.706 296.69 449.8 300.129C445.624 303.058 444.026 307.519 440.102 307.331C438.308 307.25 438.027 306.767 438.027 305.208Z" fill="#554B1A" stroke="#554B1A" stroke-miterlimit="10"/>
<path d="M473.814 371.98C489.119 371.98 501.525 360.046 501.525 345.323C501.525 330.601 489.119 318.666 473.814 318.666C458.51 318.666 446.103 330.601 446.103 345.323C446.103 360.046 458.51 371.98 473.814 371.98Z" fill="white"/>
<path d="M468.876 363.098C480.377 363.098 489.7 353.542 489.7 341.754C489.7 329.966 480.377 320.41 468.876 320.41C457.376 320.41 448.053 329.966 448.053 341.754C448.053 353.542 457.376 363.098 468.876 363.098Z" fill="#373D54"/>
<path d="M369.563 371.914C384.868 371.914 397.274 359.979 397.274 345.257C397.274 330.534 384.868 318.599 369.563 318.599C354.259 318.599 341.852 330.534 341.852 345.257C341.852 359.979 354.259 371.914 369.563 371.914Z" fill="white"/>
<path d="M364.625 363.032C376.126 363.032 385.449 353.475 385.449 341.687C385.449 329.899 376.126 320.343 364.625 320.343C353.125 320.343 343.802 329.899 343.802 341.687C343.802 353.475 353.125 363.032 364.625 363.032Z" fill="#373D54"/>
<path d="M446.242 369.504C446.242 382.882 435.296 403.077 421.804 403.077C408.312 403.077 397.366 382.882 397.366 369.504C397.366 356.126 408.312 368.446 421.804 368.446C435.296 368.446 446.242 356.083 446.242 369.504Z" fill="#554B1A"/>
<path d="M428.395 266.565C432.791 277.041 451.041 283.299 460.189 274.595C466.961 268.16 467.085 255.104 460.419 248.456C451.361 239.433 432.844 245.283 428.395 255.583C426.108 260.883 428.147 265.962 428.395 266.556V266.565Z" fill="#FF90A9"/>
<path d="M420.27 256.148C415.874 245.671 397.623 239.414 388.476 248.109C381.704 254.544 381.58 267.6 388.246 274.248C397.304 283.271 415.82 277.421 420.27 267.121C422.557 261.821 420.518 256.742 420.27 256.148Z" fill="#FF90A9"/>
<rect x="418.321" y="257" width="12" height="10" rx="2" fill="#EA3468"/>
</g>
<defs>
<radialGradient id="paint0_radial_527_801" cx="0" cy="0" r="1" gradientUnits="userSpaceOnUse" gradientTransform="translate(252.821 202.43) rotate(90) scale(203.43 252.5)">
<stop stop-color="white"/>
<stop offset="1" stop-color="#FBD6E1"/>
</radialGradient>
<clipPath id="clip0_527_801">
<rect width="505" height="406.86" fill="white"/>
</clipPath>
</defs>
</svg>
