<svg width="611" height="942" viewBox="0 0 611 942" fill="none" xmlns="http://www.w3.org/2000/svg">
<path d="M109.863 889.91L343.733 521.448L163.193 457.386L109.863 889.91Z" fill="#FEE76C"/>
<path d="M195.229 518.27L158.987 490.01L153.308 537.225L195.229 518.27Z" fill="#D4BC42"/>
<path d="M138.246 348.205C110.252 430.476 154.974 519.87 237.293 547.589V547.589C319.612 575.308 409.72 531.315 437.714 449.045V449.045C441.397 438.22 435.603 426.488 424.771 422.841L164.527 335.209C153.696 331.561 141.929 337.38 138.246 348.205V348.205Z" fill="#FEE76C"/>
<path d="M485.903 358.277C507.009 381.154 492.872 409.951 484.879 422.516C477.278 433.923 458.066 433.186 450.588 431.331C334.776 397.661 163.795 337.99 142.964 329.152C142.419 328.97 138.652 327.066 134.884 325.162C121.581 318.195 116.798 302.649 117.171 301.543C116.588 281.071 128.006 256.407 146.511 249.933C170.199 245.846 153.314 248.398 153.688 247.292C153.712 245.425 154.673 242.582 154.299 243.687C153.688 247.292 158.044 217.747 175.053 208.195C185.81 202.297 200.14 198.882 213.135 199.417C215.015 199.4 215.039 197.533 216.349 195.451C222.616 184.243 249.234 174.152 268.95 180.742C292.579 188.64 283.921 192.075 288.054 190.937C293.173 188.839 297.876 186.015 302.205 184.298C322.564 175.924 353.412 179.262 370.288 188.712C370.288 188.712 400.857 200.219 412.296 233.11C413.41 231.607 425.487 233.065 431.68 235.135C449.312 240.384 461.818 257.222 465.324 267.243C467.163 272.898 467.521 279.347 467.106 282.372C466.341 284.637 470.108 286.541 470.458 287.302C479.083 295.225 490.685 301.681 494.874 320.78C496.85 331.579 491.699 345.035 487.312 356.228C460.207 379.517 487.312 356.228 486.002 358.31L485.903 358.277Z" fill="#FF90A9" stroke="#FF90A9" stroke-width="5" stroke-miterlimit="10"/>
<g clip-path="url(#clip0_856_304)">
<path d="M426.151 271.017C427.855 266.094 420.09 250.021 403.52 245.145C387.843 240.528 371.087 249.262 371.398 253.3C371.499 254.814 372.423 255.707 374.097 256.072C378.973 257.235 382.578 253.454 387.863 251.714C396.185 248.964 408.061 252.622 412.971 259.249C417.151 264.893 417.28 271.402 422.501 272.875C424.886 273.555 425.465 273.047 426.151 271.017Z" fill="#E84A89" stroke="#E84A89" stroke-miterlimit="10"/>
<path d="M316.906 234.487C318.598 229.599 310.845 213.491 294.275 208.615C278.598 203.998 261.842 212.732 262.152 216.77C262.254 218.284 263.177 219.177 264.851 219.542C269.728 220.705 273.333 216.924 278.618 215.184C286.94 212.434 298.816 216.092 303.726 222.719C307.906 228.363 308.035 234.872 313.256 236.345C315.641 237.025 316.22 236.517 316.906 234.487Z" fill="#E84A89" stroke="#E84A89" stroke-miterlimit="10"/>
</g>
<path d="M381.935 353.016C361.896 346.318 350.901 325.343 357.379 306.166C363.856 286.989 385.351 276.874 405.391 283.572C425.43 290.27 436.424 311.245 429.947 330.422C423.47 349.599 401.974 359.714 381.935 353.016Z" fill="white"/>
<path d="M375.294 342.757C360.236 337.724 352.232 321.196 357.419 305.841C362.605 290.487 379.016 282.12 394.075 287.153C409.133 292.186 417.137 308.714 411.95 324.069C406.764 339.423 390.353 347.79 375.294 342.757Z" fill="#373D54"/>
<path d="M240.672 305.799C220.633 299.1 209.639 278.125 216.116 258.948C222.593 239.772 244.089 229.656 264.128 236.354C284.167 243.052 295.161 264.028 288.684 283.204C282.207 302.381 260.712 312.497 240.672 305.799Z" fill="white"/>
<path d="M252.597 301.746C237.538 296.713 229.535 280.185 234.721 264.83C239.907 249.476 256.319 241.109 271.378 246.142C286.436 251.175 294.439 267.703 289.253 283.058C284.067 298.412 267.655 306.779 252.597 301.746Z" fill="#373D54"/>
<path d="M278.168 315.458C271.874 334.093 277.667 367.335 296.518 373.636C315.37 379.937 340.165 356.92 346.459 338.285C352.753 319.65 331.663 331.698 312.811 325.397C293.96 319.096 284.482 296.764 278.168 315.458Z" fill="#E84A89"/>
<rect width="15.7132" height="49.9583" rx="7.8566" transform="matrix(0.944757 0.327015 -0.33024 0.944162 363.762 390.624)" fill="#FF90A9"/>
<rect width="15.7132" height="49.9583" rx="7.8566" transform="matrix(0.944757 0.327015 -0.33024 0.944162 355.161 368.327)" fill="#FF90A9"/>
<path d="M459.985 40.0871C460.176 35.2696 454.096 33.0214 451.077 36.7934L435.012 56.8688C434.103 58.0049 432.745 58.6914 431.291 58.7495L406.1 59.7566C401.653 59.9344 399.617 65.3828 402.868 68.407L421.282 85.5379C422.344 86.5265 422.922 87.9288 422.865 89.3798L421.848 115.02C421.657 119.837 427.737 122.085 430.755 118.313L446.82 98.238C447.73 97.1019 449.088 96.4154 450.541 96.3573L475.733 95.3502C480.18 95.1724 482.216 89.724 478.965 86.6999L460.551 69.5689C459.488 68.5803 458.911 67.178 458.968 65.727L459.985 40.0871Z" fill="#EA3468"/>
<path d="M378.285 53.2578C377.072 49.6049 371.904 49.6049 370.691 53.2578L364.917 70.653C364.55 71.757 363.721 72.6468 362.645 73.0904L345.877 80.0067C342.577 81.3677 342.577 86.0403 345.877 87.4013L362.645 94.3176C363.721 94.7612 364.55 95.651 364.917 96.755L370.691 114.15C371.904 117.803 377.072 117.803 378.285 114.15L384.06 96.755C384.426 95.651 385.255 94.7612 386.331 94.3176L403.099 87.4013C406.399 86.0403 406.399 81.3677 403.099 80.0067L386.331 73.0904C385.255 72.6468 384.426 71.757 384.06 70.653L378.285 53.2578Z" fill="#F8BBCD"/>
<path d="M513.36 557.27C512.147 553.617 506.979 553.617 505.767 557.27L499.992 574.665C499.625 575.769 498.796 576.659 497.721 577.103L480.952 584.019C477.652 585.38 477.652 590.052 480.952 591.413L497.721 598.33C498.796 598.773 499.625 599.663 499.992 600.767L505.767 618.162C506.979 621.815 512.147 621.815 513.36 618.162L519.135 600.767C519.501 599.663 520.33 598.773 521.406 598.33L538.175 591.413C541.474 590.052 541.474 585.38 538.175 584.019L521.406 577.103C520.33 576.659 519.501 575.769 519.135 574.665L513.36 557.27Z" fill="#EA3468"/>
<path d="M60.3622 288.175C59.7017 286.362 57.1111 286.442 56.5649 288.292L54.2154 296.249C54.0507 296.807 53.6516 297.265 53.122 297.504L45.5892 300.912C43.968 301.645 44.0406 303.972 45.7044 304.604L53.435 307.54C53.9786 307.746 54.4055 308.179 54.6045 308.725L57.4455 316.522C58.106 318.335 60.6966 318.255 61.2428 316.405L63.5923 308.448C63.7569 307.89 64.156 307.432 64.6857 307.193L72.2185 303.785C73.8396 303.052 73.7671 300.725 72.1033 300.093L64.3726 297.157C63.8291 296.951 63.4022 296.518 63.2031 295.972L60.3622 288.175Z" fill="#004AAD"/>
<path d="M540.756 183.34C540.702 182.377 539.45 182.043 538.92 182.851L533.899 190.5C533.739 190.743 533.481 190.905 533.193 190.944L524.557 192.101C523.674 192.22 523.372 193.343 524.076 193.885L530.974 199.183C531.204 199.36 531.346 199.628 531.362 199.918L531.866 209.04C531.919 210.003 533.172 210.337 533.701 209.53L538.723 201.88C538.883 201.637 539.14 201.475 539.428 201.436L548.065 200.279C548.947 200.16 549.25 199.037 548.545 198.496L541.648 193.197C541.417 193.021 541.276 192.752 541.26 192.462L540.756 183.34Z" fill="#004AAD"/>
<defs>
<clipPath id="clip0_856_304">
<rect width="179.177" height="24.0083" fill="white" transform="matrix(-0.948198 -0.316935 -0.320075 0.947644 434.146 253.395)"/>
</clipPath>
</defs>
</svg>
