<svg width="341" height="382" viewBox="0 0 341 382" fill="none" xmlns="http://www.w3.org/2000/svg">
<g clip-path="url(#clip0_567_2162)">
<rect width="341" height="382" fill="white"/>
<rect width="341" height="382" fill="#F59AB4"/>
<rect x="171" y="284.379" width="208" height="55" rx="20" transform="rotate(-2.86014 171 284.379)" fill="#F1789A"/>
<rect x="137" y="298" width="82" height="41" rx="20" fill="#D4BC42"/>
<rect x="130" y="298" width="82" height="41" rx="20" fill="#FEE76C"/>
<ellipse cx="171" cy="102" rx="218" ry="199" fill="#5586C8"/>
<ellipse cx="143" cy="75" rx="218" ry="199" fill="#80A5D6"/>
<path d="M165.767 313.849C165.781 315.362 161.927 319.098 156.614 318.918C151.59 318.747 147.562 314.781 148.038 313.695C148.226 313.293 148.573 313.131 149.107 313.173C150.637 313.302 151.316 314.687 152.687 315.653C154.838 317.183 158.678 317.268 160.743 315.892C162.519 314.721 163.197 312.926 164.857 313.002C165.623 313.037 165.738 313.233 165.738 313.849H165.767Z" fill="#554B1A"/>
<path d="M193 313.857C193.014 315.371 189.16 319.107 183.847 318.918C178.823 318.747 174.795 314.781 175.271 313.695C175.459 313.293 175.806 313.131 176.34 313.174C177.87 313.302 178.549 314.687 179.92 315.653C182.071 317.183 185.911 317.269 187.976 315.892C189.752 314.721 190.43 312.926 192.09 313.003C192.856 313.037 192.971 313.233 192.971 313.849L193 313.857Z" fill="#554B1A"/>
<path d="M179.578 323.725C179.593 325.237 175.654 328.97 170.224 328.782C165.089 328.612 160.973 324.648 161.46 323.563C161.652 323.161 162.006 322.999 162.552 323.042C164.116 323.17 164.809 324.554 166.211 325.519C168.409 327.048 172.334 327.134 174.444 325.758C176.259 324.588 176.952 322.794 178.649 322.871C179.431 322.905 179.549 323.101 179.549 323.716L179.578 323.725Z" fill="#554B1A"/>
</g>
<defs>
<clipPath id="clip0_567_2162">
<rect width="341" height="382" fill="white"/>
</clipPath>
</defs>
</svg>
