<svg width="341" height="382" viewBox="0 0 341 382" fill="none" xmlns="http://www.w3.org/2000/svg">
<g clip-path="url(#clip0_567_2041)">
<rect width="341" height="382" fill="white"/>
<rect width="341" height="382" fill="#004AAD"/>
<path d="M38 168.321C38.0703 168.276 38.1422 168.232 38.2158 168.191L155.666 97C181.225 106.175 288.787 158.074 336.431 225.631C346.104 239.346 353.307 253.706 356.853 268.486C388.855 320.577 337.3 460.924 310.678 527.293C309.623 535.318 307.378 542.783 303.798 549.576C290.004 575.754 297.097 561.149 310.678 527.293C326.76 404.927 66.0067 152.431 38.2158 168.191L38 168.321Z" fill="#FEEC8A"/>
<path d="M349.987 473C334.689 308.312 91 144 91 144L131.5 118C162.248 129.037 324.988 238.422 346 326C367.953 417.5 358.089 560.223 349.987 473Z" fill="#FEE24F"/>
<path d="M31.0799 144.225C25.6302 154.12 33.0812 163.085 36.9738 166.841C40.6292 170.222 47.3204 168.315 49.7897 167.018C87.6075 145.193 142.582 109.451 149.145 104.542C149.321 104.431 150.481 103.435 151.642 102.44C155.719 98.8373 156.061 92.9329 155.835 92.5741C154.276 85.2887 148.137 77.5499 141.073 76.8479C132.393 77.4334 138.549 76.8884 138.322 76.5295C138.153 75.8717 137.57 74.949 137.797 75.3078C138.322 76.5295 134.246 66.4606 127.443 64.5423C123.152 63.3797 117.82 63.4008 113.297 64.7034C112.635 64.8587 112.465 64.2009 111.825 63.5772C108.657 60.1529 98.4287 58.8676 92.0645 62.8864C84.4371 67.7028 87.7771 68.175 86.2257 68.1268C84.2452 67.824 82.3486 67.2291 80.6786 66.993C72.7991 65.7784 62.2407 69.6015 57.1215 74.3876C57.1215 74.3876 47.3649 81.0743 46.1765 93.6793C45.6554 93.2436 41.5348 94.7939 39.536 96.0561C33.7887 99.4224 30.8424 106.445 30.4729 110.288C30.3135 112.444 30.7432 114.754 31.15 115.787C31.6139 116.522 30.4534 117.518 30.3962 117.817C28.046 121.356 24.5232 124.632 24.6956 131.742C24.9312 135.727 27.9016 140.042 30.4081 143.622C41.9443 149.53 30.4081 143.622 31.0479 144.245L31.0799 144.225Z" fill="#FF90A9" stroke="#FF90A9" stroke-width="5" stroke-miterlimit="10"/>
<path d="M110.616 100.456C115.802 97.181 119.07 93.0424 117.914 91.2119C116.758 89.3815 111.617 90.5525 106.431 93.8274C101.244 97.1023 97.977 101.241 99.1329 103.071C100.289 104.902 105.43 103.731 110.616 100.456Z" fill="#FFF9F9" fill-opacity="0.4"/>
<path d="M102.503 113.54C105.087 117.633 103.741 127.125 97.2729 131.21C90.8047 135.294 81.6554 132.429 79.0707 128.336C76.486 124.243 84.114 124.699 90.5822 120.614C97.0504 116.53 99.9098 109.434 102.503 113.54Z" fill="#EA3468"/>
<path d="M64.2163 129.756C69.4025 126.481 72.6697 122.342 71.5139 120.512C70.3581 118.681 65.2168 119.852 60.0306 123.127C54.8444 126.402 51.5771 130.541 52.733 132.371C53.8888 134.202 59.0301 133.031 64.2163 129.756Z" fill="white" fill-opacity="0.4"/>
<path d="M91.3364 97.3329C89.0384 93.7388 88.8561 81.398 96.6254 77.0905C103.974 73.0201 115.63 78.8853 116.592 81.8979C116.932 83.023 116.687 83.719 115.869 84.0932C113.516 85.1515 110.474 82.4551 107.084 81.3748C101.744 79.6445 96.1948 82.8636 95.3525 87.9845C94.6089 92.359 96.3534 97.2432 93.8941 98.5396C92.7626 99.1401 92.3036 98.7743 91.3772 97.3071L91.3364 97.3329Z" fill="#EA3468" stroke="#EA3468" stroke-miterlimit="10"/>
<path d="M45.5947 125.961C43.2967 122.367 43.1143 110.026 50.8965 105.739C58.2454 101.668 69.9015 107.533 70.8633 110.546C71.2031 111.671 70.9586 112.367 70.1402 112.741C67.7872 113.8 64.7448 111.103 61.3548 110.023C56.0152 108.293 50.466 111.512 49.6237 116.633C48.8801 121.007 50.6246 125.891 48.1653 127.188C47.0338 127.788 46.5748 127.422 45.6483 125.955L45.5947 125.961Z" fill="#EA3468" stroke="#EA3468" stroke-miterlimit="10"/>
<path d="M267.101 184.748C267.706 182.918 270.294 182.918 270.899 184.748L275.465 198.568C275.647 199.12 276.061 199.565 276.598 199.788L289.542 205.152C291.188 205.834 291.188 208.166 289.542 208.848L276.598 214.212C276.061 214.435 275.647 214.88 275.465 215.432L270.899 229.252C270.294 231.082 267.706 231.082 267.101 229.252L262.535 215.432C262.353 214.88 261.939 214.435 261.402 214.212L248.458 208.848C246.812 208.166 246.812 205.834 248.458 205.152L261.402 199.788C261.939 199.565 262.353 199.12 262.535 198.568L267.101 184.748Z" fill="white"/>
<path d="M211.702 31.4958C212.911 27.8356 218.089 27.8356 219.298 31.4958L225.054 48.917C225.419 50.0213 226.246 50.9122 227.32 51.3574L244.084 58.3048C247.375 59.6689 247.375 64.3311 244.084 65.6952L227.32 72.6426C226.246 73.0878 225.419 73.9787 225.054 75.083L219.298 92.5042C218.089 96.1644 212.911 96.1644 211.702 92.5042L205.946 75.083C205.581 73.9787 204.754 73.0878 203.68 72.6426L186.916 65.6952C183.625 64.3311 183.625 59.6689 186.916 58.3048L203.68 51.3574C204.754 50.9122 205.581 50.0213 205.946 48.917L211.702 31.4958Z" fill="#F8BBCD"/>
<path d="M277.099 307.813C277.7 305.975 280.3 305.975 280.901 307.813L283.847 316.823C284.028 317.376 284.44 317.822 284.976 318.046L293.594 321.655C295.231 322.341 295.231 324.659 293.594 325.345L284.976 328.954C284.44 329.178 284.028 329.624 283.847 330.177L280.901 339.187C280.3 341.025 277.7 341.025 277.099 339.187L274.153 330.177C273.972 329.624 273.56 329.178 273.024 328.954L264.406 325.345C262.769 324.659 262.769 322.341 264.406 321.655L273.024 318.046C273.56 317.822 273.972 317.376 274.153 316.823L277.099 307.813Z" fill="white"/>
</g>
<defs>
<clipPath id="clip0_567_2041">
<rect width="341" height="382" fill="white"/>
</clipPath>
</defs>
</svg>
