<svg width="341" height="382" viewBox="0 0 341 382" fill="none" xmlns="http://www.w3.org/2000/svg">
<g clip-path="url(#clip0_567_2005)">
<rect width="341" height="382" fill="white"/>
<rect width="341" height="382" fill="#FFF1A7"/>
<ellipse cx="171" cy="-51" rx="178" ry="169" fill="#EA3468"/>
<path d="M90 228C90 221.373 95.3726 216 102 216H222.35C228.977 216 234.35 221.373 234.35 228V298.735C234.35 326.35 211.964 348.735 184.35 348.735H140C112.386 348.735 90 326.35 90 298.735V228Z" fill="#AAC3E4"/>
<path d="M264 282.368C264 298.072 250.94 311.188 234.35 311.188C217.759 311.188 204.7 298.072 204.7 282.368C204.7 266.663 217.759 253.547 234.35 253.547C250.94 253.547 264 266.663 264 282.368Z" stroke="#AAC3E4" stroke-width="22"/>
<circle cx="235.5" cy="106.5" r="41.5" fill="#F1789A"/>
<circle cx="121.5" cy="88.5" r="88.5" fill="#F59AB4"/>
<path d="M77.4767 71.2103C76.8709 69.0145 80.6815 62.207 88.0118 60.5272C94.9473 58.9364 101.987 63.2044 101.742 64.9592C101.657 65.6176 101.231 65.9825 100.494 66.0963C98.3445 66.4717 96.8816 64.723 94.6336 63.8202C91.0939 62.3939 85.8357 63.669 83.5226 66.4295C81.5531 68.7801 81.3194 71.6189 79.0115 72.1202C77.9572 72.3526 77.7192 72.1153 77.4767 71.2103Z" fill="#E84A89" stroke="#E84A89" stroke-miterlimit="10"/>
<path d="M125.924 58.2227C125.322 56.0425 129.129 49.2194 136.459 47.5396C143.394 45.9488 150.434 50.2168 150.189 51.9716C150.104 52.6299 149.679 52.9948 148.941 53.1087C146.792 53.4841 145.329 51.7354 143.081 50.8326C139.541 49.4063 134.283 50.6814 131.97 53.4419C130 55.7925 129.767 58.6313 127.459 59.1326C126.404 59.3649 126.166 59.1277 125.924 58.2227Z" fill="#E84A89" stroke="#E84A89" stroke-miterlimit="10"/>
<path d="M94.4474 108.213C103.334 105.831 108.681 96.9709 106.391 88.4222C104.1 79.8734 95.0391 74.8737 86.1523 77.2549C77.2655 79.6361 71.9183 88.4965 74.2089 97.0453C76.4996 105.594 85.5606 110.594 94.4474 108.213Z" fill="white"/>
<path d="M97.6115 103.914C104.29 102.124 108.216 95.1247 106.382 88.2797C104.548 81.4348 97.6477 77.3364 90.9697 79.1258C84.2917 80.9152 80.3649 87.9146 82.199 94.7596C84.0331 101.605 90.9335 105.703 97.6115 103.914Z" fill="#373D54"/>
<path d="M157.093 91.4269C165.98 89.0457 171.327 80.1853 169.036 71.6365C166.746 63.0878 157.685 58.088 148.798 60.4692C139.911 62.8504 134.564 71.7109 136.854 80.2596C139.145 88.8084 148.206 93.8081 157.093 91.4269Z" fill="white"/>
<path d="M152.024 89.3339C158.702 87.5446 162.628 80.5451 160.794 73.7001C158.96 66.8552 152.06 62.7568 145.382 64.5462C138.704 66.3356 134.777 73.335 136.611 80.18C138.445 87.0249 145.346 91.1233 152.024 89.3339Z" fill="#373D54"/>
<path d="M142.325 95.8822C144.551 104.189 141.128 118.547 132.769 120.787C124.409 123.027 114.266 112.304 112.04 103.997C109.814 95.6897 118.647 101.522 127.007 99.2824C135.366 97.0423 140.092 87.5486 142.325 95.8822Z" fill="#E84A89"/>
<path d="M65.3326 157.838C63.1808 143.299 79.9013 133.601 91.4529 142.688L91.8435 142.995C95.3171 145.728 99.8099 146.809 104.146 145.957C118.302 143.174 127.982 159.862 118.537 170.767C115.644 174.108 114.351 178.545 114.998 182.917L115.071 183.409C117.223 197.948 100.502 207.646 88.9509 198.559L88.5603 198.251C85.0867 195.519 80.5939 194.438 76.2573 195.29C62.1017 198.073 52.4221 181.385 61.8668 170.479C64.7602 167.139 66.0524 162.702 65.4053 158.33L65.3326 157.838Z" fill="#AAC3E4"/>
<circle cx="90" cy="171" r="8" fill="#004AAD"/>
</g>
<defs>
<clipPath id="clip0_567_2005">
<rect width="341" height="382" fill="white"/>
</clipPath>
</defs>
</svg>
