<svg width="400" height="180" viewBox="0 0 400 180" fill="none" xmlns="http://www.w3.org/2000/svg">
<g clip-path="url(#clip0_567_2582)">
<path d="M0 8C0 3.58172 3.58172 0 8 0H392C396.418 0 400 3.58172 400 8V180H0V8Z" fill="white"/>
<rect width="400" height="180" fill="#004AAD"/>
<path d="M196.816 121.027C196.855 120.991 196.894 120.956 196.935 120.922L261.654 63.6999C278.502 66.5149 350.891 86.5864 387.949 123.062C395.473 130.468 401.54 138.549 405.39 147.299C431.034 175.955 414.849 268.599 405.807 312.66C406.053 317.745 405.5 322.617 404.045 327.222C398.44 344.971 401.194 335.136 405.807 312.66C402.051 235.12 212.37 108.054 196.935 120.922L196.816 121.027Z" fill="#FEEC8A"/>
<path d="M424.054 274.651C396.134 174.432 226.895 100.035 226.895 100.035L249.05 79.4052C269.318 82.7917 382.3 132.261 405.117 184.113C428.956 238.287 438.841 327.73 424.054 274.651Z" fill="#FEE24F"/>
<path d="M189.833 106.888C187.569 113.622 193.185 118.337 196.015 120.226C198.656 121.908 202.584 119.978 203.967 118.899C224.929 101.154 254.951 72.8721 258.463 69.0986C258.559 69.0101 259.166 68.2638 259.773 67.5175C261.893 64.831 261.443 61.1381 261.263 60.9414C259.482 56.6068 254.815 52.5048 250.364 52.8617C245.057 54.1966 248.806 53.1695 248.626 52.9728C248.447 52.5846 247.983 52.0788 248.164 52.2755C248.626 52.9728 244.975 47.1975 240.549 46.7724C237.763 46.5335 234.465 47.1439 231.812 48.4569C231.419 48.6273 231.24 48.2391 230.775 47.9247C228.43 46.1603 221.955 46.5107 218.466 49.7111C214.285 53.5468 216.405 53.4648 215.44 53.6088C214.18 53.6433 212.939 53.4876 211.879 53.5285C206.866 53.6596 200.759 57.2088 198.127 60.7447C198.127 60.7447 192.838 65.9765 193.514 73.9114C193.143 73.7001 190.766 75.1214 189.67 76.1265C186.49 78.854 185.454 83.5308 185.655 85.9504C185.798 87.3028 186.323 88.6843 186.691 89.2786C187.06 89.6814 186.453 90.4277 186.451 90.6192C185.393 93.0732 183.58 95.4956 184.483 99.8764C185.076 102.317 187.397 104.655 189.35 106.59C197.152 108.954 189.35 106.59 189.816 106.904L189.833 106.888Z" fill="#FF90A9" stroke="#FF90A9" stroke-width="5" stroke-miterlimit="10"/>
<path d="M234.158 70.8859C237.001 68.2778 238.56 65.3502 237.639 64.3467C236.719 63.3433 233.668 64.6441 230.825 67.2521C227.982 69.8601 226.423 72.7878 227.343 73.7912C228.264 74.7947 231.315 73.4939 234.158 70.8859Z" fill="#FFF9F9" fill-opacity="0.4"/>
<path d="M230.602 79.8931C232.661 82.137 232.891 88.1631 229.345 91.4158C225.799 94.6685 219.815 93.9204 217.757 91.6765C215.698 89.4327 220.471 88.86 224.017 85.6073C227.563 82.3546 228.537 77.6422 230.602 79.8931Z" fill="#EA3468"/>
<path d="M208.722 94.2195C211.565 91.6115 213.123 88.6838 212.203 87.6804C211.282 86.6769 208.231 87.9777 205.388 90.5857C202.545 93.1938 200.987 96.1214 201.907 97.1249C202.828 98.1283 205.879 96.8275 208.722 94.2195Z" fill="white" fill-opacity="0.4"/>
<path d="M221.875 71.1132C220.05 69.1461 218.554 61.5283 222.881 57.9918C226.973 54.649 234.845 56.9733 235.778 58.7302C236.114 59.3885 236.041 59.8467 235.576 60.17C234.238 61.0887 232.053 59.7606 229.834 59.4718C226.335 58.999 223.261 61.6132 223.313 64.8771C223.343 67.668 224.97 70.4956 223.593 71.5735C222.96 72.072 222.635 71.897 221.897 71.0927L221.875 71.1132Z" fill="#EA3468" stroke="#EA3468" stroke-miterlimit="10"/>
<path d="M196.771 93.9568C194.946 91.9898 193.45 84.3719 197.787 80.8465C201.879 77.5038 209.751 79.8281 210.684 81.585C211.02 82.2433 210.947 82.7015 210.482 83.0248C209.144 83.9435 206.959 82.6154 204.74 82.3266C201.241 81.8538 198.167 84.468 198.219 87.7319C198.249 90.5228 199.876 93.3504 198.499 94.4283C197.866 94.9267 197.541 94.7518 196.803 93.9475L196.771 93.9568Z" fill="#EA3468" stroke="#EA3468" stroke-miterlimit="10"/>
<path d="M340.144 107.75C340.413 105.841 342.96 105.38 343.881 107.073L347.02 112.844C347.298 113.355 347.784 113.719 348.352 113.843L354.883 115.261C356.624 115.639 357.039 117.933 355.541 118.897L349.922 122.514C349.433 122.829 349.105 123.341 349.024 123.917L348.107 130.422C347.838 132.331 345.291 132.792 344.37 131.099L341.231 125.328C340.953 124.817 340.467 124.452 339.899 124.329L333.368 122.911C331.627 122.533 331.212 120.239 332.71 119.275L338.329 115.657C338.818 115.343 339.146 114.831 339.227 114.255L340.144 107.75Z" fill="white"/>
<path d="M289.216 15.3318C289.485 13.4232 292.033 12.9621 292.954 14.6553L299.327 26.3727C299.605 26.8835 300.091 27.2481 300.66 27.3715L313.261 30.1077C315.002 30.4857 315.417 32.7796 313.919 33.7439L303.077 40.7238C302.588 41.0386 302.26 41.5506 302.179 42.1264L300.317 55.3345C300.048 57.243 297.501 57.7042 296.58 56.011L290.206 44.2936C289.928 43.7828 289.442 43.4181 288.874 43.2948L276.272 40.5586C274.531 40.1805 274.116 37.8867 275.614 36.9224L286.457 29.9424C286.946 29.6277 287.273 29.1157 287.355 28.5399L289.216 15.3318Z" fill="#F8BBCD"/>
<path d="M360.124 182.824C360.388 180.908 362.946 180.445 363.865 182.147L365.458 185.098C365.734 185.609 366.219 185.975 366.787 186.101L370.463 186.913C372.196 187.296 372.609 189.578 371.121 190.544L367.962 192.593C367.474 192.91 367.149 193.422 367.069 193.998L366.611 197.321C366.347 199.236 363.789 199.699 362.87 197.998L361.277 195.047C361.001 194.535 360.516 194.169 359.948 194.044L356.271 193.232C354.539 192.849 354.126 190.567 355.614 189.601L358.773 187.551C359.26 187.235 359.586 186.722 359.666 186.147L360.124 182.824Z" fill="white"/>
</g>
<defs>
<clipPath id="clip0_567_2582">
<path d="M0 8C0 3.58172 3.58172 0 8 0H392C396.418 0 400 3.58172 400 8V180H0V8Z" fill="white"/>
</clipPath>
</defs>
</svg>
