<svg width="1240" height="511" viewBox="0 0 1240 511" fill="none" xmlns="http://www.w3.org/2000/svg">
<g clip-path="url(#clip0_567_2480)">
<rect width="1240" height="511" fill="#F59AB4"/>
<rect x="659" y="260.044" width="722.354" height="191.007" rx="20" transform="rotate(-2.86014 659 260.044)" fill="#F1789A"/>
<rect x="539.024" y="351" width="176" height="100" rx="45" fill="#D4BC42"/>
<rect x="524" y="351" width="176" height="100" rx="45" fill="#FEE76C"/>
<path d="M600.737 389.656C600.754 389.656 600.768 389.668 600.768 389.686C600.755 393.395 592.495 402.457 581.122 402.021C570.339 401.604 561.694 391.929 562.716 389.281C563.119 388.301 563.863 387.904 565.009 388.009C568.294 388.322 569.75 391.699 572.694 394.056C577.311 397.788 585.553 397.996 589.985 394.639C593.796 391.783 595.252 387.404 598.816 387.592C600.446 387.675 600.702 388.148 600.706 389.624C600.706 389.642 600.72 389.656 600.737 389.656Z" fill="#554B1A"/>
<path d="M659.188 389.667C659.207 389.673 659.219 389.689 659.219 389.708C659.204 393.419 650.945 402.478 639.574 402.021C628.79 401.604 620.145 391.929 621.168 389.281C621.57 388.301 622.314 387.905 623.461 388.009C626.745 388.322 628.202 391.7 631.145 394.056C635.762 397.788 644.005 397.997 648.436 394.64C652.247 391.783 653.704 387.404 657.267 387.592C658.897 387.675 659.153 388.148 659.157 389.623C659.157 389.642 659.17 389.66 659.188 389.667Z" fill="#554B1A"/>
<path d="M630.381 413.733C630.4 413.74 630.412 413.756 630.412 413.776C630.395 417.484 621.955 426.536 610.334 426.079C599.314 425.662 590.478 415.994 591.523 413.348C591.935 412.369 592.695 411.973 593.867 412.077C597.224 412.389 598.712 415.765 601.721 418.119C606.439 421.849 614.863 422.058 619.392 418.703C623.287 415.848 624.775 411.473 628.417 411.66C630.083 411.743 630.345 412.215 630.349 413.689C630.349 413.709 630.362 413.727 630.381 413.733Z" fill="#554B1A"/>
<ellipse cx="619.5" cy="-158" rx="568.5" ry="519" fill="#5586C8"/>
<ellipse cx="584.5" cy="-129.5" rx="526.5" ry="480.5" fill="#80A5D6"/>
</g>
<defs>
<clipPath id="clip0_567_2480">
<rect width="1240" height="511" fill="white"/>
</clipPath>
</defs>
</svg>
