<svg width="1440" height="289" viewBox="0 0 1440 289" fill="none" xmlns="http://www.w3.org/2000/svg">
<path d="M103.229 119.057C19.4038 111.434 -1.49234 62.9395 0.0809627 39.6451L0.0809627 0L1439.91 0L1439.91 39.6451C1441.48 62.9395 1423.67 111.434 1339.85 119.057C1235.06 128.587 1237.9 161.94 1221.85 188.941C1205.8 215.941 1180.31 242.941 1090.63 221.5C1000.96 200.058 913.166 192.911 846.143 243.735C792.525 284.394 740.622 289 721.537 289C702.453 289 650.55 284.394 596.932 243.735C529.909 192.911 442.119 200.058 352.44 221.5C262.762 242.941 237.275 215.941 221.227 188.941C205.179 161.94 208.011 128.587 103.229 119.057Z" fill="#CCDBEF"/>
</svg>
