<svg width="94" height="53" viewBox="0 0 94 53" fill="none" xmlns="http://www.w3.org/2000/svg">
<path d="M7.97833 31.2185C1.84406 34.6025 2.78238 41.7716 3.57995 45.0302C4.37753 48.0132 8.51787 49.2289 10.242 49.3668C37.3009 50.4446 77.9653 49.9057 83.0323 49.5046C83.1613 49.5046 84.0996 49.3668 85.0379 49.2289C88.369 48.69 90.5036 45.707 90.5036 45.4438C92.0988 41.1073 91.442 35.0161 87.9702 32.3089C83.2241 29.7414 86.6331 31.4942 86.6331 31.231C86.7621 30.8299 86.7621 30.1531 86.7621 30.4163C86.6331 31.231 87.8294 24.6009 84.8972 21.3422C83.0323 19.3118 80.229 17.5571 77.4258 16.7425C77.027 16.6046 77.156 16.2035 77.027 15.6646C76.4992 12.8195 71.5613 8.75872 66.8931 8.75872C61.2984 8.75872 62.8936 10.1123 62.096 9.57339C61.1577 8.75872 60.3601 7.81872 59.5625 7.14192C55.8327 3.89578 49.0299 2.40431 44.7605 3.21898C44.7605 3.21898 37.4299 3.49472 32.6327 9.71126C32.5037 9.31019 29.8295 8.75872 28.3633 8.75872C24.2347 8.62085 20.3642 11.3281 18.898 13.2206C18.1005 14.2985 17.5609 15.6521 17.4319 16.3289C17.4319 16.8678 16.4936 17.0057 16.3646 17.1435C13.9601 18.2214 11.0279 18.7729 8.76417 22.5579C7.56782 24.7262 7.69684 27.9723 7.82585 30.6795C11.919 37.5979 7.82585 30.6795 7.95487 31.2185H7.97833Z" fill="#5586C8" stroke="#5586C8" stroke-width="5" stroke-miterlimit="10"/>
</svg>
