<svg width="505" height="439" viewBox="0 0 505 439" fill="none" xmlns="http://www.w3.org/2000/svg">
<g clip-path="url(#clip0_654_607)">
<rect width="505" height="439" fill="white"/>
<rect width="505" height="439" fill="#FF90A9"/>
<g clip-path="url(#clip1_654_607)">
<path d="M135.783 144.906C136.176 141.344 145.708 133.612 157.401 135.424C168.464 137.137 176.269 147.473 174.889 149.896C174.382 150.808 173.547 151.094 172.403 150.831C169.043 150.128 167.922 146.721 165.162 144.092C160.819 139.947 152.391 138.75 147.403 141.438C143.156 143.727 141.161 147.74 137.496 147.129C135.82 146.855 135.61 146.37 135.783 144.906Z" fill="#E84A89" stroke="#E84A89" stroke-miterlimit="10"/>
<path d="M214.156 154.127C214.546 150.59 224.082 142.833 235.774 144.645C246.838 146.357 254.643 156.694 253.263 159.116C252.755 160.029 251.921 160.315 250.777 160.052C247.416 159.349 246.296 155.941 243.536 153.313C239.192 149.168 230.764 147.97 225.776 150.659C221.529 152.948 219.535 156.961 215.87 156.35C214.194 156.076 213.984 155.591 214.156 154.127Z" fill="#E84A89" stroke="#E84A89" stroke-miterlimit="10"/>
</g>
<path d="M139.047 208.87C153.422 210.563 166.396 200.725 168.025 186.896C169.654 173.067 159.32 160.485 144.945 158.791C130.569 157.098 117.595 166.936 115.967 180.765C114.338 194.594 124.671 207.177 139.047 208.87Z" fill="white"/>
<path d="M146.174 204.428C156.977 205.7 166.791 197.756 168.095 186.683C169.399 175.61 161.699 165.603 150.897 164.331C140.094 163.058 130.28 171.003 128.976 182.076C127.672 193.148 135.372 203.156 146.174 204.428Z" fill="#373D54"/>
<path d="M240.384 220.805C254.76 222.498 267.734 212.66 269.363 198.832C270.991 185.003 260.658 172.42 246.282 170.727C231.907 169.034 218.933 178.872 217.304 192.7C215.675 206.529 226.009 219.112 240.384 220.805Z" fill="white"/>
<path d="M234.193 214.795C244.996 216.067 254.81 208.122 256.114 197.05C257.419 185.977 249.718 175.97 238.916 174.697C228.113 173.425 218.299 181.37 216.995 192.442C215.691 203.515 223.391 213.522 234.193 214.795Z" fill="#373D54"/>
<path d="M213.165 224.106C211.583 237.544 198.222 256.537 184.699 254.944C171.176 253.352 162.593 231.775 164.176 218.336C165.758 204.898 175.273 218.565 188.796 220.158C202.319 221.751 214.753 210.626 213.165 224.106Z" fill="#E84A89"/>
<path d="M778 306.791V439H-129.977L-138 436.103V433.619C-131.734 418.475 -117.875 408.309 -104.126 409.478C-94.2107 410.318 -85.6593 416.892 -87.8094 412.899C-103.34 383.998 -100.919 358.506 -80.2777 342.497C-43.4181 313.9 -20.8354 354.001 -23.0224 328.972C-25.664 298.841 -16.2533 273.649 5.45708 264.555C57.8809 242.596 86.5 293.229 87.8638 287.325C90.8495 274.42 113.199 271.45 121.32 277.038C130.363 283.259 139.775 296.504 133.042 309.713C125.719 324.066 149.174 291.074 186.574 307.229C205.655 315.471 217.561 336.045 213.027 359.297C212.314 362.937 235.438 358.749 253.327 369.316C271.216 379.883 278.441 405.144 275.246 422.443C274.054 428.932 287.25 421.652 298.836 423.137C313.642 425.049 316.087 434.191 322.93 431.976C332.465 428.871 327.722 414.969 344.309 409.332C355.293 405.607 365.331 408.395 374.374 413.325C388.049 420.763 352.307 392.556 390.273 367.734C402.056 360.028 426.187 365.822 436.286 383.487C440.685 391.181 433.718 365.043 448.413 354.062C458.635 346.417 469.455 349.465 477.13 346.56C488.421 299.727 552.005 281.467 577.869 282.283C624.625 276.61 688.738 321.285 697.707 369.389" fill="#CCDBEF"/>
<path d="M243.071 471.546L245.106 471.696C243.524 472.739 242.708 472.938 243.071 471.546L-101.034 446.191L-107.746 443.193L-107.588 441.058C-101.245 428.441 -88.6909 420.583 -76.9501 422.458C-68.4826 423.808 -61.5502 429.998 -63.1451 426.431C-74.6609 400.611 -70.9667 378.858 -52.2149 366.408C-18.7289 344.168 -1.86172 380.058 -2.15622 358.411C-2.51839 332.351 7.16387 311.298 26.3964 304.858C72.8372 289.307 94.2248 334.63 95.7707 329.643C99.1535 318.742 118.547 317.605 125.173 322.921C132.55 328.839 139.799 340.818 133.176 351.742C125.975 363.613 148.22 336.747 179.337 352.998C195.212 361.289 204.14 379.723 198.772 399.417C197.929 402.5 218.065 400.366 232.769 410.579C247.473 420.793 246.912 456.882 243.071 471.546Z" fill="#80A5D6"/>
<path d="M509.117 113.185C502.015 112.726 491.079 112.871 478.497 116.598C474.946 117.652 466.443 120.99 456.746 126.443C437.337 137.365 425.085 152.601 418.97 168.044C416.758 173.635 377.412 165.317 362.175 173.635C331.607 190.322 337.003 209.026 333.123 208.476C316.707 206.139 300.321 207.018 286.622 215.862C263.432 230.831 260.47 261.656 274.376 284.652C288.053 307.274 320.885 306.495 334.041 300.125C354.766 290.09 360.698 289.601 380.68 292.068C398.65 294.283 402.584 302.134 418.717 300.385C432.745 298.865 434.705 294.046 449.07 293.366C452.078 293.221 454.488 293.267 456.731 293.473C466.29 294.344 479.04 297.796 479.943 298.048C492.234 301.462 508.329 304.433 509.125 300.645C513.158 281.406 512.753 166.348 509.125 113.185H509.117Z" fill="#FFF9DC"/>
<path d="M-16.9886 186.804C-9.56874 187.291 1.85683 187.137 15.0014 183.176C18.7113 182.055 27.5943 178.508 37.7246 172.712C58.0012 161.105 70.8019 144.911 77.1903 128.498C79.501 122.556 120.606 131.396 136.525 122.556C168.459 104.82 162.822 84.9406 166.876 85.525C184.026 88.0089 201.144 87.0754 215.456 77.6757C239.683 61.7659 242.777 29.0047 228.249 4.56363C213.961 -19.4796 179.661 -18.6517 165.916 -11.8819C144.265 -1.21584 138.068 -0.696357 117.192 -3.31823C98.4184 -5.67221 94.3087 -14.0167 77.4542 -12.1579C62.7984 -10.5426 60.7516 -5.42056 45.7441 -4.69813C42.6019 -4.5439 40.0833 -4.59262 37.7406 -4.81178C27.7542 -5.73715 14.4337 -9.40614 13.4902 -9.67401C0.649473 -13.3024 -16.165 -16.46 -16.9966 -12.4339C-21.2102 8.01348 -20.7864 130.3 -16.9966 186.804L-16.9886 186.804Z" fill="#CCDBEF"/>
<path d="M380.165 255.465C372.185 253.185 358.655 250.635 351.055 254.105C334.585 261.635 331.485 269.765 329.775 277.255C327.115 288.975 330.965 311.925 346.655 320.715C353.995 324.825 363.775 326.265 376.405 322.875C381.035 321.635 388.145 321.315 398.025 321.685C407.505 322.035 407.5 322.122 415.555 324.235C433.055 328.825 470.025 313.685 471.725 284.405C473.505 253.705 444.965 225.04 415.555 230C379.055 243.5 392.065 258.865 380.155 255.465H380.165Z" fill="#FEE76C"/>
</g>
<defs>
<clipPath id="clip0_654_607">
<rect width="505" height="439" fill="white"/>
</clipPath>
<clipPath id="clip1_654_607">
<rect width="122.72" height="16.52" fill="white" transform="translate(136.015 131.6) rotate(6.71714)"/>
</clipPath>
</defs>
</svg>
