<svg width="278" height="206" viewBox="0 0 278 206" fill="none" xmlns="http://www.w3.org/2000/svg">
<g clip-path="url(#clip0_691_357)">
<rect width="276.47" height="206" transform="translate(0.764893)" fill="white"/>
<rect x="0.764893" width="276.47" height="206" fill="url(#paint0_radial_691_357)"/>
<path d="M45.5102 28.9394C26.2618 22.4991 12.8483 38.5555 7.47996 46.6448C2.6984 54.1935 8.24236 65.4024 11.335 69.3478C62.1814 129.137 143.188 214.758 153.993 224.771C154.246 225.046 156.382 226.776 158.518 228.506C166.207 234.549 176.747 233.251 177.307 232.735C189.668 227.632 201.341 214.289 200.284 201.581C196.427 186.431 199.391 197.134 199.952 196.618C201.058 196.106 202.499 194.779 201.939 195.295C199.952 196.618 216.41 186.168 217.587 173.529C218.245 165.572 216.474 156.157 212.702 148.584C212.212 147.464 213.319 146.953 214.213 145.621C219.231 138.918 218.175 120.43 209.007 110.48C198.02 98.555 198.272 104.609 197.853 101.852C197.744 98.255 198.178 94.7119 198.052 91.6848C197.635 77.37 187.449 59.9453 177.331 52.4425C177.331 52.4425 162.347 37.3577 139.697 39.3213C140.297 38.2599 136.219 31.4785 133.34 28.3535C125.525 19.2829 112.163 16.3408 105.256 16.9264C101.396 17.3397 97.4556 18.8437 95.7619 19.8957C94.615 20.9524 92.4789 19.2227 91.9321 19.218C84.9163 16.2063 77.9842 11.0374 65.4837 13.6337C58.52 15.3349 51.8653 21.9746 46.3576 27.5577C39.6734 49.8471 46.3576 27.5577 45.4641 28.8894L45.5102 28.9394Z" fill="#FF90A9" stroke="#FF90A9" stroke-width="5" stroke-miterlimit="10"/>
<path d="M201.159 118.082C199.011 120.107 188.906 119.869 182.539 112.492C176.513 105.514 177.134 94.8648 179.292 94.0818C180.097 93.7804 180.773 94.0466 181.35 94.8217C183.083 97.0561 181.967 99.7914 182.296 102.913C182.808 107.831 187.456 113.08 192.019 114.056C195.905 114.887 199.298 113.433 201.271 115.773C202.176 116.839 202.048 117.256 201.159 118.082Z" fill="#E84A89" stroke="#E84A89" stroke-miterlimit="10"/>
<path d="M156.92 70.4725C154.787 72.483 144.666 72.2596 138.299 64.8831C132.274 57.9048 132.894 47.2555 135.052 46.4725C135.858 46.1711 136.534 46.4373 137.111 47.2124C138.844 49.4468 137.728 52.1821 138.057 55.3038C138.569 60.2221 143.216 65.4708 147.78 66.4466C151.666 67.2772 155.058 65.8242 157.031 68.1634C157.936 69.2299 157.809 69.6463 156.92 70.4725Z" fill="#E84A89" stroke="#E84A89" stroke-miterlimit="10"/>
<path d="M96.6461 93.7906C104.724 102.558 118.109 103.366 126.542 95.5954C134.976 87.825 135.265 74.4188 127.187 65.6516C119.109 56.8845 105.724 56.0765 97.2908 63.8468C88.8571 71.6172 88.5685 85.0235 96.6461 93.7906Z" fill="white"/>
<path d="M153.588 155.593C161.666 164.36 175.051 165.168 183.484 157.398C191.918 149.627 192.207 136.221 184.129 127.454C176.051 118.687 162.666 117.879 154.233 125.649C145.799 133.419 145.51 146.826 153.588 155.593Z" fill="white"/>
<path d="M152.574 148.35C158.544 154.83 168.636 155.243 175.115 149.273C181.595 143.303 182.008 133.211 176.038 126.732C170.068 120.253 159.976 119.839 153.497 125.809C147.018 131.779 146.604 141.871 152.574 148.35Z" fill="#373D54"/>
<path d="M104.574 94.3502C110.544 100.83 120.636 101.243 127.115 95.2729C133.595 89.3031 134.008 79.2112 128.038 72.7319C122.068 66.2525 111.976 65.8394 105.497 71.8092C99.0176 77.7789 98.6045 87.8709 104.574 94.3502Z" fill="#373D54"/>
<rect x="0.764893" width="92" height="206" fill="#80A5D6"/>
<path d="M124.328 147.891C127.175 145.708 129.147 133.901 121.931 125.327C115.105 117.213 102.504 116.262 101.107 118.652C100.575 119.543 100.736 120.372 101.514 121.166C103.744 123.535 107.193 122.666 110.774 123.539C116.416 124.909 121.524 131.146 121.651 136.614C121.758 141.27 119.302 144.993 121.6 147.658C122.647 148.88 123.163 148.797 124.328 147.891Z" fill="#E84A89" stroke="#E84A89" stroke-miterlimit="10"/>
<rect x="0.764893" width="84" height="206" fill="#AAC3E4"/>
<path d="M95.7649 73.1404C95.7649 80.1941 88.9515 85 80.5467 85C72.1419 85 68.7649 80.1941 68.7649 73.1404C68.7649 66.0866 72.1419 59 80.5467 59C88.9515 59 95.7649 66.0866 95.7649 73.1404Z" fill="#E84A89"/>
<path d="M99.7649 140.14C99.7649 147.194 92.9515 152 84.5467 152C76.1419 152 72.7649 147.194 72.7649 140.14C72.7649 133.087 76.1419 126 84.5467 126C92.9515 126 99.7649 133.087 99.7649 140.14Z" fill="#E84A89"/>
</g>
<defs>
<radialGradient id="paint0_radial_691_357" cx="0" cy="0" r="1" gradientUnits="userSpaceOnUse" gradientTransform="translate(139 103) rotate(90) scale(103 138.235)">
<stop offset="0.357292" stop-color="white"/>
<stop offset="0.776042" stop-color="#FFF1A7"/>
</radialGradient>
<clipPath id="clip0_691_357">
<rect width="276.47" height="206" fill="white" transform="translate(0.764893)"/>
</clipPath>
</defs>
</svg>
