<svg width="95" height="53" viewBox="0 0 95 53" fill="none" xmlns="http://www.w3.org/2000/svg">
<path d="M8.30597 31.2185C2.1717 34.6025 3.11002 41.7716 3.90759 45.0302C4.70516 48.0132 8.8455 49.2289 10.5697 49.3668C37.6285 50.4446 78.293 49.9057 83.3599 49.5046C83.4889 49.5046 84.4272 49.3668 85.3656 49.2289C88.6966 48.69 90.8313 45.707 90.8313 45.4438C92.4264 41.1073 91.7696 35.0161 88.2978 32.3089C83.5518 29.7414 86.9607 31.4942 86.9607 31.231C87.0897 30.8299 87.0897 30.1531 87.0897 30.4163C86.9607 31.231 88.1571 24.6009 85.2248 21.3422C83.3599 19.3118 80.5567 17.5571 77.7534 16.7425C77.3546 16.6046 77.4837 16.2035 77.3547 15.6646C76.8268 12.8195 71.8889 8.75872 67.2208 8.75872C61.626 8.75872 63.2212 10.1123 62.4236 9.57339C61.4853 8.75872 60.6877 7.81872 59.8902 7.14192C56.1603 3.89578 49.3575 2.40431 45.0881 3.21898C45.0881 3.21898 37.7575 3.49472 32.9603 9.71126C32.8313 9.31019 30.1571 8.75872 28.691 8.75872C24.5624 8.62085 20.6918 11.3281 19.2257 13.2206C18.4281 14.2985 17.8886 15.6521 17.7596 16.3289C17.7596 16.8678 16.8212 17.0057 16.6922 17.1435C14.2878 18.2214 11.3555 18.7729 9.09181 22.5579C7.89545 24.7262 8.02447 27.9723 8.15349 30.6795C12.2467 37.5979 8.15349 30.6795 8.28251 31.2185H8.30597Z" fill="#F59AB4" stroke="#F59AB4" stroke-width="5" stroke-miterlimit="10"/>
</svg>
