<svg width="295" height="181" viewBox="0 0 295 181" fill="none" xmlns="http://www.w3.org/2000/svg">
<rect y="-1" width="295" height="181" fill="#EE5681"/>
<path d="M72.6367 82.5021C53.1803 93.2353 56.1564 115.974 58.6861 126.31C61.2159 135.771 74.348 139.627 79.8166 140.064C165.641 143.483 294.618 141.773 310.689 140.501C311.099 140.501 314.075 140.064 317.051 139.627C327.616 137.917 334.387 128.456 334.387 127.621C339.446 113.867 337.363 94.5471 326.351 85.9605C311.298 77.8171 322.11 83.3766 322.11 82.5418C322.519 81.2697 322.519 79.1231 322.519 79.9579C322.11 82.5418 325.905 61.5126 316.604 51.1769C310.689 44.737 301.798 39.1716 292.907 36.5877C291.642 36.1504 292.051 34.8783 291.642 33.169C289.968 24.1451 274.306 11.2652 259.5 11.2652C241.755 11.2652 246.814 15.5585 244.285 13.8492C241.308 11.2652 238.779 8.28379 236.249 6.13715C224.419 -4.1588 202.842 -8.88937 189.301 -6.30544C189.301 -6.30544 166.05 -5.43088 150.834 14.2864C150.425 13.0144 141.943 11.2652 137.293 11.2652C124.198 10.828 111.922 19.4145 107.271 25.4172C104.742 28.8359 103.03 33.1292 102.621 35.2759C102.621 36.9852 99.645 37.4225 99.2358 37.8598C91.6095 41.2785 82.3091 43.0276 75.1292 55.033C71.3347 61.9102 71.7439 72.2061 72.1531 80.7927C85.1356 102.736 72.1531 80.7927 72.5623 82.5021H72.6367Z" fill="#F1789A"/>
<path d="M72.6367 82.5021C53.1803 93.2353 56.1564 115.974 58.6861 126.31C61.2159 135.771 74.348 139.627 79.8166 140.064C165.641 143.483 294.618 141.773 310.689 140.501C311.099 140.501 314.075 140.064 317.051 139.627C327.616 137.917 334.387 128.456 334.387 127.621C339.446 113.867 337.363 94.5471 326.351 85.9605C311.298 77.8171 322.11 83.3766 322.11 82.5418C322.519 81.2697 322.519 79.1231 322.519 79.9579C322.11 82.5418 325.905 61.5126 316.604 51.1769C310.689 44.737 301.798 39.1716 292.907 36.5877C291.642 36.1504 292.051 34.8783 291.642 33.169C289.968 24.1451 274.306 11.2652 259.5 11.2652C241.755 11.2652 246.814 15.5585 244.285 13.8492C241.308 11.2652 238.779 8.28379 236.249 6.13715C224.419 -4.1588 202.842 -8.88937 189.301 -6.30544C189.301 -6.30544 166.05 -5.43088 150.834 14.2864C150.425 13.0144 141.943 11.2652 137.293 11.2652C124.198 10.828 111.922 19.4145 107.271 25.4172C104.742 28.8359 103.03 33.1292 102.621 35.2759C102.621 36.9852 99.645 37.4225 99.2358 37.8598C91.6095 41.2785 82.3091 43.0276 75.1292 55.033C71.3347 61.9102 71.7439 72.2061 72.1531 80.7927C85.1356 102.736 72.1531 80.7927 72.5623 82.5021H72.6367Z" fill="#F1789A"/>
<path d="M-9.41526 112.025C-18.7611 117.181 -17.3316 128.103 -16.1164 133.068C-14.9013 137.613 -8.59326 139.465 -5.9664 139.675C35.2591 141.317 97.2134 140.496 104.933 139.885C105.13 139.885 106.559 139.675 107.989 139.465C113.064 138.644 116.316 134.099 116.316 133.698C118.746 127.091 117.746 117.811 112.456 113.686C105.225 109.775 110.419 112.445 110.419 112.044C110.616 111.433 110.616 110.402 110.616 110.803C110.419 112.044 112.242 101.943 107.774 96.978C104.933 93.8846 100.662 91.2112 96.3914 89.97C95.7838 89.76 95.9804 89.149 95.7838 88.3279C94.9797 83.9933 87.4566 77.8064 80.3444 77.8064C71.8205 77.8064 74.2508 79.8687 73.0357 79.0476C71.6061 77.8064 70.391 76.3743 69.1758 75.3431C63.4932 70.3975 53.1288 68.1252 46.6242 69.3663C46.6242 69.3663 35.4556 69.7864 28.1469 79.2576C27.9503 78.6466 23.876 77.8064 21.6423 77.8064C15.3522 77.5964 9.45517 81.7209 7.22145 84.6043C6.00631 86.2465 5.18431 88.3088 4.98774 89.3399C4.98774 90.161 3.55816 90.371 3.36159 90.5811C-0.301701 92.2233 -4.76913 93.0635 -8.21799 98.8302C-10.0407 102.134 -9.84414 107.079 -9.64757 111.204C-3.41141 121.744 -9.64757 111.204 -9.451 112.025H-9.41526Z" fill="#F1789A"/>
<path d="M-9.41526 112.025C-18.7611 117.181 -17.3316 128.103 -16.1164 133.068C-14.9013 137.613 -8.59326 139.465 -5.9664 139.675C35.2591 141.317 97.2134 140.496 104.933 139.885C105.13 139.885 106.559 139.675 107.989 139.465C113.064 138.644 116.316 134.099 116.316 133.698C118.746 127.091 117.746 117.811 112.456 113.686C105.225 109.775 110.419 112.445 110.419 112.044C110.616 111.433 110.616 110.402 110.616 110.803C110.419 112.044 112.242 101.943 107.774 96.978C104.933 93.8846 100.662 91.2112 96.3914 89.97C95.7838 89.76 95.9804 89.149 95.7838 88.3279C94.9797 83.9933 87.4566 77.8064 80.3444 77.8064C71.8205 77.8064 74.2508 79.8687 73.0357 79.0476C71.6061 77.8064 70.391 76.3743 69.1758 75.3431C63.4932 70.3975 53.1288 68.1252 46.6242 69.3663C46.6242 69.3663 35.4556 69.7864 28.1469 79.2576C27.9503 78.6466 23.876 77.8064 21.6423 77.8064C15.3522 77.5964 9.45517 81.7209 7.22145 84.6043C6.00631 86.2465 5.18431 88.3088 4.98774 89.3399C4.98774 90.161 3.55816 90.371 3.36159 90.5811C-0.301701 92.2233 -4.76913 93.0635 -8.21799 98.8302C-10.0407 102.134 -9.84414 107.079 -9.64757 111.204C-3.41141 121.744 -9.64757 111.204 -9.451 112.025H-9.41526Z" fill="#F1789A"/>
<path d="M76.6367 103.502C57.1803 114.235 60.1564 136.974 62.6861 147.31C65.2159 156.771 78.348 160.627 83.8166 161.064C169.641 164.483 298.618 162.773 314.689 161.501C315.099 161.501 318.075 161.064 321.051 160.627C331.616 158.917 338.387 149.456 338.387 148.621C343.446 134.867 341.363 115.547 330.351 106.961C315.298 98.8171 326.11 104.377 326.11 103.542C326.519 102.27 326.519 100.123 326.519 100.958C326.11 103.542 329.905 82.5126 320.604 72.1769C314.689 65.737 305.798 60.1716 296.907 57.5877C295.642 57.1504 296.051 55.8783 295.642 54.169C293.968 45.1451 278.306 32.2652 263.5 32.2652C245.755 32.2652 250.814 36.5585 248.285 34.8492C245.308 32.2652 242.779 29.2838 240.249 27.1371C228.419 16.8412 206.842 12.1106 193.301 14.6946C193.301 14.6946 170.05 15.5691 154.834 35.2864C154.425 34.0144 145.943 32.2652 141.293 32.2652C128.198 31.828 115.922 40.4145 111.271 46.4172C108.742 49.8359 107.03 54.1292 106.621 56.2759C106.621 57.9852 103.645 58.4225 103.236 58.8598C95.6095 62.2785 86.3091 64.0276 79.1292 76.033C75.3347 82.9102 75.7439 93.2061 76.1531 101.793C89.1356 123.736 76.1531 101.793 76.5623 103.502H76.6367Z" fill="#F59AB4"/>
<path d="M76.6367 103.502C57.1803 114.235 60.1564 136.974 62.6861 147.31C65.2159 156.771 78.348 160.627 83.8166 161.064C169.641 164.483 298.618 162.773 314.689 161.501C315.099 161.501 318.075 161.064 321.051 160.627C331.616 158.917 338.387 149.456 338.387 148.621C343.446 134.867 341.363 115.547 330.351 106.961C315.298 98.8171 326.11 104.377 326.11 103.542C326.519 102.27 326.519 100.123 326.519 100.958C326.11 103.542 329.905 82.5126 320.604 72.1769C314.689 65.737 305.798 60.1716 296.907 57.5877C295.642 57.1504 296.051 55.8783 295.642 54.169C293.968 45.1451 278.306 32.2652 263.5 32.2652C245.755 32.2652 250.814 36.5585 248.285 34.8492C245.308 32.2652 242.779 29.2838 240.249 27.1371C228.419 16.8412 206.842 12.1106 193.301 14.6946C193.301 14.6946 170.05 15.5691 154.834 35.2864C154.425 34.0144 145.943 32.2652 141.293 32.2652C128.198 31.828 115.922 40.4145 111.271 46.4172C108.742 49.8359 107.03 54.1292 106.621 56.2759C106.621 57.9852 103.645 58.4225 103.236 58.8598C95.6095 62.2785 86.3091 64.0276 79.1292 76.033C75.3347 82.9102 75.7439 93.2061 76.1531 101.793C89.1356 123.736 76.1531 101.793 76.5623 103.502H76.6367Z" fill="#F59AB4"/>
<path d="M-5.41526 133.025C-14.7611 138.181 -13.3316 149.103 -12.1164 154.068C-10.9013 158.613 -4.59326 160.465 -1.9664 160.675C39.2591 162.317 101.213 161.496 108.933 160.885C109.13 160.885 110.559 160.675 111.989 160.465C117.064 159.644 120.316 155.099 120.316 154.698C122.746 148.091 121.746 138.811 116.456 134.686C109.225 130.775 114.419 133.445 114.419 133.044C114.616 132.433 114.616 131.402 114.616 131.803C114.419 133.044 116.242 122.943 111.774 117.978C108.933 114.885 104.662 112.211 100.391 110.97C99.7838 110.76 99.9804 110.149 99.7838 109.328C98.9797 104.993 91.4566 98.8064 84.3444 98.8064C75.8205 98.8064 78.2508 100.869 77.0357 100.048C75.6061 98.8064 74.391 97.3743 73.1758 96.3431C67.4932 91.3975 57.1288 89.1252 50.6242 90.3663C50.6242 90.3663 39.4556 90.7864 32.1469 100.258C31.9503 99.6466 27.876 98.8064 25.6423 98.8064C19.3522 98.5964 13.4552 102.721 11.2215 105.604C10.0063 107.246 9.18431 109.309 8.98774 110.34C8.98774 111.161 7.55816 111.371 7.36159 111.581C3.6983 113.223 -0.769134 114.063 -4.21799 119.83C-6.0407 123.134 -5.84414 128.079 -5.64757 132.204C0.588586 142.744 -5.64757 132.204 -5.451 133.025H-5.41526Z" fill="#F59AB4"/>
<path d="M-5.41526 133.025C-14.7611 138.181 -13.3316 149.103 -12.1164 154.068C-10.9013 158.613 -4.59326 160.465 -1.9664 160.675C39.2591 162.317 101.213 161.496 108.933 160.885C109.13 160.885 110.559 160.675 111.989 160.465C117.064 159.644 120.316 155.099 120.316 154.698C122.746 148.091 121.746 138.811 116.456 134.686C109.225 130.775 114.419 133.445 114.419 133.044C114.616 132.433 114.616 131.402 114.616 131.803C114.419 133.044 116.242 122.943 111.774 117.978C108.933 114.885 104.662 112.211 100.391 110.97C99.7838 110.76 99.9804 110.149 99.7838 109.328C98.9797 104.993 91.4566 98.8064 84.3444 98.8064C75.8205 98.8064 78.2508 100.869 77.0357 100.048C75.6061 98.8064 74.391 97.3743 73.1758 96.3431C67.4932 91.3975 57.1288 89.1252 50.6242 90.3663C50.6242 90.3663 39.4556 90.7864 32.1469 100.258C31.9503 99.6466 27.876 98.8064 25.6423 98.8064C19.3522 98.5964 13.4552 102.721 11.2215 105.604C10.0063 107.246 9.18431 109.309 8.98774 110.34C8.98774 111.161 7.55816 111.371 7.36159 111.581C3.6983 113.223 -0.769134 114.063 -4.21799 119.83C-6.0407 123.134 -5.84414 128.079 -5.64757 132.204C0.588586 142.744 -5.64757 132.204 -5.451 133.025H-5.41526Z" fill="#F59AB4"/>
<path d="M83.1814 124.052C64.475 134.371 67.3364 156.233 69.7686 166.171C72.2007 175.267 84.8267 178.974 90.0845 179.395C172.6 182.682 296.606 181.038 312.057 179.815C312.451 179.815 315.312 179.395 318.174 178.974C328.332 177.331 334.841 168.235 334.841 167.432C339.706 154.208 337.703 135.633 327.115 127.377C312.643 119.548 323.038 124.893 323.038 124.09C323.431 122.867 323.431 120.803 323.431 121.606C323.038 124.09 326.686 103.872 317.744 93.9343C312.057 87.7426 303.509 82.3918 294.961 79.9075C293.744 79.487 294.138 78.264 293.744 76.6205C292.135 67.9445 277.077 55.5611 262.841 55.5611C245.78 55.5611 250.645 59.6889 248.212 58.0455C245.351 55.5611 242.919 52.6946 240.487 50.6307C229.113 40.7317 208.368 36.1835 195.348 38.6678C195.348 38.6678 172.993 39.5086 158.365 58.4659C157.971 57.2428 149.816 55.5611 145.345 55.5611C132.755 55.1407 120.952 63.3963 116.481 69.1676C114.049 72.4545 112.403 76.5823 112.01 78.6462C112.01 80.2897 109.149 80.7101 108.755 81.1305C101.423 84.4175 92.4809 86.0992 85.5778 97.6417C81.9295 104.254 82.3229 114.153 82.7164 122.408C95.1985 143.506 82.7164 122.408 83.1098 124.052H83.1814Z" fill="#FBD6E1" stroke="#FBD6E1" stroke-width="5" stroke-miterlimit="10"/>
<path d="M4.29236 153.669C-4.69324 158.773 -3.31877 169.588 -2.15047 174.503C-0.982173 179.003 5.08268 180.837 7.60827 181.045C47.2446 182.671 106.811 181.858 114.233 181.253C114.422 181.253 115.796 181.045 117.171 180.837C122.05 180.024 125.177 175.524 125.177 175.127C127.514 168.586 126.551 159.397 121.466 155.313C114.514 151.44 119.507 154.085 119.507 153.688C119.696 153.083 119.696 152.062 119.696 152.459C119.507 153.688 121.26 143.686 116.965 138.771C114.233 135.708 110.127 133.061 106.02 131.832C105.436 131.624 105.625 131.019 105.436 130.206C104.663 125.914 97.4299 119.789 90.5919 119.789C82.3966 119.789 84.7332 121.831 83.5649 121.018C82.1905 119.789 81.0222 118.371 79.8539 117.35C74.3904 112.453 64.4254 110.203 58.1716 111.432C58.1716 111.432 47.4336 111.848 40.4066 121.226C40.2176 120.621 36.3003 119.789 34.1527 119.789C28.1051 119.581 22.4354 123.664 20.2878 126.519C19.1195 128.145 18.3291 130.187 18.1401 131.208C18.1401 132.021 16.7657 132.229 16.5767 132.437C13.0546 134.063 8.75939 134.895 5.44348 140.604C3.69103 143.875 3.88001 148.772 4.069 152.856C10.0648 163.292 4.06901 152.856 4.258 153.669H4.29236Z" fill="#FBD6E1" stroke="#FBD6E1" stroke-width="5" stroke-miterlimit="10"/>
<path d="M95.9079 132.16C80.0041 140.933 82.4368 159.52 84.5046 167.968C86.5724 175.702 97.3067 178.854 101.777 179.211C171.93 182.006 277.358 180.609 290.494 179.569C290.829 179.569 293.262 179.211 295.694 178.854C304.33 177.457 309.865 169.723 309.865 169.041C314 157.798 312.298 142.006 303.296 134.987C290.992 128.33 299.83 132.875 299.83 132.192C300.164 131.153 300.164 129.398 300.164 130.08C299.83 132.192 302.932 115.003 295.329 106.554C290.494 101.29 283.227 96.7411 275.959 94.629C274.925 94.2716 275.26 93.2318 274.925 91.8345C273.557 84.4583 260.754 73.9302 248.652 73.9302C234.147 73.9302 238.282 77.4396 236.215 76.0423C233.782 73.9302 231.714 71.4931 229.646 69.7384C219.976 61.3224 202.339 57.4556 191.27 59.5677C191.27 59.5677 172.265 60.2826 159.827 76.3997C159.493 75.3599 152.56 73.9302 148.759 73.9302C138.055 73.5727 128.02 80.5915 124.219 85.4981C122.151 88.2926 120.752 91.802 120.417 93.5567C120.417 94.9539 117.985 95.3114 117.65 95.6688C111.416 98.4633 103.814 99.8931 97.9453 109.706C94.8436 115.328 95.1781 123.744 95.5126 130.763C106.125 148.699 95.5126 130.763 95.8471 132.16H95.9079Z" fill="#004AAD" stroke="#004AAD" stroke-width="5" stroke-miterlimit="10"/>
<path d="M16.1998 157.142C8.56043 161.357 9.72898 170.285 10.7223 174.343C11.7155 178.058 16.8718 179.572 19.019 179.744C52.7171 181.086 103.359 180.415 109.669 179.915C109.83 179.915 110.999 179.744 112.167 179.572C116.315 178.901 118.974 175.186 118.974 174.858C120.96 169.457 120.142 161.872 115.819 158.5C109.908 155.303 114.154 157.486 114.154 157.158C114.314 156.658 114.314 155.816 114.314 156.143C114.154 157.158 115.644 148.901 111.992 144.843C109.669 142.314 106.178 140.129 102.687 139.114C102.191 138.943 102.351 138.443 102.191 137.772C101.533 134.229 95.3838 129.172 89.5702 129.172C82.6028 129.172 84.5893 130.857 83.596 130.186C82.4275 129.172 81.4342 128.001 80.4409 127.158C75.7959 123.116 67.3239 121.258 62.007 122.273C62.007 122.273 52.8777 122.616 46.9035 130.358C46.7428 129.858 43.4125 129.172 41.5866 129.172C36.445 129 31.6247 132.371 29.7988 134.728C28.8056 136.071 28.1337 137.756 27.973 138.599C27.973 139.27 26.8044 139.442 26.6438 139.614C23.6493 140.956 19.9976 141.643 17.1785 146.357C15.6886 149.057 15.8493 153.1 16.0099 156.471C21.1074 165.087 16.0099 156.471 16.1706 157.142H16.1998Z" fill="#FEE24F" stroke="#FEE24F" stroke-width="5" stroke-miterlimit="10"/>
<path d="M67.4091 147.074C67.076 148.678 62.1394 151.741 56.5619 150.329C51.2879 148.991 47.9411 143.869 48.6949 142.83C48.9859 142.449 49.3897 142.357 49.9448 142.525C51.5337 143.013 51.9325 144.634 53.1607 145.971C55.0834 148.084 59.1251 149.059 61.6253 148.078C63.773 147.249 64.9038 145.506 66.642 145.97C67.4433 146.182 67.5202 146.416 67.3785 147.067L67.4091 147.074Z" fill="#554B1A"/>
<path d="M96.2085 153.352C95.8755 154.955 90.9388 158.019 85.3633 156.597C80.0893 155.26 76.7425 150.138 77.4963 149.099C77.7873 148.717 78.1911 148.625 78.7462 148.793C80.3351 149.281 80.7339 150.902 81.9621 152.24C83.8848 154.353 87.9265 155.327 90.4267 154.347C92.5744 153.517 93.7052 151.775 95.4434 152.238C96.2447 152.451 96.3216 152.685 96.1799 153.336L96.2085 153.352Z" fill="#554B1A"/>
<path d="M78.4415 164.665C78.084 166.263 73.1558 169.264 67.6773 167.776C62.4949 166.375 59.2829 161.216 60.0456 160.187C60.3397 159.809 60.74 159.722 61.285 159.897C62.8448 160.404 63.2094 162.028 64.3978 163.38C66.258 165.515 70.2304 166.538 72.7161 165.589C74.851 164.786 75.9986 163.058 77.7062 163.543C78.4934 163.765 78.5651 164 78.4136 164.649L78.4415 164.665Z" fill="#554B1A"/>
<path d="M186.01 110.15C186.046 113.984 176.281 123.448 162.822 122.993C150.094 122.56 139.89 112.511 141.097 109.76C141.573 108.742 142.451 108.331 143.804 108.439C147.681 108.764 149.399 112.273 152.874 114.72C158.323 118.597 168.052 118.813 173.282 115.326C177.781 112.359 179.5 107.811 183.706 108.006C185.644 108.093 185.937 108.591 185.937 110.15H186.01Z" fill="#00193A"/>
<path d="M255 110.172C255.036 114.005 245.271 123.469 231.812 122.993C219.085 122.56 208.881 112.511 210.088 109.76C210.563 108.742 211.441 108.331 212.794 108.439C216.671 108.764 218.39 112.273 221.864 114.72C227.314 118.596 237.042 118.813 242.272 115.326C246.771 112.359 248.49 107.811 252.696 108.006C254.634 108.093 254.927 108.591 254.927 110.15L255 110.172Z" fill="#00193A"/>
<path d="M220.999 135.17C221.036 139.001 211.056 148.459 197.301 147.983C184.293 147.55 173.865 137.508 175.098 134.759C175.584 133.742 176.481 133.331 177.864 133.439C181.826 133.764 183.583 137.27 187.134 139.715C192.703 143.589 202.646 143.806 207.991 140.321C212.589 137.356 214.346 132.811 218.644 133.006C220.625 133.093 220.924 133.59 220.924 135.149L220.999 135.17Z" fill="#00193A"/>
</svg>
