<svg width="295" height="181" viewBox="0 0 295 181" fill="none" xmlns="http://www.w3.org/2000/svg">
<g clip-path="url(#clip0_426_627)">
<rect width="295" height="181" fill="url(#paint0_radial_426_627)"/>
<path d="M-8.57129 129.653C-26.3503 139.445 -23.6307 160.19 -21.3191 169.619C-19.0075 178.251 -7.00756 181.769 -2.01041 182.168C76.4142 185.287 194.272 183.727 208.958 182.567C209.332 182.567 212.051 182.168 214.771 181.769C224.425 180.209 230.612 171.578 230.612 170.816C235.235 158.268 233.331 140.642 223.269 132.809C209.514 125.379 219.394 130.451 219.394 129.69C219.768 128.529 219.768 126.571 219.768 127.332C219.394 129.69 222.861 110.505 214.363 101.075C208.958 95.2001 200.833 90.1228 192.708 87.7654C191.553 87.3665 191.927 86.206 191.553 84.6465C190.023 76.4139 175.711 64.6635 162.182 64.6635C145.966 64.6635 150.59 68.5803 148.278 67.0209C145.558 64.6635 143.247 61.9435 140.935 59.9851C130.125 50.5921 110.408 46.2763 98.0346 48.6337C98.0346 48.6337 76.7882 49.4315 62.8845 67.4198C62.5106 66.2593 54.7599 64.6635 50.5106 64.6635C38.5447 64.2646 27.3266 72.0982 23.0773 77.5745C20.7657 80.6934 19.202 84.6102 18.828 86.5686C18.828 88.1281 16.1085 88.527 15.7346 88.926C8.76576 92.0449 0.2672 93.6406 -6.29368 104.593C-9.76109 110.867 -9.38716 120.26 -9.01322 128.094C2.85004 148.113 -9.01322 128.094 -8.63928 129.653H-8.57129Z" fill="#FF90A9" stroke="#FF90A9" stroke-width="5" stroke-miterlimit="10"/>
<path d="M67.7535 81.8581C67.7316 78.9068 74.7839 71.6646 84.5217 72.0205C93.7354 72.3554 101.115 80.058 100.22 82.1721C99.8925 82.9675 99.2375 83.2814 98.2768 83.1768C95.4603 82.9256 94.2158 80.2464 91.7049 78.3626C87.753 75.3904 80.7444 75.2229 76.9236 77.9021C73.6704 80.1836 72.4259 83.6582 69.3692 83.5117C67.9718 83.4489 67.7535 83.0721 67.7535 81.8581Z" fill="#E84A89" stroke="#E84A89" stroke-miterlimit="10"/>
<path d="M132.744 81.8502C132.722 78.9198 139.775 71.6567 149.512 72.0126C158.726 72.3475 166.106 80.0501 165.211 82.1642C164.883 82.9596 164.228 83.2735 163.268 83.1689C160.451 82.9177 159.206 80.2385 156.696 78.3547C152.744 75.3825 145.735 75.215 141.914 77.8942C138.661 80.1757 137.417 83.6503 134.36 83.5038C132.963 83.441 132.744 83.0642 132.744 81.8502Z" fill="#E84A89" stroke="#E84A89" stroke-miterlimit="10"/>
<path d="M224.5 141C237.479 141 248 130.479 248 117.5C248 104.521 237.479 94 224.5 94C211.521 94 201 104.521 201 117.5C201 130.479 211.521 141 224.5 141Z" fill="#AAC3E4"/>
<path d="M248.5 73C261.479 73 272 62.4787 272 49.5C272 36.5213 261.479 26 248.5 26C235.521 26 225 36.5213 225 49.5C225 62.4787 235.521 73 248.5 73Z" fill="#AAC3E4"/>
<path d="M204.5 42C209.747 42 214 37.7467 214 32.5C214 27.2533 209.747 23 204.5 23C199.253 23 195 27.2533 195 32.5C195 37.7467 199.253 42 204.5 42Z" fill="#AAC3E4"/>
<path d="M262.5 166C267.747 166 272 161.747 272 156.5C272 151.253 267.747 147 262.5 147C257.253 147 253 151.253 253 156.5C253 161.747 257.253 166 262.5 166Z" fill="#AAC3E4"/>
<path d="M96.5 36C103.404 36 109 30.4036 109 23.5C109 16.5964 103.404 11 96.5 11C89.5964 11 84 16.5964 84 23.5C84 30.4036 89.5964 36 96.5 36Z" fill="#AAC3E4"/>
<path d="M153 47C162.389 47 170 39.3888 170 30C170 20.6112 162.389 13 153 13C143.611 13 136 20.6112 136 30C136 39.3888 143.611 47 153 47Z" fill="#AAC3E4"/>
<path d="M168 172C177.389 172 185 164.389 185 155C185 145.611 177.389 138 168 138C158.611 138 151 145.611 151 155C151 164.389 158.611 172 168 172Z" fill="#AAC3E4"/>
<path d="M76.5849 133.86C88.5059 133.86 98.1698 124.564 98.1698 113.097C98.1698 101.629 88.5059 92.3328 76.5849 92.3328C64.6639 92.3328 55 101.629 55 113.097C55 124.564 64.6639 133.86 76.5849 133.86Z" fill="white"/>
<path d="M160.62 133.86C172.541 133.86 182.205 124.564 182.205 113.097C182.205 101.629 172.541 92.3328 160.62 92.3328C148.699 92.3328 139.035 101.629 139.035 113.097C139.035 124.564 148.699 133.86 160.62 133.86Z" fill="white"/>
<path d="M156.952 132.905C165.762 132.905 172.905 125.762 172.905 116.952C172.905 108.142 165.762 101 156.952 101C148.142 101 141 108.142 141 116.952C141 125.762 148.142 132.905 156.952 132.905Z" fill="#373D54"/>
<path d="M79.9523 132.905C88.7624 132.905 95.9045 125.762 95.9045 116.952C95.9045 108.142 88.7624 101 79.9523 101C71.1421 101 64 108.142 64 116.952C64 125.762 71.1421 132.905 79.9523 132.905Z" fill="#373D54"/>
<path d="M120.5 168C128.508 168 135 158.822 135 147.5C135 136.178 128.508 127 120.5 127C112.492 127 106 136.178 106 147.5C106 158.822 112.492 168 120.5 168Z" fill="#E84A89"/>
<path d="M146 154.5C146 158.035 144.937 161.197 143.268 163.451C141.598 165.705 139.371 167 137 167C134.629 167 132.402 165.705 130.732 163.451C129.063 161.197 128 158.035 128 154.5C128 150.965 129.063 147.803 130.732 145.549C132.402 143.295 134.629 142 137 142C139.371 142 141.598 143.295 143.268 145.549C144.937 147.803 146 150.965 146 154.5Z" fill="#AAC3E4" fill-opacity="0.47" stroke="#003173" stroke-width="2"/>
<rect x="135.75" y="166.75" width="1.5" height="48.5" fill="#003173" stroke="#003173" stroke-width="1.5"/>
<path d="M270.906 155.872C271.435 155.318 269.696 151.493 266.41 149.637C266.366 149.608 266.334 149.6 266.29 149.57C266.026 149.395 264.672 148.58 262.465 148.632C262.258 148.629 261.588 148.746 261.321 148.97C261.074 149.182 260.889 149.55 260.923 149.873C260.995 150.379 261.725 150.749 262.416 150.812C264.493 151.056 265.095 151.321 266.101 151.695C268.139 152.468 269.618 154.169 270.042 155.293C270.09 155.375 270.224 155.776 270.469 155.894C270.697 156.008 270.791 155.98 270.906 155.872Z" fill="white"/>
<path d="M243.398 111.888C244.532 110.699 240.801 102.493 233.752 98.5129C233.657 98.4502 233.588 98.4317 233.494 98.3691C232.927 97.9933 230.024 96.2444 225.287 96.3568C224.844 96.3502 223.406 96.5996 222.833 97.0807C222.303 97.5362 221.906 98.3259 221.98 99.0179C222.134 100.104 223.7 100.898 225.183 101.034C229.638 101.555 230.931 102.126 233.088 102.928C237.461 104.585 240.634 108.235 241.544 110.645C241.645 110.821 241.933 111.683 242.459 111.935C242.949 112.179 243.15 112.121 243.398 111.888Z" fill="white"/>
<circle cx="243.5" cy="115.5" r="1.5" fill="white"/>
<path d="M267.398 44.8883C268.532 43.6987 264.801 35.4927 257.752 31.5129C257.657 31.4502 257.588 31.4317 257.494 31.3691C256.927 30.9933 254.024 29.2444 249.287 29.3568C248.844 29.3502 247.406 29.5996 246.833 30.0807C246.303 30.5362 245.906 31.3259 245.98 32.0179C246.134 33.1045 247.7 33.8976 249.183 34.0335C253.638 34.5553 254.931 35.1256 257.088 35.9276C261.461 37.5849 264.634 41.2353 265.544 43.645C265.645 43.8214 265.933 44.6827 266.459 44.9354C266.949 45.1789 267.15 45.1207 267.398 44.8883Z" fill="white"/>
<circle cx="267.5" cy="48.5" r="1.5" fill="white"/>
<path d="M166.78 26.8336C167.641 25.9296 164.807 19.6938 159.45 16.6695C159.378 16.6219 159.325 16.6078 159.254 16.5602C158.823 16.2746 156.617 14.9457 153.017 15.0311C152.681 15.026 151.588 15.2156 151.152 15.5811C150.75 15.9273 150.448 16.5274 150.504 17.0532C150.621 17.879 151.811 18.4816 152.938 18.585C156.324 18.9814 157.306 19.4148 158.945 20.0243C162.269 21.2836 164.679 24.0577 165.371 25.8888C165.448 26.0229 165.667 26.6774 166.066 26.8694C166.439 27.0544 166.592 27.0102 166.78 26.8336Z" fill="white"/>
<circle cx="166.858" cy="29.5781" r="1.13987" fill="white"/>
<path d="M87.2261 26.3462C86.6684 26.9135 88.4129 30.9127 91.795 32.8912C91.8402 32.9222 91.8736 32.9317 91.9188 32.9627C92.1901 33.1488 93.5824 34.0167 95.8756 33.9975C96.0899 34.004 96.7877 33.894 97.0689 33.6654C97.3286 33.4489 97.5265 33.0696 97.4959 32.7342C97.4296 32.2072 96.6775 31.8117 95.9608 31.7349C93.8084 31.4493 93.1871 31.1637 92.1492 30.7595C90.0449 29.925 88.5367 28.1347 88.1138 26.9617C88.0662 26.8756 87.9332 26.4566 87.6809 26.3304C87.4453 26.2089 87.3476 26.2356 87.2261 26.3462Z" fill="white"/>
<circle cx="87.2032" cy="24.5976" r="0.726038" transform="rotate(-179.121 87.2032 24.5976)" fill="white"/>
<path d="M202 25.4612C201.456 25.0665 198.335 27.0236 197.106 30.0956C197.086 30.1372 197.082 30.1662 197.062 30.2079C196.94 30.4577 196.39 31.729 196.692 33.6417C196.714 33.8215 196.893 34.3904 197.119 34.5967C197.332 34.7865 197.674 34.9043 197.95 34.8368C198.382 34.7155 198.618 34.0379 198.593 33.4298C198.562 31.5966 198.723 31.042 198.93 30.1247C199.364 28.263 200.67 26.7795 201.597 26.2796C201.663 26.2291 201.996 26.0656 202.07 25.8391C202.142 25.6271 202.108 25.5489 202 25.4612Z" fill="white"/>
<circle cx="203.457" cy="25.2234" r="0.613084" transform="rotate(-97.6404 203.457 25.2234)" fill="white"/>
<path d="M168.787 141.251C168.005 140.122 160.656 141.786 156.204 146.882C156.137 146.949 156.11 147.002 156.043 147.069C155.64 147.469 153.716 149.55 153.006 153.446C152.926 153.807 152.886 155.027 153.183 155.578C153.466 156.088 154.045 156.547 154.624 156.604C155.54 156.662 156.454 155.514 156.817 154.323C157.998 150.764 158.684 149.803 159.706 148.173C161.803 144.874 165.328 142.895 167.455 142.558C167.617 142.505 168.37 142.415 168.666 142.028C168.949 141.668 168.935 141.493 168.787 141.251Z" fill="white"/>
<circle cx="171.76" cy="141.779" r="1.25385" transform="rotate(-78.3118 171.76 141.779)" fill="white"/>
<circle cx="270.5" cy="157.5" r="0.5" fill="white"/>
</g>
<defs>
<radialGradient id="paint0_radial_426_627" cx="0" cy="0" r="1" gradientUnits="userSpaceOnUse" gradientTransform="translate(147.5 90.5) rotate(90) scale(90.5 147.5)">
<stop stop-color="white"/>
<stop offset="0.776042" stop-color="#FFF1A7"/>
</radialGradient>
<clipPath id="clip0_426_627">
<rect width="295" height="181" fill="white"/>
</clipPath>
</defs>
</svg>
