<svg width="1240" height="655" viewBox="0 0 1240 655" fill="none" xmlns="http://www.w3.org/2000/svg">
<g clip-path="url(#clip0_553_5497)">
<rect width="1240" height="655" fill="#FFF1A7"/>
<circle cx="307" cy="563" r="737" fill="url(#paint0_radial_553_5497)"/>
<path d="M-23.1426 562.786C-59.9327 583.049 -54.3052 625.976 -49.5217 645.488C-44.7383 663.349 -19.9067 670.629 -9.5661 671.454C152.719 677.908 396.603 674.681 426.991 672.28C427.765 672.28 433.393 671.454 439.02 670.629C458.998 667.402 471.801 649.54 471.801 647.964C481.368 621.998 477.428 585.525 456.606 569.315C428.142 553.942 448.587 564.437 448.587 562.861C449.361 560.46 449.361 556.407 449.361 557.983C448.587 562.861 455.762 523.161 438.176 503.649C426.991 491.492 410.179 480.985 393.367 476.107C390.975 475.281 391.749 472.88 390.975 469.653C387.81 452.617 358.195 428.302 330.198 428.302C296.643 428.302 306.21 436.407 301.427 433.18C295.799 428.302 291.016 422.674 286.232 418.621C263.863 399.184 223.063 390.253 197.458 395.131C197.458 395.131 153.492 396.782 124.721 434.006C123.948 431.604 107.909 428.302 99.1161 428.302C74.3548 427.477 51.1411 443.687 42.3481 455.019C37.5647 461.473 34.3288 469.578 33.555 473.63C33.555 476.857 27.9275 477.683 27.1537 478.508C12.7331 484.962 -4.85303 488.265 -18.4295 510.929C-25.6046 523.912 -24.8309 543.349 -24.0571 559.559C0.491657 600.985 -24.0571 559.559 -23.2833 562.786H-23.1426Z" fill="#FF90A9" stroke="#FF90A9" stroke-width="5" stroke-miterlimit="10"/>
<path d="M134.797 463.883C134.751 457.776 149.345 442.789 169.495 443.526C188.561 444.219 203.832 460.158 201.98 464.532C201.302 466.178 199.947 466.828 197.959 466.612C192.13 466.092 189.555 460.548 184.359 456.65C176.182 450.499 161.679 450.153 153.772 455.697C147.04 460.418 144.465 467.608 138.14 467.305C135.248 467.175 134.797 466.395 134.797 463.883Z" fill="#E84A89" stroke="#E84A89" stroke-miterlimit="10"/>
<path d="M269.282 463.866C269.237 457.803 283.83 442.773 303.981 443.509C323.047 444.202 338.318 460.142 336.466 464.516C335.788 466.162 334.432 466.812 332.445 466.595C326.616 466.075 324.041 460.531 318.845 456.633C310.668 450.483 296.165 450.136 288.258 455.68C281.526 460.401 278.951 467.591 272.626 467.288C269.734 467.158 269.282 466.379 269.282 463.866Z" fill="#E84A89" stroke="#E84A89" stroke-miterlimit="10"/>
<path d="M459.153 586.266C486.01 586.266 507.782 564.494 507.782 537.637C507.782 510.78 486.01 489.008 459.153 489.008C432.297 489.008 410.525 510.78 410.525 537.637C410.525 564.494 432.297 586.266 459.153 586.266Z" fill="#AAC3E4"/>
<path d="M508.817 445.553C535.674 445.553 557.445 423.781 557.445 396.924C557.445 370.067 535.674 348.296 508.817 348.296C481.96 348.296 460.188 370.067 460.188 396.924C460.188 423.781 481.96 445.553 508.817 445.553Z" fill="#AAC3E4"/>
<path d="M417.767 381.404C428.624 381.404 437.426 372.603 437.426 361.746C437.426 350.889 428.624 342.087 417.767 342.087C406.91 342.087 398.109 350.889 398.109 361.746C398.109 372.603 406.91 381.404 417.767 381.404Z" fill="#AAC3E4"/>
<g opacity="0.4">
<path d="M142.681 237.317C153.538 237.317 162.34 228.515 162.34 217.658C162.34 206.801 153.538 198 142.681 198C131.824 198 123.023 206.801 123.023 217.658C123.023 228.515 131.824 237.317 142.681 237.317Z" fill="#AAC3E4"/>
<path d="M139.212 204.43C138.087 203.614 131.628 207.664 129.084 214.02C129.043 214.106 129.035 214.167 128.993 214.253C128.742 214.77 127.602 217.4 128.229 221.358C128.273 221.73 128.644 222.908 129.112 223.334C129.553 223.727 130.26 223.971 130.832 223.831C131.725 223.58 132.214 222.178 132.161 220.92C132.097 217.126 132.43 215.979 132.86 214.081C133.757 210.228 136.461 207.158 138.378 206.124C138.515 206.019 139.204 205.681 139.357 205.212C139.506 204.774 139.435 204.612 139.212 204.43Z" fill="white"/>
<circle cx="142.228" cy="203.939" r="1.2688" transform="rotate(-97.6404 142.228 203.939)" fill="white"/>
</g>
<path d="M537.787 637.998C548.644 637.998 557.445 629.196 557.445 618.339C557.445 607.482 548.644 598.681 537.787 598.681C526.93 598.681 518.129 607.482 518.129 618.339C518.129 629.196 526.93 637.998 537.787 637.998Z" fill="#AAC3E4"/>
<path opacity="0.8" d="M194.282 368.989C208.568 368.989 220.149 357.408 220.149 343.122C220.149 328.837 208.568 317.256 194.282 317.256C179.997 317.256 168.416 328.837 168.416 343.122C168.416 357.408 179.997 368.989 194.282 368.989Z" fill="#AAC3E4"/>
<path d="M311.198 391.751C330.626 391.751 346.376 376.001 346.376 356.573C346.376 337.144 330.626 321.395 311.198 321.395C291.769 321.395 276.02 337.144 276.02 356.573C276.02 376.001 291.769 391.751 311.198 391.751Z" fill="#AAC3E4"/>
<path d="M342.237 650.414C361.666 650.414 377.416 634.664 377.416 615.235C377.416 595.807 361.666 580.057 342.237 580.057C322.809 580.057 307.059 595.807 307.059 615.235C307.059 634.664 322.809 650.414 342.237 650.414Z" fill="#AAC3E4"/>
<path d="M153.072 571.491C177.74 571.491 197.737 552.255 197.737 528.525C197.737 504.795 177.74 485.558 153.072 485.558C128.403 485.558 108.406 504.795 108.406 528.525C108.406 552.255 128.403 571.491 153.072 571.491Z" fill="white"/>
<path d="M326.966 571.491C351.634 571.491 371.632 552.255 371.632 528.525C371.632 504.795 351.634 485.558 326.966 485.558C302.298 485.558 282.3 504.795 282.3 528.525C282.3 552.255 302.298 571.491 326.966 571.491Z" fill="white"/>
<path d="M319.376 569.513C337.607 569.513 352.386 554.734 352.386 536.503C352.386 518.272 337.607 503.493 319.376 503.493C301.145 503.493 286.366 518.272 286.366 536.503C286.366 554.734 301.145 569.513 319.376 569.513Z" fill="#373D54"/>
<path d="M160.04 569.513C178.271 569.513 193.05 554.734 193.05 536.503C193.05 518.272 178.271 503.493 160.04 503.493C141.809 503.493 127.029 518.272 127.029 536.503C127.029 554.734 141.809 569.513 160.04 569.513Z" fill="#373D54"/>
<path d="M243.945 642.136C260.517 642.136 273.95 623.144 273.95 599.716C273.95 576.287 260.517 557.295 243.945 557.295C227.374 557.295 213.94 576.287 213.94 599.716C213.94 623.144 227.374 642.136 243.945 642.136Z" fill="#E84A89"/>
<path d="M297.782 614.201C297.782 621.723 295.523 628.493 291.918 633.359C288.313 638.226 283.413 641.137 278.089 641.137C272.766 641.137 267.866 638.226 264.261 633.359C260.656 628.493 258.396 621.723 258.396 614.201C258.396 606.679 260.656 599.909 264.261 595.043C267.866 590.176 272.766 587.265 278.089 587.265C283.413 587.265 288.313 590.176 291.918 595.043C295.523 599.909 297.782 606.679 297.782 614.201Z" fill="#AAC3E4" fill-opacity="0.47" stroke="#003173" stroke-width="2"/>
<rect x="274.95" y="638.998" width="4.20792" height="101.465" fill="#003173" stroke="#003173" stroke-width="2"/>
<path d="M555.182 617.04C556.276 615.893 552.678 607.978 545.878 604.139C545.787 604.078 545.72 604.061 545.629 604C545.083 603.638 542.282 601.951 537.714 602.059C537.286 602.053 535.899 602.293 535.346 602.757C534.835 603.197 534.452 603.959 534.524 604.626C534.672 605.674 536.183 606.439 537.613 606.57C541.911 607.073 543.157 607.624 545.238 608.397C549.456 609.996 552.516 613.517 553.395 615.841C553.492 616.011 553.77 616.842 554.276 617.086C554.75 617.32 554.943 617.264 555.182 617.04Z" fill="white"/>
<path d="M498.258 526.024C500.604 523.562 492.885 506.582 478.297 498.346C478.102 498.217 477.959 498.178 477.764 498.049C476.592 497.271 470.583 493.652 460.782 493.885C459.865 493.871 456.889 494.387 455.703 495.383C454.606 496.325 453.785 497.96 453.938 499.391C454.256 501.64 457.497 503.281 460.566 503.562C469.785 504.642 472.46 505.822 476.923 507.482C485.973 510.911 492.538 518.465 494.423 523.451C494.632 523.816 495.228 525.599 496.314 526.122C497.33 526.626 497.745 526.505 498.258 526.024Z" fill="white"/>
<circle cx="498.47" cy="533.498" r="3.10431" fill="white"/>
<path d="M547.921 387.381C550.267 384.919 542.548 367.939 527.96 359.703C527.765 359.574 527.622 359.535 527.427 359.406C526.255 358.628 520.246 355.009 510.445 355.242C509.528 355.228 506.552 355.744 505.365 356.74C504.269 357.682 503.448 359.316 503.601 360.748C503.919 362.997 507.16 364.638 510.229 364.919C519.448 365.999 522.123 367.179 526.586 368.839C535.636 372.268 542.201 379.822 544.086 384.808C544.294 385.173 544.891 386.956 545.977 387.479C546.993 387.983 547.408 387.862 547.921 387.381Z" fill="white"/>
<circle cx="548.133" cy="394.856" r="3.10431" fill="white"/>
<path d="M339.713 350.02C341.496 348.15 335.63 335.246 324.545 328.988C324.396 328.889 324.288 328.86 324.139 328.761C323.249 328.171 318.682 325.42 311.234 325.597C310.538 325.587 308.277 325.979 307.375 326.735C306.542 327.452 305.918 328.694 306.034 329.782C306.275 331.49 308.738 332.737 311.07 332.951C318.076 333.772 320.109 334.669 323.5 335.93C330.378 338.536 335.366 344.276 336.798 348.065C336.957 348.343 337.41 349.697 338.236 350.094C339.008 350.477 339.323 350.386 339.713 350.02Z" fill="white"/>
<circle cx="339.875" cy="355.7" r="2.359" fill="white"/>
<g opacity="0.6">
<path d="M100.024 327.477C118.371 327.477 133.245 312.604 133.245 294.256C133.245 275.909 118.371 261.035 100.024 261.035C81.676 261.035 66.8024 275.909 66.8024 294.256C66.8024 312.604 81.676 327.477 100.024 327.477Z" fill="#AAC3E4"/>
<path d="M125.742 290.999C127.525 289.128 121.659 276.224 110.574 269.966C110.425 269.868 110.317 269.838 110.168 269.74C109.278 269.149 104.712 266.399 97.2634 266.576C96.567 266.565 94.3057 266.957 93.4037 267.714C92.5708 268.43 91.9467 269.672 92.063 270.76C92.3045 272.469 94.7675 273.716 97.0994 273.93C104.106 274.75 106.138 275.647 109.53 276.908C116.407 279.514 121.395 285.255 122.828 289.044C122.986 289.321 123.439 290.675 124.265 291.073C125.037 291.456 125.353 291.364 125.742 290.999Z" fill="white"/>
<circle cx="125.904" cy="296.678" r="2.359" fill="white"/>
</g>
<path d="M175.092 349.012C173.938 350.186 177.548 358.461 184.546 362.555C184.64 362.62 184.709 362.639 184.802 362.703C185.364 363.088 188.245 364.885 192.99 364.845C193.434 364.858 194.878 364.631 195.459 364.158C195.997 363.71 196.407 362.925 196.343 362.231C196.206 361.14 194.65 360.322 193.167 360.163C188.713 359.572 187.427 358.981 185.279 358.144C180.925 356.417 177.804 352.713 176.929 350.286C176.83 350.107 176.555 349.24 176.033 348.979C175.545 348.728 175.343 348.783 175.092 349.012Z" fill="white"/>
<circle cx="175.044" cy="345.394" r="1.50256" transform="rotate(-179.121 175.044 345.394)" fill="white"/>
<path d="M412.594 347.18C411.469 346.363 405.01 350.413 402.466 356.77C402.424 356.856 402.417 356.916 402.375 357.002C402.124 357.519 400.984 360.15 401.611 364.108C401.655 364.48 402.026 365.657 402.494 366.084C402.935 366.477 403.642 366.721 404.213 366.581C405.107 366.33 405.596 364.928 405.543 363.669C405.479 359.876 405.812 358.728 406.242 356.83C407.139 352.978 409.842 349.908 411.76 348.873C411.897 348.769 412.586 348.431 412.739 347.962C412.888 347.523 412.817 347.361 412.594 347.18Z" fill="white"/>
<circle cx="415.61" cy="346.688" r="1.2688" transform="rotate(-97.6404 415.61 346.688)" fill="white"/>
<path d="M343.865 586.785C342.247 584.447 327.04 587.891 317.829 598.437C317.689 598.575 317.634 598.685 317.495 598.823C316.66 599.651 312.68 603.957 311.21 612.019C311.044 612.767 310.962 615.29 311.576 616.43C312.162 617.487 313.361 618.436 314.559 618.553C316.453 618.674 318.346 616.299 319.096 613.835C321.541 606.471 322.96 604.481 325.074 601.109C329.414 594.281 336.709 590.187 341.109 589.489C341.444 589.379 343.004 589.193 343.616 588.392C344.2 587.646 344.172 587.286 343.865 586.785Z" fill="white"/>
<circle cx="350.019" cy="587.877" r="2.5949" transform="rotate(-78.3118 350.019 587.877)" fill="white"/>
<circle cx="554.341" cy="620.409" r="1.03477" fill="white"/>
<path d="M1037.35 -58.6678C1039.45 -65.0986 1048.55 -65.0986 1050.65 -58.6678L1123.49 163.935C1124.12 165.868 1125.57 167.431 1127.44 168.216L1326.57 251.543C1332.3 253.941 1332.3 262.059 1326.57 264.457L1127.44 347.784C1125.57 348.569 1124.12 350.132 1123.49 352.065L1050.65 574.668C1048.55 581.099 1039.45 581.099 1037.35 574.668L964.509 352.065C963.877 350.132 962.435 348.569 960.558 347.784L761.431 264.457C755.701 262.059 755.701 253.941 761.431 251.543L960.558 168.216C962.435 167.431 963.877 165.868 964.509 163.935L1037.35 -58.6678Z" fill="#004AAD"/>
<path d="M847.772 95.1798C844.715 89.1455 851.145 82.7149 857.18 85.772L1022.59 169.571C1024.41 170.49 1026.53 170.574 1028.41 169.802L1187.08 104.697C1192.83 102.338 1198.57 108.082 1196.21 113.83L1131.11 272.494C1130.33 274.376 1130.42 276.501 1131.34 278.315L1215.14 443.728C1218.19 449.762 1211.76 456.192 1205.73 453.135L1040.31 369.337C1038.5 368.418 1036.38 368.333 1034.49 369.105L875.83 434.21C870.082 436.569 864.338 430.826 866.697 425.077L931.802 266.413C932.574 264.531 932.49 262.407 931.571 260.592L847.772 95.1798Z" fill="#5586C8"/>
<path d="M69.56 127C69.208 127 68.92 126.888 68.696 126.664C68.472 126.44 68.36 126.152 68.36 125.8V94.6C68.36 94.248 68.472 93.96 68.696 93.736C68.92 93.512 69.208 93.4 69.56 93.4H83C85.656 93.4 87.96 93.816 89.912 94.648C91.896 95.448 93.432 96.664 94.52 98.296C95.64 99.928 96.2 101.992 96.2 104.488C96.2 106.952 95.64 108.984 94.52 110.584C93.432 112.184 91.896 113.368 89.912 114.136C87.96 114.904 85.656 115.288 83 115.288H77.288V125.8C77.288 126.152 77.16 126.44 76.904 126.664C76.68 126.888 76.392 127 76.04 127H69.56ZM77.144 108.664H82.76C84.136 108.664 85.224 108.312 86.024 107.608C86.856 106.904 87.272 105.832 87.272 104.392C87.272 103.176 86.92 102.152 86.216 101.32C85.512 100.488 84.36 100.072 82.76 100.072H77.144V108.664ZM111.076 127.48C108.388 127.48 106.116 127.048 104.26 126.184C102.436 125.32 101.028 124.088 100.036 122.488C99.0763 120.856 98.5323 118.92 98.4043 116.68C98.3723 116.04 98.3563 115.32 98.3563 114.52C98.3563 113.688 98.3723 112.968 98.4043 112.36C98.5323 110.088 99.1083 108.152 100.132 106.552C101.156 104.952 102.58 103.72 104.404 102.856C106.26 101.992 108.484 101.56 111.076 101.56C113.7 101.56 115.924 101.992 117.748 102.856C119.604 103.72 121.044 104.952 122.068 106.552C123.092 108.152 123.668 110.088 123.796 112.36C123.828 112.968 123.844 113.688 123.844 114.52C123.844 115.32 123.828 116.04 123.796 116.68C123.668 118.92 123.108 120.856 122.116 122.488C121.156 124.088 119.748 125.32 117.892 126.184C116.068 127.048 113.796 127.48 111.076 127.48ZM111.076 121.624C112.516 121.624 113.556 121.192 114.196 120.328C114.868 119.464 115.252 118.168 115.348 116.44C115.38 115.96 115.396 115.32 115.396 114.52C115.396 113.72 115.38 113.08 115.348 112.6C115.252 110.904 114.868 109.624 114.196 108.76C113.556 107.864 112.516 107.416 111.076 107.416C109.668 107.416 108.628 107.864 107.956 108.76C107.284 109.624 106.916 110.904 106.852 112.6C106.82 113.08 106.804 113.72 106.804 114.52C106.804 115.32 106.82 115.96 106.852 116.44C106.916 118.168 107.284 119.464 107.956 120.328C108.628 121.192 109.668 121.624 111.076 121.624ZM137.157 127.48C135.621 127.48 134.229 127.24 132.981 126.76C131.765 126.248 130.709 125.512 129.813 124.552C128.949 123.56 128.277 122.376 127.797 121C127.317 119.592 127.045 117.992 126.981 116.2C126.949 115.56 126.933 115 126.933 114.52C126.933 114.008 126.949 113.448 126.981 112.84C127.045 111.112 127.317 109.56 127.797 108.184C128.277 106.808 128.949 105.624 129.813 104.632C130.677 103.64 131.733 102.888 132.981 102.376C134.229 101.832 135.621 101.56 137.157 101.56C138.757 101.56 140.133 101.832 141.285 102.376C142.437 102.888 143.413 103.56 144.213 104.392V94.12C144.213 93.768 144.325 93.48 144.549 93.256C144.773 93.032 145.061 92.92 145.413 92.92H151.269C151.589 92.92 151.861 93.032 152.085 93.256C152.341 93.48 152.469 93.768 152.469 94.12V125.8C152.469 126.152 152.341 126.44 152.085 126.664C151.861 126.888 151.589 127 151.269 127H145.845C145.493 127 145.205 126.888 144.981 126.664C144.757 126.44 144.645 126.152 144.645 125.8V124.264C143.877 125.192 142.885 125.96 141.669 126.568C140.453 127.176 138.949 127.48 137.157 127.48ZM139.749 121.048C140.837 121.048 141.685 120.824 142.293 120.376C142.933 119.896 143.397 119.288 143.685 118.552C144.005 117.816 144.181 117.016 144.213 116.152C144.245 115.512 144.261 114.904 144.261 114.328C144.261 113.752 144.245 113.16 144.213 112.552C144.181 111.752 144.005 111.016 143.685 110.344C143.365 109.64 142.885 109.08 142.245 108.664C141.605 108.216 140.773 107.992 139.749 107.992C138.693 107.992 137.845 108.216 137.205 108.664C136.597 109.112 136.165 109.72 135.909 110.488C135.653 111.256 135.493 112.104 135.429 113.032C135.333 114.024 135.333 115.016 135.429 116.008C135.493 116.936 135.653 117.784 135.909 118.552C136.165 119.32 136.597 119.928 137.205 120.376C137.845 120.824 138.693 121.048 139.749 121.048ZM168.878 127.48C166.51 127.48 164.414 127.048 162.59 126.184C160.766 125.32 159.31 124.072 158.222 122.44C157.166 120.776 156.59 118.792 156.494 116.488C156.462 115.976 156.446 115.336 156.446 114.568C156.446 113.768 156.462 113.112 156.494 112.6C156.59 110.264 157.166 108.28 158.222 106.648C159.278 104.984 160.718 103.72 162.542 102.856C164.398 101.992 166.51 101.56 168.878 101.56C171.086 101.56 172.974 101.88 174.542 102.52C176.11 103.128 177.39 103.896 178.382 104.824C179.374 105.752 180.11 106.712 180.59 107.704C181.102 108.664 181.374 109.512 181.406 110.248C181.438 110.568 181.326 110.856 181.07 111.112C180.814 111.336 180.526 111.448 180.206 111.448H174.11C173.758 111.448 173.486 111.368 173.294 111.208C173.102 111.048 172.926 110.808 172.766 110.488C172.382 109.496 171.886 108.792 171.278 108.376C170.702 107.96 169.95 107.752 169.022 107.752C167.742 107.752 166.75 108.168 166.046 109C165.374 109.832 165.006 111.112 164.942 112.84C164.91 114.12 164.91 115.256 164.942 116.248C165.006 118.008 165.374 119.288 166.046 120.088C166.75 120.888 167.742 121.288 169.022 121.288C170.014 121.288 170.798 121.08 171.374 120.664C171.95 120.248 172.414 119.544 172.766 118.552C172.926 118.232 173.102 117.992 173.294 117.832C173.486 117.672 173.758 117.592 174.11 117.592H180.206C180.526 117.592 180.814 117.72 181.07 117.976C181.326 118.2 181.438 118.472 181.406 118.792C181.374 119.336 181.214 119.976 180.926 120.712C180.638 121.416 180.19 122.168 179.582 122.968C178.974 123.768 178.174 124.52 177.182 125.224C176.222 125.896 175.054 126.44 173.678 126.856C172.302 127.272 170.702 127.48 168.878 127.48ZM192.487 127.48C190.759 127.48 189.207 127.16 187.831 126.52C186.487 125.848 185.415 124.952 184.615 123.832C183.815 122.712 183.415 121.448 183.415 120.04C183.415 117.768 184.343 115.976 186.199 114.664C188.055 113.32 190.519 112.408 193.591 111.928L199.591 111.016V110.344C199.591 109.192 199.351 108.312 198.871 107.704C198.391 107.096 197.511 106.792 196.231 106.792C195.335 106.792 194.599 106.968 194.023 107.32C193.479 107.672 193.047 108.152 192.727 108.76C192.439 109.176 192.039 109.384 191.527 109.384H186.151C185.799 109.384 185.527 109.288 185.335 109.096C185.143 108.872 185.063 108.616 185.095 108.328C185.095 107.752 185.303 107.096 185.719 106.36C186.167 105.592 186.839 104.84 187.735 104.104C188.631 103.368 189.783 102.76 191.191 102.28C192.599 101.8 194.295 101.56 196.279 101.56C198.359 101.56 200.135 101.8 201.607 102.28C203.079 102.76 204.263 103.432 205.159 104.296C206.087 105.16 206.775 106.184 207.223 107.368C207.671 108.52 207.895 109.8 207.895 111.208V125.8C207.895 126.152 207.767 126.44 207.511 126.664C207.287 126.888 207.015 127 206.695 127H201.127C200.775 127 200.487 126.888 200.263 126.664C200.039 126.44 199.927 126.152 199.927 125.8V124.12C199.511 124.728 198.951 125.288 198.247 125.8C197.543 126.312 196.711 126.712 195.751 127C194.823 127.32 193.735 127.48 192.487 127.48ZM194.743 122.008C195.671 122.008 196.503 121.816 197.239 121.432C198.007 121.016 198.599 120.392 199.015 119.56C199.463 118.696 199.687 117.624 199.687 116.344V115.672L195.607 116.392C194.103 116.648 192.999 117.048 192.295 117.592C191.623 118.104 191.287 118.712 191.287 119.416C191.287 119.96 191.447 120.424 191.767 120.808C192.087 121.192 192.503 121.496 193.015 121.72C193.527 121.912 194.103 122.008 194.743 122.008ZM222.863 127.48C220.783 127.48 219.007 127.256 217.535 126.808C216.095 126.328 214.911 125.752 213.983 125.08C213.087 124.408 212.415 123.72 211.967 123.016C211.519 122.28 211.279 121.656 211.247 121.144C211.215 120.792 211.327 120.504 211.583 120.28C211.839 120.024 212.111 119.896 212.399 119.896H217.871C217.967 119.896 218.047 119.912 218.111 119.944C218.175 119.976 218.271 120.04 218.399 120.136C218.815 120.36 219.231 120.648 219.647 121C220.063 121.32 220.543 121.608 221.087 121.864C221.631 122.12 222.287 122.248 223.055 122.248C223.951 122.248 224.703 122.072 225.311 121.72C225.919 121.368 226.223 120.84 226.223 120.136C226.223 119.624 226.079 119.208 225.791 118.888C225.503 118.536 224.911 118.2 224.015 117.88C223.151 117.56 221.839 117.24 220.079 116.92C218.415 116.536 216.959 116.04 215.711 115.432C214.463 114.792 213.503 113.976 212.831 112.984C212.159 111.96 211.823 110.728 211.823 109.288C211.823 108.008 212.239 106.776 213.071 105.592C213.903 104.408 215.119 103.448 216.719 102.712C218.319 101.944 220.287 101.56 222.623 101.56C224.479 101.56 226.079 101.784 227.423 102.232C228.799 102.648 229.951 103.192 230.879 103.864C231.839 104.536 232.559 105.224 233.039 105.928C233.519 106.632 233.775 107.272 233.807 107.848C233.839 108.168 233.743 108.456 233.519 108.712C233.295 108.936 233.039 109.048 232.751 109.048H227.759C227.631 109.048 227.503 109.032 227.375 109C227.247 108.936 227.135 108.872 227.039 108.808C226.655 108.616 226.271 108.36 225.887 108.04C225.503 107.72 225.055 107.432 224.543 107.176C224.031 106.92 223.391 106.792 222.623 106.792C221.759 106.792 221.087 106.984 220.607 107.368C220.127 107.752 219.887 108.248 219.887 108.856C219.887 109.272 220.015 109.656 220.271 110.008C220.559 110.36 221.119 110.68 221.951 110.968C222.815 111.256 224.143 111.576 225.935 111.928C228.143 112.28 229.903 112.856 231.215 113.656C232.527 114.424 233.455 115.336 233.999 116.392C234.543 117.416 234.815 118.504 234.815 119.656C234.815 121.192 234.351 122.552 233.423 123.736C232.527 124.92 231.183 125.848 229.391 126.52C227.599 127.16 225.423 127.48 222.863 127.48ZM251.03 127C248.982 127 247.206 126.68 245.702 126.04C244.23 125.368 243.094 124.344 242.294 122.968C241.494 121.56 241.094 119.752 241.094 117.544V108.328H237.35C236.998 108.328 236.694 108.216 236.438 107.992C236.214 107.768 236.102 107.48 236.102 107.128V103.24C236.102 102.888 236.214 102.6 236.438 102.376C236.694 102.152 236.998 102.04 237.35 102.04H241.094V94.12C241.094 93.768 241.206 93.48 241.43 93.256C241.686 93.032 241.974 92.92 242.294 92.92H247.862C248.214 92.92 248.502 93.032 248.726 93.256C248.95 93.48 249.062 93.768 249.062 94.12V102.04H255.062C255.414 102.04 255.702 102.152 255.926 102.376C256.15 102.6 256.262 102.888 256.262 103.24V107.128C256.262 107.48 256.15 107.768 255.926 107.992C255.702 108.216 255.414 108.328 255.062 108.328H249.062V116.872C249.062 117.96 249.27 118.824 249.686 119.464C250.102 120.104 250.806 120.424 251.798 120.424H255.494C255.846 120.424 256.134 120.536 256.358 120.76C256.582 120.984 256.694 121.272 256.694 121.624V125.8C256.694 126.152 256.582 126.44 256.358 126.664C256.134 126.888 255.846 127 255.494 127H251.03ZM270.647 136.12C270.295 136.12 270.007 136.008 269.783 135.784C269.559 135.56 269.447 135.272 269.447 134.92V103.24C269.447 102.888 269.559 102.6 269.783 102.376C270.007 102.152 270.295 102.04 270.647 102.04H276.071C276.391 102.04 276.663 102.152 276.887 102.376C277.143 102.6 277.271 102.888 277.271 103.24V105.016C278.007 104.024 278.983 103.208 280.199 102.568C281.415 101.896 282.919 101.56 284.711 101.56C286.311 101.56 287.719 101.816 288.935 102.328C290.151 102.808 291.191 103.528 292.055 104.488C292.919 105.448 293.591 106.616 294.071 107.992C294.583 109.368 294.871 110.952 294.935 112.744C294.967 113.384 294.983 113.976 294.983 114.52C294.983 115.064 294.967 115.656 294.935 116.296C294.871 118.024 294.599 119.576 294.119 120.952C293.639 122.328 292.967 123.496 292.103 124.456C291.239 125.416 290.183 126.168 288.935 126.712C287.719 127.224 286.311 127.48 284.711 127.48C283.143 127.48 281.767 127.208 280.583 126.664C279.431 126.088 278.471 125.288 277.703 124.264V134.92C277.703 135.272 277.591 135.56 277.367 135.784C277.143 136.008 276.855 136.12 276.503 136.12H270.647ZM282.119 121.048C283.207 121.048 284.055 120.824 284.663 120.376C285.271 119.928 285.703 119.32 285.959 118.552C286.247 117.784 286.423 116.936 286.487 116.008C286.551 115.016 286.551 114.024 286.487 113.032C286.423 112.104 286.247 111.256 285.959 110.488C285.703 109.72 285.271 109.112 284.663 108.664C284.055 108.216 283.207 107.992 282.119 107.992C281.063 107.992 280.215 108.232 279.575 108.712C278.935 109.16 278.471 109.752 278.183 110.488C277.895 111.224 277.735 112.024 277.703 112.888C277.671 113.496 277.655 114.088 277.655 114.664C277.655 115.24 277.671 115.848 277.703 116.488C277.735 117.288 277.911 118.04 278.231 118.744C278.551 119.416 279.031 119.976 279.671 120.424C280.311 120.84 281.127 121.048 282.119 121.048ZM306.496 127.48C304.768 127.48 303.216 127.16 301.84 126.52C300.496 125.848 299.424 124.952 298.624 123.832C297.824 122.712 297.424 121.448 297.424 120.04C297.424 117.768 298.352 115.976 300.208 114.664C302.064 113.32 304.528 112.408 307.6 111.928L313.6 111.016V110.344C313.6 109.192 313.36 108.312 312.88 107.704C312.4 107.096 311.52 106.792 310.24 106.792C309.344 106.792 308.608 106.968 308.032 107.32C307.488 107.672 307.056 108.152 306.736 108.76C306.448 109.176 306.048 109.384 305.536 109.384H300.16C299.808 109.384 299.536 109.288 299.344 109.096C299.152 108.872 299.072 108.616 299.104 108.328C299.104 107.752 299.312 107.096 299.728 106.36C300.176 105.592 300.848 104.84 301.744 104.104C302.64 103.368 303.792 102.76 305.2 102.28C306.608 101.8 308.304 101.56 310.288 101.56C312.368 101.56 314.144 101.8 315.616 102.28C317.088 102.76 318.272 103.432 319.168 104.296C320.096 105.16 320.784 106.184 321.232 107.368C321.68 108.52 321.904 109.8 321.904 111.208V125.8C321.904 126.152 321.776 126.44 321.52 126.664C321.296 126.888 321.024 127 320.704 127H315.136C314.784 127 314.496 126.888 314.272 126.664C314.048 126.44 313.936 126.152 313.936 125.8V124.12C313.52 124.728 312.96 125.288 312.256 125.8C311.552 126.312 310.72 126.712 309.76 127C308.832 127.32 307.744 127.48 306.496 127.48ZM308.752 122.008C309.68 122.008 310.512 121.816 311.248 121.432C312.016 121.016 312.608 120.392 313.024 119.56C313.472 118.696 313.696 117.624 313.696 116.344V115.672L309.616 116.392C308.112 116.648 307.008 117.048 306.304 117.592C305.632 118.104 305.296 118.712 305.296 119.416C305.296 119.96 305.456 120.424 305.776 120.808C306.096 121.192 306.512 121.496 307.024 121.72C307.536 121.912 308.112 122.008 308.752 122.008ZM327.801 127C327.449 127 327.161 126.888 326.937 126.664C326.713 126.44 326.601 126.152 326.601 125.8V94.12C326.601 93.768 326.713 93.48 326.937 93.256C327.161 93.032 327.449 92.92 327.801 92.92H333.465C333.817 92.92 334.105 93.032 334.329 93.256C334.553 93.48 334.665 93.768 334.665 94.12V125.8C334.665 126.152 334.553 126.44 334.329 126.664C334.105 126.888 333.817 127 333.465 127H327.801ZM342.456 127C342.104 127 341.816 126.888 341.592 126.664C341.368 126.44 341.256 126.152 341.256 125.8V103.24C341.256 102.888 341.368 102.6 341.592 102.376C341.816 102.152 342.104 102.04 342.456 102.04H348.12C348.44 102.04 348.712 102.152 348.936 102.376C349.192 102.6 349.32 102.888 349.32 103.24V125.8C349.32 126.152 349.192 126.44 348.936 126.664C348.712 126.888 348.44 127 348.12 127H342.456ZM342.408 98.44C342.056 98.44 341.768 98.328 341.544 98.104C341.32 97.88 341.208 97.592 341.208 97.24V92.968C341.208 92.616 341.32 92.328 341.544 92.104C341.768 91.848 342.056 91.72 342.408 91.72H348.12C348.472 91.72 348.76 91.848 348.984 92.104C349.24 92.328 349.368 92.616 349.368 92.968V97.24C349.368 97.592 349.24 97.88 348.984 98.104C348.76 98.328 348.472 98.44 348.12 98.44H342.408ZM356.923 127C356.571 127 356.283 126.888 356.059 126.664C355.835 126.44 355.723 126.152 355.723 125.8V103.24C355.723 102.888 355.835 102.6 356.059 102.376C356.283 102.152 356.571 102.04 356.923 102.04H362.443C362.795 102.04 363.083 102.152 363.307 102.376C363.531 102.6 363.643 102.888 363.643 103.24V105.064C364.475 104.072 365.563 103.24 366.907 102.568C368.251 101.896 369.835 101.56 371.659 101.56C373.515 101.56 375.147 101.976 376.555 102.808C377.995 103.64 379.115 104.872 379.915 106.504C380.747 108.104 381.163 110.072 381.163 112.408V125.8C381.163 126.152 381.035 126.44 380.779 126.664C380.555 126.888 380.283 127 379.963 127H373.915C373.595 127 373.307 126.888 373.051 126.664C372.827 126.44 372.715 126.152 372.715 125.8V112.696C372.715 111.192 372.347 110.04 371.611 109.24C370.907 108.408 369.851 107.992 368.443 107.992C367.131 107.992 366.075 108.408 365.275 109.24C364.507 110.04 364.123 111.192 364.123 112.696V125.8C364.123 126.152 363.995 126.44 363.739 126.664C363.515 126.888 363.243 127 362.923 127H356.923ZM398.04 137.56C395.576 137.56 393.528 137.24 391.896 136.6C390.296 135.96 389.016 135.192 388.056 134.296C387.128 133.4 386.456 132.504 386.04 131.608C385.624 130.744 385.4 130.056 385.368 129.544C385.336 129.192 385.448 128.904 385.704 128.68C385.96 128.456 386.264 128.344 386.616 128.344H392.712C393 128.344 393.24 128.408 393.432 128.536C393.656 128.696 393.832 128.952 393.96 129.304C394.12 129.656 394.328 130.024 394.584 130.408C394.872 130.792 395.256 131.096 395.736 131.32C396.248 131.576 396.936 131.704 397.8 131.704C398.76 131.704 399.56 131.544 400.2 131.224C400.84 130.936 401.32 130.44 401.64 129.736C401.96 129.064 402.12 128.152 402.12 127V123.784C401.384 124.584 400.44 125.24 399.288 125.752C398.136 126.232 396.744 126.472 395.112 126.472C393.48 126.472 392.04 126.232 390.792 125.752C389.544 125.272 388.504 124.552 387.672 123.592C386.84 122.632 386.184 121.464 385.704 120.088C385.256 118.712 384.984 117.128 384.888 115.336C384.856 114.504 384.856 113.672 384.888 112.84C384.984 111.112 385.256 109.56 385.704 108.184C386.152 106.808 386.792 105.624 387.624 104.632C388.488 103.64 389.544 102.888 390.792 102.376C392.04 101.832 393.48 101.56 395.112 101.56C396.84 101.56 398.312 101.896 399.528 102.568C400.776 103.208 401.8 104.024 402.6 105.016V103.24C402.6 102.92 402.712 102.648 402.936 102.424C403.16 102.168 403.448 102.04 403.8 102.04H409.32C409.672 102.04 409.96 102.168 410.184 102.424C410.44 102.648 410.568 102.92 410.568 103.24V126.328C410.568 128.76 410.072 130.808 409.08 132.472C408.088 134.136 406.664 135.4 404.808 136.264C402.952 137.128 400.696 137.56 398.04 137.56ZM397.704 120.232C398.728 120.232 399.56 120.008 400.2 119.56C400.84 119.112 401.304 118.536 401.592 117.832C401.912 117.128 402.088 116.376 402.12 115.576C402.152 115.224 402.168 114.728 402.168 114.088C402.168 113.448 402.152 112.968 402.12 112.648C402.088 111.816 401.912 111.048 401.592 110.344C401.304 109.64 400.84 109.08 400.2 108.664C399.56 108.216 398.728 107.992 397.704 107.992C396.648 107.992 395.8 108.216 395.16 108.664C394.552 109.112 394.104 109.72 393.816 110.488C393.56 111.256 393.4 112.104 393.336 113.032C393.304 113.736 393.304 114.456 393.336 115.192C393.4 116.12 393.56 116.968 393.816 117.736C394.104 118.504 394.552 119.112 395.16 119.56C395.8 120.008 396.648 120.232 397.704 120.232ZM435.273 127.48C433.193 127.48 431.417 127.256 429.945 126.808C428.505 126.328 427.321 125.752 426.393 125.08C425.497 124.408 424.825 123.72 424.377 123.016C423.929 122.28 423.689 121.656 423.657 121.144C423.625 120.792 423.737 120.504 423.993 120.28C424.249 120.024 424.521 119.896 424.809 119.896H430.281C430.377 119.896 430.457 119.912 430.521 119.944C430.585 119.976 430.681 120.04 430.809 120.136C431.225 120.36 431.641 120.648 432.057 121C432.473 121.32 432.953 121.608 433.497 121.864C434.041 122.12 434.697 122.248 435.465 122.248C436.361 122.248 437.113 122.072 437.721 121.72C438.329 121.368 438.633 120.84 438.633 120.136C438.633 119.624 438.489 119.208 438.201 118.888C437.913 118.536 437.321 118.2 436.425 117.88C435.561 117.56 434.249 117.24 432.489 116.92C430.825 116.536 429.369 116.04 428.121 115.432C426.873 114.792 425.913 113.976 425.241 112.984C424.569 111.96 424.233 110.728 424.233 109.288C424.233 108.008 424.649 106.776 425.481 105.592C426.313 104.408 427.529 103.448 429.129 102.712C430.729 101.944 432.697 101.56 435.033 101.56C436.889 101.56 438.489 101.784 439.833 102.232C441.209 102.648 442.361 103.192 443.289 103.864C444.249 104.536 444.969 105.224 445.449 105.928C445.929 106.632 446.185 107.272 446.217 107.848C446.249 108.168 446.153 108.456 445.929 108.712C445.705 108.936 445.449 109.048 445.161 109.048H440.169C440.041 109.048 439.913 109.032 439.785 109C439.657 108.936 439.545 108.872 439.449 108.808C439.065 108.616 438.681 108.36 438.297 108.04C437.913 107.72 437.465 107.432 436.953 107.176C436.441 106.92 435.801 106.792 435.033 106.792C434.169 106.792 433.497 106.984 433.017 107.368C432.537 107.752 432.297 108.248 432.297 108.856C432.297 109.272 432.425 109.656 432.681 110.008C432.969 110.36 433.529 110.68 434.361 110.968C435.225 111.256 436.553 111.576 438.345 111.928C440.553 112.28 442.313 112.856 443.625 113.656C444.937 114.424 445.865 115.336 446.409 116.392C446.953 117.416 447.225 118.504 447.225 119.656C447.225 121.192 446.761 122.552 445.833 123.736C444.937 124.92 443.593 125.848 441.801 126.52C440.009 127.16 437.833 127.48 435.273 127.48ZM462.332 127.48C458.556 127.48 455.548 126.456 453.308 124.408C451.068 122.36 449.9 119.32 449.804 115.288C449.804 115.064 449.804 114.776 449.804 114.424C449.804 114.072 449.804 113.8 449.804 113.608C449.9 111.08 450.46 108.92 451.484 107.128C452.54 105.304 453.98 103.928 455.804 103C457.66 102.04 459.82 101.56 462.284 101.56C465.1 101.56 467.42 102.12 469.244 103.24C471.1 104.36 472.492 105.88 473.42 107.8C474.348 109.72 474.812 111.912 474.812 114.376V115.528C474.812 115.88 474.684 116.168 474.428 116.392C474.204 116.616 473.932 116.728 473.612 116.728H458.252C458.252 116.76 458.252 116.808 458.252 116.872C458.252 116.936 458.252 117 458.252 117.064C458.284 117.992 458.444 118.84 458.732 119.608C459.02 120.376 459.468 120.984 460.076 121.432C460.684 121.88 461.42 122.104 462.284 122.104C462.924 122.104 463.452 122.008 463.868 121.816C464.316 121.592 464.684 121.352 464.972 121.096C465.26 120.808 465.484 120.568 465.644 120.376C465.932 120.056 466.156 119.864 466.316 119.8C466.508 119.704 466.796 119.656 467.18 119.656H473.132C473.452 119.656 473.708 119.752 473.9 119.944C474.124 120.104 474.22 120.344 474.188 120.664C474.156 121.208 473.884 121.864 473.372 122.632C472.86 123.4 472.108 124.168 471.116 124.936C470.156 125.672 468.94 126.28 467.468 126.76C465.996 127.24 464.284 127.48 462.332 127.48ZM458.252 111.976H466.364V111.88C466.364 110.856 466.204 109.96 465.884 109.192C465.596 108.424 465.132 107.832 464.492 107.416C463.884 107 463.148 106.792 462.284 106.792C461.42 106.792 460.684 107 460.076 107.416C459.5 107.832 459.052 108.424 458.732 109.192C458.412 109.96 458.252 110.856 458.252 111.88V111.976ZM479.792 127C479.44 127 479.152 126.888 478.928 126.664C478.704 126.44 478.592 126.152 478.592 125.8V103.24C478.592 102.92 478.704 102.648 478.928 102.424C479.152 102.168 479.44 102.04 479.792 102.04H485.312C485.664 102.04 485.952 102.168 486.176 102.424C486.4 102.648 486.512 102.92 486.512 103.24V105.16C487.376 104.168 488.4 103.4 489.584 102.856C490.8 102.312 492.16 102.04 493.664 102.04H495.776C496.096 102.04 496.368 102.152 496.592 102.376C496.848 102.6 496.976 102.888 496.976 103.24V108.184C496.976 108.504 496.848 108.792 496.592 109.048C496.368 109.272 496.096 109.384 495.776 109.384H491.12C489.808 109.384 488.784 109.752 488.048 110.488C487.344 111.192 486.992 112.2 486.992 113.512V125.8C486.992 126.152 486.864 126.44 486.608 126.664C486.384 126.888 486.096 127 485.744 127H479.792ZM500.869 127C500.517 127 500.229 126.888 500.005 126.664C499.781 126.44 499.669 126.152 499.669 125.8V103.24C499.669 102.888 499.781 102.6 500.005 102.376C500.229 102.152 500.517 102.04 500.869 102.04H506.533C506.853 102.04 507.125 102.152 507.349 102.376C507.605 102.6 507.733 102.888 507.733 103.24V125.8C507.733 126.152 507.605 126.44 507.349 126.664C507.125 126.888 506.853 127 506.533 127H500.869ZM500.821 98.44C500.469 98.44 500.181 98.328 499.957 98.104C499.733 97.88 499.621 97.592 499.621 97.24V92.968C499.621 92.616 499.733 92.328 499.957 92.104C500.181 91.848 500.469 91.72 500.821 91.72H506.533C506.885 91.72 507.173 91.848 507.397 92.104C507.653 92.328 507.781 92.616 507.781 92.968V97.24C507.781 97.592 507.653 97.88 507.397 98.104C507.173 98.328 506.885 98.44 506.533 98.44H500.821ZM515.336 127C514.984 127 514.696 126.888 514.472 126.664C514.248 126.44 514.136 126.152 514.136 125.8V103.24C514.136 102.888 514.248 102.6 514.472 102.376C514.696 102.152 514.984 102.04 515.336 102.04H520.856C521.208 102.04 521.496 102.152 521.72 102.376C521.944 102.6 522.056 102.888 522.056 103.24V105.064C522.888 104.072 523.976 103.24 525.32 102.568C526.664 101.896 528.248 101.56 530.072 101.56C531.928 101.56 533.56 101.976 534.968 102.808C536.408 103.64 537.528 104.872 538.328 106.504C539.16 108.104 539.576 110.072 539.576 112.408V125.8C539.576 126.152 539.448 126.44 539.192 126.664C538.968 126.888 538.696 127 538.376 127H532.328C532.008 127 531.72 126.888 531.464 126.664C531.24 126.44 531.128 126.152 531.128 125.8V112.696C531.128 111.192 530.76 110.04 530.024 109.24C529.32 108.408 528.264 107.992 526.856 107.992C525.544 107.992 524.488 108.408 523.688 109.24C522.92 110.04 522.536 111.192 522.536 112.696V125.8C522.536 126.152 522.408 126.44 522.152 126.664C521.928 126.888 521.656 127 521.336 127H515.336ZM556.453 137.56C553.989 137.56 551.941 137.24 550.309 136.6C548.709 135.96 547.429 135.192 546.469 134.296C545.541 133.4 544.869 132.504 544.453 131.608C544.037 130.744 543.813 130.056 543.781 129.544C543.749 129.192 543.861 128.904 544.117 128.68C544.373 128.456 544.677 128.344 545.029 128.344H551.125C551.413 128.344 551.653 128.408 551.845 128.536C552.069 128.696 552.245 128.952 552.373 129.304C552.533 129.656 552.741 130.024 552.997 130.408C553.285 130.792 553.669 131.096 554.149 131.32C554.661 131.576 555.349 131.704 556.213 131.704C557.173 131.704 557.973 131.544 558.613 131.224C559.253 130.936 559.733 130.44 560.053 129.736C560.373 129.064 560.533 128.152 560.533 127V123.784C559.797 124.584 558.853 125.24 557.701 125.752C556.549 126.232 555.157 126.472 553.525 126.472C551.893 126.472 550.453 126.232 549.205 125.752C547.957 125.272 546.917 124.552 546.085 123.592C545.253 122.632 544.597 121.464 544.117 120.088C543.669 118.712 543.397 117.128 543.301 115.336C543.269 114.504 543.269 113.672 543.301 112.84C543.397 111.112 543.669 109.56 544.117 108.184C544.565 106.808 545.205 105.624 546.037 104.632C546.901 103.64 547.957 102.888 549.205 102.376C550.453 101.832 551.893 101.56 553.525 101.56C555.253 101.56 556.725 101.896 557.941 102.568C559.189 103.208 560.213 104.024 561.013 105.016V103.24C561.013 102.92 561.125 102.648 561.349 102.424C561.573 102.168 561.861 102.04 562.213 102.04H567.733C568.085 102.04 568.373 102.168 568.597 102.424C568.853 102.648 568.981 102.92 568.981 103.24V126.328C568.981 128.76 568.485 130.808 567.493 132.472C566.501 134.136 565.077 135.4 563.221 136.264C561.365 137.128 559.109 137.56 556.453 137.56ZM556.117 120.232C557.141 120.232 557.973 120.008 558.613 119.56C559.253 119.112 559.717 118.536 560.005 117.832C560.325 117.128 560.501 116.376 560.533 115.576C560.565 115.224 560.581 114.728 560.581 114.088C560.581 113.448 560.565 112.968 560.533 112.648C560.501 111.816 560.325 111.048 560.005 110.344C559.717 109.64 559.253 109.08 558.613 108.664C557.973 108.216 557.141 107.992 556.117 107.992C555.061 107.992 554.213 108.216 553.573 108.664C552.965 109.112 552.517 109.72 552.229 110.488C551.973 111.256 551.813 112.104 551.749 113.032C551.717 113.736 551.717 114.456 551.749 115.192C551.813 116.12 551.973 116.968 552.229 117.736C552.517 118.504 552.965 119.112 553.573 119.56C554.213 120.008 555.061 120.232 556.117 120.232ZM584.614 127C584.262 127 583.974 126.888 583.75 126.664C583.526 126.44 583.414 126.152 583.414 125.8V94.12C583.414 93.768 583.526 93.48 583.75 93.256C583.974 93.032 584.262 92.92 584.614 92.92H590.182C590.502 92.92 590.774 93.032 590.998 93.256C591.254 93.48 591.382 93.768 591.382 94.12V110.2L598.054 102.856C598.246 102.632 598.454 102.44 598.678 102.28C598.902 102.12 599.222 102.04 599.638 102.04H606.07C606.358 102.04 606.598 102.152 606.79 102.376C607.014 102.568 607.126 102.808 607.126 103.096C607.126 103.224 607.094 103.368 607.03 103.528C606.966 103.688 606.87 103.816 606.742 103.912L598.102 113.224L607.942 125.176C608.198 125.432 608.326 125.688 608.326 125.944C608.326 126.232 608.214 126.488 607.99 126.712C607.798 126.904 607.542 127 607.222 127H600.646C600.166 127 599.814 126.92 599.59 126.76C599.366 126.568 599.158 126.376 598.966 126.184L591.382 117.064V125.8C591.382 126.152 591.254 126.44 590.998 126.664C590.774 126.888 590.502 127 590.182 127H584.614ZM617.698 127.48C615.97 127.48 614.418 127.16 613.042 126.52C611.698 125.848 610.626 124.952 609.826 123.832C609.026 122.712 608.626 121.448 608.626 120.04C608.626 117.768 609.554 115.976 611.41 114.664C613.266 113.32 615.73 112.408 618.802 111.928L624.802 111.016V110.344C624.802 109.192 624.562 108.312 624.082 107.704C623.602 107.096 622.722 106.792 621.442 106.792C620.546 106.792 619.81 106.968 619.234 107.32C618.69 107.672 618.258 108.152 617.938 108.76C617.65 109.176 617.25 109.384 616.738 109.384H611.362C611.01 109.384 610.738 109.288 610.546 109.096C610.354 108.872 610.274 108.616 610.306 108.328C610.306 107.752 610.514 107.096 610.93 106.36C611.378 105.592 612.05 104.84 612.946 104.104C613.842 103.368 614.994 102.76 616.402 102.28C617.81 101.8 619.506 101.56 621.49 101.56C623.57 101.56 625.346 101.8 626.818 102.28C628.29 102.76 629.474 103.432 630.37 104.296C631.298 105.16 631.986 106.184 632.434 107.368C632.882 108.52 633.106 109.8 633.106 111.208V125.8C633.106 126.152 632.978 126.44 632.722 126.664C632.498 126.888 632.226 127 631.906 127H626.338C625.986 127 625.698 126.888 625.474 126.664C625.25 126.44 625.138 126.152 625.138 125.8V124.12C624.722 124.728 624.162 125.288 623.458 125.8C622.754 126.312 621.922 126.712 620.962 127C620.034 127.32 618.946 127.48 617.698 127.48ZM619.954 122.008C620.882 122.008 621.714 121.816 622.45 121.432C623.218 121.016 623.81 120.392 624.226 119.56C624.674 118.696 624.898 117.624 624.898 116.344V115.672L620.818 116.392C619.314 116.648 618.21 117.048 617.506 117.592C616.834 118.104 616.498 118.712 616.498 119.416C616.498 119.96 616.658 120.424 616.978 120.808C617.298 121.192 617.714 121.496 618.226 121.72C618.738 121.912 619.314 122.008 619.954 122.008ZM639.002 127C638.65 127 638.362 126.888 638.138 126.664C637.914 126.44 637.802 126.152 637.802 125.8V103.24C637.802 102.888 637.914 102.6 638.138 102.376C638.362 102.152 638.65 102.04 639.002 102.04H644.234C644.586 102.04 644.874 102.152 645.098 102.376C645.322 102.6 645.434 102.888 645.434 103.24V104.872C646.074 104.008 646.97 103.256 648.122 102.616C649.274 101.944 650.634 101.592 652.202 101.56C655.882 101.496 658.41 102.888 659.786 105.736C660.522 104.52 661.578 103.528 662.954 102.76C664.33 101.96 665.834 101.56 667.466 101.56C669.13 101.56 670.618 101.944 671.93 102.712C673.274 103.448 674.346 104.6 675.146 106.168C675.946 107.704 676.346 109.704 676.346 112.168V125.8C676.346 126.152 676.218 126.44 675.962 126.664C675.738 126.888 675.466 127 675.146 127H669.578C669.226 127 668.922 126.888 668.666 126.664C668.442 126.44 668.33 126.152 668.33 125.8V112.504C668.33 111.384 668.17 110.504 667.85 109.864C667.53 109.192 667.098 108.712 666.554 108.424C666.01 108.136 665.386 107.992 664.682 107.992C664.106 107.992 663.53 108.136 662.954 108.424C662.41 108.712 661.962 109.192 661.61 109.864C661.29 110.504 661.13 111.384 661.13 112.504V125.8C661.13 126.152 661.018 126.44 660.794 126.664C660.57 126.888 660.282 127 659.93 127H654.362C654.01 127 653.722 126.888 653.498 126.664C653.274 126.44 653.162 126.152 653.162 125.8V112.504C653.162 111.384 652.986 110.504 652.634 109.864C652.282 109.192 651.834 108.712 651.29 108.424C650.746 108.136 650.138 107.992 649.466 107.992C648.89 107.992 648.314 108.136 647.738 108.424C647.194 108.712 646.746 109.192 646.394 109.864C646.074 110.504 645.914 111.368 645.914 112.456V125.8C645.914 126.152 645.786 126.44 645.53 126.664C645.306 126.888 645.018 127 644.666 127H639.002ZM690.172 127.48C688.348 127.48 686.716 127.064 685.276 126.232C683.868 125.4 682.764 124.184 681.964 122.584C681.164 120.952 680.764 118.968 680.764 116.632V103.24C680.764 102.888 680.876 102.6 681.1 102.376C681.324 102.152 681.612 102.04 681.964 102.04H687.964C688.316 102.04 688.604 102.152 688.828 102.376C689.052 102.6 689.164 102.888 689.164 103.24V116.344C689.164 119.48 690.572 121.048 693.388 121.048C694.7 121.048 695.74 120.648 696.508 119.848C697.308 119.016 697.708 117.848 697.708 116.344V103.24C697.708 102.888 697.82 102.6 698.044 102.376C698.268 102.152 698.556 102.04 698.908 102.04H704.908C705.26 102.04 705.548 102.152 705.772 102.376C705.996 102.6 706.108 102.888 706.108 103.24V125.8C706.108 126.152 705.996 126.44 705.772 126.664C705.548 126.888 705.26 127 704.908 127H699.34C699.02 127 698.732 126.888 698.476 126.664C698.252 126.44 698.14 126.152 698.14 125.8V123.976C697.308 125.128 696.22 126.008 694.876 126.616C693.564 127.192 691.996 127.48 690.172 127.48ZM77.144 185.48C75.608 185.48 74.216 185.24 72.968 184.76C71.752 184.248 70.696 183.512 69.8 182.552C68.936 181.56 68.264 180.376 67.784 179C67.304 177.592 67.032 175.992 66.968 174.2C66.936 173.56 66.92 173 66.92 172.52C66.92 172.008 66.936 171.448 66.968 170.84C67.032 169.112 67.304 167.56 67.784 166.184C68.264 164.808 68.936 163.624 69.8 162.632C70.664 161.64 71.72 160.888 72.968 160.376C74.216 159.832 75.608 159.56 77.144 159.56C78.744 159.56 80.12 159.832 81.272 160.376C82.424 160.888 83.4 161.56 84.2 162.392V152.12C84.2 151.768 84.312 151.48 84.536 151.256C84.76 151.032 85.048 150.92 85.4 150.92H91.256C91.576 150.92 91.848 151.032 92.072 151.256C92.328 151.48 92.456 151.768 92.456 152.12V183.8C92.456 184.152 92.328 184.44 92.072 184.664C91.848 184.888 91.576 185 91.256 185H85.832C85.48 185 85.192 184.888 84.968 184.664C84.744 184.44 84.632 184.152 84.632 183.8V182.264C83.864 183.192 82.872 183.96 81.656 184.568C80.44 185.176 78.936 185.48 77.144 185.48ZM79.736 179.048C80.824 179.048 81.672 178.824 82.28 178.376C82.92 177.896 83.384 177.288 83.672 176.552C83.992 175.816 84.168 175.016 84.2 174.152C84.232 173.512 84.248 172.904 84.248 172.328C84.248 171.752 84.232 171.16 84.2 170.552C84.168 169.752 83.992 169.016 83.672 168.344C83.352 167.64 82.872 167.08 82.232 166.664C81.592 166.216 80.76 165.992 79.736 165.992C78.68 165.992 77.832 166.216 77.192 166.664C76.584 167.112 76.152 167.72 75.896 168.488C75.64 169.256 75.48 170.104 75.416 171.032C75.32 172.024 75.32 173.016 75.416 174.008C75.48 174.936 75.64 175.784 75.896 176.552C76.152 177.32 76.584 177.928 77.192 178.376C77.832 178.824 78.68 179.048 79.736 179.048ZM108.913 185.48C105.137 185.48 102.129 184.456 99.8893 182.408C97.6493 180.36 96.4813 177.32 96.3853 173.288C96.3853 173.064 96.3853 172.776 96.3853 172.424C96.3853 172.072 96.3853 171.8 96.3853 171.608C96.4813 169.08 97.0413 166.92 98.0653 165.128C99.1213 163.304 100.561 161.928 102.385 161C104.241 160.04 106.401 159.56 108.865 159.56C111.681 159.56 114.001 160.12 115.825 161.24C117.681 162.36 119.073 163.88 120.001 165.8C120.929 167.72 121.393 169.912 121.393 172.376V173.528C121.393 173.88 121.265 174.168 121.009 174.392C120.785 174.616 120.513 174.728 120.193 174.728H104.833C104.833 174.76 104.833 174.808 104.833 174.872C104.833 174.936 104.833 175 104.833 175.064C104.865 175.992 105.025 176.84 105.313 177.608C105.601 178.376 106.049 178.984 106.657 179.432C107.265 179.88 108.001 180.104 108.865 180.104C109.505 180.104 110.033 180.008 110.449 179.816C110.897 179.592 111.265 179.352 111.553 179.096C111.841 178.808 112.065 178.568 112.225 178.376C112.513 178.056 112.737 177.864 112.897 177.8C113.089 177.704 113.377 177.656 113.761 177.656H119.713C120.033 177.656 120.289 177.752 120.481 177.944C120.705 178.104 120.801 178.344 120.769 178.664C120.737 179.208 120.465 179.864 119.953 180.632C119.441 181.4 118.689 182.168 117.697 182.936C116.737 183.672 115.521 184.28 114.049 184.76C112.577 185.24 110.865 185.48 108.913 185.48ZM104.833 169.976H112.945V169.88C112.945 168.856 112.785 167.96 112.465 167.192C112.177 166.424 111.713 165.832 111.073 165.416C110.465 165 109.729 164.792 108.865 164.792C108.001 164.792 107.265 165 106.657 165.416C106.081 165.832 105.633 166.424 105.313 167.192C104.993 167.96 104.833 168.856 104.833 169.88V169.976ZM126.373 185C126.021 185 125.733 184.888 125.509 184.664C125.285 184.44 125.173 184.152 125.173 183.8V161.24C125.173 160.888 125.285 160.6 125.509 160.376C125.733 160.152 126.021 160.04 126.373 160.04H131.893C132.245 160.04 132.533 160.152 132.757 160.376C132.981 160.6 133.093 160.888 133.093 161.24V163.064C133.925 162.072 135.013 161.24 136.357 160.568C137.701 159.896 139.285 159.56 141.109 159.56C142.965 159.56 144.597 159.976 146.005 160.808C147.445 161.64 148.565 162.872 149.365 164.504C150.197 166.104 150.613 168.072 150.613 170.408V183.8C150.613 184.152 150.485 184.44 150.229 184.664C150.005 184.888 149.733 185 149.413 185H143.365C143.045 185 142.757 184.888 142.501 184.664C142.277 184.44 142.165 184.152 142.165 183.8V170.696C142.165 169.192 141.797 168.04 141.061 167.24C140.357 166.408 139.301 165.992 137.893 165.992C136.581 165.992 135.525 166.408 134.725 167.24C133.957 168.04 133.573 169.192 133.573 170.696V183.8C133.573 184.152 133.445 184.44 133.189 184.664C132.965 184.888 132.693 185 132.373 185H126.373ZM167.49 195.56C165.026 195.56 162.978 195.24 161.346 194.6C159.746 193.96 158.466 193.192 157.506 192.296C156.578 191.4 155.906 190.504 155.49 189.608C155.074 188.744 154.85 188.056 154.818 187.544C154.786 187.192 154.898 186.904 155.154 186.68C155.41 186.456 155.714 186.344 156.066 186.344H162.162C162.45 186.344 162.69 186.408 162.882 186.536C163.106 186.696 163.282 186.952 163.41 187.304C163.57 187.656 163.778 188.024 164.034 188.408C164.322 188.792 164.706 189.096 165.186 189.32C165.698 189.576 166.386 189.704 167.25 189.704C168.21 189.704 169.01 189.544 169.65 189.224C170.29 188.936 170.77 188.44 171.09 187.736C171.41 187.064 171.57 186.152 171.57 185V181.784C170.834 182.584 169.89 183.24 168.738 183.752C167.586 184.232 166.194 184.472 164.562 184.472C162.93 184.472 161.49 184.232 160.242 183.752C158.994 183.272 157.954 182.552 157.122 181.592C156.29 180.632 155.634 179.464 155.154 178.088C154.706 176.712 154.434 175.128 154.338 173.336C154.306 172.504 154.306 171.672 154.338 170.84C154.434 169.112 154.706 167.56 155.154 166.184C155.602 164.808 156.242 163.624 157.074 162.632C157.938 161.64 158.994 160.888 160.242 160.376C161.49 159.832 162.93 159.56 164.562 159.56C166.29 159.56 167.762 159.896 168.978 160.568C170.226 161.208 171.25 162.024 172.05 163.016V161.24C172.05 160.92 172.162 160.648 172.386 160.424C172.61 160.168 172.898 160.04 173.25 160.04H178.77C179.122 160.04 179.41 160.168 179.634 160.424C179.89 160.648 180.018 160.92 180.018 161.24V184.328C180.018 186.76 179.522 188.808 178.53 190.472C177.538 192.136 176.114 193.4 174.258 194.264C172.402 195.128 170.146 195.56 167.49 195.56ZM167.154 178.232C168.178 178.232 169.01 178.008 169.65 177.56C170.29 177.112 170.754 176.536 171.042 175.832C171.362 175.128 171.538 174.376 171.57 173.576C171.602 173.224 171.618 172.728 171.618 172.088C171.618 171.448 171.602 170.968 171.57 170.648C171.538 169.816 171.362 169.048 171.042 168.344C170.754 167.64 170.29 167.08 169.65 166.664C169.01 166.216 168.178 165.992 167.154 165.992C166.098 165.992 165.25 166.216 164.61 166.664C164.002 167.112 163.554 167.72 163.266 168.488C163.01 169.256 162.85 170.104 162.786 171.032C162.754 171.736 162.754 172.456 162.786 173.192C162.85 174.12 163.01 174.968 163.266 175.736C163.554 176.504 164.002 177.112 164.61 177.56C165.25 178.008 166.098 178.232 167.154 178.232ZM192.44 185.48C190.712 185.48 189.16 185.16 187.784 184.52C186.44 183.848 185.368 182.952 184.568 181.832C183.768 180.712 183.368 179.448 183.368 178.04C183.368 175.768 184.296 173.976 186.152 172.664C188.008 171.32 190.472 170.408 193.544 169.928L199.544 169.016V168.344C199.544 167.192 199.304 166.312 198.824 165.704C198.344 165.096 197.464 164.792 196.184 164.792C195.288 164.792 194.552 164.968 193.976 165.32C193.432 165.672 193 166.152 192.68 166.76C192.392 167.176 191.992 167.384 191.48 167.384H186.104C185.752 167.384 185.48 167.288 185.288 167.096C185.096 166.872 185.016 166.616 185.048 166.328C185.048 165.752 185.256 165.096 185.672 164.36C186.12 163.592 186.792 162.84 187.688 162.104C188.584 161.368 189.736 160.76 191.144 160.28C192.552 159.8 194.248 159.56 196.232 159.56C198.312 159.56 200.088 159.8 201.56 160.28C203.032 160.76 204.216 161.432 205.112 162.296C206.04 163.16 206.728 164.184 207.176 165.368C207.624 166.52 207.848 167.8 207.848 169.208V183.8C207.848 184.152 207.72 184.44 207.464 184.664C207.24 184.888 206.968 185 206.648 185H201.08C200.728 185 200.44 184.888 200.216 184.664C199.992 184.44 199.88 184.152 199.88 183.8V182.12C199.464 182.728 198.904 183.288 198.2 183.8C197.496 184.312 196.664 184.712 195.704 185C194.776 185.32 193.688 185.48 192.44 185.48ZM194.696 180.008C195.624 180.008 196.456 179.816 197.192 179.432C197.96 179.016 198.552 178.392 198.968 177.56C199.416 176.696 199.64 175.624 199.64 174.344V173.672L195.56 174.392C194.056 174.648 192.952 175.048 192.248 175.592C191.576 176.104 191.24 176.712 191.24 177.416C191.24 177.96 191.4 178.424 191.72 178.808C192.04 179.192 192.456 179.496 192.968 179.72C193.48 179.912 194.056 180.008 194.696 180.008ZM213.744 185C213.392 185 213.104 184.888 212.88 184.664C212.656 184.44 212.544 184.152 212.544 183.8V161.24C212.544 160.92 212.656 160.648 212.88 160.424C213.104 160.168 213.392 160.04 213.744 160.04H219.264C219.616 160.04 219.904 160.168 220.128 160.424C220.352 160.648 220.464 160.92 220.464 161.24V163.16C221.328 162.168 222.352 161.4 223.536 160.856C224.752 160.312 226.112 160.04 227.616 160.04H229.728C230.048 160.04 230.32 160.152 230.544 160.376C230.8 160.6 230.928 160.888 230.928 161.24V166.184C230.928 166.504 230.8 166.792 230.544 167.048C230.32 167.272 230.048 167.384 229.728 167.384H225.072C223.76 167.384 222.736 167.752 222 168.488C221.296 169.192 220.944 170.2 220.944 171.512V183.8C220.944 184.152 220.816 184.44 220.56 184.664C220.336 184.888 220.048 185 219.696 185H213.744ZM251.448 185.48C249.912 185.48 248.52 185.24 247.272 184.76C246.056 184.248 245 183.512 244.104 182.552C243.24 181.56 242.568 180.376 242.088 179C241.608 177.592 241.336 175.992 241.272 174.2C241.24 173.56 241.224 173 241.224 172.52C241.224 172.008 241.24 171.448 241.272 170.84C241.336 169.112 241.608 167.56 242.088 166.184C242.568 164.808 243.24 163.624 244.104 162.632C244.968 161.64 246.024 160.888 247.272 160.376C248.52 159.832 249.912 159.56 251.448 159.56C253.048 159.56 254.424 159.832 255.576 160.376C256.728 160.888 257.704 161.56 258.504 162.392V152.12C258.504 151.768 258.616 151.48 258.84 151.256C259.064 151.032 259.352 150.92 259.704 150.92H265.56C265.88 150.92 266.152 151.032 266.376 151.256C266.632 151.48 266.76 151.768 266.76 152.12V183.8C266.76 184.152 266.632 184.44 266.376 184.664C266.152 184.888 265.88 185 265.56 185H260.136C259.784 185 259.496 184.888 259.272 184.664C259.048 184.44 258.936 184.152 258.936 183.8V182.264C258.168 183.192 257.176 183.96 255.96 184.568C254.744 185.176 253.24 185.48 251.448 185.48ZM254.04 179.048C255.128 179.048 255.976 178.824 256.584 178.376C257.224 177.896 257.688 177.288 257.976 176.552C258.296 175.816 258.472 175.016 258.504 174.152C258.536 173.512 258.552 172.904 258.552 172.328C258.552 171.752 258.536 171.16 258.504 170.552C258.472 169.752 258.296 169.016 257.976 168.344C257.656 167.64 257.176 167.08 256.536 166.664C255.896 166.216 255.064 165.992 254.04 165.992C252.984 165.992 252.136 166.216 251.496 166.664C250.888 167.112 250.456 167.72 250.2 168.488C249.944 169.256 249.784 170.104 249.72 171.032C249.624 172.024 249.624 173.016 249.72 174.008C249.784 174.936 249.944 175.784 250.2 176.552C250.456 177.32 250.888 177.928 251.496 178.376C252.136 178.824 252.984 179.048 254.04 179.048ZM279.185 185.48C277.457 185.48 275.905 185.16 274.529 184.52C273.185 183.848 272.113 182.952 271.313 181.832C270.513 180.712 270.113 179.448 270.113 178.04C270.113 175.768 271.041 173.976 272.897 172.664C274.753 171.32 277.217 170.408 280.289 169.928L286.289 169.016V168.344C286.289 167.192 286.049 166.312 285.569 165.704C285.089 165.096 284.209 164.792 282.929 164.792C282.033 164.792 281.297 164.968 280.721 165.32C280.177 165.672 279.745 166.152 279.425 166.76C279.137 167.176 278.737 167.384 278.225 167.384H272.849C272.497 167.384 272.225 167.288 272.033 167.096C271.841 166.872 271.761 166.616 271.793 166.328C271.793 165.752 272.001 165.096 272.417 164.36C272.865 163.592 273.537 162.84 274.433 162.104C275.329 161.368 276.481 160.76 277.889 160.28C279.297 159.8 280.993 159.56 282.977 159.56C285.057 159.56 286.833 159.8 288.305 160.28C289.777 160.76 290.961 161.432 291.857 162.296C292.785 163.16 293.473 164.184 293.921 165.368C294.369 166.52 294.593 167.8 294.593 169.208V183.8C294.593 184.152 294.465 184.44 294.209 184.664C293.985 184.888 293.713 185 293.393 185H287.825C287.473 185 287.185 184.888 286.961 184.664C286.737 184.44 286.625 184.152 286.625 183.8V182.12C286.209 182.728 285.649 183.288 284.945 183.8C284.241 184.312 283.409 184.712 282.449 185C281.521 185.32 280.433 185.48 279.185 185.48ZM281.441 180.008C282.369 180.008 283.201 179.816 283.937 179.432C284.705 179.016 285.297 178.392 285.713 177.56C286.161 176.696 286.385 175.624 286.385 174.344V173.672L282.305 174.392C280.801 174.648 279.697 175.048 278.993 175.592C278.321 176.104 277.985 176.712 277.985 177.416C277.985 177.96 278.145 178.424 278.465 178.808C278.785 179.192 279.201 179.496 279.713 179.72C280.225 179.912 280.801 180.008 281.441 180.008ZM300.49 185C300.138 185 299.85 184.888 299.626 184.664C299.402 184.44 299.29 184.152 299.29 183.8V152.12C299.29 151.768 299.402 151.48 299.626 151.256C299.85 151.032 300.138 150.92 300.49 150.92H306.154C306.506 150.92 306.794 151.032 307.018 151.256C307.242 151.48 307.354 151.768 307.354 152.12V183.8C307.354 184.152 307.242 184.44 307.018 184.664C306.794 184.888 306.506 185 306.154 185H300.49ZM319.792 185.48C318.064 185.48 316.512 185.16 315.136 184.52C313.792 183.848 312.72 182.952 311.92 181.832C311.12 180.712 310.72 179.448 310.72 178.04C310.72 175.768 311.648 173.976 313.504 172.664C315.36 171.32 317.824 170.408 320.896 169.928L326.896 169.016V168.344C326.896 167.192 326.656 166.312 326.176 165.704C325.696 165.096 324.816 164.792 323.536 164.792C322.64 164.792 321.904 164.968 321.328 165.32C320.784 165.672 320.352 166.152 320.032 166.76C319.744 167.176 319.344 167.384 318.832 167.384H313.456C313.104 167.384 312.832 167.288 312.64 167.096C312.448 166.872 312.368 166.616 312.4 166.328C312.4 165.752 312.608 165.096 313.024 164.36C313.472 163.592 314.144 162.84 315.04 162.104C315.936 161.368 317.088 160.76 318.496 160.28C319.904 159.8 321.6 159.56 323.584 159.56C325.664 159.56 327.44 159.8 328.912 160.28C330.384 160.76 331.568 161.432 332.464 162.296C333.392 163.16 334.08 164.184 334.528 165.368C334.976 166.52 335.2 167.8 335.2 169.208V183.8C335.2 184.152 335.072 184.44 334.816 184.664C334.592 184.888 334.32 185 334 185H328.432C328.08 185 327.792 184.888 327.568 184.664C327.344 184.44 327.232 184.152 327.232 183.8V182.12C326.816 182.728 326.256 183.288 325.552 183.8C324.848 184.312 324.016 184.712 323.056 185C322.128 185.32 321.04 185.48 319.792 185.48ZM322.048 180.008C322.976 180.008 323.808 179.816 324.544 179.432C325.312 179.016 325.904 178.392 326.32 177.56C326.768 176.696 326.992 175.624 326.992 174.344V173.672L322.912 174.392C321.408 174.648 320.304 175.048 319.6 175.592C318.928 176.104 318.592 176.712 318.592 177.416C318.592 177.96 318.752 178.424 319.072 178.808C319.392 179.192 319.808 179.496 320.32 179.72C320.832 179.912 321.408 180.008 322.048 180.008ZM341.096 185C340.744 185 340.456 184.888 340.232 184.664C340.008 184.44 339.896 184.152 339.896 183.8V161.24C339.896 160.888 340.008 160.6 340.232 160.376C340.456 160.152 340.744 160.04 341.096 160.04H346.328C346.68 160.04 346.968 160.152 347.192 160.376C347.416 160.6 347.528 160.888 347.528 161.24V162.872C348.168 162.008 349.064 161.256 350.216 160.616C351.368 159.944 352.728 159.592 354.296 159.56C357.976 159.496 360.504 160.888 361.88 163.736C362.616 162.52 363.672 161.528 365.048 160.76C366.424 159.96 367.928 159.56 369.56 159.56C371.224 159.56 372.712 159.944 374.024 160.712C375.368 161.448 376.44 162.6 377.24 164.168C378.04 165.704 378.44 167.704 378.44 170.168V183.8C378.44 184.152 378.312 184.44 378.056 184.664C377.832 184.888 377.56 185 377.24 185H371.672C371.32 185 371.016 184.888 370.76 184.664C370.536 184.44 370.424 184.152 370.424 183.8V170.504C370.424 169.384 370.264 168.504 369.944 167.864C369.624 167.192 369.192 166.712 368.648 166.424C368.104 166.136 367.48 165.992 366.776 165.992C366.2 165.992 365.624 166.136 365.048 166.424C364.504 166.712 364.056 167.192 363.704 167.864C363.384 168.504 363.224 169.384 363.224 170.504V183.8C363.224 184.152 363.112 184.44 362.888 184.664C362.664 184.888 362.376 185 362.024 185H356.456C356.104 185 355.816 184.888 355.592 184.664C355.368 184.44 355.256 184.152 355.256 183.8V170.504C355.256 169.384 355.08 168.504 354.728 167.864C354.376 167.192 353.928 166.712 353.384 166.424C352.84 166.136 352.232 165.992 351.56 165.992C350.984 165.992 350.408 166.136 349.832 166.424C349.288 166.712 348.84 167.192 348.488 167.864C348.168 168.504 348.008 169.368 348.008 170.456V183.8C348.008 184.152 347.88 184.44 347.624 184.664C347.4 184.888 347.112 185 346.76 185H341.096ZM405.125 185.528C402.117 185.528 399.605 185.064 397.589 184.136C395.573 183.176 394.037 181.944 392.981 180.44C391.957 178.904 391.413 177.256 391.349 175.496C391.349 175.208 391.445 174.968 391.637 174.776C391.829 174.584 392.069 174.488 392.357 174.488H398.789C399.205 174.488 399.525 174.584 399.749 174.776C400.005 174.936 400.197 175.144 400.325 175.4C400.613 176.136 400.981 176.744 401.429 177.224C401.909 177.704 402.453 178.056 403.061 178.28C403.701 178.504 404.405 178.616 405.173 178.616C406.069 178.616 406.901 178.424 407.669 178.04C408.437 177.656 409.045 177.096 409.493 176.36C409.973 175.592 410.213 174.68 410.213 173.624C410.213 172.664 409.989 171.832 409.541 171.128C409.125 170.424 408.533 169.864 407.765 169.448C406.997 169.032 406.133 168.824 405.173 168.824C404.405 168.824 403.781 168.92 403.301 169.112C402.821 169.272 402.421 169.48 402.101 169.736C401.781 169.992 401.493 170.216 401.237 170.408C400.981 170.568 400.693 170.648 400.373 170.648H394.085C393.797 170.648 393.541 170.552 393.317 170.36C393.125 170.136 393.029 169.88 393.029 169.592L394.757 152.84C394.821 152.36 394.997 152.008 395.285 151.784C395.573 151.528 395.925 151.4 396.341 151.4H415.589C415.941 151.4 416.229 151.512 416.453 151.736C416.677 151.96 416.789 152.248 416.789 152.6V157.112C416.789 157.464 416.677 157.752 416.453 157.976C416.229 158.2 415.941 158.312 415.589 158.312H401.669L401.045 164.552C401.749 164.072 402.565 163.688 403.493 163.4C404.453 163.08 405.749 162.92 407.381 162.92C408.917 162.92 410.373 163.176 411.749 163.688C413.157 164.2 414.405 164.936 415.493 165.896C416.613 166.856 417.477 168.008 418.085 169.352C418.725 170.664 419.045 172.152 419.045 173.816C419.045 176.088 418.485 178.104 417.365 179.864C416.277 181.624 414.693 183.016 412.613 184.04C410.533 185.032 408.037 185.528 405.125 185.528ZM433.607 185C433.255 185 432.967 184.888 432.743 184.664C432.519 184.44 432.407 184.152 432.407 183.8V152.12C432.407 151.768 432.519 151.48 432.743 151.256C432.967 151.032 433.255 150.92 433.607 150.92H439.751C440.103 150.92 440.391 151.032 440.615 151.256C440.839 151.48 440.951 151.768 440.951 152.12V162.824C441.815 161.832 442.871 161.048 444.119 160.472C445.399 159.864 446.871 159.56 448.535 159.56C450.391 159.56 452.039 159.976 453.479 160.808C454.951 161.64 456.103 162.872 456.935 164.504C457.767 166.104 458.183 168.072 458.183 170.408V183.8C458.183 184.152 458.071 184.44 457.847 184.664C457.623 184.888 457.335 185 456.983 185H450.791C450.471 185 450.183 184.888 449.927 184.664C449.703 184.44 449.591 184.152 449.591 183.8V170.696C449.591 169.192 449.223 168.04 448.487 167.24C447.783 166.408 446.727 165.992 445.319 165.992C444.007 165.992 442.951 166.408 442.151 167.24C441.351 168.04 440.951 169.192 440.951 170.696V183.8C440.951 184.152 440.839 184.44 440.615 184.664C440.391 184.888 440.103 185 439.751 185H433.607ZM470.394 185.48C468.666 185.48 467.114 185.16 465.738 184.52C464.394 183.848 463.322 182.952 462.522 181.832C461.722 180.712 461.322 179.448 461.322 178.04C461.322 175.768 462.25 173.976 464.106 172.664C465.962 171.32 468.426 170.408 471.498 169.928L477.498 169.016V168.344C477.498 167.192 477.258 166.312 476.778 165.704C476.298 165.096 475.418 164.792 474.138 164.792C473.242 164.792 472.506 164.968 471.93 165.32C471.386 165.672 470.954 166.152 470.634 166.76C470.346 167.176 469.946 167.384 469.434 167.384H464.058C463.706 167.384 463.434 167.288 463.242 167.096C463.05 166.872 462.97 166.616 463.002 166.328C463.002 165.752 463.21 165.096 463.626 164.36C464.074 163.592 464.746 162.84 465.642 162.104C466.538 161.368 467.69 160.76 469.098 160.28C470.506 159.8 472.202 159.56 474.186 159.56C476.266 159.56 478.042 159.8 479.514 160.28C480.986 160.76 482.17 161.432 483.066 162.296C483.994 163.16 484.682 164.184 485.13 165.368C485.578 166.52 485.802 167.8 485.802 169.208V183.8C485.802 184.152 485.674 184.44 485.418 184.664C485.194 184.888 484.922 185 484.602 185H479.034C478.682 185 478.394 184.888 478.17 184.664C477.946 184.44 477.834 184.152 477.834 183.8V182.12C477.418 182.728 476.858 183.288 476.154 183.8C475.45 184.312 474.618 184.712 473.658 185C472.73 185.32 471.642 185.48 470.394 185.48ZM472.65 180.008C473.578 180.008 474.41 179.816 475.146 179.432C475.914 179.016 476.506 178.392 476.922 177.56C477.37 176.696 477.594 175.624 477.594 174.344V173.672L473.514 174.392C472.01 174.648 470.906 175.048 470.202 175.592C469.53 176.104 469.194 176.712 469.194 177.416C469.194 177.96 469.354 178.424 469.674 178.808C469.994 179.192 470.41 179.496 470.922 179.72C471.434 179.912 472.01 180.008 472.65 180.008ZM491.698 185C491.346 185 491.058 184.888 490.834 184.664C490.61 184.44 490.498 184.152 490.498 183.8V161.24C490.498 160.92 490.61 160.648 490.834 160.424C491.058 160.168 491.346 160.04 491.698 160.04H497.218C497.57 160.04 497.858 160.168 498.082 160.424C498.306 160.648 498.418 160.92 498.418 161.24V163.16C499.282 162.168 500.306 161.4 501.49 160.856C502.706 160.312 504.066 160.04 505.57 160.04H507.682C508.002 160.04 508.274 160.152 508.498 160.376C508.754 160.6 508.882 160.888 508.882 161.24V166.184C508.882 166.504 508.754 166.792 508.498 167.048C508.274 167.272 508.002 167.384 507.682 167.384H503.026C501.714 167.384 500.69 167.752 499.954 168.488C499.25 169.192 498.898 170.2 498.898 171.512V183.8C498.898 184.152 498.77 184.44 498.514 184.664C498.29 184.888 498.002 185 497.65 185H491.698ZM512.775 185C512.423 185 512.135 184.888 511.911 184.664C511.687 184.44 511.575 184.152 511.575 183.8V161.24C511.575 160.888 511.687 160.6 511.911 160.376C512.135 160.152 512.423 160.04 512.775 160.04H518.439C518.759 160.04 519.031 160.152 519.255 160.376C519.511 160.6 519.639 160.888 519.639 161.24V183.8C519.639 184.152 519.511 184.44 519.255 184.664C519.031 184.888 518.759 185 518.439 185H512.775ZM512.727 156.44C512.375 156.44 512.087 156.328 511.863 156.104C511.639 155.88 511.527 155.592 511.527 155.24V150.968C511.527 150.616 511.639 150.328 511.863 150.104C512.087 149.848 512.375 149.72 512.727 149.72H518.439C518.791 149.72 519.079 149.848 519.303 150.104C519.559 150.328 519.687 150.616 519.687 150.968V155.24C519.687 155.592 519.559 155.88 519.303 156.104C519.079 156.328 518.791 156.44 518.439 156.44H512.727ZM535.241 185C534.889 185 534.601 184.888 534.377 184.664C534.153 184.44 534.041 184.152 534.041 183.8V161.24C534.041 160.888 534.153 160.6 534.377 160.376C534.601 160.152 534.889 160.04 535.241 160.04H540.905C541.225 160.04 541.497 160.152 541.721 160.376C541.977 160.6 542.105 160.888 542.105 161.24V183.8C542.105 184.152 541.977 184.44 541.721 184.664C541.497 184.888 541.225 185 540.905 185H535.241ZM535.193 156.44C534.841 156.44 534.553 156.328 534.329 156.104C534.105 155.88 533.993 155.592 533.993 155.24V150.968C533.993 150.616 534.105 150.328 534.329 150.104C534.553 149.848 534.841 149.72 535.193 149.72H540.905C541.257 149.72 541.545 149.848 541.769 150.104C542.025 150.328 542.153 150.616 542.153 150.968V155.24C542.153 155.592 542.025 155.88 541.769 156.104C541.545 156.328 541.257 156.44 540.905 156.44H535.193ZM549.709 185C549.357 185 549.069 184.888 548.845 184.664C548.621 184.44 548.509 184.152 548.509 183.8V161.24C548.509 160.888 548.621 160.6 548.845 160.376C549.069 160.152 549.357 160.04 549.709 160.04H555.229C555.581 160.04 555.869 160.152 556.093 160.376C556.317 160.6 556.429 160.888 556.429 161.24V163.064C557.261 162.072 558.349 161.24 559.693 160.568C561.037 159.896 562.621 159.56 564.445 159.56C566.301 159.56 567.933 159.976 569.341 160.808C570.781 161.64 571.901 162.872 572.701 164.504C573.533 166.104 573.949 168.072 573.949 170.408V183.8C573.949 184.152 573.821 184.44 573.565 184.664C573.341 184.888 573.069 185 572.749 185H566.701C566.381 185 566.093 184.888 565.837 184.664C565.613 184.44 565.501 184.152 565.501 183.8V170.696C565.501 169.192 565.133 168.04 564.397 167.24C563.693 166.408 562.637 165.992 561.229 165.992C559.917 165.992 558.861 166.408 558.061 167.24C557.293 168.04 556.909 169.192 556.909 170.696V183.8C556.909 184.152 556.781 184.44 556.525 184.664C556.301 184.888 556.029 185 555.709 185H549.709ZM579.786 185C579.434 185 579.146 184.888 578.922 184.664C578.698 184.44 578.586 184.152 578.586 183.8V161.24C578.586 160.888 578.698 160.6 578.922 160.376C579.146 160.152 579.434 160.04 579.786 160.04H585.45C585.77 160.04 586.042 160.152 586.266 160.376C586.522 160.6 586.65 160.888 586.65 161.24V183.8C586.65 184.152 586.522 184.44 586.266 184.664C586.042 184.888 585.77 185 585.45 185H579.786ZM579.738 156.44C579.386 156.44 579.098 156.328 578.874 156.104C578.65 155.88 578.538 155.592 578.538 155.24V150.968C578.538 150.616 578.65 150.328 578.874 150.104C579.098 149.848 579.386 149.72 579.738 149.72H585.45C585.802 149.72 586.09 149.848 586.314 150.104C586.57 150.328 586.698 150.616 586.698 150.968V155.24C586.698 155.592 586.57 155.88 586.314 156.104C586.09 156.328 585.802 156.44 585.45 156.44H579.738Z" fill="#000F23"/>
</g>
<defs>
<radialGradient id="paint0_radial_553_5497" cx="0" cy="0" r="1" gradientUnits="userSpaceOnUse" gradientTransform="translate(307 563) rotate(90) scale(737)">
<stop stop-color="#FEE24F"/>
<stop offset="1" stop-color="#FEE24F" stop-opacity="0"/>
</radialGradient>
<clipPath id="clip0_553_5497">
<rect width="1240" height="655" fill="white"/>
</clipPath>
</defs>
</svg>
