<svg width="400" height="180" viewBox="0 0 400 180" fill="none" xmlns="http://www.w3.org/2000/svg">
<g clip-path="url(#clip0_553_3793)">
<rect width="400" height="180" fill="#FBD6E1"/>
<path d="M43.6876 159.54H-65.2297C-67.0048 159.54 -68.4493 158.096 -68.4493 156.321V3.21959C-68.4493 1.44453 -67.0048 0 -65.2297 0H43.6876C45.4621 0 46.9067 1.44453 46.9067 3.21959V156.321C46.9067 158.096 45.4627 159.54 43.6876 159.54ZM-65.2297 0.141576C-66.9275 0.141576 -68.3083 1.52237 -68.3083 3.22016V156.321C-68.3083 158.018 -66.9275 159.399 -65.2297 159.399H43.6876C45.3849 159.399 46.7656 158.018 46.7656 156.321V3.21959C46.7656 1.52237 45.3849 0.141012 43.6876 0.141012L-65.2297 0.141576Z" fill="#EBEBEB"/>
<path d="M165.69 159.54H56.7724C54.9979 159.54 53.5533 158.096 53.5533 156.321V3.21959C53.5533 1.44453 54.9979 0 56.7724 0H165.69C167.465 0 168.909 1.44453 168.909 3.21959V156.321C168.909 158.096 167.465 159.54 165.69 159.54ZM56.7724 0.141576C55.0752 0.141576 53.6944 1.52237 53.6944 3.22016V156.321C53.6944 158.018 55.0752 159.399 56.7724 159.399H165.69C167.388 159.399 168.768 158.018 168.768 156.321V3.21959C168.768 1.52237 167.388 0.141012 165.69 0.141012L56.7724 0.141576Z" fill="#EBEBEB"/>
<path d="M131.933 30.1558H96.851V67.312H131.933V30.1558Z" fill="#F0F0F0"/>
<path d="M125.196 40.4558H129.687V34.7871H125.196V40.4558Z" fill="#FAFAFA"/>
<path d="M116.496 40.4558H120.987V34.7871H116.496V40.4558Z" fill="#FAFAFA"/>
<path d="M107.797 40.4558H112.288V34.7871H107.797V40.4558Z" fill="#FAFAFA"/>
<path d="M99.0965 40.4558H103.588V34.7871H99.0965V40.4558Z" fill="#FAFAFA"/>
<path d="M125.196 50.756H129.687V45.0873H125.196V50.756Z" fill="#FAFAFA"/>
<path d="M116.496 50.756H120.987V45.0873H116.496V50.756Z" fill="#FAFAFA"/>
<path d="M107.797 50.756H112.288V45.0873H107.797V50.756Z" fill="#FAFAFA"/>
<path d="M99.0965 50.756H103.588V45.0873H99.0965V50.756Z" fill="#FAFAFA"/>
<path d="M125.196 61.0555H129.687V55.3868H125.196V61.0555Z" fill="#FAFAFA"/>
<path d="M116.496 61.0555H120.987V55.3868H116.496V61.0555Z" fill="#FAFAFA"/>
<path d="M107.797 61.0555H112.288V55.3868H107.797V61.0555Z" fill="#FAFAFA"/>
<path d="M99.0965 61.0555H103.588V55.3868H99.0965V61.0555Z" fill="#FAFAFA"/>
<path d="M163.766 147.764H128.685V184.92H163.766V147.764Z" fill="#F0F0F0"/>
<path d="M157.029 158.064H161.521V152.395H157.029V158.064Z" fill="#FAFAFA"/>
<path d="M148.33 158.064H152.821V152.395H148.33V158.064Z" fill="#FAFAFA"/>
<path d="M139.63 158.064H144.122V152.395H139.63V158.064Z" fill="#FAFAFA"/>
<path d="M130.93 158.064H135.422V152.395H130.93V158.064Z" fill="#FAFAFA"/>
<path d="M157.029 168.364H161.521V162.695H157.029V168.364Z" fill="#FAFAFA"/>
<path d="M148.33 168.364H152.821V162.695H148.33V168.364Z" fill="#FAFAFA"/>
<path d="M139.63 168.364H144.122V162.695H139.63V168.364Z" fill="#FAFAFA"/>
<path d="M130.93 168.364H135.422V162.695H130.93V168.364Z" fill="#FAFAFA"/>
<path d="M157.029 178.664H161.521V172.995H157.029V178.664Z" fill="#FAFAFA"/>
<path d="M148.33 178.664H152.821V172.995H148.33V178.664Z" fill="#FAFAFA"/>
<path d="M139.63 178.664H144.122V172.995H139.63V178.664Z" fill="#FAFAFA"/>
<path d="M130.93 178.664H135.422V172.995H130.93V178.664Z" fill="#FAFAFA"/>
<path d="M131.933 61.0211H96.851V98.1773H131.933V61.0211Z" fill="#F0F0F0"/>
<path d="M125.196 71.3212H129.687V65.6525H125.196V71.3212Z" fill="#FAFAFA"/>
<path d="M116.496 71.3212H120.987V65.6525H116.496V71.3212Z" fill="#FAFAFA"/>
<path d="M107.797 71.3212H112.288V65.6525H107.797V71.3212Z" fill="#FAFAFA"/>
<path d="M99.0965 71.3212H103.588V65.6525H99.0965V71.3212Z" fill="#FAFAFA"/>
<path d="M125.196 81.6213H129.687V75.9526H125.196V81.6213Z" fill="#FAFAFA"/>
<path d="M116.496 81.6213H120.987V75.9526H116.496V81.6213Z" fill="#FAFAFA"/>
<path d="M107.797 81.6213H112.288V75.9526H107.797V81.6213Z" fill="#FAFAFA"/>
<path d="M99.0965 81.6213H103.588V75.9526H99.0965V81.6213Z" fill="#FAFAFA"/>
<path d="M125.196 91.9209H129.687V86.2522H125.196V91.9209Z" fill="#FAFAFA"/>
<path d="M116.496 91.9209H120.987V86.2522H116.496V91.9209Z" fill="#FAFAFA"/>
<path d="M107.797 91.9209H112.288V86.2522H107.797V91.9209Z" fill="#FAFAFA"/>
<path d="M99.0965 91.9209H103.588V86.2522H99.0965V91.9209Z" fill="#FAFAFA"/>
<path d="M163.766 83.1301H128.685V147.764H163.766V83.1301Z" fill="#FAFAFA"/>
<path d="M161.521 85.9645H148.33V101.933H161.521V85.9645Z" fill="#F0F0F0"/>
<path d="M144.122 85.9645H130.931V101.933H144.122V85.9645Z" fill="#F0F0F0"/>
<path d="M161.521 106.564H148.33V122.533H161.521V106.564Z" fill="#F0F0F0"/>
<path d="M144.122 106.564H130.931V122.533H144.122V106.564Z" fill="#F0F0F0"/>
<path d="M161.521 127.164H148.33V143.133H161.521V127.164Z" fill="#F0F0F0"/>
<path d="M144.122 127.164H130.931V143.133H144.122V127.164Z" fill="#F0F0F0"/>
<path d="M88.366 53.623H56.9011V111.594H88.366V53.623Z" fill="#FAFAFA"/>
<path d="M86.3518 56.1652H74.5209V70.4875H86.3518V56.1652Z" fill="#F0F0F0"/>
<path d="M70.7462 56.1652H58.9153V70.4875H70.7462V56.1652Z" fill="#F0F0F0"/>
<path d="M86.3518 74.6412H74.5209V88.9635H86.3518V74.6412Z" fill="#F0F0F0"/>
<path d="M70.7462 74.6412H58.9153V88.9635H70.7462V74.6412Z" fill="#F0F0F0"/>
<path d="M86.3518 93.1178H74.5209V107.44H86.3518V93.1178Z" fill="#F0F0F0"/>
<path d="M70.7462 93.1178H58.9153V107.44H70.7462V93.1178Z" fill="#F0F0F0"/>
<path d="M89.2431 112.086H56.0251V184.581H89.2431V112.086Z" fill="#EBEBEB"/>
<path d="M82.8631 120.137H87.116V114.77H82.8631V120.137Z" fill="#FAFAFA"/>
<path d="M74.6257 120.137H78.8787V114.77H74.6257V120.137Z" fill="#FAFAFA"/>
<path d="M66.3883 120.137H70.6412V114.77H66.3883V120.137Z" fill="#FAFAFA"/>
<path d="M58.1509 120.137H62.4039V114.77H58.1509V120.137Z" fill="#FAFAFA"/>
<path d="M82.8631 129.89H87.116V124.523H82.8631V129.89Z" fill="#FAFAFA"/>
<path d="M74.6257 129.89H78.8787V124.523H74.6257V129.89Z" fill="#FAFAFA"/>
<path d="M66.3883 129.89H70.6412V124.523H66.3883V129.89Z" fill="#FAFAFA"/>
<path d="M58.1509 129.89H62.4039V124.523H58.1509V129.89Z" fill="#FAFAFA"/>
<path d="M82.8631 139.643H87.116V134.275H82.8631V139.643Z" fill="#FAFAFA"/>
<path d="M74.6257 139.643H78.8787V134.275H74.6257V139.643Z" fill="#FAFAFA"/>
<path d="M66.3883 139.643H70.6412V134.275H66.3883V139.643Z" fill="#FAFAFA"/>
<path d="M58.1509 139.643H62.4039V134.275H58.1509V139.643Z" fill="#FAFAFA"/>
<path d="M82.8631 149.395H87.116V144.028H82.8631V149.395Z" fill="#FAFAFA"/>
<path d="M74.6257 149.395H78.8787V144.028H74.6257V149.395Z" fill="#FAFAFA"/>
<path d="M66.3883 149.395H70.6412V144.028H66.3883V149.395Z" fill="#FAFAFA"/>
<path d="M58.1509 149.395H62.4039V144.028H58.1509V149.395Z" fill="#FAFAFA"/>
<path d="M82.8631 159.148H87.116V153.78H82.8631V159.148Z" fill="#FAFAFA"/>
<path d="M74.6257 159.148H78.8787V153.78H74.6257V159.148Z" fill="#FAFAFA"/>
<path d="M66.3883 159.148H70.6412V153.78H66.3883V159.148Z" fill="#FAFAFA"/>
<path d="M58.1509 159.148H62.4039V153.78H58.1509V159.148Z" fill="#FAFAFA"/>
<path d="M82.8631 168.901H87.116V163.533H82.8631V168.901Z" fill="#FAFAFA"/>
<path d="M74.6257 168.901H78.8787V163.533H74.6257V168.901Z" fill="#FAFAFA"/>
<path d="M66.3883 168.901H70.6412V163.533H66.3883V168.901Z" fill="#FAFAFA"/>
<path d="M58.1509 168.901H62.4039V163.533H58.1509V168.901Z" fill="#FAFAFA"/>
<path d="M82.8631 178.654H87.116V173.286H82.8631V178.654Z" fill="#FAFAFA"/>
<path d="M74.6257 178.654H78.8787V173.286H74.6257V178.654Z" fill="#FAFAFA"/>
<path d="M66.3883 178.654H70.6412V173.286H66.3883V178.654Z" fill="#FAFAFA"/>
<path d="M58.1509 178.654H62.4039V173.286H58.1509V178.654Z" fill="#FAFAFA"/>
<path d="M89.9284 111.047H55.3392V112.141H89.9284V111.047Z" fill="#F5F5F5"/>
<path d="M134.136 98.4029H94.6484V184.581H134.136V98.4029Z" fill="#EBEBEB"/>
<path d="M126.552 107.974H131.608V101.593H126.552V107.974Z" fill="#FAFAFA"/>
<path d="M116.76 107.974H121.816V101.593H116.76V107.974Z" fill="#FAFAFA"/>
<path d="M106.968 107.974H112.024V101.593H106.968V107.974Z" fill="#FAFAFA"/>
<path d="M97.1765 107.974H102.232V101.593H97.1765V107.974Z" fill="#FAFAFA"/>
<path d="M126.552 119.568H131.608V113.187H126.552V119.568Z" fill="#FAFAFA"/>
<path d="M116.76 119.568H121.816V113.187H116.76V119.568Z" fill="#FAFAFA"/>
<path d="M106.968 119.568H112.024V113.187H106.968V119.568Z" fill="#FAFAFA"/>
<path d="M97.1765 119.568H102.232V113.187H97.1765V119.568Z" fill="#FAFAFA"/>
<path d="M126.552 131.161H131.608V124.781H126.552V131.161Z" fill="#FAFAFA"/>
<path d="M116.76 131.161H121.816V124.781H116.76V131.161Z" fill="#FAFAFA"/>
<path d="M106.968 131.161H112.024V124.781H106.968V131.161Z" fill="#FAFAFA"/>
<path d="M97.1765 131.161H102.232V124.781H97.1765V131.161Z" fill="#FAFAFA"/>
<path d="M126.552 142.755H131.608V136.374H126.552V142.755Z" fill="#FAFAFA"/>
<path d="M116.76 142.755H121.816V136.374H116.76V142.755Z" fill="#FAFAFA"/>
<path d="M106.968 142.755H112.024V136.374H106.968V142.755Z" fill="#FAFAFA"/>
<path d="M97.1765 142.755H102.232V136.374H97.1765V142.755Z" fill="#FAFAFA"/>
<path d="M126.552 154.348H131.608V147.968H126.552V154.348Z" fill="#FAFAFA"/>
<path d="M116.76 154.348H121.816V147.968H116.76V154.348Z" fill="#FAFAFA"/>
<path d="M106.968 154.348H112.024V147.968H106.968V154.348Z" fill="#FAFAFA"/>
<path d="M97.1765 154.348H102.232V147.968H97.1765V154.348Z" fill="#FAFAFA"/>
<path d="M126.552 165.941H131.608V159.561H126.552V165.941Z" fill="#FAFAFA"/>
<path d="M116.76 165.941H121.816V159.561H116.76V165.941Z" fill="#FAFAFA"/>
<path d="M106.968 165.941H112.024V159.561H106.968V165.941Z" fill="#FAFAFA"/>
<path d="M97.1765 165.941H102.232V159.561H97.1765V165.941Z" fill="#FAFAFA"/>
<path d="M126.552 177.535H131.608V171.154H126.552V177.535Z" fill="#FAFAFA"/>
<path d="M116.76 177.535H121.816V171.154H116.76V177.535Z" fill="#FAFAFA"/>
<path d="M106.968 177.535H112.024V171.154H106.968V177.535Z" fill="#FAFAFA"/>
<path d="M97.1765 177.535H102.232V171.154H97.1765V177.535Z" fill="#FAFAFA"/>
<path d="M134.951 97.1671H93.8334V98.4683H134.951V97.1671Z" fill="#F5F5F5"/>
<path d="M45.1017 147.764H10.0201V184.92H45.1017V147.764Z" fill="#F0F0F0"/>
<path d="M38.3641 158.064H42.8557V152.395H38.3641V158.064Z" fill="#FAFAFA"/>
<path d="M29.6653 158.064H34.1569V152.395H29.6653V158.064Z" fill="#FAFAFA"/>
<path d="M20.9655 158.064H25.457V152.395H20.9655V158.064Z" fill="#FAFAFA"/>
<path d="M12.2662 158.064H16.7577V152.395H12.2662V158.064Z" fill="#FAFAFA"/>
<path d="M38.3641 168.364H42.8557V162.695H38.3641V168.364Z" fill="#FAFAFA"/>
<path d="M29.6653 168.364H34.1569V162.695H29.6653V168.364Z" fill="#FAFAFA"/>
<path d="M20.9655 168.364H25.457V162.695H20.9655V168.364Z" fill="#FAFAFA"/>
<path d="M12.2662 168.364H16.7577V162.695H12.2662V168.364Z" fill="#FAFAFA"/>
<path d="M38.3641 178.664H42.8557V172.995H38.3641V178.664Z" fill="#FAFAFA"/>
<path d="M29.6653 178.664H34.1569V172.995H29.6653V178.664Z" fill="#FAFAFA"/>
<path d="M20.9655 178.664H25.457V172.995H20.9655V178.664Z" fill="#FAFAFA"/>
<path d="M12.2662 178.664H16.7577V172.995H12.2662V178.664Z" fill="#FAFAFA"/>
<path d="M18.5519 83.2396V69.3127H17.4266V83.2396H18.5519Z" fill="#EBEBEB"/>
<path d="M43.9742 83.2396V69.3127H42.8489V83.2396H43.9742Z" fill="#EBEBEB"/>
<path d="M31.2633 83.2396V69.3127H30.138V83.2396H31.2633Z" fill="#EBEBEB"/>
<path d="M45.1018 81.8193H16.2991V83.2396H45.1018V81.8193Z" fill="#F5F5F5"/>
<path d="M45.1018 68.6025H16.2991V70.0228H45.1018V68.6025Z" fill="#F5F5F5"/>
<path d="M18.5525 70.0228V56.0958H17.4272V70.0228H18.5525Z" fill="#EBEBEB"/>
<path d="M43.9742 70.0228V56.0958H42.8489V70.0228H43.9742Z" fill="#EBEBEB"/>
<path d="M31.2633 70.0228V56.0958H30.138V70.0228H31.2633Z" fill="#EBEBEB"/>
<path d="M45.1018 55.3857H16.2991V56.806H45.1018V55.3857Z" fill="#F5F5F5"/>
<path d="M45.1017 83.1302H10.0201V147.764H45.1017V83.1302Z" fill="#FAFAFA"/>
<path d="M42.8557 85.9645H29.6648V101.933H42.8557V85.9645Z" fill="#F0F0F0"/>
<path d="M25.457 85.9645H12.2661V101.933H25.457V85.9645Z" fill="#F0F0F0"/>
<path d="M42.8557 106.564H29.6648V122.533H42.8557V106.564Z" fill="#F0F0F0"/>
<path d="M25.457 106.564H12.2661V122.533H25.457V106.564Z" fill="#F0F0F0"/>
<path d="M42.8557 127.164H29.6648V143.133H42.8557V127.164Z" fill="#F0F0F0"/>
<path d="M25.457 127.164H12.2661V143.133H25.457V127.164Z" fill="#F0F0F0"/>
<path d="M15.5394 98.4029H-23.9481V184.581H15.5394V98.4029Z" fill="#EBEBEB"/>
<path d="M7.95629 86.3593V98.4024H4.84217H-13.2514H-16.365V86.3593H7.95629Z" fill="#EBEBEB"/>
<path d="M7.95571 107.974H13.0113V101.593H7.95571L7.95571 107.974Z" fill="#FAFAFA"/>
<path d="M-1.8368 107.974H3.21878L3.21878 101.593H-1.8368L-1.8368 107.974Z" fill="#FAFAFA"/>
<path d="M7.95571 119.568H13.0113V113.187H7.95571L7.95571 119.568Z" fill="#FAFAFA"/>
<path d="M-1.8368 119.568H3.21878L3.21878 113.187H-1.8368L-1.8368 119.568Z" fill="#FAFAFA"/>
<path d="M7.95571 131.161H13.0113V124.781H7.95571L7.95571 131.161Z" fill="#FAFAFA"/>
<path d="M-1.8368 131.161H3.21878L3.21878 124.781H-1.8368L-1.8368 131.161Z" fill="#FAFAFA"/>
<path d="M-1.8368 97.9534H3.21878L3.21878 91.5729H-1.8368L-1.8368 97.9534Z" fill="#FAFAFA"/>
<path d="M7.95571 142.755H13.0113V136.374H7.95571L7.95571 142.755Z" fill="#FAFAFA"/>
<path d="M-1.8368 142.755H3.21878L3.21878 136.374H-1.8368L-1.8368 142.755Z" fill="#FAFAFA"/>
<path d="M7.95571 154.348H13.0113V147.968H7.95571L7.95571 154.348Z" fill="#FAFAFA"/>
<path d="M-1.8368 154.348H3.21878L3.21878 147.968H-1.8368L-1.8368 154.348Z" fill="#FAFAFA"/>
<path d="M7.95571 165.941H13.0113V159.561H7.95571L7.95571 165.941Z" fill="#FAFAFA"/>
<path d="M-1.8368 165.941H3.21878L3.21878 159.561H-1.8368L-1.8368 165.941Z" fill="#FAFAFA"/>
<path d="M7.95571 177.535H13.0113V171.154H7.95571L7.95571 177.535Z" fill="#FAFAFA"/>
<path d="M-1.8368 177.535H3.21878L3.21878 171.154H-1.8368L-1.8368 177.535Z" fill="#FAFAFA"/>
<path d="M16.3538 97.1671H-24.7637V98.4683H16.3538V97.1671Z" fill="#F5F5F5"/>
<path d="M7.95636 86.3599L7.95636 73.6011H6.92528L6.92528 86.3599H7.95636Z" fill="#EBEBEB"/>
<path d="M8.98851 85.0586H-17.3983V86.3599H8.98851V85.0586Z" fill="#F5F5F5"/>
<path d="M8.98851 72.9507H-17.3983V74.252H8.98851V72.9507Z" fill="#F5F5F5"/>
<path d="M7.95569 74.2515L7.95569 61.4927H6.9246L6.9246 74.2515H7.95569Z" fill="#EBEBEB"/>
<path d="M8.98851 60.8423H-17.3983V62.1436H8.98851V60.8423Z" fill="#F5F5F5"/>
<path d="M7.95569 62.1436L7.95569 49.3848H6.9246L6.9246 62.1436H7.95569Z" fill="#EBEBEB"/>
<path d="M8.98851 48.7339H-17.3983V50.0351H8.98851V48.7339Z" fill="#F5F5F5"/>
<path d="M7.95636 50.0351L7.95636 37.2763H6.92528L6.92528 50.0351H7.95636Z" fill="#EBEBEB"/>
<path d="M23.014 34.3613V81.9287H28.2715V34.3613H27.9799L27.774 34.1013L23.5967 39.3734V34.3613H23.014ZM27.6889 75.2932H24.009L27.6889 70.6488V75.2932ZM27.6889 63.4933H24.009L27.6889 58.8489V63.4933ZM27.6889 51.6934H24.009L27.6889 47.049V51.6934ZM27.6889 39.8935H24.009L27.6889 35.2491V39.8935ZM27.6889 40.629V45.2734L24.009 40.629H27.6889ZM27.2771 45.7934H23.5973V41.1491L27.2771 45.7934ZM27.6889 52.4289V57.0733L24.009 52.4289H27.6889ZM27.2771 57.5934H23.5973V52.949L27.2771 57.5934ZM27.6889 64.2288V68.8732L24.009 64.2288H27.6889ZM27.2771 69.3933H23.5973V64.7489L27.2771 69.3933ZM27.6889 76.0287V80.6731L24.009 76.0287H27.6889ZM23.5973 81.1932V76.5488L27.2771 81.1932H23.5973ZM23.5973 70.1288H27.2771L23.5973 74.7732V70.1288ZM23.5973 58.3289H27.2771L23.5973 62.9733V58.3289ZM23.5973 46.529H27.2771L23.5973 51.1733V46.529Z" fill="#EBEBEB"/>
<path d="M23.5984 18.6931V27.9108H23.8901L24.0959 28.1709L27.1046 24.3737V27.9108H27.6872V18.6931H23.5984ZM27.1046 19.4287V22.5981L24.5934 19.4287H27.1046ZM24.1817 23.8536H26.6928L24.1817 27.023V23.8536ZM24.1817 23.1181V19.9487L26.6928 23.1181H24.1817Z" fill="#EBEBEB"/>
<path d="M37.284 43.2112H44.2957V34.3613H37.284V43.2112Z" fill="#F0F0F0"/>
<path d="M-8.48749 47.1263H-8.09942V30.1129L24.5511 16.4476H26.7109L44.1936 30.1445L44.3983 29.7276L26.8214 15.9575H24.488L24.4581 15.9699L-8.48749 29.7592V47.1263Z" fill="#E6E6E6"/>
<path d="M-4.49633 34.7291H44.5872V29.5686H-8.99689L-4.89625 34.7437H-4.49578L-4.49633 34.7291ZM-5.079 33.4735L-7.59015 30.3041H-5.079V33.4735ZM41.4934 33.9935L44.0046 30.8241V33.9935H41.4934ZM41.0811 30.3041H43.5923L41.0811 33.4735V30.3041ZM40.4985 33.4735L37.9873 30.3041H40.4985V33.4735ZM37.575 30.8241L40.0861 33.9935H37.575V30.8241ZM34.4812 33.9935L36.9923 30.8241V33.9935H34.4812ZM34.0694 30.3041H36.5806L34.0694 33.4735V30.3041ZM33.4868 33.4735L30.9756 30.3041H33.4868V33.4735ZM30.5633 30.8241L33.0744 33.9935H30.5633V30.8241ZM27.4695 33.9935L29.9806 30.8241V33.9935H27.4695ZM27.0572 30.3041H29.5683L27.0572 33.4735V30.3041ZM26.4745 33.4735L23.9633 30.3041H26.4745V33.4735ZM23.5516 30.8241L26.0627 33.9935H23.5516V30.8241ZM20.4578 33.9935L22.9689 30.8241V33.9935H20.4578ZM20.0455 30.3041H22.5566L20.0455 33.4735V30.3041ZM19.4628 33.4735L16.9516 30.3041H19.4628V33.4735ZM16.5399 30.8241L19.051 33.9935H16.5399V30.8241ZM13.4461 33.9935L15.9572 30.8241V33.9935H13.4461ZM13.0338 30.3041H15.5449L13.0338 33.4735V30.3041ZM12.4511 33.4735L9.93994 30.3041H12.4511V33.4735ZM9.52819 30.8241L12.0393 33.9935H9.52819V30.8241ZM6.43438 33.9935L8.94552 30.8241V33.9935H6.43438ZM6.02206 30.3041H8.5332L6.02206 33.4735V30.3041ZM5.43939 33.4735L2.92824 30.3041H5.43939V33.4735ZM2.51649 30.8241L5.02764 33.9935H2.51649V30.8241ZM1.93383 33.4735L-0.57732 30.3041H1.93383V33.4735ZM-0.989642 30.8241L1.5215 33.9935H-0.989642V30.8241ZM-4.08345 33.9935L-1.57231 30.8241V33.9935H-4.08345ZM-4.49578 33.4735V30.3041H-1.98462L-4.49578 33.4735Z" fill="#EBEBEB"/>
<path d="M20.4217 36.3705H31.2041L30.8092 30.6442C30.7026 29.0982 29.6772 27.9109 28.447 27.9109H23.3102C22.1065 27.9109 21.0941 29.0497 20.9553 30.5585L20.4211 36.3705H20.4217Z" fill="#EBEBEB"/>
<path d="M27.3962 32.9021H29.4662V30.2895H27.3962V32.9021Z" fill="#FAFAFA"/>
<path d="M24.7785 32.9021H26.8486V30.2895H24.7785V32.9021Z" fill="#FAFAFA"/>
<path d="M22.1601 32.9021H24.2308V30.2895H22.1601V32.9021Z" fill="#FAFAFA"/>
<path d="M24.2308 17.2791C24.2308 18.2634 24.8631 19.0609 25.6426 19.0609C26.4221 19.0609 27.0544 18.2634 27.0544 17.2791C27.0544 16.2948 26.4221 15.4973 25.6426 15.4973C24.8631 15.4973 24.2308 16.2948 24.2308 17.2791Z" fill="#E6E6E6"/>
<path d="M62.1259 22.9591C62.1259 22.9591 100.04 27.2385 96.261 16.543C93.3567 8.32312 87.9452 15.9925 85.3393 15.1007C83.0606 14.3212 83.9456 8.55494 77.7213 9.20303C71.497 9.85113 73.7915 15.9575 71.8027 17.5752C69.6548 19.3221 61.894 15.1007 62.1259 22.9591Z" fill="#F5F5F5"/>
<path d="M85.7781 24.9908C85.7781 24.9908 104.374 27.0896 102.52 21.8439C101.095 17.8121 98.4416 21.5738 97.1634 21.1366C96.0455 20.7542 96.4798 17.926 93.4272 18.2442C90.3745 18.5623 91.4998 21.5574 90.524 22.3505C89.4703 23.2072 85.6641 21.1366 85.7781 24.9908Z" fill="#FAFAFA"/>
<path d="M137.791 21.8721C137.791 21.8721 156.386 23.971 154.533 18.7253C153.108 14.6935 150.454 18.4551 149.176 18.018C148.058 17.6356 148.493 14.8074 145.44 15.1255C142.387 15.4437 143.513 18.4382 142.537 19.2318C141.484 20.0886 137.677 18.0186 137.791 21.8727L137.791 21.8721Z" fill="#F5F5F5"/>
<path d="M150.693 142.001H124.612V161.639H150.693V142.001Z" fill="#EA3468"/>
<path d="M150.693 102.796H124.612V122.434H150.693V102.796Z" fill="#EA3468"/>
<g opacity="0.7">
<path d="M150.693 142.001H124.612V161.639H150.693V142.001Z" fill="white"/>
<path d="M150.693 102.796H124.612V122.434H150.693V102.796Z" fill="white"/>
</g>
<path d="M150.693 161.604H124.612V181.241H150.693V161.604Z" fill="#EA3468"/>
<path d="M150.693 122.398H124.612V142.037H150.693V122.398Z" fill="#EA3468"/>
<g opacity="0.2">
<path d="M150.693 161.604H124.612V181.241H150.693V161.604Z" fill="white"/>
<path d="M150.693 122.398H124.612V142.037H150.693V122.398Z" fill="white"/>
</g>
<path opacity="0.1" d="M133.546 161.604H124.612V181.241H133.546V161.604Z" fill="black"/>
<path opacity="0.1" d="M133.546 142.001H124.612V161.639H133.546V142.001Z" fill="black"/>
<path opacity="0.1" d="M133.546 122.398H124.612V142.037H133.546V122.398Z" fill="black"/>
<path opacity="0.1" d="M133.546 102.796H124.612V122.434H133.546V102.796Z" fill="black"/>
<path d="M142.369 105.987H136.302V119.622H142.369V105.987Z" fill="#EA3468"/>
<path opacity="0.2" d="M142.369 105.987H136.302V119.622H142.369V105.987Z" fill="black"/>
<path d="M148.436 105.987H142.369V119.622H148.436V105.987Z" fill="#EA3468"/>
<path d="M149.399 105.174H135.535V105.987H149.399V105.174Z" fill="#EA3468"/>
<path opacity="0.2" d="M149.399 105.174H135.535V105.987H149.399V105.174Z" fill="white"/>
<path opacity="0.4" d="M141.875 108.539L136.594 115.302V114.837L141.875 108.073V108.539Z" fill="white"/>
<path opacity="0.4" d="M141.875 110.401L136.594 117.164V116.349L141.875 109.586V110.401Z" fill="white"/>
<path opacity="0.4" d="M141.875 111.914L136.594 118.677V117.634L141.875 110.87V111.914Z" fill="white"/>
<path opacity="0.4" d="M148.042 107.256L142.761 114.019V113.553L148.042 106.79V107.256Z" fill="white"/>
<path opacity="0.4" d="M148.042 112.489L142.761 119.252V118.787L148.042 112.023V112.489Z" fill="white"/>
<path opacity="0.4" d="M142.761 115.067L148.042 108.303V110.631L142.761 117.394V115.067Z" fill="white"/>
<path opacity="0.2" d="M137.652 105.174H135.535V105.987H137.652V105.174Z" fill="black"/>
<path d="M149.399 119.622H135.535V120.435H149.399V119.622Z" fill="#EA3468"/>
<path opacity="0.2" d="M149.399 119.622H135.535V120.435H149.399V119.622Z" fill="white"/>
<path opacity="0.2" d="M137.652 119.622H135.535V120.435H137.652V119.622Z" fill="black"/>
<path d="M142.369 125.634H136.302V139.269H142.369V125.634Z" fill="#EA3468"/>
<path opacity="0.2" d="M142.369 125.634H136.302V139.269H142.369V125.634Z" fill="black"/>
<path d="M148.436 125.634H142.369V139.269H148.436V125.634Z" fill="#EA3468"/>
<path d="M149.399 124.82H135.535V125.634H149.399V124.82Z" fill="#EA3468"/>
<path opacity="0.2" d="M149.399 124.82H135.535V125.634H149.399V124.82Z" fill="white"/>
<path opacity="0.4" d="M141.875 128.185L136.594 134.949V134.483L141.875 127.72V128.185Z" fill="white"/>
<path opacity="0.4" d="M141.875 130.048L136.594 136.811V135.996L141.875 129.233V130.048Z" fill="white"/>
<path opacity="0.4" d="M141.875 131.561L136.594 138.324V137.28L141.875 130.516V131.561Z" fill="white"/>
<path opacity="0.4" d="M148.042 126.903L142.761 133.666V133.2L148.042 126.437V126.903Z" fill="white"/>
<path opacity="0.4" d="M148.042 132.136L142.761 138.899V138.433L148.042 131.67V132.136Z" fill="white"/>
<path opacity="0.4" d="M142.761 134.713L148.042 127.95V130.277L142.761 137.041V134.713Z" fill="white"/>
<path opacity="0.2" d="M137.652 124.82H135.535V125.634H137.652V124.82Z" fill="black"/>
<path d="M149.399 139.269H135.535V140.082H149.399V139.269Z" fill="#EA3468"/>
<path opacity="0.2" d="M149.399 139.269H135.535V140.082H149.399V139.269Z" fill="white"/>
<path opacity="0.2" d="M137.652 139.269H135.535V140.082H137.652V139.269Z" fill="black"/>
<path d="M142.369 145.281H136.302V158.916H142.369V145.281Z" fill="#EA3468"/>
<path opacity="0.2" d="M142.369 145.281H136.302V158.916H142.369V145.281Z" fill="black"/>
<path d="M148.436 145.281H142.369V158.916H148.436V145.281Z" fill="#EA3468"/>
<path d="M149.399 144.467H135.535V145.281H149.399V144.467Z" fill="#EA3468"/>
<path opacity="0.2" d="M149.399 144.467H135.535V145.281H149.399V144.467Z" fill="white"/>
<path opacity="0.4" d="M141.875 147.832L136.594 154.596V154.13L141.875 147.366V147.832Z" fill="white"/>
<path opacity="0.4" d="M141.875 149.694L136.594 156.458V155.643L141.875 148.88V149.694Z" fill="white"/>
<path opacity="0.4" d="M141.875 151.207L136.594 157.97V156.927L141.875 150.163V151.207Z" fill="white"/>
<path opacity="0.4" d="M148.042 146.55L142.761 153.313V152.847L148.042 146.084V146.55Z" fill="white"/>
<path opacity="0.4" d="M148.042 151.782L142.761 158.546V158.08L148.042 151.316V151.782Z" fill="white"/>
<path opacity="0.4" d="M142.761 154.36L148.042 147.596V149.924L142.761 156.688V154.36Z" fill="white"/>
<path opacity="0.2" d="M137.652 144.467H135.535V145.281H137.652V144.467Z" fill="black"/>
<path d="M149.399 158.916H135.535V159.729H149.399V158.916Z" fill="#EA3468"/>
<path opacity="0.2" d="M149.399 158.916H135.535V159.729H149.399V158.916Z" fill="white"/>
<path opacity="0.2" d="M137.652 158.916H135.535V159.729H137.652V158.916Z" fill="black"/>
<path d="M142.369 164.927H136.302V178.563H142.369V164.927Z" fill="#EA3468"/>
<path opacity="0.2" d="M142.369 164.927H136.302V178.563H142.369V164.927Z" fill="black"/>
<path d="M148.436 164.927H142.369V178.563H148.436V164.927Z" fill="#EA3468"/>
<path d="M149.399 164.114H135.535V164.927H149.399V164.114Z" fill="#EA3468"/>
<path opacity="0.2" d="M149.399 164.114H135.535V164.927H149.399V164.114Z" fill="white"/>
<path opacity="0.4" d="M141.875 167.479L136.594 174.243V173.777L141.875 167.013V167.479Z" fill="white"/>
<path opacity="0.4" d="M141.875 169.341L136.594 176.104V175.29L141.875 168.526V169.341Z" fill="white"/>
<path opacity="0.4" d="M141.875 170.854L136.594 177.617V176.573L141.875 169.81V170.854Z" fill="white"/>
<path opacity="0.4" d="M148.042 166.196L142.761 172.96V172.494L148.042 165.73V166.196Z" fill="white"/>
<path opacity="0.4" d="M148.042 171.429L142.761 178.193V177.727L148.042 170.963V171.429Z" fill="white"/>
<path opacity="0.4" d="M142.761 174.007L148.042 167.243V169.571L142.761 176.335V174.007Z" fill="white"/>
<path opacity="0.2" d="M137.652 164.114H135.535V164.927H137.652V164.114Z" fill="black"/>
<path d="M149.399 178.562H135.535V179.376H149.399V178.562Z" fill="#EA3468"/>
<path opacity="0.2" d="M149.399 178.562H135.535V179.376H149.399V178.562Z" fill="white"/>
<path opacity="0.2" d="M137.652 178.562H135.535V179.376H137.652V178.562Z" fill="black"/>
<path d="M40.9254 65.397H50.6152H61.0733H71.5313V33.7843L40.9254 65.397Z" fill="#EA3468"/>
<path d="M71.5319 65.397H40.9254V200.844H71.5319V65.397Z" fill="#EA3468"/>
<path opacity="0.2" d="M71.5319 65.397H40.9254V200.844H71.5319V65.397Z" fill="white"/>
<path opacity="0.2" d="M50.6158 65.397H40.9254V200.844H50.6158V65.397Z" fill="black"/>
<path d="M56.7206 69.9055H52.6171V199.915H56.7206V69.9055Z" fill="#EA3468"/>
<path d="M47.8221 69.9055H43.7186V199.915H47.8221V69.9055Z" fill="#EA3468"/>
<path d="M63.1254 69.9055H59.0219V199.915H63.1254V69.9055Z" fill="#EA3468"/>
<path d="M69.5295 69.9055H65.426V199.915H69.5295V69.9055Z" fill="#EA3468"/>
<g opacity="0.2">
<path d="M56.7206 69.9055H52.6171V199.915H56.7206V69.9055Z" fill="black"/>
<path d="M47.8221 69.9055H43.7186V199.915H47.8221V69.9055Z" fill="black"/>
<path d="M63.1254 69.9055H59.0219V199.915H63.1254V69.9055Z" fill="black"/>
<path d="M69.5295 69.9055H65.426V199.915H69.5295V69.9055Z" fill="black"/>
</g>
<path opacity="0.2" d="M71.5313 65.397H50.6152L71.5313 33.7843V65.397Z" fill="black"/>
<path opacity="0.4" d="M50.6152 65.397H61.0733L71.5313 33.7843L50.6152 65.397Z" fill="white"/>
<path d="M73.18 82.442H50.6152V84.3006H73.18V82.442Z" fill="#EA3468"/>
<path opacity="0.4" d="M73.18 82.442H50.6152V84.3006H73.18V82.442Z" fill="white"/>
<path opacity="0.1" d="M53.7395 82.442H50.6152V84.3006H53.7395V82.442Z" fill="black"/>
<path d="M38.8639 84.3H47.8221V82.4414H38.8639V84.3Z" fill="#EA3468"/>
<path opacity="0.4" d="M38.8639 84.3H47.8221V82.4414H38.8639V84.3Z" fill="white"/>
<path opacity="0.1" d="M46.5817 84.3H47.8221V82.4414H46.5817V84.3Z" fill="black"/>
<path d="M73.18 98.998H50.6152V100.857H73.18V98.998Z" fill="#EA3468"/>
<path opacity="0.4" d="M73.18 98.998H50.6152V100.857H73.18V98.998Z" fill="white"/>
<path opacity="0.1" d="M53.7395 98.998H50.6152V100.857H53.7395V98.998Z" fill="black"/>
<path d="M38.8639 100.857H47.8221V98.998H38.8639V100.857Z" fill="#EA3468"/>
<path opacity="0.4" d="M38.8639 100.857H47.8221V98.998H38.8639V100.857Z" fill="white"/>
<path opacity="0.1" d="M46.5817 100.857H47.8221V98.998H46.5817V100.857Z" fill="black"/>
<path d="M73.18 115.554H50.6152V117.412H73.18V115.554Z" fill="#EA3468"/>
<path opacity="0.4" d="M73.18 115.554H50.6152V117.412H73.18V115.554Z" fill="white"/>
<path opacity="0.1" d="M53.7395 115.554H50.6152V117.412H53.7395V115.554Z" fill="black"/>
<path d="M38.8639 117.412H47.8221V115.553H38.8639V117.412Z" fill="#EA3468"/>
<path opacity="0.4" d="M38.8639 117.412H47.8221V115.553H38.8639V117.412Z" fill="white"/>
<path opacity="0.1" d="M46.5817 117.412H47.8221V115.553H46.5817V117.412Z" fill="black"/>
<path d="M73.18 132.11H50.6152V133.969H73.18V132.11Z" fill="#EA3468"/>
<path opacity="0.4" d="M73.18 132.11H50.6152V133.969H73.18V132.11Z" fill="white"/>
<path opacity="0.1" d="M53.7395 132.11H50.6152V133.969H53.7395V132.11Z" fill="black"/>
<path d="M38.8639 133.969H47.8221V132.11H38.8639V133.969Z" fill="#EA3468"/>
<path opacity="0.4" d="M38.8639 133.969H47.8221V132.11H38.8639V133.969Z" fill="white"/>
<path opacity="0.1" d="M46.5817 133.969H47.8221V132.11H46.5817V133.969Z" fill="black"/>
<path d="M73.18 148.667H50.6152V150.525H73.18V148.667Z" fill="#EA3468"/>
<path opacity="0.4" d="M73.18 148.667H50.6152V150.525H73.18V148.667Z" fill="white"/>
<path opacity="0.1" d="M53.7395 148.667H50.6152V150.525H53.7395V148.667Z" fill="black"/>
<path d="M38.8639 150.524H47.8221V148.666H38.8639V150.524Z" fill="#EA3468"/>
<path opacity="0.4" d="M38.8639 150.524H47.8221V148.666H38.8639V150.524Z" fill="white"/>
<path opacity="0.1" d="M46.5817 150.524H47.8221V148.666H46.5817V150.524Z" fill="black"/>
<path d="M73.18 165.222H50.6152V167.081H73.18V165.222Z" fill="#EA3468"/>
<path opacity="0.4" d="M73.18 165.222H50.6152V167.081H73.18V165.222Z" fill="white"/>
<path opacity="0.1" d="M53.7395 165.222H50.6152V167.081H53.7395V165.222Z" fill="black"/>
<path d="M38.8639 167.081H47.8221V165.222H38.8639V167.081Z" fill="#EA3468"/>
<path opacity="0.4" d="M38.8639 167.081H47.8221V165.222H38.8639V167.081Z" fill="white"/>
<path opacity="0.1" d="M46.5817 167.081H47.8221V165.222H46.5817V167.081Z" fill="black"/>
<path d="M56.9484 165.91H10.5525V200.844H56.9484V165.91Z" fill="#EA3468"/>
<path opacity="0.7" d="M56.9484 165.91H10.5525V200.844H56.9484V165.91Z" fill="white"/>
<path opacity="0.2" d="M26.4463 165.91H10.5525V200.844H26.4463V165.91Z" fill="black"/>
<path d="M42.1404 176.589H31.3479V200.845H42.1404V176.589Z" fill="#EA3468"/>
<path opacity="0.2" d="M42.1404 176.589H31.3479V200.845H42.1404V176.589Z" fill="black"/>
<path d="M52.9329 176.589H42.1404V200.845H52.9329V176.589Z" fill="#EA3468"/>
<path d="M54.6483 175.142H29.9846V176.589H54.6483V175.142Z" fill="#EA3468"/>
<path opacity="0.3" d="M54.6483 175.142H29.9846V176.589H54.6483V175.142Z" fill="white"/>
<g opacity="0.3">
<path d="M52.2341 178.846L42.8393 190.878V190.049L52.2341 178.017V178.846Z" fill="white"/>
</g>
<path d="M48.7432 93.983H18.1368V165.21H48.7432V93.983Z" fill="#EA3468"/>
<path opacity="0.6" d="M48.7432 93.983H18.1368V165.21H48.7432V93.983Z" fill="white"/>
<path opacity="0.2" d="M27.8272 93.983H18.1368V165.21H27.8272V93.983Z" fill="black"/>
<path d="M33.9324 96.3537H29.8289V164.722H33.9324V96.3537Z" fill="#EA3468"/>
<path d="M40.3366 96.3537H36.2332V164.722H40.3366V96.3537Z" fill="#EA3468"/>
<path d="M46.7414 96.3537H42.6379V164.722H46.7414V96.3537Z" fill="#EA3468"/>
<path d="M50.3919 111.652H30.9514V112.63H50.3919V111.652Z" fill="#EA3468"/>
<path d="M50.3919 111.652H27.8271V112.63H50.3919V111.652Z" fill="#EA3468"/>
<path opacity="0.5" d="M50.3919 111.652H27.8271V112.63H50.3919V111.652Z" fill="white"/>
<path opacity="0.1" d="M30.9508 111.652H27.8271V112.63H30.9508V111.652Z" fill="black"/>
<path d="M50.3919 129.179H30.9514V130.157H50.3919V129.179Z" fill="#EA3468"/>
<path d="M50.3919 129.179H27.8271V130.157H50.3919V129.179Z" fill="#EA3468"/>
<path opacity="0.5" d="M50.3919 129.179H27.8271V130.157H50.3919V129.179Z" fill="white"/>
<path opacity="0.1" d="M30.9508 129.179H27.8271V130.157H30.9508V129.179Z" fill="black"/>
<path d="M50.3919 146.706H30.9514V147.683H50.3919V146.706Z" fill="#EA3468"/>
<path d="M50.3919 146.706H27.8271V147.683H50.3919V146.706Z" fill="#EA3468"/>
<path opacity="0.5" d="M50.3919 146.706H27.8271V147.683H50.3919V146.706Z" fill="white"/>
<path opacity="0.1" d="M30.9508 146.706H27.8271V147.683H30.9508V146.706Z" fill="black"/>
<path d="M50.3919 164.233H30.9514V165.211H50.3919V164.233Z" fill="#EA3468"/>
<path d="M50.3919 164.233H27.8271V165.211H50.3919V164.233Z" fill="#EA3468"/>
<path opacity="0.5" d="M50.3919 164.233H27.8271V165.211H50.3919V164.233Z" fill="white"/>
<path opacity="0.1" d="M30.9508 164.233H27.8271V165.211H30.9508V164.233Z" fill="black"/>
<path d="M58.2079 165.004H9.29358V165.91H58.2079V165.004Z" fill="#EA3468"/>
<path opacity="0.3" d="M58.2079 165.004H9.29358V165.91H58.2079V165.004Z" fill="white"/>
<path opacity="0.2" d="M26.0735 165.004H9.29358V165.91H26.0735V165.004Z" fill="black"/>
<path opacity="0.2" d="M33.7508 175.142H29.9846V176.589H33.7508V175.142Z" fill="black"/>
<path d="M20.3478 46.023H-3.44659V64.2159H20.3478V46.023Z" fill="#EA3468"/>
<path opacity="0.3" d="M20.3478 46.023H-3.44659V64.2159H20.3478V46.023Z" fill="white"/>
<path opacity="0.2" d="M3.04448 46.023H-3.44659V64.2159H3.04448V46.023Z" fill="black"/>
<path d="M23.4704 64.2159H-7.13605V200.803H23.4704V64.2159Z" fill="#EA3468"/>
<path opacity="0.3" d="M23.4704 64.2159H-7.13605V200.803H23.4704V64.2159Z" fill="white"/>
<path opacity="0.2" d="M2.55433 64.2159H-7.13605V200.803H2.55433V64.2159Z" fill="black"/>
<path d="M5.81796 62.2615L5.81796 46.023H3.0451L3.0451 62.2615H5.81796Z" fill="#EA3468"/>
<path d="M11.3643 62.2615L11.3643 46.023H8.59083V62.2615H11.3643Z" fill="#EA3468"/>
<path d="M16.9111 62.2615V46.023H14.1376V62.2615H16.9111Z" fill="#EA3468"/>
<path d="M2.55433 175.142H-7.13605V177.915H2.55433V175.142Z" fill="#EA3468"/>
<path d="M2.55433 169.596H-7.13605V172.369H2.55433V169.596Z" fill="#EA3468"/>
<path d="M2.55433 164.049H-7.13605V166.823H2.55433V164.049Z" fill="#EA3468"/>
<path d="M2.55433 158.503H-7.13605V161.276H2.55433V158.503Z" fill="#EA3468"/>
<path d="M2.55433 152.957H-7.13605V155.73H2.55433V152.957Z" fill="#EA3468"/>
<path d="M2.55433 147.41H-7.13605V150.183H2.55433V147.41Z" fill="#EA3468"/>
<path d="M2.55433 141.864H-7.13605V144.637H2.55433V141.864Z" fill="#EA3468"/>
<path d="M2.55433 136.318H-7.13605V139.091H2.55433V136.318Z" fill="#EA3468"/>
<path d="M2.55433 130.771H-7.13605V133.544H2.55433V130.771Z" fill="#EA3468"/>
<path d="M2.55433 125.225H-7.13605V127.999H2.55433V125.225Z" fill="#EA3468"/>
<path d="M2.55433 119.679H-7.13605V122.452H2.55433V119.679Z" fill="#EA3468"/>
<path d="M2.55433 114.133H-7.13605V116.905H2.55433V114.133Z" fill="#EA3468"/>
<path d="M2.55433 108.586H-7.13605V111.359H2.55433V108.586Z" fill="#EA3468"/>
<path d="M2.55433 103.04H-7.13605V105.813H2.55433V103.04Z" fill="#EA3468"/>
<path d="M2.55433 97.4937H-7.13605V100.267H2.55433V97.4937Z" fill="#EA3468"/>
<path d="M2.55433 91.9474H-7.13605V94.7203H2.55433V91.9474Z" fill="#EA3468"/>
<path d="M2.55433 86.4011H-7.13605V89.1745H2.55433V86.4011Z" fill="#EA3468"/>
<path d="M2.55433 80.8548H-7.13605V83.6277H2.55433V80.8548Z" fill="#EA3468"/>
<path d="M2.55433 75.3085H-7.13605V78.0819H2.55433V75.3085Z" fill="#EA3468"/>
<path d="M2.55433 69.7622H-7.13605V72.5356H2.55433V69.7622Z" fill="#EA3468"/>
<path d="M2.55433 64.2159H-7.13605V66.9893H2.55433V64.2159Z" fill="#EA3468"/>
<path d="M23.4704 64.2159H2.55429V66.9893H23.4704V64.2159Z" fill="#EA3468"/>
<path d="M23.4704 69.7622H2.55429V72.5356H23.4704V69.7622Z" fill="#EA3468"/>
<path d="M23.4704 75.3085H2.55429V78.0819H23.4704V75.3085Z" fill="#EA3468"/>
<path d="M23.4704 80.8548H2.55429V83.6277H23.4704V80.8548Z" fill="#EA3468"/>
<path d="M23.4704 86.4011H2.55429V89.1745H23.4704V86.4011Z" fill="#EA3468"/>
<path d="M23.4704 91.9474H2.55429V94.7203H23.4704V91.9474Z" fill="#EA3468"/>
<path d="M23.4704 97.4937H2.55429V100.267H23.4704V97.4937Z" fill="#EA3468"/>
<path d="M23.4704 103.04H2.55429V105.813H23.4704V103.04Z" fill="#EA3468"/>
<path d="M23.4704 108.586H2.55429V111.359H23.4704V108.586Z" fill="#EA3468"/>
<path d="M23.4704 114.133H2.55429V116.905H23.4704V114.133Z" fill="#EA3468"/>
<path d="M23.4704 119.679H2.55429V122.452H23.4704V119.679Z" fill="#EA3468"/>
<path d="M23.4704 125.225H2.55429V127.999H23.4704V125.225Z" fill="#EA3468"/>
<path d="M23.4704 130.771H2.55429V133.544H23.4704V130.771Z" fill="#EA3468"/>
<path d="M23.4704 136.318H2.55429V139.091H23.4704V136.318Z" fill="#EA3468"/>
<path d="M23.4704 141.864H2.55429V144.637H23.4704V141.864Z" fill="#EA3468"/>
<path d="M23.4704 147.41H2.55429V150.183H23.4704V147.41Z" fill="#EA3468"/>
<path d="M23.4704 152.957H2.55429V155.73H23.4704V152.957Z" fill="#EA3468"/>
<path d="M23.4704 158.503H2.55429V161.276H23.4704V158.503Z" fill="#EA3468"/>
<path d="M23.4704 164.049H2.55429V166.823H23.4704V164.049Z" fill="#EA3468"/>
<path d="M23.4704 169.596H2.55429V172.369H23.4704V169.596Z" fill="#EA3468"/>
<path d="M23.4704 175.142H2.55429V177.915H23.4704V175.142Z" fill="#EA3468"/>
<path d="M12.9605 113.214H-20.8035V200.845H12.9605V113.214Z" fill="#EA3468"/>
<path opacity="0.7" d="M12.9605 113.214H-20.8035V200.845H12.9605V113.214Z" fill="white"/>
<path d="M1.26658 130.79H-7.10956V131.808H1.26658V130.79Z" fill="#EA3468"/>
<path d="M11.4313 130.79H3.05518V131.808H11.4313V130.79Z" fill="#EA3468"/>
<path d="M1.26658 151.503H-7.10956V152.521H1.26658V151.503Z" fill="#EA3468"/>
<path d="M11.4313 151.503H3.05518V152.521H11.4313V151.503Z" fill="#EA3468"/>
<path d="M1.26658 172.216H-7.10956V173.234H1.26658V172.216Z" fill="#EA3468"/>
<path d="M11.4313 172.216H3.05518V173.234H11.4313V172.216Z" fill="#EA3468"/>
<path d="M-2.72578 117.142H-4.11334C-5.76488 117.142 -7.10901 118.486 -7.10901 120.138V130.79H0.269886V120.138C0.269886 118.486 -1.07425 117.142 -2.72578 117.142Z" fill="#EA3468"/>
<path d="M7.43895 117.142H6.05139C4.39986 117.142 3.05573 118.486 3.05573 120.138V130.79H10.4346V120.138C10.4346 118.486 9.09049 117.142 7.43895 117.142Z" fill="#EA3468"/>
<path d="M-2.72578 137.855H-4.11334C-5.76488 137.855 -7.10901 139.199 -7.10901 140.851V151.503H0.269886V140.851C0.269886 139.199 -1.07425 137.855 -2.72578 137.855Z" fill="#EA3468"/>
<path d="M7.43895 137.855H6.05139C4.39986 137.855 3.05573 139.199 3.05573 140.851V151.503H10.4346V140.851C10.4346 139.199 9.09049 137.855 7.43895 137.855Z" fill="#EA3468"/>
<path d="M-2.72578 158.568H-4.11334C-5.76488 158.568 -7.10901 159.913 -7.10901 161.564V172.216H0.269886V161.564C0.269886 159.913 -1.07425 158.568 -2.72578 158.568Z" fill="#EA3468"/>
<path d="M7.43895 158.568H6.05139C4.39986 158.568 3.05573 159.913 3.05573 161.564V172.216H10.4346V161.564C10.4346 159.913 9.09049 158.568 7.43895 158.568Z" fill="#EA3468"/>
<g opacity="0.2">
<path d="M-2.72578 117.142H-4.11334C-5.76488 117.142 -7.10901 118.486 -7.10901 120.138V130.79H0.269886V120.138C0.269886 118.486 -1.07425 117.142 -2.72578 117.142Z" fill="white"/>
<path d="M7.43895 117.142H6.05139C4.39986 117.142 3.05573 118.486 3.05573 120.138V130.79H10.4346V120.138C10.4346 118.486 9.09049 117.142 7.43895 117.142Z" fill="white"/>
<path d="M-2.72578 137.855H-4.11334C-5.76488 137.855 -7.10901 139.199 -7.10901 140.851V151.503H0.269886V140.851C0.269886 139.199 -1.07425 137.855 -2.72578 137.855Z" fill="white"/>
<path d="M7.43895 137.855H6.05139C4.39986 137.855 3.05573 139.199 3.05573 140.851V151.503H10.4346V140.851C10.4346 139.199 9.09049 137.855 7.43895 137.855Z" fill="white"/>
<path d="M-2.72578 158.568H-4.11334C-5.76488 158.568 -7.10901 159.913 -7.10901 161.564V172.216H0.269886V161.564C0.269886 159.913 -1.07425 158.568 -2.72578 158.568Z" fill="white"/>
<path d="M7.43895 158.568H6.05139C4.39986 158.568 3.05573 159.913 3.05573 161.564V172.216H10.4346V161.564C10.4346 159.913 9.09049 158.568 7.43895 158.568Z" fill="white"/>
</g>
<g opacity="0.7">
<path opacity="0.8" d="M9.16271 120.138V121.53H7.09943V118.414H7.43898C8.3894 118.414 9.16271 119.187 9.16271 120.137V120.138Z" fill="white"/>
<path opacity="0.8" d="M9.16271 122.239H7.09943V125.41H9.16271V122.239Z" fill="white"/>
<path opacity="0.8" d="M6.39041 122.239H4.32712V125.41H6.39041V122.239Z" fill="white"/>
<path opacity="0.8" d="M6.05085 118.414H6.39041V121.531H4.32712V120.139C4.32712 119.188 5.10043 118.415 6.05142 118.415L6.05085 118.414Z" fill="white"/>
<path opacity="0.8" d="M6.39041 126.119H4.32712V129.518H6.39041V126.119Z" fill="white"/>
<path opacity="0.8" d="M9.16271 126.119H7.09943V129.518H9.16271V126.119Z" fill="white"/>
<g opacity="0.8">
<path d="M9.16271 140.851V142.243H7.09943V139.127H7.43898C8.3894 139.127 9.16271 139.9 9.16271 140.851Z" fill="white"/>
<path d="M9.16271 142.952H7.09943V146.123H9.16271V142.952Z" fill="white"/>
<path d="M6.39041 142.952H4.32712V146.123H6.39041V142.952Z" fill="white"/>
<path d="M6.05082 139.127H6.39038V142.243H4.32709V140.851C4.32709 139.901 5.1004 139.127 6.05139 139.127H6.05082Z" fill="white"/>
<path d="M6.39041 146.832H4.32712V150.231H6.39041V146.832Z" fill="white"/>
<path d="M9.16271 146.832H7.09943V150.231H9.16271V146.832Z" fill="white"/>
</g>
<path d="M9.16271 161.564V162.956H7.09943V159.84H7.43898C8.3894 159.84 9.16271 160.613 9.16271 161.564Z" fill="white"/>
<path d="M9.16271 163.665H7.09943V166.836H9.16271V163.665Z" fill="white"/>
<path d="M6.39041 163.665H4.32712V166.836H6.39041V163.665Z" fill="white"/>
<path d="M6.05082 159.84H6.39038V162.957H4.32709V161.564C4.32709 160.614 5.1004 159.84 6.05139 159.84H6.05082Z" fill="white"/>
<path d="M6.39041 167.545H4.32712V170.944H6.39041V167.545Z" fill="white"/>
<path d="M9.16271 167.545H7.09943V170.944H9.16271V167.545Z" fill="white"/>
</g>
<path d="M122.838 56.3011H97.0275V65.3976H122.838V56.3011Z" fill="#EA3468"/>
<path opacity="0.5" d="M122.838 56.3011H97.0275V65.3976H122.838V56.3011Z" fill="white"/>
<path d="M118.474 50.281H101.392V56.3006H118.474V50.281Z" fill="#EA3468"/>
<path opacity="0.4" d="M118.474 50.281H101.392V56.3006H118.474V50.281Z" fill="white"/>
<path d="M115.339 46.4709H104.527V50.2816H115.339V46.4709Z" fill="#EA3468"/>
<path opacity="0.3" d="M115.339 46.4709H104.527V50.2816H115.339V46.4709Z" fill="white"/>
<path d="M112.736 44.5655H107.13V46.5408H112.736V44.5655Z" fill="#EA3468"/>
<path opacity="0.2" d="M112.736 44.5655H107.13V46.5408H112.736V44.5655Z" fill="white"/>
<path d="M124.84 65.3976H94.2338V200.845H124.84V65.3976Z" fill="#EA3468"/>
<path opacity="0.7" d="M124.84 65.3976H94.2338V200.845H124.84V65.3976Z" fill="white"/>
<path opacity="0.1" d="M103.924 65.3976H94.2338V200.845H103.924V65.3976Z" fill="black"/>
<path d="M110.029 69.9055H105.926V199.915H110.029V69.9055Z" fill="#EA3468"/>
<path d="M101.131 69.9055H97.0275V199.915H101.131V69.9055Z" fill="#EA3468"/>
<path d="M116.434 69.9055H112.33V199.915H116.434V69.9055Z" fill="#EA3468"/>
<path d="M122.838 69.9055H118.735V199.915H122.838V69.9055Z" fill="#EA3468"/>
<path opacity="0.2" d="M103.925 56.3011H97.0275V65.3976H103.925V56.3011Z" fill="black"/>
<path opacity="0.2" d="M105.956 50.281H101.392V56.3006H105.956V50.281Z" fill="black"/>
<path opacity="0.2" d="M107.416 46.4709H104.527V50.2816H107.416V46.4709Z" fill="black"/>
<path opacity="0.2" d="M108.628 44.5655H107.13V46.5408H108.628V44.5655Z" fill="black"/>
<path d="M126.489 82.442H103.924V84.3006H126.489V82.442Z" fill="#EA3468"/>
<path opacity="0.3" d="M126.489 82.442H103.924V84.3006H126.489V82.442Z" fill="white"/>
<path opacity="0.2" d="M107.048 82.442H103.924V84.3006H107.048V82.442Z" fill="black"/>
<path d="M92.1727 84.3006H101.131V82.442H92.1727V84.3006Z" fill="#EA3468"/>
<path opacity="0.3" d="M92.1727 84.3006H101.131V82.442H92.1727V84.3006Z" fill="white"/>
<path opacity="0.2" d="M99.8906 84.3006H101.131V82.442H99.8906V84.3006Z" fill="black"/>
<path d="M126.489 99.0392H103.924V100.898H126.489V99.0392Z" fill="#EA3468"/>
<path opacity="0.3" d="M126.489 99.0392H103.924V100.898H126.489V99.0392Z" fill="white"/>
<path opacity="0.2" d="M107.048 99.0392H103.924V100.898H107.048V99.0392Z" fill="black"/>
<path d="M92.1727 100.898H101.131V99.0392H92.1727V100.898Z" fill="#EA3468"/>
<path opacity="0.3" d="M92.1727 100.898H101.131V99.0392H92.1727V100.898Z" fill="white"/>
<path opacity="0.2" d="M99.8906 100.898H101.131V99.0392H99.8906V100.898Z" fill="black"/>
<path d="M126.489 115.636H103.924V117.494H126.489V115.636Z" fill="#EA3468"/>
<path opacity="0.3" d="M126.489 115.636H103.924V117.494H126.489V115.636Z" fill="white"/>
<path opacity="0.2" d="M107.048 115.636H103.924V117.494H107.048V115.636Z" fill="black"/>
<path d="M92.1727 117.495H101.131V115.636H92.1727V117.495Z" fill="#EA3468"/>
<path opacity="0.3" d="M92.1727 117.495H101.131V115.636H92.1727V117.495Z" fill="white"/>
<path opacity="0.2" d="M99.8906 117.495H101.131V115.636H99.8906V117.495Z" fill="black"/>
<path d="M126.489 132.233H103.924V134.091H126.489V132.233Z" fill="#EA3468"/>
<path opacity="0.3" d="M126.489 132.233H103.924V134.091H126.489V132.233Z" fill="white"/>
<path opacity="0.2" d="M107.048 132.233H103.924V134.091H107.048V132.233Z" fill="black"/>
<path d="M92.1727 134.091H101.131V132.233H92.1727V134.091Z" fill="#EA3468"/>
<path opacity="0.3" d="M92.1727 134.091H101.131V132.233H92.1727V134.091Z" fill="white"/>
<path opacity="0.2" d="M99.8906 134.091H101.131V132.233H99.8906V134.091Z" fill="black"/>
<path d="M126.489 148.829H103.924V150.688H126.489V148.829Z" fill="#EA3468"/>
<path opacity="0.3" d="M126.489 148.829H103.924V150.688H126.489V148.829Z" fill="white"/>
<path opacity="0.2" d="M107.048 148.829H103.924V150.688H107.048V148.829Z" fill="black"/>
<path d="M92.1727 150.688H101.131V148.829H92.1727V150.688Z" fill="#EA3468"/>
<path opacity="0.3" d="M92.1727 150.688H101.131V148.829H92.1727V150.688Z" fill="white"/>
<path opacity="0.2" d="M99.8906 150.688H101.131V148.829H99.8906V150.688Z" fill="black"/>
<path d="M126.489 165.427H103.924V167.285H126.489V165.427Z" fill="#EA3468"/>
<path opacity="0.3" d="M126.489 165.427H103.924V167.285H126.489V165.427Z" fill="white"/>
<path opacity="0.2" d="M107.048 165.427H103.924V167.285H107.048V165.427Z" fill="black"/>
<path d="M92.1727 167.285H101.131V165.427H92.1727V167.285Z" fill="#EA3468"/>
<path opacity="0.3" d="M92.1727 167.285H101.131V165.427H92.1727V167.285Z" fill="white"/>
<path opacity="0.2" d="M99.8906 167.285H101.131V165.427H99.8906V167.285Z" fill="black"/>
<path d="M95.663 119.029H65.0571V200.203H95.663V119.029Z" fill="#EA3468"/>
<path opacity="0.7" d="M95.663 119.029H65.0571V200.203H95.663V119.029Z" fill="white"/>
<path opacity="0.2" d="M74.7475 119.029H65.0571V200.203H74.7475V119.029Z" fill="black"/>
<path opacity="0.2" d="M80.8528 120.835H76.7493V129.983H80.8528V120.835Z" fill="black"/>
<path opacity="0.2" d="M87.257 120.835H83.1536V129.983H87.257V120.835Z" fill="black"/>
<path opacity="0.2" d="M93.6618 120.835H89.5583V129.983H93.6618V120.835Z" fill="black"/>
<path opacity="0.2" d="M80.8528 131.86H76.7493V141.007H80.8528V131.86Z" fill="black"/>
<path opacity="0.2" d="M87.257 131.86H83.1536V141.007H87.257V131.86Z" fill="black"/>
<path opacity="0.2" d="M71.9544 120.835H67.851V129.983H71.9544V120.835Z" fill="black"/>
<path opacity="0.2" d="M71.9544 131.86H67.851V141.007H71.9544V131.86Z" fill="black"/>
<path opacity="0.2" d="M93.6618 131.86H89.5583V141.007H93.6618V131.86Z" fill="black"/>
<path opacity="0.2" d="M80.8528 148.198H76.7493V157.346H80.8528V148.198Z" fill="black"/>
<path opacity="0.2" d="M87.257 148.198H83.1536V157.346H87.257V148.198Z" fill="black"/>
<path opacity="0.2" d="M93.6618 148.198H89.5583V157.346H93.6618V148.198Z" fill="black"/>
<path opacity="0.2" d="M80.8528 159.222H76.7493V168.369H80.8528V159.222Z" fill="black"/>
<path opacity="0.2" d="M87.257 159.222H83.1536V168.369H87.257V159.222Z" fill="black"/>
<path opacity="0.2" d="M71.9544 148.198H67.851V157.346H71.9544V148.198Z" fill="black"/>
<path opacity="0.2" d="M71.9544 159.222H67.851V168.369H71.9544V159.222Z" fill="black"/>
<path opacity="0.2" d="M93.6618 159.222H89.5583V168.369H93.6618V159.222Z" fill="black"/>
<path d="M80.105 159.97H77.4979V167.621H80.105V159.97Z" fill="#EA3468"/>
<path d="M86.5092 159.97H83.9022V167.621H86.5092V159.97Z" fill="#EA3468"/>
<path d="M71.2059 159.97H68.5989V167.621H71.2059V159.97Z" fill="#EA3468"/>
<path d="M92.9134 159.97H90.3064V167.621H92.9134V159.97Z" fill="#EA3468"/>
<path d="M81.1783 179.735H79.0327V180.932H81.1783V179.735Z" fill="#EA3468"/>
<path d="M86.759 177.489H84.6133V178.687H86.759V177.489Z" fill="#EA3468"/>
<path d="M88.8285 179.821H86.6829V181.019H88.8285V179.821Z" fill="#EA3468"/>
<path d="M88.8285 175.027H86.6829V176.224H88.8285V175.027Z" fill="#EA3468"/>
<path d="M89.9013 177.489H87.7557V178.687H89.9013V177.489Z" fill="#EA3468"/>
<path d="M95.7375 177.686H93.5919V178.884H95.7375V177.686Z" fill="#EA3468"/>
<path d="M67.2412 178.022H65.0955V179.22H67.2412V178.022Z" fill="#EA3468"/>
<path d="M69.3107 175.56H67.165V176.757H69.3107V175.56Z" fill="#EA3468"/>
<path d="M70.3835 178.022H68.2379V179.22H70.3835V178.022Z" fill="#EA3468"/>
<path d="M79.8742 175.71H77.7286V176.907H79.8742V175.71Z" fill="#EA3468"/>
<path d="M96.9694 117.458H63.752V119.271H96.9694V117.458Z" fill="#EA3468"/>
<path opacity="0.2" d="M96.9694 117.458H63.752V119.271H96.9694V117.458Z" fill="white"/>
<path d="M98.0975 115.645H62.6239V117.458H98.0975V115.645Z" fill="#EA3468"/>
<path opacity="0.4" d="M98.0975 115.645H62.6239V117.458H98.0975V115.645Z" fill="white"/>
<path opacity="0.2" d="M74.7927 117.458H63.752V119.271H74.7927V117.458Z" fill="black"/>
<path opacity="0.2" d="M74.7927 115.645H62.6239V117.458H74.7927V115.645Z" fill="black"/>
<path d="M96.9694 144.011H63.752V145.824H96.9694V144.011Z" fill="#EA3468"/>
<path opacity="0.2" d="M96.9694 144.011H63.752V145.824H96.9694V144.011Z" fill="white"/>
<path opacity="0.2" d="M74.7927 144.011H63.752V145.824H74.7927V144.011Z" fill="black"/>
<path d="M96.9694 171.372H63.752V173.185H96.9694V171.372Z" fill="#EA3468"/>
<path opacity="0.2" d="M96.9694 171.372H63.752V173.185H96.9694V171.372Z" fill="white"/>
<path opacity="0.2" d="M74.7927 171.372H63.752V173.185H74.7927V171.372Z" fill="black"/>
<path d="M80.105 121.583H77.4979V129.234H80.105V121.583Z" fill="#EA3468"/>
<path d="M86.5092 121.583H83.9022V129.234H86.5092V121.583Z" fill="#EA3468"/>
<path d="M92.9134 121.583H90.3064V129.234H92.9134V121.583Z" fill="#EA3468"/>
<path d="M80.105 132.608H77.4979V140.259H80.105V132.608Z" fill="#EA3468"/>
<path d="M86.5092 132.608H83.9022V140.259H86.5092V132.608Z" fill="#EA3468"/>
<path d="M71.2059 121.583H68.5989V129.234H71.2059V121.583Z" fill="#EA3468"/>
<path d="M71.2059 132.608H68.5989V140.259H71.2059V132.608Z" fill="#EA3468"/>
<path d="M92.9134 132.608H90.3064V140.259H92.9134V132.608Z" fill="#EA3468"/>
<path d="M80.105 148.946H77.4979V156.597H80.105V148.946Z" fill="#EA3468"/>
<path d="M86.5092 148.946H83.9022V156.597H86.5092V148.946Z" fill="#EA3468"/>
<path d="M92.9134 148.946H90.3064V156.597H92.9134V148.946Z" fill="#EA3468"/>
<path d="M71.2059 148.946H68.5989V156.597H71.2059V148.946Z" fill="#EA3468"/>
<path d="M81.4823 129.983H76.1199V130.612H81.4823V129.983Z" fill="#EA3468"/>
<path d="M87.8871 129.983H82.5241V130.612H87.8871V129.983Z" fill="#EA3468"/>
<path d="M94.2913 129.983H88.9289V130.612H94.2913V129.983Z" fill="#EA3468"/>
<path d="M81.4823 141.007H76.1199V141.636H81.4823V141.007Z" fill="#EA3468"/>
<path d="M72.5839 129.983H67.2215V130.612H72.5839V129.983Z" fill="#EA3468"/>
<path d="M72.5839 141.007H67.2215V141.636H72.5839V141.007Z" fill="#EA3468"/>
<path d="M87.8871 141.007H82.5241V141.636H87.8871V141.007Z" fill="#EA3468"/>
<path d="M94.2913 141.007H88.9289V141.636H94.2913V141.007Z" fill="#EA3468"/>
<path d="M81.4823 157.346H76.1199V157.974H81.4823V157.346Z" fill="#EA3468"/>
<path d="M87.8871 157.346H82.5241V157.974H87.8871V157.346Z" fill="#EA3468"/>
<path d="M94.2913 157.346H88.9289V157.974H94.2913V157.346Z" fill="#EA3468"/>
<path d="M81.4823 168.369H76.1199V168.998H81.4823V168.369Z" fill="#EA3468"/>
<path d="M72.5839 157.346H67.2215V157.974H72.5839V157.346Z" fill="#EA3468"/>
<path d="M72.5839 168.369H67.2215V168.998H72.5839V168.369Z" fill="#EA3468"/>
<path d="M87.8871 168.369H82.5241V168.998H87.8871V168.369Z" fill="#EA3468"/>
<path d="M94.2913 168.369H88.9289V168.998H94.2913V168.369Z" fill="#EA3468"/>
<path d="M75.9958 185.432C75.9958 185.432 80.9911 187.775 81.5015 182.437C81.5015 182.437 85.2615 178.398 80.2945 177.331C80.2945 177.331 80.2014 173.153 76.5345 175.242C76.5345 175.242 76.8132 170.136 72.1552 172.242C72.1552 172.242 69.1545 168.118 66.8566 172.237C66.8566 172.237 63.7695 172.225 64.8835 176.124C64.8835 176.124 59.0811 178.445 62.2376 181.23C62.2376 181.23 61.484 185.889 65.6585 185.688C65.6585 185.688 68.7822 188.518 71.5212 185.361C71.5212 185.361 74.1565 187.684 75.9953 185.432H75.9958Z" fill="#EA3468"/>
<path opacity="0.3" d="M75.9958 185.432C75.9958 185.432 80.9911 187.775 81.5015 182.437C81.5015 182.437 85.2615 178.398 80.2945 177.331C80.2945 177.331 80.2014 173.153 76.5345 175.242C76.5345 175.242 76.8132 170.136 72.1552 172.242C72.1552 172.242 69.1545 168.118 66.8566 172.237C66.8566 172.237 63.7695 172.225 64.8835 176.124C64.8835 176.124 59.0811 178.445 62.2376 181.23C62.2376 181.23 61.484 185.889 65.6585 185.688C65.6585 185.688 68.7822 188.518 71.5212 185.361C71.5212 185.361 74.1565 187.684 75.9953 185.432H75.9958Z" fill="black"/>
<path opacity="0.2" d="M65.1068 182.68C65.1068 182.68 68.6033 185.557 71.669 182.348C71.669 182.348 74.6184 184.709 76.6766 182.42C76.6766 182.42 81.2031 184.141 82.8394 179.376L82.8479 179.332C83.025 180.798 81.5015 182.437 81.5015 182.437C80.991 187.775 75.9958 185.432 75.9958 185.432C74.157 187.684 71.5217 185.361 71.5217 185.361C68.7833 188.518 65.659 185.688 65.659 185.688C62.1997 185.855 62.1252 182.691 62.2008 181.6C62.6769 182.269 63.5517 182.749 65.1068 182.68Z" fill="black"/>
<path d="M150.774 186.832C150.774 186.832 155.323 188.966 155.788 184.105C155.788 184.105 159.212 180.428 154.689 179.456C154.689 179.456 154.605 175.652 151.265 177.554C151.265 177.554 151.519 172.904 147.278 174.821C147.278 174.821 144.545 171.066 142.453 174.817C142.453 174.817 139.641 174.806 140.656 178.356C140.656 178.356 135.373 180.47 138.247 183.006C138.247 183.006 137.561 187.249 141.362 187.065C141.362 187.065 144.207 189.642 146.701 186.768C146.701 186.768 149.101 188.883 150.775 186.832H150.774Z" fill="#EA3468"/>
<path opacity="0.3" d="M150.774 186.832C150.774 186.832 155.323 188.966 155.788 184.105C155.788 184.105 159.212 180.428 154.689 179.456C154.689 179.456 154.605 175.652 151.265 177.554C151.265 177.554 151.519 172.904 147.278 174.821C147.278 174.821 144.545 171.066 142.453 174.817C142.453 174.817 139.641 174.806 140.656 178.356C140.656 178.356 135.373 180.47 138.247 183.006C138.247 183.006 137.561 187.249 141.362 187.065C141.362 187.065 144.207 189.642 146.701 186.768C146.701 186.768 149.101 188.883 150.775 186.832H150.774Z" fill="black"/>
<path d="M134.908 179.17H134.418C134.418 173.645 138.913 169.149 144.439 169.149V169.639C139.183 169.639 134.908 173.914 134.908 179.17Z" fill="black"/>
<path d="M134.908 179.17H134.418C134.418 173.915 130.142 169.639 124.886 169.639V169.149C130.412 169.149 134.908 173.644 134.908 179.17Z" fill="#263238"/>
<g opacity="0.3">
<path d="M134.908 179.17H134.418C134.418 173.915 130.142 169.639 124.886 169.639V169.149C130.412 169.149 134.908 173.644 134.908 179.17Z" fill="white"/>
</g>
<path d="M134.908 179.17H134.418C134.418 173.645 138.913 169.149 144.439 169.149V169.639C139.183 169.639 134.908 173.914 134.908 179.17Z" fill="#263238"/>
<g opacity="0.3">
<path d="M134.908 179.17H134.418C134.418 173.645 138.913 169.149 144.439 169.149V169.639C139.183 169.639 134.908 173.914 134.908 179.17Z" fill="white"/>
</g>
<path d="M143.74 170.012H149.614C149.614 169.197 148.925 168.552 148.112 168.606L144.267 168.863C143.971 168.883 143.74 169.129 143.74 169.426V170.012H143.74Z" fill="#263238"/>
<path opacity="0.5" d="M143.74 170.012H149.614C149.614 169.197 148.925 168.552 148.112 168.606L144.267 168.863C143.971 168.883 143.74 169.129 143.74 169.426V170.012H143.74Z" fill="white"/>
<path d="M144.312 170.584H149.042C149.358 170.584 149.614 170.328 149.614 170.012H143.74C143.74 170.328 143.997 170.584 144.312 170.584Z" fill="#EA3468"/>
<path d="M125.585 170.012H119.711C119.711 169.197 120.401 168.552 121.214 168.606L125.058 168.863C125.355 168.883 125.586 169.129 125.586 169.426V170.012H125.585Z" fill="#263238"/>
<path opacity="0.5" d="M125.585 170.012H119.711C119.711 169.197 120.401 168.552 121.214 168.606L125.058 168.863C125.355 168.883 125.586 169.129 125.586 169.426V170.012H125.585Z" fill="white"/>
<path d="M125.013 170.584H120.283C119.967 170.584 119.711 170.328 119.711 170.012H125.585C125.585 170.328 125.329 170.584 125.013 170.584Z" fill="#EA3468"/>
<path opacity="0.8" d="M144.312 170.584H149.042C149.358 170.584 149.614 170.328 149.614 170.012H143.74C143.74 170.328 143.997 170.584 144.312 170.584Z" fill="white"/>
<path opacity="0.8" d="M125.013 170.584H120.283C119.967 170.584 119.711 170.328 119.711 170.012H125.585C125.585 170.328 125.329 170.584 125.013 170.584Z" fill="white"/>
<path d="M134.44 178.003H134.887C135.094 178.003 135.262 178.171 135.262 178.378V193.938H134.065V178.378C134.065 178.171 134.233 178.003 134.44 178.003L134.44 178.003Z" fill="#263238"/>
<path d="M60.0485 179.17H59.5583C59.5583 173.645 64.0538 169.149 69.5798 169.149V169.639C64.324 169.639 60.0485 173.914 60.0485 179.17Z" fill="black"/>
<path d="M60.0485 179.17H59.5583C59.5583 173.915 55.2829 169.639 50.027 169.639V169.149C55.553 169.149 60.0485 173.644 60.0485 179.17Z" fill="#263238"/>
<g opacity="0.3">
<path d="M60.0485 179.17H59.5583C59.5583 173.915 55.2829 169.639 50.027 169.639V169.149C55.553 169.149 60.0485 173.644 60.0485 179.17Z" fill="white"/>
</g>
<path d="M60.0485 179.17H59.5583C59.5583 173.645 64.0538 169.149 69.5798 169.149V169.639C64.324 169.639 60.0485 173.914 60.0485 179.17Z" fill="#263238"/>
<g opacity="0.3">
<path d="M60.0485 179.17H59.5583C59.5583 173.645 64.0538 169.149 69.5798 169.149V169.639C64.324 169.639 60.0485 173.914 60.0485 179.17Z" fill="white"/>
</g>
<path d="M68.8809 170.012H74.7549C74.7549 169.197 74.0657 168.552 73.2523 168.606L69.4078 168.863C69.1111 168.883 68.8804 169.129 68.8804 169.426L68.8809 170.012Z" fill="#263238"/>
<path opacity="0.5" d="M68.8809 170.012H74.7549C74.7549 169.197 74.0657 168.552 73.2523 168.606L69.4078 168.863C69.1111 168.883 68.8804 169.129 68.8804 169.426L68.8809 170.012Z" fill="white"/>
<path d="M69.4529 170.584H74.183C74.4989 170.584 74.7549 170.328 74.7549 170.012H68.8809C68.8809 170.328 69.137 170.584 69.4529 170.584Z" fill="#EA3468"/>
<path d="M50.7258 170.012H44.8518C44.8518 169.197 45.5411 168.552 46.3544 168.606L50.199 168.863C50.4957 168.883 50.7264 169.129 50.7264 169.426L50.7258 170.012Z" fill="#263238"/>
<path opacity="0.5" d="M50.7258 170.012H44.8518C44.8518 169.197 45.5411 168.552 46.3544 168.606L50.199 168.863C50.4957 168.883 50.7264 169.129 50.7264 169.426L50.7258 170.012Z" fill="white"/>
<path d="M50.1539 170.584H45.4237C45.1079 170.584 44.8518 170.328 44.8518 170.012H50.7258C50.7258 170.328 50.4697 170.584 50.1539 170.584Z" fill="#EA3468"/>
<path opacity="0.8" d="M69.4529 170.584H74.183C74.4989 170.584 74.7549 170.328 74.7549 170.012H68.8809C68.8809 170.328 69.137 170.584 69.4529 170.584Z" fill="white"/>
<path opacity="0.8" d="M50.1539 170.584H45.4237C45.1079 170.584 44.8518 170.328 44.8518 170.012H50.7258C50.7258 170.328 50.4697 170.584 50.1539 170.584Z" fill="white"/>
<path d="M59.5803 178.003H60.027C60.234 178.003 60.4021 178.171 60.4021 178.378V193.938H59.2057V178.378C59.2057 178.171 59.3738 178.003 59.5808 178.003H59.5803Z" fill="#263238"/>
<path opacity="0.4" d="M86.3197 136.946C57.4314 155.201 61.9335 193.009 65.9353 210.758C69.4995 226.56 89.0709 233.414 97.1996 233.775C224.383 239.331 414.72 236.373 438.919 234.713C439.857 234.713 443.671 233.775 448.36 232.981C464.055 230.168 473.81 213.933 474.185 212.779C481.438 189.545 478.812 157.077 462.304 142.43C461.179 141.419 454.801 138.533 455.114 137.162C455.614 134.709 455.551 131.751 455.489 132.473C455.176 136.73 460.679 101.23 446.735 84.2023C438.106 73.668 424.912 63.783 411.781 59.6703C409.718 59.0209 410.343 57.0728 409.843 53.9702C407.529 38.5295 384.018 16.9558 362.071 16.8836C335.746 16.8836 343.125 24.2432 339.686 21.0685C335.309 16.9558 331.62 11.4 328.118 7.93668C310.36 -9.30786 278.97 -17.0282 258.649 -12.9155C258.649 -12.9155 224.32 -11.4003 201.435 21.5014C200.935 19.4811 188.491 16.7393 181.613 16.5229C162.104 15.8735 144.096 30.5927 137.531 40.4776C133.529 46.4663 131.09 53.7538 130.84 57.0728C130.652 59.8146 126.651 60.7526 125.9 61.1133C114.52 66.597 100.701 69.4109 90.384 89.758C84.5063 101.375 85.0691 118.403 86.007 133.266C86.1321 135.214 87.07 136.441 86.2571 136.946H86.3197Z" fill="#FFF1A7"/>
<path d="M121.923 119.261C98.6062 132.123 102.173 159.374 105.204 171.76C108.236 183.099 123.974 187.72 130.528 188.244C233.38 192.341 387.949 190.292 407.209 188.768C407.699 188.768 411.266 188.244 414.833 187.72C427.494 185.671 435.608 174.333 435.608 173.332C441.671 156.849 439.175 133.696 425.978 123.405C407.938 113.646 420.896 120.309 420.896 119.308C421.386 117.784 421.386 115.211 421.386 116.212C420.896 119.308 425.443 94.1066 414.298 81.7201C407.209 74.0024 396.554 67.3328 385.898 64.2362C384.382 63.7121 384.873 62.1876 384.382 60.1391C382.376 49.3248 363.607 33.8893 345.863 33.8893C324.597 33.8893 330.66 39.0345 327.628 36.986C324.062 33.8893 321.03 30.3163 317.999 27.7438C303.821 15.4049 277.963 9.73575 261.735 12.8324C261.735 12.8324 233.871 13.8805 215.636 37.51C215.146 35.9855 204.981 33.8893 199.408 33.8893C183.715 33.3653 169.003 43.6556 163.43 50.8493C160.398 54.9463 158.347 60.0915 157.857 62.664C157.857 64.7126 154.29 65.2366 153.8 65.7607C144.66 69.8577 133.515 71.9539 124.91 86.3412C120.363 94.583 120.853 106.922 121.343 117.212C136.902 143.509 121.343 117.212 121.834 119.261H121.923Z" fill="#FF90A9" stroke="#FF90A9" stroke-width="5" stroke-miterlimit="10"/>
<path d="M204.972 148.656C223.864 148.656 239.179 133.924 239.179 115.75C239.179 97.5768 223.864 82.8442 204.972 82.8442C186.08 82.8442 170.765 97.5768 170.765 115.75C170.765 133.924 186.08 148.656 204.972 148.656Z" fill="white"/>
<path d="M212.347 132.127C223.404 132.127 232.368 123.163 232.368 112.106C232.368 101.049 223.404 92.0847 212.347 92.0847C201.289 92.0847 192.325 101.049 192.325 112.106C192.325 123.163 201.289 132.127 212.347 132.127Z" fill="#373D54"/>
<path d="M338.148 148.657C357.04 148.657 372.355 133.924 372.355 115.75C372.355 97.5769 357.04 82.8444 338.148 82.8444C319.256 82.8444 303.941 97.5769 303.941 115.75C303.941 133.924 319.256 148.657 338.148 148.657Z" fill="white"/>
<path d="M329.393 132.127C340.45 132.127 349.414 123.163 349.414 112.106C349.414 101.049 340.45 92.0848 329.393 92.0848C318.335 92.0848 309.372 101.049 309.372 112.106C309.372 123.163 318.335 132.127 329.393 132.127Z" fill="#373D54"/>
<path d="M272.41 187.57C287.72 187.57 300.131 175.159 300.131 159.849C300.131 144.539 287.72 132.127 272.41 132.127C257.099 132.127 244.688 144.539 244.688 159.849C244.688 175.159 257.099 187.57 272.41 187.57Z" fill="#E84A89"/>
<path d="M300.204 76.3044L360.314 55.8231" stroke="#EA3468" stroke-width="8" stroke-linecap="round"/>
<path d="M241.365 76.3044L181.255 55.8231" stroke="#EA3468" stroke-width="8" stroke-linecap="round"/>
</g>
<defs>
<clipPath id="clip0_553_3793">
<rect width="400" height="180" fill="white"/>
</clipPath>
</defs>
</svg>
