<svg width="400" height="180" viewBox="0 0 400 180" fill="none" xmlns="http://www.w3.org/2000/svg">
<g clip-path="url(#clip0_553_2993)">
<rect width="400" height="180" fill="#FBD6E1"/>
<path d="M26.3385 -8.90442L-26.464 21.3652V110.909L26.3385 80.6395V-8.90442Z" fill="#EA3468"/>
<path opacity="0.35" d="M26.3385 -8.90442L-26.464 21.3652V110.909L26.3385 80.6395V-8.90442Z" fill="black"/>
<path d="M-24.9617 22.8562L26.3385 -6.37439C28.6652 -3.66368 32.1139 -1.78123 36.6844 -0.727068L-14.2205 28.4357C-14.2205 28.4357 -17.1232 27.758 -24.9617 22.8562Z" fill="#F5F5F5"/>
<path d="M-9.87222 28.2775C-11.2195 28.9621 -12.7094 29.3188 -14.2207 29.3188C-15.7319 29.3188 -17.2218 28.9621 -18.5691 28.2775L-26.193 23.8726C-28.5988 22.4947 -28.5988 20.2471 -26.193 18.8578L24.4409 -10L26.3384 -8.87054L-23.5726 19.7162C-25.0183 20.5407 -25.007 21.8961 -23.5726 22.7206L-16.4796 26.7641C-15.6717 27.1765 -14.7776 27.3916 -13.8705 27.3916C-12.9635 27.3916 -12.0693 27.1765 -11.2615 26.7641L38.627 -1.7775L40.773 -0.535082L-9.87222 28.2775Z" fill="#EA3468"/>
<path opacity="0.25" d="M-9.87222 28.2775C-11.2195 28.9621 -12.7094 29.3188 -14.2207 29.3188C-15.7319 29.3188 -17.2218 28.9621 -18.5691 28.2775L-26.193 23.8726C-28.5988 22.4947 -28.5988 20.2471 -26.193 18.8578L24.4409 -10L26.3384 -8.87054L-23.5726 19.7162C-25.0183 20.5407 -25.007 21.8961 -23.5726 22.7206L-16.4796 26.7641C-15.6717 27.1765 -14.7776 27.3916 -13.8705 27.3916C-12.9635 27.3916 -12.0693 27.1765 -11.2615 26.7641L38.627 -1.7775L40.773 -0.535082L-9.87222 28.2775Z" fill="black"/>
<path d="M40.7618 -0.56897V88.975L-9.87211 117.821C-11.221 118.501 -12.7103 118.855 -14.2206 118.855C-15.7308 118.855 -17.2201 118.501 -18.569 117.821L-26.2042 113.417C-26.6986 113.195 -27.1255 112.846 -27.441 112.406C-27.7565 111.965 -27.9494 111.449 -28 110.909V21.3652C-27.9494 21.9047 -27.7565 22.4211 -27.441 22.8617C-27.1255 23.3022 -26.6986 23.6511 -26.2042 23.8726L-18.569 28.2888C-17.2201 28.9681 -15.7308 29.3219 -14.2206 29.3219C-12.7103 29.3219 -11.221 28.9681 -9.87211 28.2888L40.7618 -0.56897Z" fill="#EA3468"/>
<path opacity="0.05" d="M40.7618 -0.56897V88.975L-9.87211 117.821C-11.221 118.501 -12.7103 118.855 -14.2206 118.855C-15.7308 118.855 -17.2201 118.501 -18.569 117.821L-26.2042 113.417C-26.6986 113.195 -27.1255 112.846 -27.441 112.406C-27.7565 111.965 -27.9494 111.449 -28 110.909V21.3652C-27.9494 21.9047 -27.7565 22.4211 -27.441 22.8617C-27.1255 23.3022 -26.6986 23.6511 -26.2042 23.8726L-18.569 28.2888C-17.2201 28.9681 -15.7308 29.3219 -14.2206 29.3219C-12.7103 29.3219 -11.221 28.9681 -9.87211 28.2888L40.7618 -0.56897Z" fill="black"/>
<path d="M39.1918 11.426L-5.03802 37.1326V121.786L39.1918 96.0906V11.426Z" fill="#EA3468"/>
<path opacity="0.55" d="M39.1918 11.426L-5.03802 37.1326V121.786L39.1918 96.0906V11.426Z" fill="white"/>
<path d="M-3.61484 38.5331L39.1919 13.8204C41.8018 16.6097 45.2312 18.4964 48.9843 19.208L6.53903 43.7964C6.53903 43.7964 3.79445 43.1752 -3.61484 38.5331Z" fill="#F5F5F5"/>
<path d="M10.6503 43.6722C9.37741 44.3225 7.9684 44.6616 6.53901 44.6616C5.10961 44.6616 3.70063 44.3225 2.42777 43.6722L-4.77822 39.5044C-7.03714 38.1943 -7.03714 36.116 -4.77822 34.7607L37.4073 10.3981L39.1918 11.4259L-2.30469 35.54C-2.60237 35.6406 -2.86104 35.832 -3.04424 36.0873C-3.22744 36.3426 -3.32595 36.6489 -3.32595 36.9631C-3.32595 37.2774 -3.22744 37.5837 -3.04424 37.839C-2.86104 38.0943 -2.60237 38.2857 -2.30469 38.3863L4.39303 42.2039C5.15731 42.5936 6.00301 42.7967 6.86091 42.7967C7.71881 42.7967 8.56451 42.5936 9.32878 42.2039L50.8027 18.1463L52.8357 19.2757L10.6503 43.6722Z" fill="#EA3468"/>
<path opacity="0.8" d="M10.6503 43.6722C9.37741 44.3225 7.9684 44.6616 6.53901 44.6616C5.10961 44.6616 3.70063 44.3225 2.42777 43.6722L-4.77822 39.5044C-7.03714 38.1943 -7.03714 36.116 -4.77822 34.7607L37.4073 10.3981L39.1918 11.4259L-2.30469 35.54C-2.60237 35.6406 -2.86104 35.832 -3.04424 36.0873C-3.22744 36.3426 -3.32595 36.6489 -3.32595 36.9631C-3.32595 37.2774 -3.22744 37.5837 -3.04424 37.839C-2.86104 38.0943 -2.60237 38.2857 -2.30469 38.3863L4.39303 42.2039C5.15731 42.5936 6.00301 42.7967 6.86091 42.7967C7.71881 42.7967 8.56451 42.5936 9.32878 42.2039L50.8027 18.1463L52.8357 19.2757L10.6503 43.6722Z" fill="white"/>
<path d="M52.8357 19.3096V103.963L10.6502 128.326C9.37737 128.976 7.96835 129.315 6.53896 129.315C5.10957 129.315 3.70059 128.976 2.42773 128.326L-4.78957 124.158C-5.25811 123.95 -5.66238 123.62 -5.96033 123.203C-6.25828 122.786 -6.43903 122.297 -6.48376 121.786V37.0761C-6.43673 37.5861 -6.25507 38.0744 -5.9574 38.4911C-5.65972 38.9079 -5.25672 39.2381 -4.78957 39.448L2.42773 43.6157C3.70059 44.2661 5.10957 44.6052 6.53896 44.6052C7.96835 44.6052 9.37737 44.2661 10.6502 43.6157L52.8357 19.3096Z" fill="#EA3468"/>
<path opacity="0.7" d="M52.8357 19.3096V103.963L10.6502 128.326C9.37737 128.976 7.96835 129.315 6.53896 129.315C5.10957 129.315 3.70059 128.976 2.42773 128.326L-4.78957 124.158C-5.25811 123.95 -5.66238 123.62 -5.96033 123.203C-6.25828 122.786 -6.43903 122.297 -6.48376 121.786V37.0761C-6.43673 37.5861 -6.25507 38.0744 -5.9574 38.4911C-5.65972 38.9079 -5.25672 39.2381 -4.78957 39.448L2.42773 43.6157C3.70059 44.2661 5.10957 44.6052 6.53896 44.6052C7.96835 44.6052 9.37737 44.2661 10.6502 43.6157L52.8357 19.3096Z" fill="white"/>
<path d="M6.53896 44.6548C5.10709 44.6839 3.69167 44.3456 2.42772 43.6722L-4.78957 39.5044C-5.25672 39.2945 -5.65972 38.9643 -5.9574 38.5476C-6.25507 38.1309 -6.43673 37.6425 -6.48376 37.1326V121.842C-6.43903 122.353 -6.25828 122.842 -5.96033 123.26C-5.66238 123.677 -5.25811 124.006 -4.78957 124.214L2.42772 128.382C3.69167 129.055 5.10709 129.394 6.53896 129.365V44.6548Z" fill="#EA3468"/>
<path opacity="0.55" d="M6.53896 44.6548C5.10709 44.6839 3.69167 44.3456 2.42772 43.6722L-4.78957 39.5044C-5.25672 39.2945 -5.65972 38.9643 -5.9574 38.5476C-6.25507 38.1309 -6.43673 37.6425 -6.48376 37.1326V121.842C-6.43903 122.353 -6.25828 122.842 -5.96033 123.26C-5.66238 123.677 -5.25811 124.006 -4.78957 124.214L2.42772 128.382C3.69167 129.055 5.10709 129.394 6.53896 129.365V44.6548Z" fill="white"/>
<path d="M94.6485 26.4026L95.1229 32.8406L38.1979 63.3813L36.9103 59.6315L94.6485 26.4026Z" fill="#EA3468"/>
<path opacity="0.35" d="M94.6485 26.4026L95.1229 32.8406L38.1979 63.3813L36.9103 59.6315L94.6485 26.4026Z" fill="black"/>
<path d="M37.667 61.1224L92.8075 29.2941L102.397 34.8284L46.1719 67.7184L37.667 61.1224Z" fill="#F5F5F5"/>
<path d="M56.5292 64.3075L63.385 119.38C63.3457 120.089 63.1402 120.778 62.7851 121.392C62.4299 122.006 61.9351 122.528 61.3407 122.915L29.3543 141.427C28.8425 141.706 28.2756 141.868 27.6939 141.902L46.172 69.7741C46.753 69.7456 47.3203 69.5874 47.8323 69.311L50.0912 67.9783L56.5292 64.3075Z" fill="#EA3468"/>
<path opacity="0.35" d="M56.5292 64.3075L63.385 119.38C63.3457 120.089 63.1402 120.778 62.7851 121.392C62.4299 122.006 61.9351 122.528 61.3407 122.915L29.3543 141.427C28.8425 141.706 28.2756 141.868 27.6939 141.902L46.172 69.7741C46.753 69.7456 47.3203 69.5874 47.8323 69.311L50.0912 67.9783L56.5292 64.3075Z" fill="black"/>
<path d="M43.7436 69.3336L38.0398 64.4543L33.8495 60.8626C33.4203 60.1849 32.9233 59.6767 33.1944 59.1119L14.9761 130.63V130.697C14.7051 131.262 14.626 132.527 15.4053 132.956L25.2881 141.416C26.0351 141.816 26.8854 141.981 27.7278 141.89L46.1719 69.7741C45.3367 69.8716 44.4914 69.7182 43.7436 69.3336Z" fill="#EA3468"/>
<path opacity="0.25" d="M43.7436 69.3336L38.0398 64.4543L33.8495 60.8626C33.4203 60.1849 32.9233 59.6767 33.1944 59.1119L14.9761 130.63V130.697C14.7051 131.262 14.626 132.527 15.4053 132.956L25.2881 141.416C26.0351 141.816 26.8854 141.981 27.7278 141.89L46.1719 69.7741C45.3367 69.8716 44.4914 69.7182 43.7436 69.3336Z" fill="black"/>
<path d="M33.8494 58.4795C32.72 59.1346 33.0023 59.8574 33.8494 60.84L43.7436 69.311C44.3771 69.6325 45.0775 69.8 45.7879 69.8C46.4983 69.8 47.1987 69.6325 47.8322 69.311L56.5291 64.2849C57.6586 63.6411 57.8619 62.6924 56.9696 62.1841C56.3848 61.9422 55.7517 61.8397 55.1205 61.8848C54.4892 61.9299 53.8772 62.1213 53.3327 62.4439L46.4656 66.3857C46.2532 66.4912 46.0193 66.5461 45.7822 66.5461C45.5451 66.5461 45.3113 66.4912 45.0989 66.3857L37.8703 60.1059C37.4976 59.8913 37.4976 59.5412 37.8703 59.3153L94.6485 26.3575L91.9265 24.7875L33.8494 58.4795Z" fill="#EA3468"/>
<path opacity="0.15" d="M33.8494 58.4795C32.72 59.1346 33.0023 59.8574 33.8494 60.84L43.7436 69.311C44.3771 69.6325 45.0775 69.8 45.7879 69.8C46.4983 69.8 47.1987 69.6325 47.8322 69.311L56.5291 64.2849C57.6586 63.6411 57.8619 62.6924 56.9696 62.1841C56.3848 61.9422 55.7517 61.8397 55.1205 61.8848C54.4892 61.9299 53.8772 62.1213 53.3327 62.4439L46.4656 66.3857C46.2532 66.4912 46.0193 66.5461 45.7822 66.5461C45.5451 66.5461 45.3113 66.4912 45.0989 66.3857L37.8703 60.1059C37.4976 59.8913 37.4976 59.5412 37.8703 59.3153L94.6485 26.3575L91.9265 24.7875L33.8494 58.4795Z" fill="black"/>
<path d="M105.649 27.374L53.9426 57.4178V156.359L105.649 126.326V27.374Z" fill="#455A64"/>
<path d="M55.6368 59.0554L105.672 30.175C108.247 33.187 112.061 35.284 117.114 36.4662L67.4736 65.2562C67.4736 65.2562 64.2772 64.4769 55.6368 59.0554Z" fill="#F5F5F5"/>
<path d="M72.2851 65.0529C70.7961 65.8098 69.1495 66.2043 67.4792 66.2043C65.8089 66.2043 64.1623 65.8098 62.6733 65.0529L54.2475 60.1962C51.5933 58.6602 51.5933 56.1753 54.2475 54.6393L103.56 26.1655L105.649 27.374L57.1502 55.5541C55.5577 56.469 55.5577 57.9599 57.1502 58.8748L64.9774 63.3926C65.8726 63.8435 66.861 64.0783 67.8632 64.0783C68.8655 64.0783 69.8539 63.8435 70.749 63.3926L119.237 35.2689L121.597 36.6356L72.2851 65.0529Z" fill="#263238"/>
<path d="M121.598 36.5791V135.531L72.2851 163.994C70.7961 164.751 69.1495 165.145 67.4792 165.145C65.8089 165.145 64.1623 164.751 62.6734 163.994L54.2475 159.137C53.6998 158.892 53.2271 158.505 52.8778 158.017C52.5286 157.529 52.3152 156.956 52.2597 156.359V57.4177C52.3172 58.0134 52.5314 58.5833 52.8805 59.0693C53.2297 59.5554 53.7013 59.9403 54.2475 60.1849L62.6734 65.0642C64.1639 65.8158 65.8099 66.2074 67.4792 66.2074C69.1485 66.2074 70.7946 65.8158 72.2851 65.0642L121.598 36.5791Z" fill="#455A64"/>
<path d="M67.4736 66.2163C65.8033 66.2564 64.1505 65.8675 62.6734 65.0868L54.2475 60.2075C53.7013 59.9629 53.2297 59.578 52.8805 59.0919C52.5314 58.6059 52.3172 58.036 52.2597 57.4403V156.381C52.3152 156.979 52.5286 157.551 52.8778 158.039C53.2271 158.528 53.6998 158.914 54.2475 159.16L62.6734 164.017C64.1505 164.797 65.8033 165.186 67.4736 165.146V66.2163Z" fill="#37474F"/>
<path d="M126.793 39.5835L75.0862 69.6272V168.58L126.793 138.536V39.5835Z" fill="#EA3468"/>
<path opacity="0.35" d="M126.793 39.5835L75.0862 69.6272V168.58L126.793 138.536V39.5835Z" fill="black"/>
<path d="M76.7578 71.265L126.793 42.3846C129.368 45.3965 133.182 47.4935 138.235 48.6757L88.6172 77.4432C88.6172 77.4432 85.4095 76.6864 76.7578 71.265Z" fill="#EBEBEB"/>
<path d="M76.7578 71.265L126.793 42.3846C129.368 45.3965 133.182 47.4935 138.235 48.6757L88.6172 77.4432C88.6172 77.4432 85.4095 76.6864 76.7578 71.265Z" fill="#F5F5F5"/>
<path d="M93.4287 77.2625C91.9397 78.0193 90.2931 78.4138 88.6228 78.4138C86.9525 78.4138 85.3059 78.0193 83.817 77.2625L75.3911 72.4057C72.7369 70.8697 72.7369 68.3849 75.3911 66.8488L124.704 38.3863L126.793 39.5835L78.2939 67.8201C76.7013 68.735 76.7013 70.2259 78.2939 71.1407L86.121 75.6586C87.0162 76.1095 88.0046 76.3443 89.0069 76.3443C90.0091 76.3443 90.9975 76.1095 91.8926 75.6586L140.347 47.4333L142.719 48.7999L93.4287 77.2625Z" fill="#EA3468"/>
<path opacity="0.25" d="M93.4287 77.2625C91.9397 78.0193 90.2931 78.4138 88.6228 78.4138C86.9525 78.4138 85.3059 78.0193 83.817 77.2625L75.3911 72.4057C72.7369 70.8697 72.7369 68.3849 75.3911 66.8488L124.704 38.3863L126.793 39.5835L78.2939 67.8201C76.7013 68.735 76.7013 70.2259 78.2939 71.1407L86.121 75.6586C87.0162 76.1095 88.0046 76.3443 89.0069 76.3443C90.0091 76.3443 90.9975 76.1095 91.8926 75.6586L140.347 47.4333L142.719 48.7999L93.4287 77.2625Z" fill="black"/>
<path d="M142.73 48.7886V147.707L93.4286 176.181C91.9381 176.933 90.2921 177.324 88.6228 177.324C86.9535 177.324 85.3074 176.933 83.8169 176.181L75.3911 171.313C74.8433 171.067 74.3707 170.681 74.0214 170.193C73.6721 169.704 73.4588 169.132 73.4033 168.534V69.5934C73.4607 70.1891 73.6749 70.7589 74.0241 71.245C74.3732 71.7311 74.8449 72.116 75.3911 72.3606L83.8169 77.2398C85.3059 77.9967 86.9525 78.3912 88.6228 78.3912C90.293 78.3912 91.9397 77.9967 93.4286 77.2398L142.73 48.7886Z" fill="#EA3468"/>
<path opacity="0.15" d="M88.6171 78.4258C86.9468 78.4659 85.2941 78.0771 83.8169 77.2963L75.3911 72.417C74.8449 72.1724 74.3732 71.7875 74.0241 71.3014C73.6749 70.8154 73.4607 70.2455 73.4033 69.6498V168.591C73.4588 169.189 73.6721 169.761 74.0214 170.249C74.3707 170.737 74.8433 171.124 75.3911 171.369L83.8169 176.237C85.2959 177.013 86.9473 177.402 88.6171 177.367V78.4258Z" fill="black"/>
<path opacity="0.4" d="M86.3197 136.946C57.4314 155.201 61.9335 193.009 65.9353 210.758C69.4995 226.56 89.0709 233.414 97.1996 233.775C224.383 239.331 414.72 236.373 438.919 234.713C439.857 234.713 443.671 233.775 448.36 232.981C464.055 230.168 473.81 213.933 474.185 212.779C481.438 189.545 478.812 157.077 462.304 142.43C461.179 141.419 454.801 138.533 455.114 137.162C455.614 134.709 455.551 131.751 455.489 132.473C455.176 136.73 460.679 101.23 446.735 84.2023C438.106 73.668 424.912 63.783 411.781 59.6703C409.718 59.0209 410.343 57.0728 409.843 53.9702C407.529 38.5295 384.018 16.9558 362.071 16.8836C335.746 16.8836 343.125 24.2432 339.686 21.0685C335.309 16.9558 331.62 11.4 328.118 7.93668C310.36 -9.30786 278.97 -17.0282 258.649 -12.9155C258.649 -12.9155 224.32 -11.4003 201.435 21.5014C200.935 19.4811 188.491 16.7393 181.613 16.5229C162.104 15.8735 144.096 30.5927 137.531 40.4776C133.529 46.4663 131.09 53.7538 130.84 57.0728C130.652 59.8146 126.651 60.7526 125.9 61.1133C114.52 66.597 100.701 69.4109 90.384 89.758C84.5063 101.375 85.0691 118.403 86.007 133.266C86.1321 135.214 87.07 136.441 86.2571 136.946H86.3197Z" fill="#FFF1A7"/>
<path d="M119.923 119.261C96.6062 132.124 100.173 159.374 103.204 171.761C106.236 183.099 121.974 187.72 128.528 188.244C231.381 192.341 385.95 190.293 405.21 188.768C405.7 188.768 409.267 188.244 412.834 187.72C425.495 185.672 433.609 174.333 433.609 173.333C439.673 156.849 437.176 133.696 423.98 123.406C405.939 113.646 418.897 120.309 418.897 119.309C419.387 117.784 419.387 115.212 419.387 116.212C418.897 119.309 423.445 94.1069 412.299 81.7204C405.21 74.0027 394.555 67.333 383.899 64.2364C382.384 63.7123 382.874 62.1878 382.384 60.1393C380.377 49.3249 361.608 33.8894 343.864 33.8894C322.598 33.8894 328.661 39.0346 325.629 36.9861C322.063 33.8894 319.031 30.3164 315.999 27.7438C301.822 15.405 275.964 9.73574 259.736 12.8324C259.736 12.8324 231.871 13.8805 213.637 37.5101C213.146 35.9856 202.981 33.8894 197.408 33.8894C181.715 33.3654 167.003 43.6557 161.43 50.8494C158.398 54.9465 156.347 60.0917 155.857 62.6642C155.857 64.7128 152.29 65.2368 151.8 65.7609C142.66 69.8579 131.515 71.9541 122.91 86.3415C118.363 94.5833 118.853 106.922 119.344 117.213C134.902 143.51 119.344 117.213 119.834 119.261H119.923Z" fill="#FF90A9" stroke="#FF90A9" stroke-width="5" stroke-miterlimit="10"/>
<path d="M188.977 66.2444C188.942 61.5672 200.118 50.0899 215.55 50.6538C230.152 51.1846 241.848 63.3916 240.429 66.7419C239.91 68.0025 238.872 68.5 237.349 68.3342C232.886 67.9361 230.913 63.6902 226.934 60.7048C220.671 55.9944 209.564 55.7291 203.509 59.975C198.354 63.5907 196.381 69.0971 191.537 68.8649C189.323 68.7654 188.977 68.1683 188.977 66.2444Z" fill="#E84A89" stroke="#E84A89" stroke-miterlimit="10"/>
<path d="M291.973 66.2318C291.938 61.5878 303.114 50.0773 318.547 50.6412C333.148 51.172 344.844 63.379 343.425 66.7293C342.906 67.9898 341.868 68.4874 340.346 68.3216C335.882 67.9235 333.91 63.6776 329.931 60.6922C323.668 55.9818 312.561 55.7164 306.505 59.9624C301.35 63.5781 299.377 69.0845 294.533 68.8523C292.319 68.7528 291.973 68.1557 291.973 66.2318Z" fill="#E84A89" stroke="#E84A89" stroke-miterlimit="10"/>
<path d="M202.972 148.657C221.864 148.657 237.179 133.924 237.179 115.751C237.179 97.5771 221.864 82.8445 202.972 82.8445C184.08 82.8445 168.764 97.5771 168.764 115.751C168.764 133.924 184.08 148.657 202.972 148.657Z" fill="white"/>
<path d="M211.533 141.811C225.729 141.811 237.238 130.015 237.238 115.464C237.238 100.912 225.729 89.1157 211.533 89.1157C197.336 89.1157 185.827 100.912 185.827 115.464C185.827 130.015 197.336 141.811 211.533 141.811Z" fill="#373D54"/>
<path d="M336.149 148.657C355.041 148.657 370.356 133.924 370.356 115.751C370.356 97.5771 355.041 82.8445 336.149 82.8445C317.256 82.8445 301.941 97.5771 301.941 115.751C301.941 133.924 317.256 148.657 336.149 148.657Z" fill="white"/>
<path d="M327.206 141.811C341.403 141.811 352.911 130.015 352.911 115.464C352.911 100.912 341.403 89.1157 327.206 89.1157C313.01 89.1157 301.501 100.912 301.501 115.464C301.501 130.015 313.01 141.811 327.206 141.811Z" fill="#373D54"/>
<path d="M301.62 146.209C301.62 163.869 287.201 190.527 269.429 190.527C251.657 190.527 237.238 163.869 237.238 146.209C237.238 128.549 251.657 144.812 269.429 144.812C287.201 144.812 301.62 128.493 301.62 146.209Z" fill="#E84A89"/>
</g>
<defs>
<clipPath id="clip0_553_2993">
<rect width="400" height="180" fill="white"/>
</clipPath>
</defs>
</svg>
